<svg width="96" height="73" viewBox="0 0 96 73" fill="none" xmlns="http://www.w3.org/2000/svg">
<path d="M7.1294 49.9395L5.45614 49.027C3.32652 47.8102 2.26172 45.985 2.26172 44.312V29.1024C2.26172 26.9731 3.78287 24.8437 6.67306 23.1707L38.313 4.91919C43.6371 1.87727 51.8513 1.42099 56.5669 4.15871L91.097 24.0833C93.3787 25.4521 94.4436 27.1252 94.2914 29.1024V43.7036C94.4436 45.8329 92.9224 48.2665 89.8801 50.0916L58.2401 68.3431C52.9161 71.385 44.7019 71.8413 39.9863 69.1036L11.9971 52.9814L7.1294 49.9395Z" fill="#031826"/>
<path d="M7.1294 49.9395L5.45614 49.027C3.32652 47.8102 2.26172 45.985 2.26172 44.312V29.1024C2.26172 26.9731 3.78287 24.8437 6.67306 23.1707L38.313 4.91919C43.6371 1.87727 51.8513 1.42099 56.5669 4.15871L91.097 24.0833C93.3787 25.4521 94.4436 27.1252 94.2914 29.1024V43.7036C94.4436 45.8329 92.9224 48.2665 89.8801 50.0916L58.2401 68.3431C52.9161 71.385 44.7019 71.8413 39.9863 69.1036L11.9971 52.9814L7.1294 49.9395Z" fill="url(#paint0_linear)"/>
<path d="M7.1294 49.9395L5.45614 49.027C3.32652 47.8102 2.26172 45.985 2.26172 44.312V29.1024C2.26172 26.9731 3.78287 24.8437 6.67306 23.1707L38.313 4.91919C43.6371 1.87727 51.8513 1.42099 56.5669 4.15871L91.097 24.0833C93.3787 25.4521 94.4436 27.1252 94.2914 29.1024V43.7036C94.4436 45.8329 92.9224 48.2665 89.8801 50.0916L58.2401 68.3431C52.9161 71.385 44.7019 71.8413 39.9863 69.1036L11.9971 52.9814L7.1294 49.9395Z" stroke="white" stroke-width="2.81247" stroke-miterlimit="10"/>
<path d="M58.847 52.5252L58.2385 52.8293C52.9145 55.8713 44.7003 56.3275 39.9847 53.5898L5.45455 33.6653C0.738973 30.9276 1.34744 26.2126 6.82359 23.1707L38.4636 4.91919C43.7876 1.87727 52.0018 1.42099 56.7174 4.15871L91.2476 24.0833C95.9631 26.821 95.3547 31.5359 89.8785 34.5779L68.2781 47.0497L58.847 52.5252Z" fill="#031826"/>
<path d="M58.847 52.5252L58.2385 52.8293C52.9145 55.8713 44.7003 56.3275 39.9847 53.5898L5.45455 33.6653C0.738973 30.9276 1.34744 26.2126 6.82359 23.1707L38.4636 4.91919C43.7876 1.87727 52.0018 1.42099 56.7174 4.15871L91.2476 24.0833C95.9631 26.821 95.3547 31.5359 89.8785 34.5779L68.2781 47.0497L58.847 52.5252Z" fill="url(#paint1_linear)"/>
<path d="M58.847 52.5252L58.2385 52.8293C52.9145 55.8713 44.7003 56.3275 39.9847 53.5898L5.45455 33.6653C0.738973 30.9276 1.34744 26.2126 6.82359 23.1707L38.4636 4.91919C43.7876 1.87727 52.0018 1.42099 56.7174 4.15871L91.2476 24.0833C95.9631 26.821 95.3547 31.5359 89.8785 34.5779L68.2781 47.0497L58.847 52.5252Z" stroke="white" stroke-width="2.81247" stroke-miterlimit="10"/>
<path d="M37.417 17.5214L60.7412 19.7827L63.5157 33.2894M39.4635 21.2545L27.3242 28.1572L34.6869 32.4171L42.35 28.1572C43.2349 27.7393 43.7842 27.6502 44.838 27.6899C45.9481 27.7458 46.4736 27.8194 47.1995 28.1572C47.9698 28.54 48.4531 29.3866 48.4965 30.2662C48.5412 31.1734 47.5752 31.9844 47.105 32.2428L40.7729 35.774L47.6333 39.9452L58.8321 32.9525" stroke="white" stroke-width="2.5" stroke-linecap="round" stroke-linejoin="round"/>
<defs>
<linearGradient id="paint0_linear" x1="124.195" y1="29.9325" x2="16.9011" y2="34.8376" gradientUnits="userSpaceOnUse">
<stop stop-color="#4392F1"/>
<stop offset="1" stop-color="#56CBF9"/>
</linearGradient>
<linearGradient id="paint1_linear" x1="124.341" y1="23.6912" x2="17.0866" y2="30.035" gradientUnits="userSpaceOnUse">
<stop stop-color="#4392F1"/>
<stop offset="1" stop-color="#56CBF9"/>
</linearGradient>
</defs>
</svg>
