<svg width="37" height="26" viewBox="0 0 37 26" fill="none" xmlns="http://www.w3.org/2000/svg">
<path d="M35.7495 7.58008H34.3934H30.4956H24.2391C22.553 7.58008 21.1875 8.94556 21.1875 10.6317V14.6546C21.1875 16.3407 22.553 17.7062 24.2391 17.7062H30.4956H33.8006H35.7495C36.3126 17.7062 36.7677 17.2511 36.7677 16.6895V8.59676C36.7677 8.03524 36.3126 7.58008 35.7495 7.58008ZM29.6854 14.1103C29.6854 14.542 29.335 14.8924 28.9064 14.8924H24.9821C24.5504 14.8924 24.2 14.542 24.2 14.1103V11.1791C24.2 10.7474 24.5504 10.3971 24.9821 10.3971H28.9064C29.335 10.3971 29.6854 10.7474 29.6854 11.1791V14.1103Z" fill="#4392F1"/>
<path d="M19.3835 15.3208V9.96523C19.3835 7.72228 21.201 5.90477 23.4471 5.90477H35.4126V3.23168C35.4126 1.54868 34.0471 0.181641 32.361 0.181641H18.0368H3.71254C2.02641 0.181641 0.664062 1.54868 0.664062 3.23168V22.0528C0.664062 23.7373 2.02641 25.1028 3.71254 25.1028H18.0368H32.361C34.0471 25.1028 35.4126 23.7373 35.4126 22.0528V19.3813H23.4471C21.201 19.3828 19.3835 17.5637 19.3835 15.3208Z" fill="#4392F1"/>
</svg>
