<svg width="311" height="210" viewBox="0 0 311 210" fill="none" xmlns="http://www.w3.org/2000/svg">
<path d="M293.724 86.6226L272.699 99.1373L293.724 86.6226V85.1209V81.6168C293.724 81.6168 299.731 78.1127 303.736 79.6144L171.08 3.02461C170.079 2.52402 168.577 2.02344 167.075 2.02344C165.073 2.02344 162.57 2.52402 160.568 4.02579L9.39044 91.6285C6.88751 93.1303 4.88516 94.632 3.88399 96.6344C3.3834 97.6356 2.88281 98.6367 2.88281 100.138V105.645C2.88281 108.148 4.38457 110.15 7.3881 111.652L16.8993 117.158L9.39044 121.664C6.88751 123.165 4.88516 124.667 3.88399 126.67C3.3834 127.671 2.88281 128.672 2.88281 130.174C2.88281 132.677 4.38457 134.679 7.3881 136.681L117.017 200.256C123.524 203.76 135.038 203.76 142.547 199.255L292.222 112.653C292.723 112.653 293.223 112.153 293.724 112.153C299.731 108.648 304.737 100.639 304.737 93.6309C304.737 86.1221 299.731 83.1185 293.724 86.6226Z" fill="#0A2032"/>
<path d="M293.724 86.6226L272.699 99.1373L293.724 86.6226V85.1209V81.6168C293.724 81.6168 299.731 78.1127 303.736 79.6144L171.08 3.02461C170.079 2.52402 168.577 2.02344 167.075 2.02344C165.073 2.02344 162.57 2.52402 160.568 4.02579L9.39044 91.6285C6.88751 93.1303 4.88516 94.632 3.88399 96.6344C3.3834 97.6356 2.88281 98.6367 2.88281 100.138V105.645C2.88281 108.148 4.38457 110.15 7.3881 111.652L16.8993 117.158L9.39044 121.664C6.88751 123.165 4.88516 124.667 3.88399 126.67C3.3834 127.671 2.88281 128.672 2.88281 130.174C2.88281 132.677 4.38457 134.679 7.3881 136.681L117.017 200.256C123.524 203.76 135.038 203.76 142.547 199.255L292.222 112.653C292.723 112.653 293.223 112.153 293.724 112.153C299.731 108.648 304.737 100.639 304.737 93.6309C304.737 86.1221 299.731 83.1185 293.724 86.6226Z" fill="url(#paint0_linear)"/>
<path d="M128.536 204.267C124.031 204.267 119.526 203.266 116.522 201.263L6.39318 137.689C2.88907 135.686 0.886719 132.683 0.886719 129.679C0.886719 128.178 1.38731 126.676 1.88789 125.174C2.88907 123.172 4.89141 121.169 7.89494 119.167L12.4002 116.664L6.39318 113.16C3.89024 111.658 1.88789 109.656 1.38731 107.153H0.886719V105.151V97.1412H1.38731C1.38731 96.6406 1.88789 95.6395 2.38848 95.1389C3.38965 92.6359 5.392 90.6336 8.39552 89.1318L160.574 1.5291C164.579 -0.473243 169.084 -0.473243 172.087 1.5291L304.743 78.1189L302.741 82.1236C300.738 81.1224 297.735 82.1236 295.732 83.1248V83.6254C298.235 83.1248 300.238 83.1248 302.24 84.126C304.743 85.6277 306.245 88.6312 306.245 93.1365C306.245 100.645 301.239 109.656 294.231 113.661C293.73 113.661 293.23 114.161 292.729 114.662L144.055 200.262C139.549 202.765 133.542 204.267 128.536 204.267ZM17.9067 119.167L10.3979 123.172C8.39552 124.674 6.89376 125.675 5.89259 127.176C5.392 128.178 5.392 128.678 5.392 129.679C5.392 131.682 7.39435 133.183 8.89611 134.185L118.525 197.759C124.532 201.263 135.044 200.763 141.552 196.758L291.728 110.156C291.728 110.156 292.228 110.156 292.228 109.656C297.234 106.652 301.74 99.1436 301.74 93.1365C301.74 90.6336 301.239 89.1318 299.737 88.1307C298.235 87.6301 296.233 87.6301 294.231 88.6312L271.704 101.646L267.7 99.1436L270.703 97.1412L290.727 85.6277V81.1224L291.728 80.1213C292.228 80.1213 293.23 79.1201 295.232 78.6195L170.085 5.03321C168.083 4.03204 164.579 4.03204 161.575 6.03439L160.073 7.03556L10.3979 93.1365C8.39552 94.6383 6.89376 95.6395 5.89259 97.1412C5.392 98.1424 5.392 98.643 5.392 99.6441V102.147V104.149V105.151C5.392 107.153 7.39435 108.655 8.39552 109.656L16.9055 114.662L17.9067 115.162L21.4108 117.165L17.9067 119.167Z" fill="white"/>
<path d="M308.741 88.1244C308.741 87.6238 308.741 87.6238 308.741 87.1232C308.741 86.6227 308.741 86.1221 308.741 86.1221V85.6215C308.741 85.1209 308.741 84.6203 308.241 84.6203V84.1197C308.241 83.6191 307.74 83.1185 307.74 83.1185C307.24 82.1174 306.239 81.1162 305.237 80.6156L171.08 3.02461C170.079 2.52402 168.577 2.02344 167.075 2.02344C165.073 2.02344 162.57 2.52402 160.568 4.02579L9.39044 91.6285C7.3881 92.6297 5.88633 94.1315 4.88516 95.6332C4.38457 96.1338 4.38457 96.1338 4.38457 96.6344C3.88399 97.6356 3.3834 98.6367 3.3834 100.139V105.645C3.3834 108.148 4.88516 110.15 7.88868 111.652L17.3998 117.158L118.018 175.227C124.525 178.731 136.039 178.731 143.548 174.225L270.196 101.14L273.7 99.1373L294.725 86.6227C297.228 85.1209 299.731 84.6203 301.733 85.6215C301.733 85.6215 301.733 85.6215 302.234 85.6215C304.236 86.6227 305.738 89.1256 305.738 92.6297C305.738 99.6379 300.732 107.647 295.226 111.151L293.724 112.153L283.712 117.659L142.547 198.254C135.038 202.759 123.524 203.259 117.017 199.255L7.3881 136.181C4.38457 134.679 2.88281 132.176 2.88281 129.673V135.18C2.88281 137.683 4.38457 139.685 7.3881 141.187L117.017 204.761C123.524 208.265 135.038 208.265 142.547 203.76L293.724 116.658C302.234 111.652 308.741 100.139 308.741 90.1268C309.242 89.6262 309.242 88.625 308.741 88.1244Z" fill="#0A2032"/>
<path d="M308.741 88.1244C308.741 87.6238 308.741 87.6238 308.741 87.1232C308.741 86.6227 308.741 86.1221 308.741 86.1221V85.6215C308.741 85.1209 308.741 84.6203 308.241 84.6203V84.1197C308.241 83.6191 307.74 83.1185 307.74 83.1185C307.24 82.1174 306.239 81.1162 305.237 80.6156L171.08 3.02461C170.079 2.52402 168.577 2.02344 167.075 2.02344C165.073 2.02344 162.57 2.52402 160.568 4.02579L9.39044 91.6285C7.3881 92.6297 5.88633 94.1315 4.88516 95.6332C4.38457 96.1338 4.38457 96.1338 4.38457 96.6344C3.88399 97.6356 3.3834 98.6367 3.3834 100.139V105.645C3.3834 108.148 4.88516 110.15 7.88868 111.652L17.3998 117.158L118.018 175.227C124.525 178.731 136.039 178.731 143.548 174.225L270.196 101.14L273.7 99.1373L294.725 86.6227C297.228 85.1209 299.731 84.6203 301.733 85.6215C301.733 85.6215 301.733 85.6215 302.234 85.6215C304.236 86.6227 305.738 89.1256 305.738 92.6297C305.738 99.6379 300.732 107.647 295.226 111.151L293.724 112.153L283.712 117.659L142.547 198.254C135.038 202.759 123.524 203.259 117.017 199.255L7.3881 136.181C4.38457 134.679 2.88281 132.176 2.88281 129.673V135.18C2.88281 137.683 4.38457 139.685 7.3881 141.187L117.017 204.761C123.524 208.265 135.038 208.265 142.547 203.76L293.724 116.658C302.234 111.652 308.741 100.139 308.741 90.1268C309.242 89.6262 309.242 88.625 308.741 88.1244Z" fill="url(#paint1_linear)"/>
<path d="M128.536 209.773C124.031 209.773 119.526 208.772 116.522 206.77L6.39318 143.195C3.89024 141.693 1.88789 139.691 1.38731 137.188H0.886719V135.186V127.176H5.392V129.179C5.392 131.181 7.39435 132.683 8.89611 133.684L118.525 197.259C124.532 200.763 135.044 200.262 141.552 196.257L293.73 108.154C298.235 104.65 302.24 97.6418 302.24 92.1354C302.24 90.6336 301.74 88.1307 300.238 87.1295H299.737C298.736 86.6289 296.734 87.1295 294.731 88.1307L270.203 102.648L144.055 175.733C136.045 180.739 123.531 181.24 116.522 176.735L6.39318 113.661C3.89024 112.159 1.88789 110.156 1.38731 107.654H0.886719V105.651V97.6418H1.38731C1.38731 96.6406 1.88789 96.1401 2.38848 95.1389C2.38848 94.6383 2.88907 94.1377 3.38965 93.6371C4.39083 92.1354 6.39318 90.6336 8.89611 89.1318L160.574 1.5291C164.579 -0.473243 169.084 -0.473243 172.087 1.5291L305.744 78.6195L308.247 80.1213C308.748 80.6219 309.248 81.1224 309.248 81.623C309.749 82.1236 309.749 82.6242 309.749 83.1248V83.6254C309.749 84.126 310.249 84.6266 310.249 84.6266V85.1271C310.249 85.6277 310.249 86.1283 310.249 86.1283C310.249 86.6289 310.249 86.6289 310.249 87.1295C310.249 87.6301 310.249 88.6312 310.249 89.1318C310.249 99.6442 303.241 112.159 294.231 117.165H293.73L144.055 205.769C139.549 208.272 133.542 209.773 128.536 209.773ZM6.89376 138.189C7.39435 138.69 7.89494 139.191 8.89611 139.691L118.525 203.266C124.532 206.77 135.044 206.269 141.552 202.265L292.228 115.162H292.729C293.23 114.662 294.231 114.161 294.731 113.661L291.728 115.162L283.718 119.668L144.055 200.262C136.045 205.268 123.531 205.769 116.522 201.263L6.89376 138.189ZM5.392 104.149V105.151C5.392 107.153 7.39435 108.655 8.39552 109.656L118.024 173.23C124.031 176.735 134.543 176.234 141.051 172.229L271.204 97.1412L291.728 85.1271C294.731 83.1248 297.735 83.1248 300.238 84.126C300.738 84.126 300.738 84.126 301.239 84.6266C303.742 86.1283 305.744 89.1318 305.744 93.1365C305.744 92.6359 305.744 91.6348 305.744 91.1342C305.744 90.6336 305.744 90.133 305.744 89.6324V89.1318V88.6312C305.744 88.1307 305.744 88.1307 305.744 87.6301V87.1295V86.6289V86.1283C305.744 85.6277 305.244 85.6277 305.244 85.1271C304.743 84.6266 304.242 83.6254 303.241 83.6254L301.74 82.6242L170.085 5.03321C168.083 4.03204 164.579 4.03204 161.575 6.03439L160.073 7.03556L10.3979 93.1365C8.39552 94.1377 7.39435 95.1389 6.39318 96.6406C6.39318 97.1412 5.89259 97.1412 5.89259 97.6418C5.392 98.643 5.392 99.1436 5.392 100.145V102.648V104.149Z" fill="white"/>
<path d="M268.699 124.185L143.052 172.742C138.046 174.744 130.537 173.243 125.531 169.238L67.4634 122.183C62.9581 118.178 62.9581 113.673 67.964 111.67L193.611 63.1135C198.617 61.1112 206.126 62.6129 211.132 66.6176L269.2 113.673C273.705 117.678 273.705 122.183 268.699 124.185Z" fill="#0A2032"/>
<path d="M268.699 124.185L143.052 172.742C138.046 174.744 130.537 173.243 125.531 169.238L67.4634 122.183C62.9581 118.178 62.9581 113.673 67.964 111.67L193.611 63.1135C198.617 61.1112 206.126 62.6129 211.132 66.6176L269.2 113.673C273.705 117.678 273.705 122.183 268.699 124.185Z" fill="url(#paint2_linear)"/>
<path d="M138.043 175.739C133.038 175.739 128.032 174.237 124.027 170.733L65.9589 123.678C62.9554 121.175 61.4536 118.171 61.9542 115.168C62.4548 112.665 63.9566 110.663 66.9601 109.662L192.607 61.1046C198.114 59.1022 206.624 60.604 212.13 65.1093L270.198 112.164C273.202 114.667 274.704 117.671 274.203 120.674C273.703 123.177 272.201 125.18 269.197 126.181L143.55 174.738C142.048 175.238 140.046 175.739 138.043 175.739ZM198.614 64.6087C197.113 64.6087 195.611 64.6087 194.61 65.1093L68.9625 113.666C67.9613 114.167 66.9601 114.667 66.4595 115.669C66.4595 116.67 67.4607 118.672 68.9625 120.174L127.031 167.229C131.035 170.733 138.043 171.734 142.048 170.233L267.695 121.676C268.697 121.175 269.698 120.674 270.198 119.673C270.198 118.672 269.197 116.67 267.695 115.168L209.627 68.1128C207.124 66.1104 202.619 64.6087 198.614 64.6087Z" fill="white"/>
<path d="M293.727 82.5643C297.732 80.5262 301.236 80.0166 303.739 81.0357L171.083 3.07765C170.082 2.56812 168.58 2.05859 167.079 2.05859C165.076 2.05859 162.573 2.56812 160.571 4.09671L9.39376 93.2644C8.89318 93.7739 8.39259 93.7739 7.892 94.2835C7.39141 94.2835 7.39142 94.793 6.89083 94.793C6.39024 95.3025 6.39024 95.3025 5.88965 95.8121C5.38907 96.3216 5.38907 96.3216 4.88848 96.8311C4.38789 97.3407 4.38789 97.3407 4.38789 97.8502C4.38789 98.3597 3.88731 98.3597 3.88731 98.8692C3.88731 99.3788 3.88731 99.3788 3.38672 99.8883C3.38672 100.398 3.38672 100.398 3.38672 100.907V101.417V101.926C3.38672 102.436 3.38672 102.436 3.38672 102.945C3.38672 103.455 3.38672 103.455 3.88731 103.965C3.88731 104.474 3.88731 104.474 4.38789 104.984C4.38789 105.493 4.88848 105.493 5.38907 106.003L5.88965 106.512C5.88965 107.022 6.89083 107.531 7.39141 108.041L56.4489 136.574L117.521 172.242C118.021 172.751 118.522 172.751 119.523 173.261C126.031 176.318 136.042 175.299 143.05 171.222L265.194 99.3788L293.727 82.5643Z" fill="#0A2032"/>
<path d="M293.727 82.5643C297.732 80.5262 301.236 80.0166 303.739 81.0357L171.083 3.07765C170.082 2.56812 168.58 2.05859 167.079 2.05859C165.076 2.05859 162.573 2.56812 160.571 4.09671L9.39376 93.2644C8.89318 93.7739 8.39259 93.7739 7.892 94.2835C7.39141 94.2835 7.39142 94.793 6.89083 94.793C6.39024 95.3025 6.39024 95.3025 5.88965 95.8121C5.38907 96.3216 5.38907 96.3216 4.88848 96.8311C4.38789 97.3407 4.38789 97.3407 4.38789 97.8502C4.38789 98.3597 3.88731 98.3597 3.88731 98.8692C3.88731 99.3788 3.88731 99.3788 3.38672 99.8883C3.38672 100.398 3.38672 100.398 3.38672 100.907V101.417V101.926C3.38672 102.436 3.38672 102.436 3.38672 102.945C3.38672 103.455 3.38672 103.455 3.88731 103.965C3.88731 104.474 3.88731 104.474 4.38789 104.984C4.38789 105.493 4.88848 105.493 5.38907 106.003L5.88965 106.512C5.88965 107.022 6.89083 107.531 7.39141 108.041L56.4489 136.574L117.521 172.242C118.021 172.751 118.522 172.751 119.523 173.261C126.031 176.318 136.042 175.299 143.05 171.222L265.194 99.3788L293.727 82.5643Z" fill="url(#paint3_linear)"/>
<path d="M128.536 177.344C125.032 177.344 121.528 176.834 118.525 175.306C118.024 175.306 117.023 174.796 116.522 174.286L5.89259 109.576C5.392 109.067 4.39083 108.557 3.89024 108.048L3.38965 107.538C2.88907 107.029 2.88907 106.519 2.38848 106.01C2.38848 105.5 1.88789 105.5 1.88789 104.99C1.88789 104.99 1.38731 104.481 1.38731 103.971C1.38731 103.462 1.38731 102.952 0.886719 102.443V101.933V101.424V100.914C0.886719 100.405 0.886719 100.405 0.886719 99.8952C0.886719 99.3856 0.886719 99.3856 1.38731 98.8761V98.3666C1.38731 98.3666 1.38731 97.857 1.88789 97.857C2.38848 97.3475 2.38848 96.838 2.88907 96.3284L3.38965 95.8189C3.89024 95.3094 3.89024 94.7999 4.39083 94.7999L4.89142 94.2903C5.392 93.7808 5.392 93.7808 5.89259 93.2713C5.89259 93.2713 6.39318 92.7617 6.89376 92.7617H7.39435C6.89376 91.7427 7.39435 91.7427 8.39552 91.2331L160.574 1.55593C164.579 -0.482186 169.084 -0.482186 172.087 1.55593L304.743 79.514L302.741 83.5902C300.738 82.5711 297.735 83.0807 294.731 85.1188L144.055 173.267C139.549 175.815 134.043 177.344 128.536 177.344ZM8.89611 106.01L118.525 170.21C119.025 170.21 119.526 170.72 120.026 170.72C126.033 173.267 135.545 172.758 141.552 169.191L292.729 80.533C293.73 80.0235 295.232 79.514 296.233 79.0044L170.085 5.12264C168.083 4.10358 164.579 4.10358 161.575 6.1417L160.073 7.16076L10.3979 94.7999C9.89728 94.7999 9.89729 95.3094 9.3967 95.3094L8.89611 95.8189C8.89611 95.8189 8.39552 95.8189 8.39552 96.3284L7.89494 96.838C7.89494 96.838 7.89494 97.3475 7.39435 97.3475C6.89376 97.857 6.89376 97.857 6.39318 98.3666C6.39318 98.3666 6.39318 98.8761 5.89259 98.8761V99.3856V99.8952C5.89259 100.405 5.89259 100.405 5.89259 100.914C5.89259 100.914 5.89259 100.914 5.89259 101.424V101.933V102.443V102.952V103.462V103.971V104.481L6.39318 104.99C6.39318 104.99 6.39318 104.99 6.89376 105.5C7.39435 105.5 7.89494 105.5 8.89611 106.01Z" fill="white"/>
<path d="M96.9978 131.686C72.4692 137.693 50.4435 153.712 50.4435 164.725C50.4435 165.225 49.9429 166.226 50.4435 166.727L31.9219 156.715C28.9184 154.713 28.4178 154.212 26.9161 153.712H25.9149C12.8997 144.701 39.4307 114.666 61.4564 111.663C65.461 111.162 71.468 109.66 75.9733 112.163L95.4961 123.677C100.001 125.679 101.003 130.685 96.9978 131.686Z" fill="#0A2032"/>
<path d="M96.9978 131.686C72.4692 137.693 50.4435 153.712 50.4435 164.725C50.4435 165.225 49.9429 166.226 50.4435 166.727L31.9219 156.715C28.9184 154.713 28.4178 154.212 26.9161 153.712H25.9149C12.8997 144.701 39.4307 114.666 61.4564 111.663C65.461 111.162 71.468 109.66 75.9733 112.163L95.4961 123.677C100.001 125.679 101.003 130.685 96.9978 131.686Z" fill="url(#paint4_linear)"/>
<path d="M52.9524 171.229L30.4261 159.215C28.4237 158.214 27.4226 157.213 26.922 156.712C26.4214 156.212 25.9208 156.212 25.4202 155.711L24.9197 155.211C20.915 152.708 19.4132 148.203 20.915 143.197C23.9185 130.182 43.4413 111.66 61.4623 109.157H62.964C66.9687 108.656 72.9757 107.655 77.481 110.158L97.0038 121.672C100.007 123.674 102.01 126.677 102.01 129.681C101.509 131.683 100.007 133.686 98.0049 134.186C77.9816 139.192 52.9524 154.21 52.9524 165.222C52.9524 165.222 52.9524 165.723 52.9524 166.224V166.724V171.229ZM69.4716 112.661C67.4693 112.661 64.9664 113.162 63.4646 113.162H61.9629C45.9442 115.665 27.4226 132.684 24.9197 143.697C23.9185 147.201 24.9197 149.704 26.922 151.206L27.4226 151.707C27.9232 152.207 28.4237 152.207 28.9243 152.708C29.4249 153.208 30.4261 153.709 31.9278 154.71L47.4459 163.22C49.4483 150.705 70.9734 135.187 96.0026 129.18C97.0038 129.18 97.0038 128.68 97.0038 128.68C97.0038 127.679 96.5032 126.177 94.5008 125.176L74.9781 113.662C73.4763 113.162 71.474 112.661 69.4716 112.661Z" fill="white"/>
<path d="M81.4738 120.664C81.4738 119.162 80.4726 117.66 78.4702 116.158C74.4656 113.656 67.4574 113.656 63.4527 116.158C61.4504 117.16 60.4492 118.661 60.4492 120.163V122.165C60.4492 123.667 61.4504 125.169 63.4527 126.17C67.4574 128.673 74.4656 128.673 78.4702 126.17C80.4726 125.169 81.4738 123.667 81.4738 121.665V120.664Z" fill="#0A2032"/>
<path d="M70.9644 130.673C67.9609 130.673 64.9574 130.173 62.4545 128.671C59.9516 127.169 57.9492 124.666 57.9492 122.664V120.662C57.9492 118.159 59.451 116.156 61.9539 114.655C66.9597 112.152 74.4685 112.152 78.9738 114.655C81.9773 116.156 83.479 118.659 83.479 121.162V123.164C83.479 125.667 81.9773 127.67 79.4743 129.171C76.9714 130.173 73.9679 130.673 70.9644 130.673ZM70.4638 116.657C67.9609 116.657 65.9586 117.157 63.9562 118.159C62.9551 118.659 61.9539 119.66 61.9539 120.662V122.664C61.9539 123.164 62.9551 124.166 63.9562 125.167C67.4603 127.169 73.4673 127.169 76.9714 125.167C78.4732 124.666 78.9738 123.665 78.9738 122.664V120.662C78.9738 119.66 78.4732 119.16 76.9714 118.159C75.4697 117.157 72.9667 116.657 70.4638 116.657Z" fill="white"/>
<path d="M81.0392 120.564C81.0559 117.246 76.363 114.533 70.5572 114.504C64.7515 114.475 60.0314 117.14 60.0147 120.458C59.9979 123.775 64.6909 126.489 70.4966 126.518C76.3024 126.547 81.0225 123.881 81.0392 120.564Z" fill="#0A2032"/>
<path d="M81.0392 120.564C81.0559 117.246 76.363 114.533 70.5572 114.504C64.7515 114.475 60.0314 117.14 60.0147 120.458C59.9979 123.775 64.6909 126.489 70.4966 126.518C76.3024 126.547 81.0225 123.881 81.0392 120.564Z" fill="url(#paint5_linear)"/>
<path d="M70.9644 128.671C67.9609 128.671 64.9574 128.17 62.4545 126.669C59.451 125.167 57.9492 123.164 57.9492 120.662C57.9492 118.159 59.451 116.156 61.9539 114.655C66.9597 112.152 74.4685 112.152 78.9738 114.655C81.9773 116.156 83.479 118.159 83.479 120.662C83.479 123.164 81.9773 125.167 79.4743 126.669C76.9714 127.67 73.9679 128.671 70.9644 128.671ZM70.4638 116.657C67.9609 116.657 65.9586 117.157 63.9562 118.159C62.9551 118.659 61.9539 119.66 61.9539 120.662C61.9539 121.162 62.9551 122.163 63.9562 123.164C67.4603 125.167 73.4673 125.167 76.9714 123.164C77.9726 122.664 78.9738 121.663 78.9738 120.662C78.9738 120.161 77.9726 119.16 76.9714 118.159C75.4697 117.157 72.9667 116.657 70.4638 116.657Z" fill="white"/>
<defs>
<linearGradient id="paint0_linear" x1="402.757" y1="82.7849" x2="51.0787" y2="100.794" gradientUnits="userSpaceOnUse">
<stop stop-color="#4392F1"/>
<stop offset="1" stop-color="#56CBF9"/>
</linearGradient>
<linearGradient id="paint1_linear" x1="408.56" y1="84.5974" x2="51.7637" y2="102.727" gradientUnits="userSpaceOnUse">
<stop stop-color="#4392F1"/>
<stop offset="1" stop-color="#56CBF9"/>
</linearGradient>
<linearGradient id="paint2_linear" x1="340.184" y1="107.045" x2="97.7621" y2="122.489" gradientUnits="userSpaceOnUse">
<stop stop-color="#4392F1"/>
<stop offset="1" stop-color="#56CBF9"/>
</linearGradient>
<linearGradient id="paint3_linear" x1="401.272" y1="71.6491" x2="51.6478" y2="92.3234" gradientUnits="userSpaceOnUse">
<stop stop-color="#4392F1"/>
<stop offset="1" stop-color="#56CBF9"/>
</linearGradient>
<linearGradient id="paint4_linear" x1="124.522" y1="133.274" x2="34.7343" y2="137.483" gradientUnits="userSpaceOnUse">
<stop stop-color="#4392F1"/>
<stop offset="1" stop-color="#56CBF9"/>
</linearGradient>
<linearGradient id="paint5_linear" x1="68.5229" y1="110.592" x2="68.7252" y2="124.622" gradientUnits="userSpaceOnUse">
<stop stop-color="#4392F1"/>
<stop offset="1" stop-color="#56CBF9"/>
</linearGradient>
</defs>
</svg>
