<svg width="96" height="72" viewBox="0 0 96 72" fill="none" xmlns="http://www.w3.org/2000/svg">
<path d="M6.40284 49.2403L4.72957 48.3277C2.59996 47.111 1.53516 45.2858 1.53516 43.6128V28.4032C1.53516 26.2739 3.05631 24.1445 5.9465 22.4715L37.5865 4.21997C42.9105 1.17805 51.1247 0.721766 55.8403 3.45949L90.3704 23.384C92.6522 24.7529 93.717 26.4259 93.5649 28.4032V43.0044C93.717 45.1337 92.1959 47.5673 89.1535 49.3924L57.5136 67.6439C52.1895 70.6858 43.9753 71.1421 39.2597 68.4044L11.2705 52.2822L6.40284 49.2403Z" fill="#031826"/>
<path d="M6.40284 49.2403L4.72957 48.3277C2.59996 47.111 1.53516 45.2858 1.53516 43.6128V28.4032C1.53516 26.2739 3.05631 24.1445 5.9465 22.4715L37.5865 4.21997C42.9105 1.17805 51.1247 0.721766 55.8403 3.45949L90.3704 23.384C92.6522 24.7529 93.717 26.4259 93.5649 28.4032V43.0044C93.717 45.1337 92.1959 47.5673 89.1535 49.3924L57.5136 67.6439C52.1895 70.6858 43.9753 71.1421 39.2597 68.4044L11.2705 52.2822L6.40284 49.2403Z" fill="url(#paint0_linear)"/>
<path d="M6.40284 49.2403L4.72957 48.3277C2.59996 47.111 1.53516 45.2858 1.53516 43.6128V28.4032C1.53516 26.2739 3.05631 24.1445 5.9465 22.4715L37.5865 4.21997C42.9105 1.17805 51.1247 0.721766 55.8403 3.45949L90.3704 23.384C92.6522 24.7529 93.717 26.4259 93.5649 28.4032V43.0044C93.717 45.1337 92.1959 47.5673 89.1535 49.3924L57.5136 67.6439C52.1895 70.6858 43.9753 71.1421 39.2597 68.4044L11.2705 52.2822L6.40284 49.2403Z" stroke="white" stroke-width="2.81247" stroke-miterlimit="10"/>
<path d="M58.1204 51.8259L57.512 52.1301C52.188 55.172 43.9737 55.6283 39.2582 52.8906L4.72798 32.9661C0.01241 30.2283 0.620874 25.5134 6.09702 22.4715L37.737 4.21997C43.061 1.17805 51.2753 0.721766 55.9908 3.45949L90.521 23.384C95.2366 26.1218 94.6281 30.8367 89.152 33.8786L67.5516 46.3505L58.1204 51.8259Z" fill="#031826"/>
<path d="M58.1204 51.8259L57.512 52.1301C52.188 55.172 43.9737 55.6283 39.2582 52.8906L4.72798 32.9661C0.01241 30.2283 0.620874 25.5134 6.09702 22.4715L37.737 4.21997C43.061 1.17805 51.2753 0.721766 55.9908 3.45949L90.521 23.384C95.2366 26.1218 94.6281 30.8367 89.152 33.8786L67.5516 46.3505L58.1204 51.8259Z" fill="url(#paint1_linear)"/>
<path d="M58.1204 51.8259L57.512 52.1301C52.188 55.172 43.9737 55.6283 39.2582 52.8906L4.72798 32.9661C0.01241 30.2283 0.620874 25.5134 6.09702 22.4715L37.737 4.21997C43.061 1.17805 51.2753 0.721766 55.9908 3.45949L90.521 23.384C95.2366 26.1218 94.6281 30.8367 89.152 33.8786L67.5516 46.3505L58.1204 51.8259Z" stroke="white" stroke-width="2.81247" stroke-miterlimit="10"/>
<path d="M67.4047 33.8787C67.1005 34.0307 66.7963 34.1828 66.3399 34.3349C65.7315 34.3349 65.2751 34.1828 64.8188 34.0307C64.5145 33.8786 64.3624 33.7266 64.3624 33.4224L60.8637 20.7983L38.9589 18.821C38.6547 18.821 38.1983 18.6689 38.0462 18.5168L37.8941 18.3647C37.5898 18.2126 37.5898 17.9084 37.5898 17.6042C37.5898 17.3 37.8941 17.1479 38.1983 16.9958C38.6547 16.8438 39.111 16.8438 39.5674 16.8438L62.6891 18.9731C62.9934 18.9731 63.4497 19.1252 63.6018 19.2773C63.9061 19.4294 64.0582 19.5815 64.0582 19.8857L67.709 33.2703C67.8611 33.4224 67.709 33.7266 67.4047 33.8787ZM66.0357 33.5745H66.1878V33.4224L62.537 20.0378L62.3849 19.8857H62.2328L39.111 17.7563H38.8068L38.6547 17.9084V18.0605L38.8068 18.2126L61.7764 20.1899L65.4272 33.4224V33.5745C65.7315 33.5745 65.8836 33.5745 66.0357 33.5745Z" fill="white"/>
<path d="M62.2321 32.6589C62.9926 33.1152 62.9926 33.7236 62.2321 34.0278L49.9106 41.1764C49.3021 41.6327 48.0852 41.6327 47.4767 41.1764L40.1751 36.9177C39.5667 36.6135 39.4146 36.0051 40.023 35.5488L47.1725 31.4422C48.0852 30.8338 48.0852 30.0733 47.1725 29.4649C46.2598 28.8565 44.7386 28.8565 43.8259 29.4649L36.6765 33.5715C36.068 33.8757 35.0032 33.8757 34.3947 33.5715L27.0931 29.3128C26.4846 28.8565 26.3325 28.2481 27.0931 27.9439L39.4145 20.7953C40.1751 20.3391 41.24 20.3391 41.8484 20.7953C42.609 21.2516 42.609 21.86 41.8484 22.1642L30.7439 28.5523L35.6116 31.2901L41.3921 27.9439C43.6738 26.575 47.4767 26.575 49.7585 27.9439C52.0402 29.3128 52.0402 31.4422 49.7585 32.811L43.978 36.1572L48.8458 38.8949L59.9503 32.5068C60.4067 32.2026 61.4715 32.2026 62.2321 32.6589ZM48.8458 40.7201L61.1672 33.5715C61.3194 33.5715 61.1672 33.4194 61.1672 33.2673C61.0151 33.2673 60.863 33.1152 60.7109 33.2673L48.5415 40.2638L41.6963 36.3093L48.5415 32.3547C50.2148 31.2901 50.2148 29.7691 48.5415 28.7044C46.8683 27.6397 43.9781 27.6397 42.3048 28.7044L35.4595 32.6589L28.6143 28.7044L40.7836 21.7079C40.9357 21.7079 40.7836 21.5558 40.7836 21.4037C40.6315 21.4037 40.4794 21.2516 40.3273 21.4037L28.0058 28.5523C27.8537 28.5523 27.8537 28.7044 28.0058 28.8565L35.3074 33.1152C35.4595 33.1152 35.6116 33.1152 35.7637 33.1152L42.9132 29.0086C44.4344 28.096 46.8683 28.096 48.3894 29.0086C49.9106 29.9212 49.9106 31.2901 48.3894 32.2026L41.3921 36.3093C41.2399 36.4614 41.2399 36.4614 41.3921 36.6135L48.6937 40.8722C48.5416 40.7201 48.6937 40.7201 48.8458 40.7201Z" fill="white"/>
<defs>
<linearGradient id="paint0_linear" x1="123.468" y1="29.2332" x2="16.1745" y2="34.1384" gradientUnits="userSpaceOnUse">
<stop stop-color="#4392F1"/>
<stop offset="1" stop-color="#56CBF9"/>
</linearGradient>
<linearGradient id="paint1_linear" x1="123.615" y1="22.992" x2="16.36" y2="29.3357" gradientUnits="userSpaceOnUse">
<stop stop-color="#4392F1"/>
<stop offset="1" stop-color="#56CBF9"/>
</linearGradient>
</defs>
</svg>
