<svg width="96" height="72" viewBox="0 0 96 72" fill="none" xmlns="http://www.w3.org/2000/svg">
<path d="M7.10987 49.4112L5.43661 48.4986C3.30699 47.2819 2.24219 45.4567 2.24219 43.7837V28.5741C2.24219 26.4447 3.76334 24.3154 6.65353 22.6424L38.2935 4.39087C43.6175 1.34895 51.8318 0.892665 56.5473 3.63039L91.0775 23.5549C93.3592 24.9238 94.424 26.5968 94.2719 28.5741V43.1753C94.424 45.3046 92.9029 47.7382 89.8606 49.5633L58.2206 67.8148C52.8966 70.8567 44.6823 71.313 39.9668 68.5753L11.9776 52.4531L7.10987 49.4112Z" fill="#031826"/>
<path d="M7.10987 49.4112L5.43661 48.4986C3.30699 47.2819 2.24219 45.4567 2.24219 43.7837V28.5741C2.24219 26.4447 3.76334 24.3154 6.65353 22.6424L38.2935 4.39087C43.6175 1.34895 51.8318 0.892665 56.5473 3.63039L91.0775 23.5549C93.3592 24.9238 94.424 26.5968 94.2719 28.5741V43.1753C94.424 45.3046 92.9029 47.7382 89.8606 49.5633L58.2206 67.8148C52.8966 70.8567 44.6823 71.313 39.9668 68.5753L11.9776 52.4531L7.10987 49.4112Z" fill="url(#paint0_linear)"/>
<path d="M7.10987 49.4112L5.43661 48.4986C3.30699 47.2819 2.24219 45.4567 2.24219 43.7837V28.5741C2.24219 26.4447 3.76334 24.3154 6.65353 22.6424L38.2935 4.39087C43.6175 1.34895 51.8318 0.892665 56.5473 3.63039L91.0775 23.5549C93.3592 24.9238 94.424 26.5968 94.2719 28.5741V43.1753C94.424 45.3046 92.9029 47.7382 89.8606 49.5633L58.2206 67.8148C52.8966 70.8567 44.6823 71.313 39.9668 68.5753L11.9776 52.4531L7.10987 49.4112Z" stroke="white" stroke-width="2.81247" stroke-miterlimit="10"/>
<path d="M58.8275 51.9968L58.219 52.301C52.895 55.3429 44.6808 55.7992 39.9652 53.0615L5.43501 33.137C0.719441 30.3992 1.3279 25.6843 6.80405 22.6424L38.444 4.39087C43.7681 1.34895 51.9823 0.892665 56.6979 3.63039L91.228 23.5549C95.9436 26.2927 95.3351 31.0076 89.859 34.0495L68.2586 46.5214L58.8275 51.9968Z" fill="#031826"/>
<path d="M58.8275 51.9968L58.219 52.301C52.895 55.3429 44.6808 55.7992 39.9652 53.0615L5.43501 33.137C0.719441 30.3992 1.3279 25.6843 6.80405 22.6424L38.444 4.39087C43.7681 1.34895 51.9823 0.892665 56.6979 3.63039L91.228 23.5549C95.9436 26.2927 95.3351 31.0076 89.859 34.0495L68.2586 46.5214L58.8275 51.9968Z" fill="url(#paint1_linear)"/>
<path d="M58.8275 51.9968L58.219 52.301C52.895 55.3429 44.6808 55.7992 39.9652 53.0615L5.43501 33.137C0.719441 30.3992 1.3279 25.6843 6.80405 22.6424L38.444 4.39087C43.7681 1.34895 51.9823 0.892665 56.6979 3.63039L91.228 23.5549C95.9436 26.2927 95.3351 31.0076 89.859 34.0495L68.2586 46.5214L58.8275 51.9968Z" stroke="white" stroke-width="2.81247" stroke-miterlimit="10"/>
<path d="M62.617 23.8652C62.617 24.8695 62.0564 25.9003 60.7771 26.7339C59.4895 27.573 57.5364 28.1532 55.0418 28.1532C52.5465 28.1532 50.4387 27.5724 48.9982 26.709C47.5408 25.8355 46.9297 24.7945 46.9297 23.8652C46.9297 22.9359 47.5408 21.8949 48.9982 21.0214C50.4387 20.158 52.5465 19.5771 55.0418 19.5771C57.5364 19.5771 59.4895 20.1574 60.7771 20.9965C62.0564 21.8301 62.617 22.8609 62.617 23.8652Z" stroke="white" stroke-width="2.5"/>
<path d="M42.4974 25.5882C42.7101 25.6122 42.9516 25.7531 43.121 26.0278C44.0196 27.4852 45.0797 28.6254 46.6387 29.5316C48.1607 30.4163 50.0965 31.0414 52.6836 31.5872C53.0365 31.6617 53.215 31.9039 53.2398 32.1004C53.6022 34.9664 52.9517 37.2385 51.0968 39.6657C50.9848 39.8124 50.7724 39.9132 50.5243 39.8827C44.003 39.0788 39.4794 37.5902 36.2093 35.5351C32.9647 33.4959 30.8703 30.8465 29.2904 27.5576C29.1409 27.2463 29.289 26.8532 29.6537 26.7258C33.743 25.2971 36.8622 24.9549 42.4974 25.5882Z" stroke="white" stroke-width="2.5" stroke-linecap="round" stroke-linejoin="round"/>
<defs>
<linearGradient id="paint0_linear" x1="124.175" y1="29.4041" x2="16.8816" y2="34.3093" gradientUnits="userSpaceOnUse">
<stop stop-color="#4392F1"/>
<stop offset="1" stop-color="#56CBF9"/>
</linearGradient>
<linearGradient id="paint1_linear" x1="124.322" y1="23.1629" x2="17.067" y2="29.5066" gradientUnits="userSpaceOnUse">
<stop stop-color="#4392F1"/>
<stop offset="1" stop-color="#56CBF9"/>
</linearGradient>
</defs>
</svg>
