<svg width="253" height="290" viewBox="0 0 253 290" fill="none" xmlns="http://www.w3.org/2000/svg">
<path d="M2.00638 174.554C1.95145 171.726 2.72775 168.944 4.23891 166.553C5.75007 164.162 7.9297 162.267 10.5077 161.102L104.221 107.045C116.823 99.7435 139.226 100.594 153.628 109.145L239.291 158.602C247.292 163.203 251.342 169.104 251.342 174.704V215.91C251.343 218.663 250.533 221.356 249.012 223.65C247.491 225.945 245.327 227.741 242.791 228.812L149.128 282.92C136.526 290.171 114.123 289.321 99.7206 280.82L14.0581 231.313C5.50691 226.312 1.4563 219.961 2.00638 214.11V174.554Z" fill="url(#paint0_linear)" stroke="white" stroke-width="3.1" stroke-miterlimit="10"/>
<path d="M74.1179 224.475L99.5716 239.177C114.174 247.578 136.427 248.578 149.029 241.277L242.642 187.219C255.244 179.918 253.744 167.216 239.142 158.615L153.479 109.158C138.927 100.757 116.674 99.7565 104.072 107.058L10.5087 161.115C-2.09314 168.417 -0.542856 181.118 14.0093 189.72L27.8612 197.721L74.1179 224.475Z" fill="url(#paint1_linear)" stroke="white" stroke-width="3.14" stroke-miterlimit="10"/>
<path d="M173.367 106.903V41.0936C173.367 36.343 170.466 34.1926 166.916 36.0929L93.3549 78.8491C91.3798 80.2278 89.7542 82.049 88.6081 84.1676C87.462 86.2862 86.827 88.6433 86.7539 91.0509V179.414C86.7539 184.414 89.6544 186.365 93.2049 184.414L118.209 170.112L130.16 178.864L142.062 156.01L167.066 141.708C169.025 140.29 170.627 138.436 171.747 136.293C172.866 134.149 173.472 131.774 173.517 129.356V116.855" fill="url(#paint2_linear)"/>
<path d="M90.8125 185.808C91.8596 185.783 92.8797 185.471 93.7629 184.908L118.166 170.856L130.418 180.108L142.67 156.704L167.274 142.452C169.347 140.978 171.047 139.038 172.236 136.789C173.426 134.54 174.073 132.044 174.125 129.5V116.848H172.624V129.5C172.626 131.771 172.098 134.012 171.083 136.043C170.067 138.074 168.592 139.841 166.774 141.202L141.77 155.604L130.168 177.857L118.266 168.856L93.0128 183.858C92.508 184.211 91.921 184.429 91.3081 184.49C90.6953 184.551 90.0769 184.454 89.5122 184.208C88.8304 183.668 88.3011 182.96 87.9767 182.153C87.6522 181.347 87.5438 180.469 87.662 179.608V91.0447C87.6889 88.7522 88.2553 86.4983 89.3152 84.4653C90.3751 82.4324 91.8987 80.6776 93.7629 79.343L167.274 36.8868C167.767 36.5097 168.356 36.2772 168.974 36.2154C169.592 36.1536 170.215 36.2649 170.774 36.5368C171.448 37.072 171.972 37.772 172.296 38.5692C172.621 39.3665 172.734 40.2338 172.624 41.0874V115.231H174.125V41.0874C174.238 39.9702 174.058 38.8428 173.601 37.8166C173.145 36.7905 172.429 35.9011 171.524 35.2366C170.734 34.8497 169.855 34.6783 168.977 34.7397C168.099 34.8012 167.253 35.0933 166.524 35.5866L93.0128 78.0428C90.9355 79.5251 89.2341 81.473 88.0444 83.7307C86.8548 85.9884 86.2101 88.4932 86.1618 91.0447V179.408C86.0485 180.525 86.2288 181.652 86.6848 182.678C87.1409 183.704 87.857 184.594 88.7622 185.258C89.3872 185.614 90.0932 185.804 90.8125 185.808Z" fill="white" stroke="white" stroke-width="2"/>
<path d="M125.621 113.658C128.376 113.221 130.968 112.067 133.136 110.311C135.304 108.556 136.972 106.261 137.972 103.657L136.672 103.007C133.222 109.558 127.871 113.008 123.72 111.758C121.92 111.158 120.67 109.458 119.82 106.407C119.77 106.063 119.594 105.749 119.326 105.527C119.058 105.305 118.717 105.191 118.369 105.207C118.017 105.352 117.622 105.352 117.269 105.207C116.916 104.806 116.721 104.291 116.719 103.757C116.695 102.895 116.856 102.038 117.193 101.244C117.529 100.45 118.033 99.7379 118.67 99.1562H118.97V98.7561C118.994 98.3064 118.994 97.8557 118.97 97.4059C118.804 96.5128 118.687 95.6113 118.62 94.7055C118.262 90.7031 119.482 86.7192 122.02 83.6039C122.348 83.1043 122.569 82.5426 122.67 81.9537C123.061 79.7384 124.253 77.7446 126.021 76.3529C126.78 75.7255 127.621 75.204 128.521 74.8026L129.921 74.3026C132.284 73.4413 134.708 72.756 137.172 72.2523C137.749 72.099 138.351 72.0733 138.939 72.1769C139.526 72.2806 140.084 72.5111 140.573 72.8524C141.098 73.3513 141.509 73.9586 141.777 74.6321C142.045 75.3056 142.163 76.0293 142.123 76.7529C142.15 78.7756 142.033 80.7977 141.773 82.8038V83.954C141.773 84.9041 141.773 85.9043 142.523 86.5043C142.896 86.8466 143.143 87.3047 143.223 87.8045C143.299 89.0752 142.888 90.3271 142.073 91.305C141.137 92.4606 140.471 93.8102 140.123 95.2556L141.523 95.6057C141.84 94.3635 142.419 93.2038 143.223 92.2052C143.758 91.5726 144.161 90.8402 144.41 90.0504C144.659 89.2606 144.748 88.4292 144.673 87.6045C144.624 87.153 144.483 86.7162 144.26 86.3207C144.036 85.9253 143.734 85.5794 143.373 85.3042C143.373 85.3042 143.373 85.0041 143.373 84.104C143.351 83.7209 143.351 83.3369 143.373 82.9538C143.661 80.8666 143.778 78.7592 143.723 76.6529C143.775 75.7147 143.613 74.777 143.249 73.9107C142.885 73.0444 142.329 72.2721 141.623 71.6522C140.982 71.167 140.24 70.8338 139.451 70.6779C138.663 70.522 137.849 70.5473 137.072 70.7521C134.525 71.2722 132.018 71.9741 129.571 72.8524L128.221 73.3524C127.14 73.7767 126.142 74.3859 125.271 75.1527C123.234 76.7618 121.849 79.053 121.37 81.6036C121.33 81.9824 121.192 82.3443 120.97 82.6538C118.234 86.0662 116.91 90.3969 117.269 94.7555C117.269 95.7557 117.519 96.6558 117.669 97.606V98.5561C116.977 99.2812 116.435 100.136 116.075 101.072C115.714 102.007 115.542 103.005 115.569 104.007C115.553 104.482 115.639 104.955 115.82 105.395C116.001 105.835 116.273 106.231 116.619 106.557C117.204 107.003 117.94 107.2 118.67 107.107C118.874 108.511 119.444 109.837 120.321 110.951C121.199 112.066 122.354 112.93 123.67 113.458C124.309 113.61 124.965 113.677 125.621 113.658Z" fill="white" stroke="white" stroke-width="1.5"/>
<path d="M112.89 147.965C118.096 147.853 123.216 146.608 127.892 144.314L127.292 142.964C122.715 145.217 117.691 146.414 112.59 146.465C112.31 146.468 112.034 146.407 111.782 146.286C111.53 146.164 111.31 145.986 111.139 145.764C110.801 145.151 110.594 144.474 110.534 143.776C110.474 143.079 110.561 142.376 110.789 141.714C111.129 140.482 111.564 139.278 112.089 138.113C115.033 131.661 119.432 125.978 124.941 121.511C125.641 120.861 125.992 120.911 126.342 120.961C128.644 121.08 130.935 120.571 132.97 119.488C135.005 118.404 136.707 116.787 137.893 114.81C138.392 113.97 139.171 113.332 140.094 113.01C141.635 112.239 143.32 111.796 145.042 111.71C146.763 111.624 148.484 111.896 150.095 112.51C151.474 113.201 152.57 114.35 153.195 115.76C153.481 117.149 153.43 118.587 153.047 119.952C152.664 121.318 151.961 122.573 150.995 123.611C146.802 128.743 141.999 133.344 136.693 137.313L137.543 138.463C142.972 134.457 147.877 129.787 152.145 124.561C153.311 123.337 154.147 121.837 154.575 120.201C155.004 118.566 155.011 116.849 154.596 115.21C153.825 113.497 152.505 112.089 150.845 111.209C149.07 110.534 147.177 110.221 145.279 110.29C143.38 110.358 141.515 110.807 139.794 111.609C138.56 112.013 137.512 112.847 136.843 113.96C135.823 115.697 134.359 117.131 132.601 118.115C130.844 119.1 128.856 119.598 126.842 119.561C126.361 119.444 125.858 119.456 125.383 119.597C124.909 119.737 124.481 120.001 124.141 120.361C118.341 124.937 113.699 130.812 110.589 137.513C110.046 138.745 109.594 140.015 109.239 141.314C108.934 142.194 108.83 143.131 108.933 144.057C109.037 144.983 109.347 145.874 109.839 146.665C110.134 147.061 110.519 147.381 110.963 147.599C111.406 147.816 111.896 147.925 112.389 147.915L112.89 147.965Z" fill="white" stroke="white" stroke-width="1.5"/>
<defs>
<linearGradient id="paint0_linear" x1="332.325" y1="176.819" x2="41.6215" y2="190.112" gradientUnits="userSpaceOnUse">
<stop stop-color="#4392F1"/>
<stop offset="1" stop-color="#56CBF9"/>
</linearGradient>
<linearGradient id="paint1_linear" x1="332.099" y1="160.098" x2="42.0218" y2="177.192" gradientUnits="userSpaceOnUse">
<stop stop-color="#4392F1"/>
<stop offset="1" stop-color="#56CBF9"/>
</linearGradient>
<linearGradient id="paint2_linear" x1="201.691" y1="95.6516" x2="100.381" y2="97.6505" gradientUnits="userSpaceOnUse">
<stop stop-color="#4392F1"/>
<stop offset="1" stop-color="#56CBF9"/>
</linearGradient>
</defs>
</svg>
