<svg width="395" height="323" viewBox="0 0 395 323" fill="none" xmlns="http://www.w3.org/2000/svg">
<path d="M386.07 46.293L385.996 78.1788V78.2161L386.07 46.3302C386.07 46.3302 386.07 46.3302 386.07 46.293Z" fill="#56CBF9"/>
<path d="M386.072 46.332L385.998 78.2179C385.998 78.3296 385.998 78.4041 385.961 78.5159L386.035 46.63C386.072 46.5555 386.072 46.4438 386.072 46.332Z" fill="#56CBF9"/>
<path d="M386.035 46.6289L385.961 78.5147C385.924 78.6265 385.924 78.701 385.887 78.8127L385.961 46.9269C385.998 46.8152 386.035 46.7407 386.035 46.6289Z" fill="#56CBF9"/>
<path d="M385.959 46.9219L385.885 78.8077C385.885 78.845 385.848 78.8822 385.848 78.9567L385.922 47.0709C385.922 46.9964 385.959 46.9591 385.959 46.9219Z" fill="#56CBF9"/>
<path d="M386.406 46.293L386.332 78.1788V78.2161L386.406 46.3302C386.406 46.3302 386.406 46.3302 386.406 46.293Z" fill="#56CBF9"/>
<path d="M386.404 46.3672L386.33 78.253C386.33 78.3648 386.33 78.4393 386.293 78.551L386.367 46.6652C386.404 46.5534 386.404 46.4417 386.404 46.3672Z" fill="#56CBF9"/>
<path d="M386.367 46.6641L386.293 78.5499C386.256 78.6616 386.256 78.7734 386.219 78.8479L386.293 46.9621C386.33 46.8503 386.33 46.7758 386.367 46.6641Z" fill="#56CBF9"/>
<path d="M386.293 46.9609L386.219 78.8468C386.219 78.884 386.182 78.9213 386.145 78.9958L386.219 47.1099C386.256 47.0727 386.256 46.9982 386.293 46.9609Z" fill="#56CBF9"/>
<path d="M387.926 49.2728L387.852 81.1586C387.852 80.3764 387.332 79.6686 386.367 79.1099C386.145 78.9609 385.885 78.8491 385.625 78.7374L385.699 46.8516C385.959 46.9633 386.219 47.0751 386.442 47.2241C387.407 47.7828 387.926 48.5278 387.926 49.2728Z" fill="#56CBF9"/>
<path d="M387.926 49.2728L387.852 81.1586C387.852 80.3764 387.332 79.6686 386.367 79.1099C386.145 78.9609 385.885 78.8491 385.625 78.7374L385.699 46.8516C385.959 46.9633 386.219 47.0751 386.442 47.2241C387.407 47.7828 387.926 48.5278 387.926 49.2728Z" fill="url(#paint0_linear)"/>
<path d="M385.699 46.8524L385.625 78.7382C385.44 78.6637 385.217 78.5892 385.031 78.5147L385.105 46.6289C385.328 46.7034 385.514 46.7779 385.699 46.8524Z" fill="#56CBF9"/>
<path d="M385.699 46.8524L385.625 78.7382C385.44 78.6637 385.217 78.5892 385.031 78.5147L385.105 46.6289C385.328 46.7034 385.514 46.7779 385.699 46.8524Z" fill="url(#paint1_linear)"/>
<path d="M385.102 46.6703L385.027 78.5562C384.842 78.5189 384.693 78.4817 384.508 78.4444L384.582 46.5586C384.768 46.5586 384.953 46.6331 385.102 46.6703Z" fill="#56CBF9"/>
<path d="M385.102 46.6703L385.027 78.5562C384.842 78.5189 384.693 78.4817 384.508 78.4444L384.582 46.5586C384.768 46.5586 384.953 46.6331 385.102 46.6703Z" fill="url(#paint2_linear)"/>
<path d="M384.584 46.5198L384.51 78.4056C384.361 78.3684 384.176 78.3311 384.027 78.3311L384.102 46.4453C384.25 46.4826 384.436 46.5198 384.584 46.5198Z" fill="#56CBF9"/>
<path d="M384.584 46.5198L384.51 78.4056C384.361 78.3684 384.176 78.3311 384.027 78.3311L384.102 46.4453C384.25 46.4826 384.436 46.5198 384.584 46.5198Z" fill="url(#paint3_linear)"/>
<path d="M384.104 46.4474L384.029 78.3332C383.881 78.296 383.695 78.296 383.547 78.296L383.621 46.4102C383.77 46.4102 383.955 46.4474 384.104 46.4474Z" fill="#56CBF9"/>
<path d="M384.104 46.4474L384.029 78.3332C383.881 78.296 383.695 78.296 383.547 78.296L383.621 46.4102C383.77 46.4102 383.955 46.4474 384.104 46.4474Z" fill="url(#paint4_linear)"/>
<path d="M383.619 46.4083L383.545 78.2942C383.397 78.2942 383.211 78.2569 383.062 78.2569L383.137 46.3711C383.285 46.3711 383.471 46.3711 383.619 46.4083Z" fill="#56CBF9"/>
<path d="M383.619 46.4083L383.545 78.2942C383.397 78.2942 383.211 78.2569 383.062 78.2569L383.137 46.3711C383.285 46.3711 383.471 46.3711 383.619 46.4083Z" fill="url(#paint5_linear)"/>
<path d="M383.137 46.3711L383.063 78.2569C382.877 78.2569 382.729 78.2569 382.543 78.2569L382.617 46.3711C382.803 46.3711 382.988 46.3711 383.137 46.3711Z" fill="#56CBF9"/>
<path d="M383.137 46.3711L383.063 78.2569C382.877 78.2569 382.729 78.2569 382.543 78.2569L382.617 46.3711C382.803 46.3711 382.988 46.3711 383.137 46.3711Z" fill="url(#paint6_linear)"/>
<path d="M382.615 46.3711L382.541 78.2569C382.356 78.2569 382.17 78.2942 381.984 78.2942L382.059 46.4083C382.244 46.4083 382.43 46.3711 382.615 46.3711Z" fill="#56CBF9"/>
<path d="M382.615 46.3711L382.541 78.2569C382.356 78.2569 382.17 78.2942 381.984 78.2942L382.059 46.4083C382.244 46.4083 382.43 46.3711 382.615 46.3711Z" fill="url(#paint7_linear)"/>
<path d="M382.061 46.4102L381.986 78.296C381.838 78.296 381.689 78.3332 381.504 78.3705L381.578 46.4847C381.764 46.4474 381.912 46.4474 382.061 46.4102Z" fill="#56CBF9"/>
<path d="M382.061 46.4102L381.986 78.296C381.838 78.296 381.689 78.3332 381.504 78.3705L381.578 46.4847C381.764 46.4474 381.912 46.4474 382.061 46.4102Z" fill="url(#paint8_linear)"/>
<path d="M304.232 58.5469L304.158 90.4327C304.084 90.4327 304.01 90.47 303.973 90.47L304.047 58.5841C304.084 58.5469 304.158 58.5469 304.232 58.5469Z" fill="#56CBF9"/>
<path d="M304.232 58.5469L304.158 90.4327C304.084 90.4327 304.01 90.47 303.973 90.47L304.047 58.5841C304.084 58.5469 304.158 58.5469 304.232 58.5469Z" fill="url(#paint9_linear)"/>
<path d="M304.047 58.5469L303.973 90.4327C303.639 90.5072 303.305 90.5817 303.008 90.6562L303.082 58.8076C303.379 58.6959 303.676 58.6214 304.047 58.5469Z" fill="#56CBF9"/>
<path d="M304.047 58.5469L303.973 90.4327C303.639 90.5072 303.305 90.5817 303.008 90.6562L303.082 58.8076C303.379 58.6959 303.676 58.6214 304.047 58.5469Z" fill="url(#paint10_linear)"/>
<path d="M303.08 58.8086L303.006 90.6944C302.561 90.8434 302.19 90.9924 301.855 91.2159L301.93 59.3301C302.264 59.1066 302.635 58.9576 303.08 58.8086Z" fill="#56CBF9"/>
<path d="M303.08 58.8086L303.006 90.6944C302.561 90.8434 302.19 90.9924 301.855 91.2159L301.93 59.3301C302.264 59.1066 302.635 58.9576 303.08 58.8086Z" fill="url(#paint11_linear)"/>
<path d="M301.93 59.3281L301.818 91.214C301.596 91.363 301.373 91.512 301.188 91.661L301.262 59.7751C301.484 59.6261 301.67 59.4399 301.93 59.3281Z" fill="#56CBF9"/>
<path d="M301.93 59.3281L301.818 91.214C301.596 91.363 301.373 91.512 301.188 91.661L301.262 59.7751C301.484 59.6261 301.67 59.4399 301.93 59.3281Z" fill="url(#paint12_linear)"/>
<path d="M301.297 59.7734L301.223 91.6593C301.111 91.771 301 91.8828 300.926 91.9945L301 60.1087C301.074 59.9969 301.186 59.8852 301.297 59.7734Z" fill="#56CBF9"/>
<path d="M301.297 59.7734L301.223 91.6593C301.111 91.771 301 91.8828 300.926 91.9945L301 60.1087C301.074 59.9969 301.186 59.8852 301.297 59.7734Z" fill="url(#paint13_linear)"/>
<path d="M300.965 60.1133L300.891 91.9991C300.816 92.1109 300.742 92.1854 300.668 92.2971L300.742 60.4113C300.854 60.3368 300.891 60.225 300.965 60.1133Z" fill="#56CBF9"/>
<path d="M300.965 60.1133L300.891 91.9991C300.816 92.1109 300.742 92.1854 300.668 92.2971L300.742 60.4113C300.854 60.3368 300.891 60.225 300.965 60.1133Z" fill="url(#paint14_linear)"/>
<path d="M300.781 60.4102L300.67 92.296C300.633 92.3332 300.596 92.4077 300.596 92.445C300.559 92.4822 300.559 92.5195 300.559 92.5567L300.633 60.6709C300.633 60.6337 300.67 60.5964 300.67 60.5592C300.707 60.5219 300.744 60.4847 300.781 60.4102Z" fill="#56CBF9"/>
<path d="M300.781 60.4102L300.67 92.296C300.633 92.3332 300.596 92.4077 300.596 92.445C300.559 92.4822 300.559 92.5195 300.559 92.5567L300.633 60.6709C300.633 60.6337 300.67 60.5964 300.67 60.5592C300.707 60.5219 300.744 60.4847 300.781 60.4102Z" fill="url(#paint15_linear)"/>
<path d="M300.633 60.707L300.559 92.5929C300.521 92.7046 300.484 92.7791 300.484 92.8909L300.559 61.005C300.559 60.9305 300.596 60.8188 300.633 60.707Z" fill="#56CBF9"/>
<path d="M300.633 60.707L300.559 92.5929C300.521 92.7046 300.484 92.7791 300.484 92.8909L300.559 61.005C300.559 60.9305 300.596 60.8188 300.633 60.707Z" fill="url(#paint16_linear)"/>
<path d="M300.557 61.0078L300.482 92.8937C300.445 93.0054 300.445 93.0799 300.445 93.1916L300.52 61.3058C300.52 61.1941 300.52 61.1196 300.557 61.0078Z" fill="#56CBF9"/>
<path d="M300.557 61.0078L300.482 92.8937C300.445 93.0054 300.445 93.0799 300.445 93.1916L300.52 61.3058C300.52 61.1941 300.52 61.1196 300.557 61.0078Z" fill="url(#paint17_linear)"/>
<path d="M300.52 61.3008L300.445 93.1866V93.2239L300.52 61.338V61.3008Z" fill="#56CBF9"/>
<path d="M300.52 61.3008L300.445 93.1866V93.2239L300.52 61.338V61.3008Z" fill="url(#paint18_linear)"/>
<path d="M302 63.3925L301.926 95.2783C300.961 94.7196 300.441 93.9746 300.441 93.2296L300.516 61.3438C300.516 62.126 301.035 62.8337 302 63.3925Z" fill="#56CBF9"/>
<path d="M302 63.3925L301.926 95.2783C300.961 94.7196 300.441 93.9746 300.441 93.2296L300.516 61.3438C300.516 62.126 301.035 62.8337 302 63.3925Z" fill="url(#paint19_linear)"/>
<path d="M386.664 47.0797C385.291 46.2974 383.361 45.9995 381.505 46.2602L304.153 58.3664C302.297 58.6644 300.887 59.4839 300.404 60.5641C300.293 60.8249 300.219 61.0856 300.219 61.3836L300.145 93.2695C300.145 94.0889 300.701 94.8712 301.741 95.4672L358.567 128.396C358.715 128.471 358.901 128.582 359.049 128.657C359.086 128.694 359.161 128.694 359.198 128.731C359.235 128.769 359.309 128.769 359.346 128.806C359.383 128.843 359.458 128.843 359.495 128.843C359.606 128.88 359.717 128.918 359.829 128.955C359.866 128.955 359.94 128.992 359.977 128.992C360.051 128.992 360.089 129.029 360.163 129.029C360.237 129.067 360.311 129.067 360.386 129.104C360.423 129.104 360.46 129.141 360.534 129.141C360.645 129.178 360.72 129.178 360.831 129.178C360.905 129.178 360.942 129.216 361.017 129.216C361.054 129.216 361.054 129.216 361.091 129.216C361.239 129.253 361.425 129.253 361.61 129.29H361.648C361.685 129.29 361.722 129.29 361.759 129.29C361.87 129.29 362.019 129.29 362.13 129.327C362.167 129.327 362.241 129.327 362.279 129.327C362.353 129.327 362.427 129.327 362.501 129.327C362.575 129.327 362.613 129.327 362.687 129.327C362.761 129.327 362.835 129.327 362.909 129.327C362.984 129.327 363.058 129.327 363.169 129.327C363.206 129.327 363.244 129.327 363.281 129.327C363.429 129.327 363.615 129.29 363.763 129.253C363.837 129.253 363.912 129.216 363.986 129.216H364.023C364.171 129.178 364.32 129.141 364.468 129.104C364.506 129.104 364.506 129.104 364.543 129.067C364.691 129.029 364.802 128.992 364.914 128.955H364.951C364.951 128.955 364.951 128.955 364.988 128.955C365.211 128.88 365.433 128.806 365.619 128.731C365.805 128.657 365.99 128.545 366.176 128.433C366.176 128.433 366.176 128.433 366.213 128.433C366.213 128.433 366.25 128.433 366.25 128.396C366.361 128.322 366.436 128.284 366.51 128.21L366.547 128.173C366.658 128.098 366.733 128.024 366.807 127.949C366.807 127.949 366.807 127.949 366.844 127.912C366.844 127.912 366.844 127.912 366.881 127.875C366.992 127.763 367.104 127.651 367.178 127.577C367.178 127.577 367.178 127.577 367.178 127.539C367.178 127.539 367.178 127.502 367.215 127.502C367.289 127.39 367.364 127.316 367.401 127.204C367.438 127.13 367.475 127.092 367.475 127.018L387.964 81.9828L388.038 50.0969C388.557 49.0167 388.038 47.8992 386.664 47.0797ZM300.59 60.8994C300.553 61.0111 300.553 61.0856 300.553 61.1974C300.516 61.1229 300.553 61.0111 300.59 60.8994ZM300.219 61.6816C300.219 61.6444 300.219 61.6444 300.219 61.6071C300.219 61.6444 300.219 61.6816 300.219 61.6816ZM301.369 63.2834C301.407 63.2834 301.407 63.3206 301.444 63.3206C301.444 63.3206 301.407 63.2834 301.369 63.2834ZM304.227 58.5526C303.337 58.7016 302.594 58.9624 301.963 59.2976C302.594 58.9251 303.337 58.6644 304.227 58.5526ZM386.442 47.2287C385.143 46.4837 383.324 46.1857 381.579 46.4837C383.361 46.1857 385.18 46.4837 386.442 47.2287Z" fill="#56CBF9"/>
<path d="M386.664 47.0797C385.291 46.2974 383.361 45.9995 381.505 46.2602L304.153 58.3664C302.297 58.6644 300.887 59.4839 300.404 60.5641C300.293 60.8249 300.219 61.0856 300.219 61.3836L300.145 93.2695C300.145 94.0889 300.701 94.8712 301.741 95.4672L358.567 128.396C358.715 128.471 358.901 128.582 359.049 128.657C359.086 128.694 359.161 128.694 359.198 128.731C359.235 128.769 359.309 128.769 359.346 128.806C359.383 128.843 359.458 128.843 359.495 128.843C359.606 128.88 359.717 128.918 359.829 128.955C359.866 128.955 359.94 128.992 359.977 128.992C360.051 128.992 360.089 129.029 360.163 129.029C360.237 129.067 360.311 129.067 360.386 129.104C360.423 129.104 360.46 129.141 360.534 129.141C360.645 129.178 360.72 129.178 360.831 129.178C360.905 129.178 360.942 129.216 361.017 129.216C361.054 129.216 361.054 129.216 361.091 129.216C361.239 129.253 361.425 129.253 361.61 129.29H361.648C361.685 129.29 361.722 129.29 361.759 129.29C361.87 129.29 362.019 129.29 362.13 129.327C362.167 129.327 362.241 129.327 362.279 129.327C362.353 129.327 362.427 129.327 362.501 129.327C362.575 129.327 362.613 129.327 362.687 129.327C362.761 129.327 362.835 129.327 362.909 129.327C362.984 129.327 363.058 129.327 363.169 129.327C363.206 129.327 363.244 129.327 363.281 129.327C363.429 129.327 363.615 129.29 363.763 129.253C363.837 129.253 363.912 129.216 363.986 129.216H364.023C364.171 129.178 364.32 129.141 364.468 129.104C364.506 129.104 364.506 129.104 364.543 129.067C364.691 129.029 364.802 128.992 364.914 128.955H364.951C364.951 128.955 364.951 128.955 364.988 128.955C365.211 128.88 365.433 128.806 365.619 128.731C365.805 128.657 365.99 128.545 366.176 128.433C366.176 128.433 366.176 128.433 366.213 128.433C366.213 128.433 366.25 128.433 366.25 128.396C366.361 128.322 366.436 128.284 366.51 128.21L366.547 128.173C366.658 128.098 366.733 128.024 366.807 127.949C366.807 127.949 366.807 127.949 366.844 127.912C366.844 127.912 366.844 127.912 366.881 127.875C366.992 127.763 367.104 127.651 367.178 127.577C367.178 127.577 367.178 127.577 367.178 127.539C367.178 127.539 367.178 127.502 367.215 127.502C367.289 127.39 367.364 127.316 367.401 127.204C367.438 127.13 367.475 127.092 367.475 127.018L387.964 81.9828L388.038 50.0969C388.557 49.0167 388.038 47.8992 386.664 47.0797ZM300.59 60.8994C300.553 61.0111 300.553 61.0856 300.553 61.1974C300.516 61.1229 300.553 61.0111 300.59 60.8994ZM300.219 61.6816C300.219 61.6444 300.219 61.6444 300.219 61.6071C300.219 61.6444 300.219 61.6816 300.219 61.6816ZM301.369 63.2834C301.407 63.2834 301.407 63.3206 301.444 63.3206C301.444 63.3206 301.407 63.2834 301.369 63.2834ZM304.227 58.5526C303.337 58.7016 302.594 58.9624 301.963 59.2976C302.594 58.9251 303.337 58.6644 304.227 58.5526ZM386.442 47.2287C385.143 46.4837 383.324 46.1857 381.579 46.4837C383.361 46.1857 385.18 46.4837 386.442 47.2287Z" fill="url(#paint20_linear)"/>
<path d="M300.441 62.2776C300.441 62.2404 300.404 62.2404 300.404 62.2031M300.813 62.7619C300.813 62.7991 300.85 62.7991 300.85 62.8364M386.442 47.2287C385.143 46.4837 383.324 46.1857 381.579 46.4837C383.361 46.1857 385.18 46.4837 386.442 47.2287ZM386.442 47.2287C387.407 47.7874 387.926 48.5324 387.926 49.2774M386.664 47.0797C385.291 46.2974 383.361 45.9995 381.505 46.2602L304.153 58.3664C302.297 58.6644 300.887 59.4839 300.404 60.5641C300.293 60.8249 300.219 61.0856 300.219 61.3836L300.145 93.2695C300.145 94.0889 300.701 94.8712 301.741 95.4672L358.567 128.396C358.715 128.471 358.901 128.582 359.049 128.657C359.086 128.694 359.161 128.694 359.198 128.731C359.235 128.769 359.309 128.769 359.346 128.806C359.383 128.843 359.458 128.843 359.495 128.843C359.606 128.88 359.717 128.918 359.829 128.955C359.866 128.955 359.94 128.992 359.977 128.992C360.051 128.992 360.089 129.029 360.163 129.029C360.237 129.067 360.311 129.067 360.386 129.104C360.423 129.104 360.46 129.141 360.534 129.141C360.645 129.178 360.72 129.178 360.831 129.178C360.905 129.178 360.942 129.216 361.017 129.216C361.054 129.216 361.054 129.216 361.091 129.216C361.239 129.253 361.425 129.253 361.61 129.29H361.648C361.685 129.29 361.722 129.29 361.759 129.29C361.87 129.29 362.019 129.29 362.13 129.327C362.167 129.327 362.241 129.327 362.279 129.327C362.353 129.327 362.427 129.327 362.501 129.327C362.575 129.327 362.613 129.327 362.687 129.327C362.761 129.327 362.835 129.327 362.909 129.327C362.984 129.327 363.058 129.327 363.169 129.327C363.206 129.327 363.244 129.327 363.281 129.327C363.429 129.327 363.615 129.29 363.763 129.253C363.837 129.253 363.912 129.216 363.986 129.216H364.023C364.171 129.178 364.32 129.141 364.468 129.104C364.506 129.104 364.506 129.104 364.543 129.067C364.691 129.029 364.802 128.992 364.914 128.955H364.951C364.951 128.955 364.951 128.955 364.988 128.955C365.211 128.88 365.433 128.806 365.619 128.731C365.805 128.657 365.99 128.545 366.176 128.433C366.176 128.433 366.176 128.433 366.213 128.433C366.213 128.433 366.25 128.433 366.25 128.396C366.361 128.322 366.436 128.284 366.51 128.21L366.547 128.173C366.658 128.098 366.733 128.024 366.807 127.949C366.807 127.949 366.807 127.949 366.844 127.912C366.844 127.912 366.844 127.912 366.881 127.875C366.992 127.763 367.104 127.651 367.178 127.577C367.178 127.577 367.178 127.577 367.178 127.539C367.178 127.539 367.178 127.502 367.215 127.502C367.289 127.39 367.364 127.316 367.401 127.204C367.438 127.13 367.475 127.092 367.475 127.018L387.964 81.9828L388.038 50.0969C388.557 49.0167 388.038 47.8992 386.664 47.0797ZM300.59 60.8994C300.553 61.0111 300.553 61.0856 300.553 61.1974C300.516 61.1229 300.553 61.0111 300.59 60.8994ZM300.219 61.6816C300.219 61.6444 300.219 61.6444 300.219 61.6071C300.219 61.6444 300.219 61.6816 300.219 61.6816ZM301.369 63.2834C301.407 63.2834 301.407 63.3206 301.444 63.3206C301.444 63.3206 301.407 63.2834 301.369 63.2834ZM304.227 58.5526C303.337 58.7016 302.594 58.9624 301.963 59.2976C302.594 58.9251 303.337 58.6644 304.227 58.5526Z" stroke="white" stroke-width="3.13882" stroke-miterlimit="10"/>
<path d="M386.443 47.2304C387.742 47.9754 388.225 49.0184 387.742 50.0614L367.254 95.0964C366.771 96.1022 365.472 96.8844 363.728 97.1452C361.983 97.4059 360.164 97.1452 358.865 96.4002L302.002 63.3969C300.703 62.6519 300.22 61.6089 300.703 60.5659C301.185 59.5601 302.484 58.7779 304.229 58.5171L381.618 46.4482C383.363 46.1875 385.181 46.4854 386.443 47.2304Z" fill="#56CBF9"/>
<path d="M386.443 47.2304C387.742 47.9754 388.225 49.0184 387.742 50.0614L367.254 95.0964C366.771 96.1022 365.472 96.8844 363.728 97.1452C361.983 97.4059 360.164 97.1452 358.865 96.4002L302.002 63.3969C300.703 62.6519 300.22 61.6089 300.703 60.5659C301.185 59.5601 302.484 58.7779 304.229 58.5171L381.618 46.4482C383.363 46.1875 385.181 46.4854 386.443 47.2304Z" fill="url(#paint21_linear)"/>
<path d="M386.443 47.2304C387.742 47.9754 388.225 49.0184 387.742 50.0614L367.254 95.0964C366.771 96.1022 365.472 96.8844 363.728 97.1452C361.983 97.4059 360.164 97.1452 358.865 96.4002L302.002 63.3969C300.703 62.6519 300.22 61.6089 300.703 60.5659C301.185 59.5601 302.484 58.7779 304.229 58.5171L381.618 46.4482C383.363 46.1875 385.181 46.4854 386.443 47.2304Z" stroke="white" stroke-width="3.13882" stroke-miterlimit="10"/>
<path d="M327.374 94.5114C328.655 96.653 328.004 99.3212 325.889 100.553L205.614 171.367C203.577 172.643 200.813 171.889 199.61 169.792C198.329 167.65 198.98 164.982 201.095 163.75L321.37 92.9366C323.443 91.7815 326.129 92.4912 327.374 94.5114Z" fill="#56CBF9" stroke="white" stroke-width="3.13881" stroke-miterlimit="10"/>
<path d="M297.844 145.242C299.177 147.472 298.5 150.25 296.298 151.533L171.074 225.26C168.953 226.589 166.075 225.804 164.823 223.62C163.49 221.39 164.167 218.613 166.369 217.33L291.593 143.603C293.751 142.4 296.547 143.139 297.844 145.242Z" fill="#031826" stroke="white" stroke-width="1.18829" stroke-miterlimit="10"/>
<path d="M300.914 68.875C301.063 65.9099 299.126 62.9447 295.252 60.6467L199.08 5.42082C191.481 1.04723 179.189 1.04723 171.665 5.42082L76.0885 60.6467C72.3638 62.7964 70.5014 65.6875 70.5014 68.5044L70.1289 189.334C70.1289 192.225 71.9913 195.116 75.865 197.266L172.038 252.492C172.485 252.788 172.932 253.011 173.453 253.233C173.602 253.307 173.751 253.381 173.975 253.455C174.273 253.604 174.571 253.678 174.869 253.826C174.943 253.826 174.943 253.9 175.018 253.9C175.167 253.974 175.241 253.974 175.39 254.049C175.763 254.197 176.135 254.345 176.582 254.419C176.731 254.493 176.88 254.493 176.955 254.567C177.029 254.567 177.104 254.642 177.253 254.642C177.402 254.716 177.55 254.716 177.774 254.79C178.146 254.864 178.593 255.012 178.966 255.086C179.04 255.086 179.189 255.16 179.264 255.16C179.413 255.16 179.562 255.235 179.785 255.235C180.158 255.309 180.456 255.383 180.828 255.383C180.977 255.383 181.126 255.457 181.201 255.457C181.35 255.457 181.499 255.457 181.648 255.531C181.946 255.605 182.318 255.605 182.616 255.605C182.765 255.605 182.914 255.679 183.063 255.679C183.212 255.679 183.361 255.679 183.51 255.679C183.808 255.679 184.181 255.753 184.479 255.753C184.628 255.753 184.777 255.753 185 255.753C185.149 255.753 185.298 255.753 185.372 255.753C185.745 255.753 186.117 255.753 186.415 255.753C186.564 255.753 186.788 255.753 186.937 255.753C187.011 255.753 187.16 255.753 187.235 255.753C187.682 255.753 188.129 255.679 188.576 255.679C188.725 255.679 188.948 255.679 189.097 255.679C189.172 255.679 189.246 255.679 189.321 255.679C189.47 255.679 189.619 255.679 189.693 255.605C190.14 255.531 190.587 255.457 191.034 255.383C191.109 255.383 191.258 255.383 191.332 255.309C191.407 255.309 191.407 255.309 191.481 255.309C191.705 255.235 191.928 255.235 192.077 255.16C192.449 255.086 192.822 255.012 193.12 254.938C193.343 254.864 193.641 254.79 193.865 254.716C194.163 254.642 194.535 254.567 194.833 254.419C194.908 254.419 194.982 254.345 195.057 254.345C195.429 254.197 195.876 254.049 196.249 253.9C196.323 253.9 196.323 253.826 196.398 253.826C196.845 253.678 197.217 253.455 197.664 253.307C197.813 253.233 197.888 253.233 198.037 253.159C198.484 252.937 198.931 252.714 199.378 252.492L294.954 197.266C295.029 197.192 295.103 197.192 295.178 197.118C295.252 197.044 295.327 197.044 295.401 196.969C295.55 196.895 295.625 196.821 295.774 196.747C295.848 196.673 295.997 196.599 296.072 196.525C296.146 196.451 296.295 196.376 296.37 196.302C296.444 196.228 296.593 196.154 296.668 196.08C296.742 196.006 296.891 195.932 296.966 195.857C297.04 195.783 297.115 195.709 297.264 195.635C297.338 195.561 297.487 195.487 297.562 195.413C297.562 195.413 297.636 195.339 297.711 195.339L297.785 195.264C297.934 195.116 298.083 194.968 298.232 194.82C298.307 194.746 298.307 194.746 298.381 194.671C298.53 194.449 298.754 194.301 298.903 194.078C298.903 194.004 298.977 194.004 298.977 193.93C299.052 193.782 299.201 193.708 299.275 193.559C299.35 193.485 299.35 193.411 299.424 193.337C299.499 193.189 299.573 193.115 299.648 192.966L299.722 192.892C299.722 192.818 299.797 192.818 299.797 192.744C299.871 192.67 299.871 192.522 299.946 192.448C300.02 192.373 300.02 192.299 300.095 192.225C300.169 192.151 300.169 192.003 300.244 191.929C300.244 191.855 300.318 191.855 300.318 191.78C300.318 191.706 300.318 191.706 300.393 191.632C300.393 191.558 300.467 191.41 300.467 191.336C300.467 191.261 300.542 191.187 300.542 191.113C300.542 191.039 300.616 190.891 300.616 190.817C300.616 190.743 300.616 190.743 300.616 190.668V190.594C300.616 190.52 300.616 190.372 300.691 190.298C300.691 190.224 300.691 190.15 300.691 190.075C300.691 190.001 300.691 189.853 300.691 189.779C300.691 189.705 300.691 189.631 300.691 189.631C300.691 189.557 300.691 189.482 300.691 189.482L301.063 68.6526C300.989 68.7267 300.914 68.8009 300.914 68.875ZM75.4925 61.7586C75.418 61.7586 75.418 61.8328 75.3435 61.8328C75.3435 61.8328 75.418 61.7586 75.4925 61.7586ZM71.2463 71.6178C71.2463 71.6178 71.2463 71.5436 71.1718 71.5436C71.1718 71.5436 71.2463 71.5436 71.2463 71.6178ZM70.9483 70.9506C70.9483 71.0247 71.0228 71.0989 71.0228 71.173C71.0228 71.0989 71.0228 71.0247 70.9483 70.9506ZM70.5014 68.8009C70.5014 68.875 70.5014 68.9491 70.5014 69.0974C70.5014 69.0233 70.5014 68.9491 70.5014 68.8009ZM70.7994 70.4317C70.7994 70.5058 70.8739 70.58 70.8739 70.6541C70.7994 70.58 70.7994 70.5058 70.7994 70.4317ZM199.229 131.44C198.856 131.662 198.409 131.884 197.962 132.107C197.813 132.181 197.739 132.181 197.59 132.255C197.217 132.403 196.77 132.626 196.398 132.774C196.323 132.774 196.323 132.848 196.249 132.848C195.802 132.996 195.355 133.145 194.908 133.293C194.61 133.367 194.312 133.441 193.939 133.589C193.716 133.663 193.418 133.738 193.194 133.812C192.896 133.886 192.524 133.96 192.152 134.034C191.928 134.108 191.63 134.108 191.407 134.182C191.332 134.182 191.183 134.182 191.109 134.257C190.662 134.331 190.215 134.405 189.842 134.405C189.693 134.405 189.619 134.405 189.47 134.479C189.246 134.479 188.948 134.553 188.725 134.553C188.278 134.553 187.905 134.627 187.458 134.627C187.16 134.627 186.937 134.627 186.639 134.627C186.266 134.627 185.968 134.627 185.596 134.627C185.298 134.627 185 134.627 184.702 134.627C184.404 134.627 184.106 134.627 183.734 134.553C183.436 134.553 183.138 134.479 182.84 134.479C182.542 134.479 182.244 134.405 181.946 134.405C181.648 134.405 181.35 134.331 181.126 134.257C180.828 134.182 180.456 134.182 180.158 134.108C179.86 134.034 179.636 134.034 179.413 133.96C179.04 133.886 178.668 133.812 178.295 133.663C178.072 133.589 177.774 133.515 177.551 133.441C177.402 133.367 177.327 133.367 177.178 133.293C176.806 133.145 176.433 133.07 176.061 132.922C175.986 132.848 175.837 132.848 175.763 132.774C175.39 132.626 175.092 132.477 174.794 132.329C174.645 132.255 174.496 132.181 174.347 132.107C173.9 131.884 173.453 131.662 173.006 131.365L168.239 128.623L171.889 126.473C172.261 126.251 172.708 126.028 173.155 125.806C173.304 125.732 173.379 125.732 173.528 125.658C173.9 125.509 174.347 125.287 174.72 125.139C174.794 125.139 174.794 125.065 174.869 125.065C175.316 124.916 175.763 124.768 176.21 124.62C176.508 124.546 176.88 124.472 177.178 124.323C177.402 124.249 177.7 124.175 177.923 124.101C178.295 124.027 178.593 123.953 178.966 123.878C179.189 123.804 179.487 123.804 179.711 123.73C179.785 123.73 179.934 123.73 180.009 123.656C180.456 123.582 180.828 123.508 181.275 123.508C181.424 123.508 181.499 123.508 181.648 123.434C181.871 123.434 182.169 123.36 182.393 123.36C182.84 123.36 183.212 123.285 183.659 123.285C183.957 123.285 184.181 123.285 184.479 123.285C184.851 123.285 185.149 123.285 185.521 123.285C185.819 123.285 186.117 123.285 186.341 123.285C186.639 123.285 187.011 123.285 187.309 123.36C187.607 123.36 187.905 123.434 188.203 123.434C188.501 123.434 188.799 123.508 189.172 123.508C189.47 123.508 189.693 123.582 189.991 123.656C190.289 123.73 190.662 123.73 190.96 123.804C191.183 123.879 191.481 123.879 191.705 123.953C192.077 124.027 192.449 124.101 192.896 124.249C193.12 124.323 193.418 124.397 193.641 124.472C193.79 124.546 193.865 124.546 194.014 124.62C194.386 124.768 194.759 124.842 195.131 124.99C195.206 125.065 195.355 125.065 195.429 125.139C195.802 125.287 196.1 125.435 196.398 125.583C196.547 125.658 196.696 125.732 196.845 125.806C197.292 126.028 197.739 126.251 198.186 126.547L202.953 129.29L199.229 131.44ZM294.731 61.0174C294.954 61.1656 295.178 61.3139 295.401 61.388C295.178 61.2397 294.954 61.0915 294.731 61.0174ZM300.318 71.3954C300.318 71.4695 300.244 71.4695 300.244 71.5436C300.318 71.4695 300.318 71.4695 300.318 71.3954ZM300.542 70.8765C300.542 70.9506 300.542 70.9506 300.467 71.0247C300.542 70.9506 300.542 70.8765 300.542 70.8765ZM300.691 70.3576C300.691 70.4317 300.691 70.4317 300.616 70.5058C300.691 70.4317 300.691 70.3576 300.691 70.3576ZM300.84 69.8387C300.84 69.9128 300.84 69.9128 300.84 69.9869C300.84 69.9128 300.84 69.8387 300.84 69.8387C300.84 69.7645 300.84 69.7645 300.84 69.8387Z" fill="#56CBF9"/>
<path d="M300.914 68.875C301.063 65.9099 299.126 62.9447 295.252 60.6467L199.08 5.42082C191.481 1.04723 179.189 1.04723 171.665 5.42082L76.0885 60.6467C72.3638 62.7964 70.5014 65.6875 70.5014 68.5044L70.1289 189.334C70.1289 192.225 71.9913 195.116 75.865 197.266L172.038 252.492C172.485 252.788 172.932 253.011 173.453 253.233C173.602 253.307 173.751 253.381 173.975 253.455C174.273 253.604 174.571 253.678 174.869 253.826C174.943 253.826 174.943 253.9 175.018 253.9C175.167 253.974 175.241 253.974 175.39 254.049C175.763 254.197 176.135 254.345 176.582 254.419C176.731 254.493 176.88 254.493 176.955 254.567C177.029 254.567 177.104 254.642 177.253 254.642C177.402 254.716 177.55 254.716 177.774 254.79C178.146 254.864 178.593 255.012 178.966 255.086C179.04 255.086 179.189 255.16 179.264 255.16C179.413 255.16 179.562 255.235 179.785 255.235C180.158 255.309 180.456 255.383 180.828 255.383C180.977 255.383 181.126 255.457 181.201 255.457C181.35 255.457 181.499 255.457 181.648 255.531C181.946 255.605 182.318 255.605 182.616 255.605C182.765 255.605 182.914 255.679 183.063 255.679C183.212 255.679 183.361 255.679 183.51 255.679C183.808 255.679 184.181 255.753 184.479 255.753C184.628 255.753 184.777 255.753 185 255.753C185.149 255.753 185.298 255.753 185.372 255.753C185.745 255.753 186.117 255.753 186.415 255.753C186.564 255.753 186.788 255.753 186.937 255.753C187.011 255.753 187.16 255.753 187.235 255.753C187.682 255.753 188.129 255.679 188.576 255.679C188.725 255.679 188.948 255.679 189.097 255.679C189.172 255.679 189.246 255.679 189.321 255.679C189.47 255.679 189.619 255.679 189.693 255.605C190.14 255.531 190.587 255.457 191.034 255.383C191.109 255.383 191.258 255.383 191.332 255.309C191.407 255.309 191.407 255.309 191.481 255.309C191.705 255.235 191.928 255.235 192.077 255.16C192.449 255.086 192.822 255.012 193.12 254.938C193.343 254.864 193.641 254.79 193.865 254.716C194.163 254.642 194.535 254.567 194.833 254.419C194.908 254.419 194.982 254.345 195.057 254.345C195.429 254.197 195.876 254.049 196.249 253.9C196.323 253.9 196.323 253.826 196.398 253.826C196.845 253.678 197.217 253.455 197.664 253.307C197.813 253.233 197.888 253.233 198.037 253.159C198.484 252.937 198.931 252.714 199.378 252.492L294.954 197.266C295.029 197.192 295.103 197.192 295.178 197.118C295.252 197.044 295.327 197.044 295.401 196.969C295.55 196.895 295.625 196.821 295.774 196.747C295.848 196.673 295.997 196.599 296.072 196.525C296.146 196.451 296.295 196.376 296.37 196.302C296.444 196.228 296.593 196.154 296.668 196.08C296.742 196.006 296.891 195.932 296.966 195.857C297.04 195.783 297.115 195.709 297.264 195.635C297.338 195.561 297.487 195.487 297.562 195.413C297.562 195.413 297.636 195.339 297.711 195.339L297.785 195.264C297.934 195.116 298.083 194.968 298.232 194.82C298.307 194.746 298.307 194.746 298.381 194.671C298.53 194.449 298.754 194.301 298.903 194.078C298.903 194.004 298.977 194.004 298.977 193.93C299.052 193.782 299.201 193.708 299.275 193.559C299.35 193.485 299.35 193.411 299.424 193.337C299.499 193.189 299.573 193.115 299.648 192.966L299.722 192.892C299.722 192.818 299.797 192.818 299.797 192.744C299.871 192.67 299.871 192.522 299.946 192.448C300.02 192.373 300.02 192.299 300.095 192.225C300.169 192.151 300.169 192.003 300.244 191.929C300.244 191.855 300.318 191.855 300.318 191.78C300.318 191.706 300.318 191.706 300.393 191.632C300.393 191.558 300.467 191.41 300.467 191.336C300.467 191.261 300.542 191.187 300.542 191.113C300.542 191.039 300.616 190.891 300.616 190.817C300.616 190.743 300.616 190.743 300.616 190.668V190.594C300.616 190.52 300.616 190.372 300.691 190.298C300.691 190.224 300.691 190.15 300.691 190.075C300.691 190.001 300.691 189.853 300.691 189.779C300.691 189.705 300.691 189.631 300.691 189.631C300.691 189.557 300.691 189.482 300.691 189.482L301.063 68.6526C300.989 68.7267 300.914 68.8009 300.914 68.875ZM75.4925 61.7586C75.418 61.7586 75.418 61.8328 75.3435 61.8328C75.3435 61.8328 75.418 61.7586 75.4925 61.7586ZM71.2463 71.6178C71.2463 71.6178 71.2463 71.5436 71.1718 71.5436C71.1718 71.5436 71.2463 71.5436 71.2463 71.6178ZM70.9483 70.9506C70.9483 71.0247 71.0228 71.0989 71.0228 71.173C71.0228 71.0989 71.0228 71.0247 70.9483 70.9506ZM70.5014 68.8009C70.5014 68.875 70.5014 68.9491 70.5014 69.0974C70.5014 69.0233 70.5014 68.9491 70.5014 68.8009ZM70.7994 70.4317C70.7994 70.5058 70.8739 70.58 70.8739 70.6541C70.7994 70.58 70.7994 70.5058 70.7994 70.4317ZM199.229 131.44C198.856 131.662 198.409 131.884 197.962 132.107C197.813 132.181 197.739 132.181 197.59 132.255C197.217 132.403 196.77 132.626 196.398 132.774C196.323 132.774 196.323 132.848 196.249 132.848C195.802 132.996 195.355 133.145 194.908 133.293C194.61 133.367 194.312 133.441 193.939 133.589C193.716 133.663 193.418 133.738 193.194 133.812C192.896 133.886 192.524 133.96 192.152 134.034C191.928 134.108 191.63 134.108 191.407 134.182C191.332 134.182 191.183 134.182 191.109 134.257C190.662 134.331 190.215 134.405 189.842 134.405C189.693 134.405 189.619 134.405 189.47 134.479C189.246 134.479 188.948 134.553 188.725 134.553C188.278 134.553 187.905 134.627 187.458 134.627C187.16 134.627 186.937 134.627 186.639 134.627C186.266 134.627 185.968 134.627 185.596 134.627C185.298 134.627 185 134.627 184.702 134.627C184.404 134.627 184.106 134.627 183.734 134.553C183.436 134.553 183.138 134.479 182.84 134.479C182.542 134.479 182.244 134.405 181.946 134.405C181.648 134.405 181.35 134.331 181.126 134.257C180.828 134.182 180.456 134.182 180.158 134.108C179.86 134.034 179.636 134.034 179.413 133.96C179.04 133.886 178.668 133.812 178.295 133.663C178.072 133.589 177.774 133.515 177.551 133.441C177.402 133.367 177.327 133.367 177.178 133.293C176.806 133.145 176.433 133.07 176.061 132.922C175.986 132.848 175.837 132.848 175.763 132.774C175.39 132.626 175.092 132.477 174.794 132.329C174.645 132.255 174.496 132.181 174.347 132.107C173.9 131.884 173.453 131.662 173.006 131.365L168.239 128.623L171.889 126.473C172.261 126.251 172.708 126.028 173.155 125.806C173.304 125.732 173.379 125.732 173.528 125.658C173.9 125.509 174.347 125.287 174.72 125.139C174.794 125.139 174.794 125.065 174.869 125.065C175.316 124.916 175.763 124.768 176.21 124.62C176.508 124.546 176.88 124.472 177.178 124.323C177.402 124.249 177.7 124.175 177.923 124.101C178.295 124.027 178.593 123.953 178.966 123.878C179.189 123.804 179.487 123.804 179.711 123.73C179.785 123.73 179.934 123.73 180.009 123.656C180.456 123.582 180.828 123.508 181.275 123.508C181.424 123.508 181.499 123.508 181.648 123.434C181.871 123.434 182.169 123.36 182.393 123.36C182.84 123.36 183.212 123.285 183.659 123.285C183.957 123.285 184.181 123.285 184.479 123.285C184.851 123.285 185.149 123.285 185.521 123.285C185.819 123.285 186.117 123.285 186.341 123.285C186.639 123.285 187.011 123.285 187.309 123.36C187.607 123.36 187.905 123.434 188.203 123.434C188.501 123.434 188.799 123.508 189.172 123.508C189.47 123.508 189.693 123.582 189.991 123.656C190.289 123.73 190.662 123.73 190.96 123.804C191.183 123.879 191.481 123.879 191.705 123.953C192.077 124.027 192.449 124.101 192.896 124.249C193.12 124.323 193.418 124.397 193.641 124.472C193.79 124.546 193.865 124.546 194.014 124.62C194.386 124.768 194.759 124.842 195.131 124.99C195.206 125.065 195.355 125.065 195.429 125.139C195.802 125.287 196.1 125.435 196.398 125.583C196.547 125.658 196.696 125.732 196.845 125.806C197.292 126.028 197.739 126.251 198.186 126.547L202.953 129.29L199.229 131.44ZM294.731 61.0174C294.954 61.1656 295.178 61.3139 295.401 61.388C295.178 61.2397 294.954 61.0915 294.731 61.0174ZM300.318 71.3954C300.318 71.4695 300.244 71.4695 300.244 71.5436C300.318 71.4695 300.318 71.4695 300.318 71.3954ZM300.542 70.8765C300.542 70.9506 300.542 70.9506 300.467 71.0247C300.542 70.9506 300.542 70.8765 300.542 70.8765ZM300.691 70.3576C300.691 70.4317 300.691 70.4317 300.616 70.5058C300.691 70.4317 300.691 70.3576 300.691 70.3576ZM300.84 69.8387C300.84 69.9128 300.84 69.9128 300.84 69.9869C300.84 69.9128 300.84 69.8387 300.84 69.8387C300.84 69.7645 300.84 69.7645 300.84 69.8387Z" fill="url(#paint22_linear)"/>
<path d="M75.865 197.266C71.9913 195.116 70.1289 192.225 70.1289 189.334L70.5014 68.5044C70.5014 65.6875 72.3638 62.7964 76.0885 60.6467L171.665 5.42082C179.189 1.04723 191.481 1.04723 199.08 5.42082L295.252 60.6467C299.126 62.9447 301.063 65.9099 300.914 68.875C300.914 68.8009 300.989 68.7267 301.063 68.6526L300.691 189.482C300.691 189.482 300.691 189.557 300.691 189.631C300.691 189.631 300.691 189.705 300.691 189.779C300.691 189.853 300.691 190.001 300.691 190.075C300.691 190.15 300.691 190.224 300.691 190.298C300.616 190.372 300.616 190.52 300.616 190.594V190.668C300.616 190.743 300.616 190.743 300.616 190.817C300.616 190.891 300.542 191.039 300.542 191.113C300.542 191.187 300.467 191.261 300.467 191.336C300.467 191.41 300.393 191.558 300.393 191.632C300.318 191.706 300.318 191.706 300.318 191.78C300.318 191.855 300.244 191.855 300.244 191.929C300.169 192.003 300.169 192.151 300.095 192.225C300.02 192.299 300.02 192.373 299.946 192.448C299.871 192.522 299.871 192.67 299.797 192.744C299.797 192.818 299.722 192.818 299.722 192.892L299.648 192.966C299.573 193.115 299.499 193.189 299.424 193.337C299.35 193.411 299.35 193.485 299.275 193.559C299.201 193.708 299.052 193.782 298.977 193.93C298.977 194.004 298.903 194.004 298.903 194.078C298.754 194.301 298.53 194.449 298.381 194.671C298.307 194.746 298.307 194.746 298.232 194.82C298.083 194.968 297.934 195.116 297.785 195.264L297.711 195.339C297.636 195.339 297.562 195.413 297.562 195.413C297.487 195.487 297.338 195.561 297.264 195.635C297.115 195.709 297.04 195.783 296.966 195.857C296.891 195.932 296.742 196.006 296.668 196.08C296.593 196.154 296.444 196.228 296.37 196.302C296.295 196.376 296.146 196.45 296.072 196.525C295.997 196.599 295.848 196.673 295.774 196.747C295.625 196.821 295.55 196.895 295.401 196.969C295.327 197.044 295.252 197.044 295.178 197.118C295.103 197.192 295.029 197.192 294.954 197.266L199.378 252.492C198.931 252.714 198.484 252.937 198.037 253.159C197.888 253.233 197.813 253.233 197.664 253.307C197.217 253.455 196.845 253.678 196.398 253.826C196.323 253.826 196.323 253.9 196.249 253.9C195.876 254.049 195.429 254.197 195.057 254.345C194.982 254.345 194.908 254.419 194.833 254.419C194.535 254.567 194.163 254.642 193.865 254.716C193.641 254.79 193.343 254.864 193.12 254.938C192.822 255.012 192.449 255.086 192.077 255.16C191.928 255.235 191.705 255.235 191.481 255.309C191.407 255.309 191.407 255.309 191.332 255.309C191.258 255.383 191.109 255.383 191.034 255.383C190.587 255.457 190.14 255.531 189.693 255.605C189.619 255.679 189.47 255.679 189.321 255.679C189.246 255.679 189.172 255.679 189.097 255.679C188.948 255.679 188.725 255.679 188.576 255.679C188.129 255.679 187.682 255.753 187.235 255.753C187.16 255.753 187.011 255.753 186.937 255.753C186.788 255.753 186.564 255.753 186.415 255.753C186.117 255.753 185.745 255.753 185.372 255.753C185.298 255.753 185.149 255.753 185 255.753C184.777 255.753 184.628 255.753 184.479 255.753C184.181 255.753 183.808 255.679 183.51 255.679C183.361 255.679 183.212 255.679 183.063 255.679C182.914 255.679 182.765 255.605 182.616 255.605C182.318 255.605 181.946 255.605 181.648 255.531C181.499 255.457 181.35 255.457 181.201 255.457C181.126 255.457 180.977 255.383 180.828 255.383C180.456 255.383 180.158 255.309 179.785 255.235C179.562 255.235 179.413 255.16 179.264 255.16C179.189 255.16 179.04 255.086 178.966 255.086C178.593 255.012 178.146 254.864 177.774 254.79C177.55 254.716 177.402 254.716 177.253 254.642C177.104 254.642 177.029 254.567 176.955 254.567C176.88 254.493 176.731 254.493 176.582 254.419C176.135 254.345 175.763 254.197 175.39 254.049C175.241 253.974 175.167 253.974 175.018 253.9C174.943 253.9 174.943 253.826 174.869 253.826C174.571 253.678 174.273 253.604 173.975 253.455C173.751 253.381 173.602 253.307 173.453 253.233C172.932 253.011 172.485 252.788 172.038 252.492L75.865 197.266ZM75.865 197.266V196.673M70.6504 69.9128C70.6504 69.9869 70.6504 70.0611 70.7249 70.2093M70.5759 69.3939C70.5759 69.468 70.5759 69.5422 70.5759 69.6904M300.84 69.8387C300.84 69.9128 300.84 69.9128 300.84 69.9869C300.84 69.9128 300.84 69.8387 300.84 69.8387ZM300.84 69.8387C300.84 69.7645 300.84 69.7645 300.84 69.8387ZM300.914 69.2456C300.914 69.3198 300.914 69.3939 300.914 69.3939M75.4925 61.7586C75.418 61.7586 75.418 61.8328 75.3435 61.8328C75.3435 61.8328 75.418 61.7586 75.4925 61.7586ZM71.2463 71.6178C71.2463 71.6178 71.2463 71.5436 71.1718 71.5436C71.1718 71.5436 71.2463 71.5436 71.2463 71.6178ZM70.9483 70.9506C70.9483 71.0247 71.0228 71.0989 71.0228 71.173C71.0228 71.0989 71.0228 71.0247 70.9483 70.9506ZM73.3322 63.5377C73.3322 63.6119 73.3322 63.6119 73.3322 63.5377ZM70.5014 68.8009C70.5014 68.875 70.5014 68.9491 70.5014 69.0974C70.5014 69.0233 70.5014 68.9491 70.5014 68.8009ZM70.7994 70.4317C70.7994 70.5058 70.8739 70.58 70.8739 70.6541C70.7994 70.58 70.7994 70.5058 70.7994 70.4317ZM199.229 131.44C198.856 131.662 198.409 131.884 197.962 132.107C197.813 132.181 197.739 132.181 197.59 132.255C197.217 132.403 196.77 132.626 196.398 132.774C196.323 132.774 196.323 132.848 196.249 132.848C195.802 132.996 195.355 133.145 194.908 133.293C194.61 133.367 194.312 133.441 193.939 133.589C193.716 133.663 193.418 133.738 193.194 133.812C192.896 133.886 192.524 133.96 192.152 134.034C191.928 134.108 191.63 134.108 191.407 134.182C191.332 134.182 191.183 134.182 191.109 134.257C190.662 134.331 190.215 134.405 189.842 134.405C189.693 134.405 189.619 134.405 189.47 134.479C189.246 134.479 188.948 134.553 188.725 134.553C188.278 134.553 187.905 134.627 187.458 134.627C187.16 134.627 186.937 134.627 186.639 134.627C186.266 134.627 185.968 134.627 185.596 134.627C185.298 134.627 185 134.627 184.702 134.627C184.404 134.627 184.106 134.627 183.734 134.553C183.436 134.553 183.138 134.479 182.84 134.479C182.542 134.479 182.244 134.405 181.946 134.405C181.648 134.405 181.35 134.331 181.126 134.257C180.828 134.182 180.456 134.182 180.158 134.108C179.86 134.034 179.636 134.034 179.413 133.96C179.04 133.886 178.668 133.812 178.295 133.663C178.072 133.589 177.774 133.515 177.551 133.441C177.402 133.367 177.327 133.367 177.178 133.293C176.806 133.145 176.433 133.07 176.061 132.922C175.986 132.848 175.837 132.848 175.763 132.774C175.39 132.626 175.092 132.477 174.794 132.329C174.645 132.255 174.496 132.181 174.347 132.107C173.9 131.884 173.453 131.662 173.006 131.365L168.239 128.623L171.889 126.473C172.261 126.251 172.708 126.028 173.155 125.806C173.304 125.732 173.379 125.732 173.528 125.658C173.9 125.509 174.347 125.287 174.72 125.139C174.794 125.139 174.794 125.065 174.869 125.065C175.316 124.916 175.763 124.768 176.21 124.62C176.508 124.546 176.88 124.472 177.178 124.323C177.402 124.249 177.7 124.175 177.923 124.101C178.295 124.027 178.593 123.953 178.966 123.878C179.189 123.804 179.487 123.804 179.711 123.73C179.785 123.73 179.934 123.73 180.009 123.656C180.456 123.582 180.828 123.508 181.275 123.508C181.424 123.508 181.499 123.508 181.648 123.434C181.871 123.434 182.169 123.36 182.393 123.36C182.84 123.36 183.212 123.285 183.659 123.285C183.957 123.285 184.181 123.285 184.479 123.285C184.851 123.285 185.149 123.285 185.521 123.285C185.819 123.285 186.117 123.285 186.341 123.285C186.639 123.285 187.011 123.285 187.309 123.36C187.607 123.36 187.905 123.434 188.203 123.434C188.501 123.434 188.799 123.508 189.172 123.508C189.47 123.508 189.693 123.582 189.991 123.656C190.289 123.73 190.662 123.73 190.96 123.804C191.183 123.879 191.481 123.879 191.705 123.953C192.077 124.027 192.449 124.101 192.896 124.249C193.12 124.323 193.418 124.397 193.641 124.472C193.79 124.546 193.865 124.546 194.014 124.62C194.386 124.768 194.759 124.842 195.131 124.99C195.206 125.065 195.355 125.065 195.429 125.139C195.802 125.287 196.1 125.435 196.398 125.583C196.547 125.658 196.696 125.732 196.845 125.806C197.292 126.028 197.739 126.251 198.186 126.547L202.953 129.29L199.229 131.44ZM294.731 61.0174C294.954 61.1656 295.178 61.3139 295.401 61.388C295.178 61.2397 294.954 61.0915 294.731 61.0174ZM300.318 71.3954C300.318 71.4695 300.244 71.4695 300.244 71.5436C300.318 71.4695 300.318 71.4695 300.318 71.3954ZM300.542 70.8765C300.542 70.9506 300.542 70.9506 300.467 71.0247C300.542 70.9506 300.542 70.8765 300.542 70.8765ZM300.691 70.3576C300.691 70.4317 300.691 70.4317 300.616 70.5058C300.691 70.4317 300.691 70.3576 300.691 70.3576Z" stroke="white" stroke-width="3.13882" stroke-miterlimit="10"/>
<path d="M294.73 61.015C302.031 65.1662 302.031 71.986 294.805 76.2114L199.228 131.437C192.002 135.588 180.157 135.588 172.857 131.437L76.6839 76.2114C69.3834 72.0602 69.3834 65.2403 76.6094 61.015L172.186 5.71497C179.412 1.56376 191.257 1.56376 198.558 5.71497L294.73 61.015Z" fill="#56CBF9"/>
<path d="M294.73 61.015C302.031 65.1662 302.031 71.986 294.805 76.2114L199.228 131.437C192.002 135.588 180.157 135.588 172.857 131.437L76.6839 76.2114C69.3834 72.0602 69.3834 65.2403 76.6094 61.015L172.186 5.71497C179.412 1.56376 191.257 1.56376 198.558 5.71497L294.73 61.015Z" fill="url(#paint23_linear)"/>
<path d="M294.73 61.015C302.031 65.1662 302.031 71.986 294.805 76.2114L199.228 131.437C192.002 135.588 180.157 135.588 172.857 131.437L76.6839 76.2114C69.3834 72.0602 69.3834 65.2403 76.6094 61.015L172.186 5.71497C179.412 1.56376 191.257 1.56376 198.558 5.71497L294.73 61.015Z" stroke="white" stroke-width="3.13882" stroke-miterlimit="10"/>
<path d="M141.859 203.945C143.193 206.175 142.516 208.953 140.313 210.236L15.0897 283.963C12.9688 285.292 10.0911 284.507 8.83883 282.323C7.50517 280.094 8.18242 277.316 10.3848 276.033L135.608 202.306C137.767 201.103 140.563 201.842 141.859 203.945Z" fill="#56CBF9" stroke="white" stroke-width="3.13881" stroke-miterlimit="10"/>
<path fill-rule="evenodd" clip-rule="evenodd" d="M114.13 267.109V244.508H104.158V250.023C102.251 248.455 100.072 246.941 97.5654 245.535C75.9885 233.208 41.4435 232.883 19.4306 244.616H1.61328V268.082C1.61328 276.354 7.17099 284.627 18.2319 291.007C40.2993 303.659 75.8795 303.713 97.7834 291.169C109.28 284.519 114.729 275.76 114.13 267.109Z" fill="#56CBF9"/>
<path fill-rule="evenodd" clip-rule="evenodd" d="M114.13 267.109V244.508H104.158V250.023C102.251 248.455 100.072 246.941 97.5654 245.535C75.9885 233.208 41.4435 232.883 19.4306 244.616H1.61328V268.082C1.61328 276.354 7.17099 284.627 18.2319 291.007C40.2993 303.659 75.8795 303.713 97.7834 291.169C109.28 284.519 114.729 275.76 114.13 267.109Z" fill="url(#paint24_linear)"/>
<path fill-rule="evenodd" clip-rule="evenodd" d="M114.13 267.109V244.508H104.158V250.023C102.251 248.455 100.072 246.941 97.5654 245.535C75.9885 233.208 41.4435 232.883 19.4306 244.616H1.61328V268.082C1.61328 276.354 7.17099 284.627 18.2319 291.007C40.2993 303.659 75.8795 303.713 97.7834 291.169C109.28 284.519 114.729 275.76 114.13 267.109Z" stroke="white" stroke-width="3.13882" stroke-miterlimit="10"/>
<path fill-rule="evenodd" clip-rule="evenodd" d="M97.8366 267.594C75.9327 280.138 40.298 280.084 18.2851 267.432C-3.72777 254.78 -3.89123 234.396 18.0127 221.852C39.9166 209.308 75.5513 209.362 97.5641 222.014C119.577 234.666 119.74 255.05 97.8366 267.594Z" fill="#56CBF9"/>
<path fill-rule="evenodd" clip-rule="evenodd" d="M97.8366 267.594C75.9327 280.138 40.298 280.084 18.2851 267.432C-3.72777 254.78 -3.89123 234.396 18.0127 221.852C39.9166 209.308 75.5513 209.362 97.5641 222.014C119.577 234.666 119.74 255.05 97.8366 267.594Z" fill="url(#paint25_linear)"/>
<path fill-rule="evenodd" clip-rule="evenodd" d="M97.8366 267.594C75.9327 280.138 40.298 280.084 18.2851 267.432C-3.72777 254.78 -3.89123 234.396 18.0127 221.852C39.9166 209.308 75.5513 209.362 97.5641 222.014C119.577 234.666 119.74 255.05 97.8366 267.594Z" stroke="white" stroke-width="3.13882" stroke-miterlimit="10"/>
<path d="M375.768 274.692C374.533 276.98 371.821 277.781 369.62 276.495L243.819 203.784C241.62 202.593 240.846 199.678 242.082 197.484C243.316 195.197 246.028 194.396 248.229 195.682L374.03 268.393C376.14 269.68 376.913 272.501 375.768 274.692Z" fill="#56CBF9" stroke="white" stroke-width="3.13882" stroke-miterlimit="10"/>
<path d="M393.122 242.548C393.227 240.913 392.127 239.226 390.031 238.013L349.166 214.283C346.546 212.754 342.67 212.121 339.055 212.701L283.468 221.402C279.853 221.982 277.024 223.617 276.081 225.726L261.359 258.157C261.097 258.737 260.992 259.264 261.045 259.844C261.045 259.792 261.045 259.739 261.045 259.686L260.992 285.473C260.992 287.108 262.092 288.637 264.083 289.797L304.948 313.527C305.262 313.685 305.577 313.843 305.891 314.002C305.996 314.054 306.048 314.054 306.153 314.107C306.258 314.16 306.363 314.213 306.467 314.213C306.572 314.265 306.677 314.265 306.782 314.318C306.991 314.423 307.253 314.476 307.463 314.529C307.568 314.582 307.62 314.582 307.725 314.634C307.83 314.687 307.987 314.687 308.092 314.74C308.249 314.793 308.406 314.845 308.563 314.845C308.668 314.845 308.72 314.898 308.825 314.898C309.035 314.951 309.192 314.951 309.401 315.004C309.506 315.004 309.611 315.056 309.768 315.056C309.82 315.056 309.873 315.056 309.873 315.056C310.187 315.109 310.554 315.162 310.868 315.162H310.921C310.973 315.162 311.078 315.162 311.13 315.162C311.392 315.162 311.654 315.214 311.916 315.214C312.021 315.214 312.073 315.214 312.178 315.214C312.335 315.214 312.44 315.214 312.597 315.214C312.754 315.214 312.859 315.214 313.016 315.214C313.173 315.214 313.278 315.214 313.435 315.162C313.593 315.162 313.75 315.162 313.907 315.109C314.012 315.109 314.064 315.109 314.169 315.109C314.483 315.056 314.798 315.056 315.112 315.004L370.646 306.461C370.803 306.461 370.908 306.408 371.065 306.408C371.118 306.408 371.118 306.408 371.17 306.408C371.485 306.355 371.747 306.303 372.061 306.197C372.113 306.197 372.166 306.197 372.166 306.144C372.428 306.092 372.69 305.986 372.899 305.933C372.951 305.933 372.951 305.933 373.004 305.881C373.056 305.881 373.056 305.881 373.109 305.828C373.266 305.775 373.371 305.722 373.528 305.67C373.58 305.67 373.685 305.617 373.737 305.617C373.947 305.564 374.104 305.459 374.314 305.406C374.314 305.406 374.314 305.406 374.366 305.406C374.576 305.301 374.733 305.248 374.942 305.142C374.995 305.09 375.047 305.09 375.1 305.037C375.204 304.984 375.361 304.879 375.466 304.826C375.466 304.826 375.519 304.826 375.519 304.773C375.571 304.773 375.571 304.721 375.571 304.721C375.781 304.615 375.938 304.457 376.147 304.351L376.2 304.299C376.409 304.14 376.566 303.982 376.724 303.824L376.776 303.771C376.828 303.719 376.828 303.719 376.881 303.666C376.933 303.613 376.986 303.56 377.038 303.508C377.09 303.455 377.143 303.402 377.195 303.349C377.248 303.297 377.3 303.244 377.352 303.191C377.352 303.139 377.405 303.139 377.405 303.086C377.405 303.086 377.405 303.033 377.457 303.033C377.614 302.875 377.719 302.664 377.824 302.506C377.876 302.4 377.929 302.295 377.981 302.189L392.703 269.758C392.755 269.653 392.755 269.6 392.808 269.495V269.442C392.86 269.284 392.912 269.126 392.965 268.915C392.965 268.915 392.965 268.915 392.965 268.862V268.809C393.017 268.651 393.017 268.493 393.017 268.335V268.282C393.017 268.229 393.017 268.229 393.017 268.176L393.07 242.39C393.122 242.442 393.122 242.495 393.122 242.548ZM261.516 261.479C261.464 261.426 261.464 261.374 261.464 261.321C261.464 261.374 261.464 261.426 261.516 261.479ZM377.614 276.297C377.562 276.403 377.509 276.508 377.457 276.614C377.352 276.772 377.248 276.983 377.09 277.141C377.038 277.194 377.038 277.246 376.986 277.299C376.933 277.352 376.881 277.405 376.828 277.457C376.776 277.51 376.724 277.563 376.671 277.616C376.619 277.668 376.566 277.721 376.514 277.774C376.462 277.827 376.409 277.879 376.357 277.932C376.2 278.09 376.043 278.196 375.833 278.354C375.833 278.354 375.781 278.407 375.728 278.407C375.571 278.512 375.361 278.67 375.204 278.776C375.152 278.828 375.1 278.828 375.047 278.881C374.942 278.934 374.838 278.987 374.733 279.092C374.68 279.145 374.628 279.145 374.576 279.198C374.418 279.303 374.209 279.356 374.052 279.461H373.999C373.842 279.514 373.685 279.619 373.475 279.672C373.423 279.725 373.318 279.725 373.266 279.725C373.161 279.778 373.004 279.83 372.899 279.883C372.847 279.883 372.794 279.936 372.69 279.936C372.48 279.989 372.218 280.094 371.956 280.147C371.904 280.147 371.851 280.147 371.851 280.2C371.589 280.252 371.275 280.305 371.013 280.358C370.856 280.41 370.699 280.41 370.542 280.463L314.955 289.164C314.588 289.217 314.221 289.27 313.855 289.27C313.697 289.27 313.54 289.27 313.383 289.322C313.121 289.322 312.859 289.375 312.597 289.375C312.492 289.375 312.335 289.375 312.23 289.375C311.916 289.375 311.549 289.375 311.235 289.322C311.183 289.322 311.13 289.322 311.025 289.322C310.659 289.27 310.24 289.27 309.873 289.164C309.768 289.164 309.663 289.111 309.559 289.111C309.297 289.059 309.035 289.006 308.773 288.953C308.615 288.901 308.458 288.901 308.301 288.848C308.092 288.795 307.882 288.742 307.672 288.69C307.463 288.637 307.253 288.531 307.044 288.479C306.834 288.426 306.625 288.32 306.467 288.268C306.363 288.215 306.31 288.215 306.206 288.162C305.891 288.004 305.577 287.846 305.315 287.688L269.584 266.911L276.5 251.671C276.552 251.565 276.605 251.46 276.657 251.354C276.762 251.196 276.867 250.985 277.024 250.827C277.076 250.774 277.076 250.722 277.129 250.669C277.181 250.616 277.233 250.563 277.286 250.511C277.338 250.458 277.391 250.405 277.443 250.352C277.495 250.3 277.548 250.247 277.6 250.194C277.652 250.142 277.705 250.089 277.757 250.036C277.914 249.878 278.072 249.72 278.281 249.614L278.334 249.561C278.491 249.456 278.7 249.298 278.857 249.192C278.91 249.14 278.962 249.14 279.015 249.087C279.119 249.034 279.224 248.981 279.381 248.876C279.434 248.823 279.486 248.823 279.539 248.77C279.696 248.665 279.905 248.612 280.062 248.507C280.062 248.507 280.062 248.507 280.115 248.507C280.272 248.454 280.482 248.349 280.639 248.296C280.691 248.296 280.796 248.243 280.848 248.243C281.006 248.19 281.11 248.138 281.267 248.085C281.32 248.085 281.372 248.032 281.425 248.032C281.634 247.979 281.896 247.874 282.158 247.821C282.21 247.821 282.263 247.821 282.263 247.769C282.525 247.716 282.839 247.663 283.101 247.61C283.258 247.558 283.415 247.558 283.573 247.505L339.159 238.804C339.526 238.751 339.893 238.698 340.312 238.698C340.469 238.698 340.626 238.698 340.783 238.646C341.045 238.646 341.307 238.593 341.569 238.593C341.674 238.593 341.831 238.593 341.936 238.593C342.25 238.593 342.565 238.593 342.932 238.646C342.984 238.646 343.036 238.646 343.141 238.646C343.508 238.698 343.927 238.698 344.294 238.804C344.398 238.804 344.503 238.857 344.608 238.857C344.87 238.909 345.132 238.962 345.394 239.015C345.551 239.068 345.708 239.068 345.865 239.12C346.075 239.173 346.285 239.226 346.494 239.278C346.704 239.331 346.913 239.437 347.123 239.489C347.332 239.542 347.542 239.648 347.699 239.7C347.804 239.753 347.856 239.753 347.961 239.806C348.275 239.964 348.59 240.069 348.852 240.28L384.582 261.057L377.614 276.297ZM392.912 243.603C392.86 243.708 392.86 243.814 392.808 243.919C392.86 243.814 392.86 243.708 392.912 243.603Z" fill="#56CBF9"/>
<path d="M393.122 242.548C393.227 240.913 392.127 239.226 390.031 238.013L349.166 214.283C346.546 212.754 342.67 212.121 339.055 212.701L283.468 221.402C279.853 221.982 277.024 223.617 276.081 225.726L261.359 258.157C261.097 258.737 260.992 259.264 261.045 259.844C261.045 259.792 261.045 259.739 261.045 259.686L260.992 285.473C260.992 287.108 262.092 288.637 264.083 289.797L304.948 313.527C305.262 313.685 305.577 313.843 305.891 314.002C305.996 314.054 306.048 314.054 306.153 314.107C306.258 314.16 306.363 314.213 306.467 314.213C306.572 314.265 306.677 314.265 306.782 314.318C306.991 314.423 307.253 314.476 307.463 314.529C307.568 314.582 307.62 314.582 307.725 314.634C307.83 314.687 307.987 314.687 308.092 314.74C308.249 314.793 308.406 314.845 308.563 314.845C308.668 314.845 308.72 314.898 308.825 314.898C309.035 314.951 309.192 314.951 309.401 315.004C309.506 315.004 309.611 315.056 309.768 315.056C309.82 315.056 309.873 315.056 309.873 315.056C310.187 315.109 310.554 315.162 310.868 315.162H310.921C310.973 315.162 311.078 315.162 311.13 315.162C311.392 315.162 311.654 315.214 311.916 315.214C312.021 315.214 312.073 315.214 312.178 315.214C312.335 315.214 312.44 315.214 312.597 315.214C312.754 315.214 312.859 315.214 313.016 315.214C313.173 315.214 313.278 315.214 313.435 315.162C313.593 315.162 313.75 315.162 313.907 315.109C314.012 315.109 314.064 315.109 314.169 315.109C314.483 315.056 314.798 315.056 315.112 315.004L370.646 306.461C370.803 306.461 370.908 306.408 371.065 306.408C371.118 306.408 371.118 306.408 371.17 306.408C371.485 306.355 371.747 306.303 372.061 306.197C372.113 306.197 372.166 306.197 372.166 306.144C372.428 306.092 372.69 305.986 372.899 305.933C372.951 305.933 372.951 305.933 373.004 305.881C373.056 305.881 373.056 305.881 373.109 305.828C373.266 305.775 373.371 305.722 373.528 305.67C373.58 305.67 373.685 305.617 373.737 305.617C373.947 305.564 374.104 305.459 374.314 305.406C374.314 305.406 374.314 305.406 374.366 305.406C374.576 305.301 374.733 305.248 374.942 305.142C374.995 305.09 375.047 305.09 375.1 305.037C375.204 304.984 375.361 304.879 375.466 304.826C375.466 304.826 375.519 304.826 375.519 304.773C375.571 304.773 375.571 304.721 375.571 304.721C375.781 304.615 375.938 304.457 376.147 304.351L376.2 304.299C376.409 304.14 376.566 303.982 376.724 303.824L376.776 303.771C376.828 303.719 376.828 303.719 376.881 303.666C376.933 303.613 376.986 303.56 377.038 303.508C377.09 303.455 377.143 303.402 377.195 303.349C377.248 303.297 377.3 303.244 377.352 303.191C377.352 303.139 377.405 303.139 377.405 303.086C377.405 303.086 377.405 303.033 377.457 303.033C377.614 302.875 377.719 302.664 377.824 302.506C377.876 302.4 377.929 302.295 377.981 302.189L392.703 269.758C392.755 269.653 392.755 269.6 392.808 269.495V269.442C392.86 269.284 392.912 269.126 392.965 268.915C392.965 268.915 392.965 268.915 392.965 268.862V268.809C393.017 268.651 393.017 268.493 393.017 268.335V268.282C393.017 268.229 393.017 268.229 393.017 268.176L393.07 242.39C393.122 242.442 393.122 242.495 393.122 242.548ZM261.516 261.479C261.464 261.426 261.464 261.374 261.464 261.321C261.464 261.374 261.464 261.426 261.516 261.479ZM377.614 276.297C377.562 276.403 377.509 276.508 377.457 276.614C377.352 276.772 377.248 276.983 377.09 277.141C377.038 277.194 377.038 277.246 376.986 277.299C376.933 277.352 376.881 277.405 376.828 277.457C376.776 277.51 376.724 277.563 376.671 277.616C376.619 277.668 376.566 277.721 376.514 277.774C376.462 277.827 376.409 277.879 376.357 277.932C376.2 278.09 376.043 278.196 375.833 278.354C375.833 278.354 375.781 278.407 375.728 278.407C375.571 278.512 375.361 278.67 375.204 278.776C375.152 278.828 375.1 278.828 375.047 278.881C374.942 278.934 374.838 278.987 374.733 279.092C374.68 279.145 374.628 279.145 374.576 279.198C374.418 279.303 374.209 279.356 374.052 279.461H373.999C373.842 279.514 373.685 279.619 373.475 279.672C373.423 279.725 373.318 279.725 373.266 279.725C373.161 279.778 373.004 279.83 372.899 279.883C372.847 279.883 372.794 279.936 372.69 279.936C372.48 279.989 372.218 280.094 371.956 280.147C371.904 280.147 371.851 280.147 371.851 280.2C371.589 280.252 371.275 280.305 371.013 280.358C370.856 280.41 370.699 280.41 370.542 280.463L314.955 289.164C314.588 289.217 314.221 289.27 313.855 289.27C313.697 289.27 313.54 289.27 313.383 289.322C313.121 289.322 312.859 289.375 312.597 289.375C312.492 289.375 312.335 289.375 312.23 289.375C311.916 289.375 311.549 289.375 311.235 289.322C311.183 289.322 311.13 289.322 311.025 289.322C310.659 289.27 310.24 289.27 309.873 289.164C309.768 289.164 309.663 289.111 309.559 289.111C309.297 289.059 309.035 289.006 308.773 288.953C308.615 288.901 308.458 288.901 308.301 288.848C308.092 288.795 307.882 288.742 307.672 288.69C307.463 288.637 307.253 288.531 307.044 288.479C306.834 288.426 306.625 288.32 306.467 288.268C306.363 288.215 306.31 288.215 306.206 288.162C305.891 288.004 305.577 287.846 305.315 287.688L269.584 266.911L276.5 251.671C276.552 251.565 276.605 251.46 276.657 251.354C276.762 251.196 276.867 250.985 277.024 250.827C277.076 250.774 277.076 250.722 277.129 250.669C277.181 250.616 277.233 250.563 277.286 250.511C277.338 250.458 277.391 250.405 277.443 250.352C277.495 250.3 277.548 250.247 277.6 250.194C277.652 250.142 277.705 250.089 277.757 250.036C277.914 249.878 278.072 249.72 278.281 249.614L278.334 249.561C278.491 249.456 278.7 249.298 278.857 249.192C278.91 249.14 278.962 249.14 279.015 249.087C279.119 249.034 279.224 248.981 279.381 248.876C279.434 248.823 279.486 248.823 279.539 248.77C279.696 248.665 279.905 248.612 280.062 248.507C280.062 248.507 280.062 248.507 280.115 248.507C280.272 248.454 280.482 248.349 280.639 248.296C280.691 248.296 280.796 248.243 280.848 248.243C281.006 248.19 281.11 248.138 281.267 248.085C281.32 248.085 281.372 248.032 281.425 248.032C281.634 247.979 281.896 247.874 282.158 247.821C282.21 247.821 282.263 247.821 282.263 247.769C282.525 247.716 282.839 247.663 283.101 247.61C283.258 247.558 283.415 247.558 283.573 247.505L339.159 238.804C339.526 238.751 339.893 238.698 340.312 238.698C340.469 238.698 340.626 238.698 340.783 238.646C341.045 238.646 341.307 238.593 341.569 238.593C341.674 238.593 341.831 238.593 341.936 238.593C342.25 238.593 342.565 238.593 342.932 238.646C342.984 238.646 343.036 238.646 343.141 238.646C343.508 238.698 343.927 238.698 344.294 238.804C344.398 238.804 344.503 238.857 344.608 238.857C344.87 238.909 345.132 238.962 345.394 239.015C345.551 239.068 345.708 239.068 345.865 239.12C346.075 239.173 346.285 239.226 346.494 239.278C346.704 239.331 346.913 239.437 347.123 239.489C347.332 239.542 347.542 239.648 347.699 239.7C347.804 239.753 347.856 239.753 347.961 239.806C348.275 239.964 348.59 240.069 348.852 240.28L384.582 261.057L377.614 276.297ZM392.912 243.603C392.86 243.708 392.86 243.814 392.808 243.919C392.86 243.814 392.86 243.708 392.912 243.603Z" fill="url(#paint26_linear)"/>
<path d="M393.122 242.548C393.227 240.913 392.127 239.226 390.031 238.013L349.166 214.283C346.546 212.754 342.67 212.121 339.055 212.701L283.468 221.402C279.853 221.982 277.024 223.617 276.081 225.726L261.359 258.157C261.097 258.737 260.992 259.264 261.045 259.844C261.045 259.792 261.045 259.739 261.045 259.686L260.992 285.473C260.992 287.108 262.092 288.637 264.083 289.797L304.948 313.527C305.262 313.685 305.577 313.843 305.891 314.002C305.996 314.054 306.048 314.054 306.153 314.107C306.258 314.16 306.363 314.213 306.467 314.213C306.572 314.265 306.677 314.265 306.782 314.318C306.991 314.423 307.253 314.476 307.463 314.529C307.568 314.582 307.62 314.582 307.725 314.634C307.83 314.687 307.987 314.687 308.092 314.74C308.249 314.793 308.406 314.845 308.563 314.845C308.668 314.845 308.72 314.898 308.825 314.898C309.035 314.951 309.192 314.951 309.401 315.004C309.506 315.004 309.611 315.056 309.768 315.056C309.82 315.056 309.873 315.056 309.873 315.056C310.187 315.109 310.554 315.162 310.868 315.162H310.921C310.973 315.162 311.078 315.162 311.13 315.162C311.392 315.162 311.654 315.214 311.916 315.214C312.021 315.214 312.073 315.214 312.178 315.214C312.335 315.214 312.44 315.214 312.597 315.214C312.754 315.214 312.859 315.214 313.016 315.214C313.173 315.214 313.278 315.214 313.435 315.162C313.593 315.162 313.75 315.162 313.907 315.109C314.012 315.109 314.064 315.109 314.169 315.109C314.483 315.056 314.798 315.056 315.112 315.004L370.646 306.461C370.803 306.461 370.908 306.408 371.065 306.408C371.118 306.408 371.118 306.408 371.17 306.408C371.485 306.355 371.747 306.303 372.061 306.197C372.113 306.197 372.166 306.197 372.166 306.144C372.428 306.092 372.69 305.986 372.899 305.933C372.951 305.933 372.951 305.933 373.004 305.881C373.056 305.881 373.056 305.881 373.109 305.828C373.266 305.775 373.371 305.722 373.528 305.67C373.58 305.67 373.685 305.617 373.737 305.617C373.947 305.564 374.104 305.459 374.314 305.406C374.314 305.406 374.314 305.406 374.366 305.406C374.576 305.301 374.733 305.248 374.942 305.142C374.995 305.09 375.047 305.09 375.1 305.037C375.204 304.984 375.361 304.879 375.466 304.826C375.466 304.826 375.519 304.826 375.519 304.773C375.571 304.773 375.571 304.721 375.571 304.721C375.781 304.615 375.938 304.457 376.147 304.351L376.2 304.299C376.409 304.14 376.566 303.982 376.724 303.824L376.776 303.771C376.828 303.719 376.828 303.719 376.881 303.666C376.933 303.613 376.986 303.56 377.038 303.508C377.09 303.455 377.143 303.402 377.195 303.349C377.248 303.297 377.3 303.244 377.352 303.191C377.352 303.139 377.405 303.139 377.405 303.086C377.405 303.086 377.405 303.033 377.457 303.033C377.614 302.875 377.719 302.664 377.824 302.506C377.876 302.4 377.929 302.295 377.981 302.189L392.703 269.758C392.755 269.653 392.755 269.6 392.808 269.495V269.442C392.86 269.284 392.912 269.126 392.965 268.915C392.965 268.915 392.965 268.915 392.965 268.862V268.809C393.017 268.651 393.017 268.493 393.017 268.335V268.282C393.017 268.229 393.017 268.229 393.017 268.176L393.07 242.39C393.122 242.442 393.122 242.495 393.122 242.548ZM261.516 261.479C261.464 261.426 261.464 261.374 261.464 261.321C261.464 261.374 261.464 261.426 261.516 261.479ZM377.614 276.297C377.562 276.403 377.509 276.508 377.457 276.614C377.352 276.772 377.248 276.983 377.09 277.141C377.038 277.194 377.038 277.246 376.986 277.299C376.933 277.352 376.881 277.405 376.828 277.457C376.776 277.51 376.724 277.563 376.671 277.616C376.619 277.668 376.566 277.721 376.514 277.774C376.462 277.827 376.409 277.879 376.357 277.932C376.2 278.09 376.043 278.196 375.833 278.354C375.833 278.354 375.781 278.407 375.728 278.407C375.571 278.512 375.361 278.67 375.204 278.776C375.152 278.828 375.1 278.828 375.047 278.881C374.942 278.934 374.838 278.987 374.733 279.092C374.68 279.145 374.628 279.145 374.576 279.198C374.418 279.303 374.209 279.356 374.052 279.461H373.999C373.842 279.514 373.685 279.619 373.475 279.672C373.423 279.725 373.318 279.725 373.266 279.725C373.161 279.778 373.004 279.83 372.899 279.883C372.847 279.883 372.794 279.936 372.69 279.936C372.48 279.989 372.218 280.094 371.956 280.147C371.904 280.147 371.851 280.147 371.851 280.2C371.589 280.252 371.275 280.305 371.013 280.358C370.856 280.41 370.699 280.41 370.542 280.463L314.955 289.164C314.588 289.217 314.221 289.27 313.855 289.27C313.697 289.27 313.54 289.27 313.383 289.322C313.121 289.322 312.859 289.375 312.597 289.375C312.492 289.375 312.335 289.375 312.23 289.375C311.916 289.375 311.549 289.375 311.235 289.322C311.183 289.322 311.13 289.322 311.025 289.322C310.659 289.27 310.24 289.27 309.873 289.164C309.768 289.164 309.663 289.111 309.559 289.111C309.297 289.059 309.035 289.006 308.773 288.953C308.615 288.901 308.458 288.901 308.301 288.848C308.092 288.795 307.882 288.742 307.672 288.69C307.463 288.637 307.253 288.531 307.044 288.479C306.834 288.426 306.625 288.32 306.467 288.268C306.363 288.215 306.31 288.215 306.206 288.162C305.891 288.004 305.577 287.846 305.315 287.688L269.584 266.911L276.5 251.671C276.552 251.565 276.605 251.46 276.657 251.354C276.762 251.196 276.867 250.985 277.024 250.827C277.076 250.774 277.076 250.722 277.129 250.669C277.181 250.616 277.233 250.563 277.286 250.511C277.338 250.458 277.391 250.405 277.443 250.352C277.495 250.3 277.548 250.247 277.6 250.194C277.652 250.142 277.705 250.089 277.757 250.036C277.914 249.878 278.072 249.72 278.281 249.614L278.334 249.561C278.491 249.456 278.7 249.298 278.857 249.192C278.91 249.14 278.962 249.14 279.015 249.087C279.119 249.034 279.224 248.981 279.381 248.876C279.434 248.823 279.486 248.823 279.539 248.77C279.696 248.665 279.905 248.612 280.062 248.507C280.062 248.507 280.062 248.507 280.115 248.507C280.272 248.454 280.482 248.349 280.639 248.296C280.691 248.296 280.796 248.243 280.848 248.243C281.006 248.19 281.11 248.138 281.267 248.085C281.32 248.085 281.372 248.032 281.425 248.032C281.634 247.979 281.896 247.874 282.158 247.821C282.21 247.821 282.263 247.821 282.263 247.769C282.525 247.716 282.839 247.663 283.101 247.61C283.258 247.558 283.415 247.558 283.573 247.505L339.159 238.804C339.526 238.751 339.893 238.698 340.312 238.698C340.469 238.698 340.626 238.698 340.783 238.646C341.045 238.646 341.307 238.593 341.569 238.593C341.674 238.593 341.831 238.593 341.936 238.593C342.25 238.593 342.565 238.593 342.932 238.646C342.984 238.646 343.036 238.646 343.141 238.646C343.508 238.698 343.927 238.698 344.294 238.804C344.398 238.804 344.503 238.857 344.608 238.857C344.87 238.909 345.132 238.962 345.394 239.015C345.551 239.068 345.708 239.068 345.865 239.12C346.075 239.173 346.285 239.226 346.494 239.278C346.704 239.331 346.913 239.437 347.123 239.489C347.332 239.542 347.542 239.648 347.699 239.7C347.804 239.753 347.856 239.753 347.961 239.806C348.275 239.964 348.59 240.069 348.852 240.28L384.582 261.057L377.614 276.297ZM392.912 243.603C392.86 243.708 392.86 243.814 392.808 243.919C392.86 243.814 392.86 243.708 392.912 243.603Z" stroke="white" stroke-width="3.13882" stroke-miterlimit="10"/>
<path d="M389.716 238.228C392.231 239.704 393.226 241.866 392.336 243.87L377.614 276.301C376.723 278.305 373.999 279.887 370.541 280.415L314.954 289.116C311.496 289.643 307.829 289.063 305.262 287.586L264.397 263.856C261.882 262.38 260.887 260.218 261.777 258.214L276.499 225.783C277.39 223.779 280.114 222.197 283.572 221.67L339.159 212.969C342.617 212.441 346.284 213.021 348.851 214.498L389.716 238.228Z" fill="#56CBF9"/>
<path d="M389.716 238.228C392.231 239.704 393.226 241.866 392.336 243.87L377.614 276.301C376.723 278.305 373.999 279.887 370.541 280.415L314.954 289.116C311.496 289.643 307.829 289.063 305.262 287.586L264.397 263.856C261.882 262.38 260.887 260.218 261.777 258.214L276.499 225.783C277.39 223.779 280.114 222.197 283.572 221.67L339.159 212.969C342.617 212.441 346.284 213.021 348.851 214.498L389.716 238.228Z" fill="url(#paint27_linear)"/>
<path d="M389.716 238.228C392.231 239.704 393.226 241.866 392.336 243.87L377.614 276.301C376.723 278.305 373.999 279.887 370.541 280.415L314.954 289.116C311.496 289.643 307.829 289.063 305.262 287.586L264.397 263.856C261.882 262.38 260.887 260.218 261.777 258.214L276.499 225.783C277.39 223.779 280.114 222.197 283.572 221.67L339.159 212.969C342.617 212.441 346.284 213.021 348.851 214.498L389.716 238.228Z" stroke="white" stroke-width="3.13882" stroke-miterlimit="10"/>
<path d="M215.067 51.1417C218.686 53.2623 220.242 55.8714 220.258 58.2318C220.273 60.5864 218.757 63.1882 215.144 65.3054C211.532 67.4215 206.723 68.5158 201.836 68.5158C196.95 68.5158 192.12 67.4222 188.468 65.3039C184.85 63.1837 183.294 60.5752 183.279 58.2154C183.264 55.8608 184.78 53.259 188.393 51.1417C192.004 49.0261 196.832 47.9313 201.73 47.9313C206.627 47.9313 211.456 49.0261 215.067 51.1417Z" stroke="white" stroke-width="2.51106"/>
<mask id="path-44-inside-1" fill="white">
<path d="M216.314 49.6673C224.396 54.4108 224.396 62.0316 216.391 66.7751C208.385 71.5187 195.299 71.5187 187.216 66.7751C179.134 62.0316 179.134 54.4108 187.139 49.6673C195.222 45.0015 208.308 45.0015 216.314 49.6673ZM187.909 66.3863C195.607 70.8966 208.154 70.8966 215.852 66.3863C223.55 61.8761 223.473 54.5664 215.775 50.0561C208.077 45.5459 195.53 45.5459 187.832 50.0561C180.134 54.5664 180.134 61.8761 187.909 66.3863Z"/>
</mask>
<path d="M216.314 49.6673C224.396 54.4108 224.396 62.0316 216.391 66.7751C208.385 71.5187 195.299 71.5187 187.216 66.7751C179.134 62.0316 179.134 54.4108 187.139 49.6673C195.222 45.0015 208.308 45.0015 216.314 49.6673ZM187.909 66.3863C195.607 70.8966 208.154 70.8966 215.852 66.3863C223.55 61.8761 223.473 54.5664 215.775 50.0561C208.077 45.5459 195.53 45.5459 187.832 50.0561C180.134 54.5664 180.134 61.8761 187.909 66.3863Z" fill="white"/>
<path d="M216.314 49.6673L217.585 47.5016L217.578 47.4978L216.314 49.6673ZM187.139 49.6673L185.884 47.4926L185.871 47.4997L185.859 47.507L187.139 49.6673ZM187.909 66.3863L189.178 64.2198L189.169 64.2143L187.909 66.3863ZM215.043 51.8329C218.624 53.9349 219.868 56.3311 219.874 58.229C219.88 60.1262 218.652 62.5166 215.111 64.6148L217.671 68.9355C222.135 66.2902 224.91 62.4984 224.896 58.2134C224.883 53.9292 222.086 50.1433 217.585 47.5017L215.043 51.8329ZM215.111 64.6148C211.587 66.7027 206.785 67.8217 201.832 67.8217C196.881 67.8217 192.054 66.7031 188.487 64.6095L185.945 68.9408C190.461 71.5908 196.218 72.8439 201.832 72.8439C207.445 72.8439 213.189 71.5912 217.671 68.9355L215.111 64.6148ZM188.487 64.6095C184.906 62.5076 183.662 60.1114 183.656 58.2134C183.65 56.3162 184.878 53.9259 188.419 51.8276L185.859 47.507C181.395 50.1523 178.62 53.9441 178.634 58.229C178.647 62.5132 181.444 66.2992 185.945 68.9408L188.487 64.6095ZM188.395 51.842C191.965 49.7809 196.798 48.679 201.755 48.679C206.714 48.679 211.523 49.7814 215.049 51.8368L217.578 47.4978C213.099 44.8875 207.362 43.6569 201.755 43.6569C196.148 43.6569 190.396 44.8879 185.884 47.4926L188.395 51.842ZM186.64 68.5529C190.964 71.0869 196.492 72.2801 201.88 72.2801C207.269 72.2801 212.796 71.0869 217.121 68.5529L214.582 64.2198C211.21 66.196 206.614 67.258 201.88 67.258C197.147 67.258 192.551 66.196 189.178 64.2198L186.64 68.5529ZM217.121 68.5529C221.441 66.022 224.125 62.3606 224.098 58.2049C224.071 54.0607 221.353 50.4139 217.044 47.8896L214.505 52.2227C217.895 54.2086 219.064 56.4718 219.076 58.2376C219.087 59.9919 217.961 62.2404 214.582 64.2198L217.121 68.5529ZM217.044 47.8896C212.719 45.3556 207.192 44.1624 201.803 44.1624C196.415 44.1624 190.887 45.3556 186.563 47.8896L189.101 52.2227C192.474 50.2464 197.07 49.1845 201.803 49.1845C206.537 49.1845 211.133 50.2464 214.505 52.2227L217.044 47.8896ZM186.563 47.8896C182.25 50.4162 179.544 54.0727 179.557 58.2294C179.571 62.3852 182.3 66.0355 186.649 68.5584L189.169 64.2143C185.743 62.2269 184.585 59.9672 184.579 58.213C184.574 56.4598 185.716 54.2063 189.101 52.2227L186.563 47.8896Z" fill="white" mask="url(#path-44-inside-1)"/>
<path d="M157.442 83.6545L157.44 83.6533C148.256 78.3207 142.729 71.7731 141.006 64.7528C145.498 62.6722 157.435 58.4043 174.292 61.341C175.429 64.8574 178.226 67.9235 182.272 70.2706C186.537 72.777 191.937 74.3486 197.815 74.8895C200.131 79.5217 199.562 83.414 197.997 86.5162C196.43 89.6229 193.833 91.9846 191.923 93.4097C178.854 92.5133 166.605 88.9977 157.442 83.6545Z" stroke="white" stroke-width="2.51106"/>
<mask id="path-47-inside-2" fill="white">
<path d="M192.837 95.1632L192.683 95.241H192.452C178.75 94.3856 165.895 90.8085 156.195 85.1318C146.265 79.2996 140.184 72.0676 138.645 63.9803V63.8247L138.798 63.747C142.493 61.8807 156.041 56.0484 175.825 59.7811L176.056 59.8588L176.133 60.0144C176.902 63.3582 179.443 66.4687 183.522 68.8016C187.525 71.1345 192.991 72.6897 198.841 73.0785H199.149L199.226 73.2341C205.461 84.4319 196.84 92.286 192.837 95.1632ZM156.811 84.743C166.279 90.2641 178.904 93.8412 192.298 94.6966C196.224 91.8194 204.306 84.2764 198.61 73.7006C192.683 73.2341 187.14 71.6788 183.061 69.2681C178.904 66.8575 176.21 63.747 175.44 60.3254C156.503 56.8261 143.494 62.1917 139.722 64.1358C141.185 71.9898 147.112 79.144 156.811 84.743Z"/>
</mask>
<path d="M192.837 95.1632L192.683 95.241H192.452C178.75 94.3856 165.895 90.8085 156.195 85.1318C146.265 79.2996 140.184 72.0676 138.645 63.9803V63.8247L138.798 63.747C142.493 61.8807 156.041 56.0484 175.825 59.7811L176.056 59.8588L176.133 60.0144C176.902 63.3582 179.443 66.4687 183.522 68.8016C187.525 71.1345 192.991 72.6897 198.841 73.0785H199.149L199.226 73.2341C205.461 84.4319 196.84 92.286 192.837 95.1632ZM156.811 84.743C166.279 90.2641 178.904 93.8412 192.298 94.6966C196.224 91.8194 204.306 84.2764 198.61 73.7006C192.683 73.2341 187.14 71.6788 183.061 69.2681C178.904 66.8575 176.21 63.747 175.44 60.3254C156.503 56.8261 143.494 62.1917 139.722 64.1358C141.185 71.9898 147.112 79.144 156.811 84.743Z" fill="white"/>
<path d="M192.837 95.1632L193.969 97.4045L194.144 97.3163L194.302 97.2022L192.837 95.1632ZM192.683 95.241V97.752H193.281L193.815 97.4823L192.683 95.241ZM192.452 95.241L192.295 97.7471L192.374 97.752H192.452V95.241ZM156.195 85.1318L154.924 87.297L154.927 87.2989L156.195 85.1318ZM138.645 63.9803H136.133V64.2171L136.178 64.4499L138.645 63.9803ZM138.645 63.8247L137.512 61.5833L136.133 62.2798V63.8247H138.645ZM138.798 63.747L139.931 65.9884L139.931 65.9883L138.798 63.747ZM175.825 59.7811L176.626 57.4013L176.461 57.3458L176.29 57.3135L175.825 59.7811ZM176.056 59.8588L178.306 58.7449L177.844 57.8115L176.857 57.4791L176.056 59.8588ZM176.133 60.0144L178.58 59.451L178.514 59.1642L178.383 58.9004L176.133 60.0144ZM183.522 68.8016L184.787 66.6321L184.778 66.6269L184.769 66.6217L183.522 68.8016ZM198.841 73.0785L198.674 75.5841L198.758 75.5896H198.841V73.0785ZM199.149 73.0785L201.399 71.9646L200.708 70.5675H199.149V73.0785ZM199.226 73.2341L196.975 74.348L197.002 74.4025L197.032 74.4556L199.226 73.2341ZM156.811 84.743L158.076 82.5737L158.067 82.5682L156.811 84.743ZM192.298 94.6966L192.138 97.2026L193.047 97.2607L193.782 96.722L192.298 94.6966ZM198.61 73.7006L200.821 72.5099L200.172 71.3047L198.807 71.1973L198.61 73.7006ZM183.061 69.2681L184.338 67.1063L184.329 67.1011L184.32 67.0959L183.061 69.2681ZM175.44 60.3254L177.89 59.7742L177.526 58.1573L175.896 57.8562L175.44 60.3254ZM139.722 64.1358L138.572 61.9038L136.912 62.7594L137.254 64.5955L139.722 64.1358ZM191.704 92.9219L191.551 92.9997L193.815 97.4823L193.969 97.4045L191.704 92.9219ZM192.683 92.7299H192.452V97.752H192.683V92.7299ZM192.608 92.7348C179.211 91.8984 166.756 88.403 157.464 82.9646L154.927 87.2989C165.033 93.2139 178.289 96.8727 192.295 97.7471L192.608 92.7348ZM157.467 82.9666C147.884 77.3382 142.465 70.6227 141.111 63.5107L136.178 64.4499C137.903 73.5125 144.647 81.261 154.924 87.297L157.467 82.9666ZM141.156 63.9803V63.8247H136.133V63.9803H141.156ZM139.777 66.0661L139.931 65.9884L137.666 61.5056L137.512 61.5833L139.777 66.0661ZM139.931 65.9883C143.304 64.2842 156.282 58.6492 175.359 62.2486L176.29 57.3135C155.801 53.4477 141.682 59.4771 137.666 61.5056L139.931 65.9883ZM175.023 62.1608L175.254 62.2386L176.857 57.4791L176.626 57.4013L175.023 62.1608ZM173.805 60.9728L173.882 61.1283L178.383 58.9004L178.306 58.7449L173.805 60.9728ZM173.686 60.5777C174.656 64.7929 177.779 68.4102 182.276 70.9814L184.769 66.6217C181.106 64.5272 179.149 61.9234 178.58 59.451L173.686 60.5777ZM182.258 70.9711C186.662 73.5378 192.522 75.1751 198.674 75.5841L199.008 70.573C193.46 70.2043 188.388 68.7311 184.787 66.6321L182.258 70.9711ZM198.841 75.5896H199.149V70.5675H198.841V75.5896ZM196.898 74.1925L196.975 74.348L201.476 72.1201L201.399 71.9646L196.898 74.1925ZM197.032 74.4556C199.712 79.2684 199.161 83.1471 197.628 86.1887C196.018 89.3841 193.239 91.7814 191.371 93.1242L194.302 97.2022C196.437 95.6678 199.971 92.6994 202.113 88.449C204.333 84.0448 204.975 78.3976 201.42 72.0125L197.032 74.4556ZM155.546 86.9122C165.413 92.6658 178.432 96.3273 192.138 97.2026L192.458 92.1907C179.375 91.3552 167.146 87.8625 158.076 82.5738L155.546 86.9122ZM193.782 96.722C195.877 95.1869 199.245 92.2992 201.304 88.2164C203.436 83.9906 204.096 78.5901 200.821 72.5099L196.399 74.8914C198.821 79.3869 198.288 83.0459 196.82 85.9547C195.281 89.0067 192.645 91.3292 190.814 92.6713L193.782 96.722ZM198.807 71.1973C193.154 70.7523 188.007 69.274 184.338 67.1063L181.783 71.43C186.274 74.0836 192.212 75.7158 198.413 76.2039L198.807 71.1973ZM184.32 67.0959C180.513 64.8881 178.451 62.2704 177.89 59.7742L172.99 60.8766C173.968 65.2236 177.294 68.8269 181.801 71.4404L184.32 67.0959ZM175.896 57.8562C156.283 54.2318 142.707 59.7726 138.572 61.9038L140.873 66.3678C144.282 64.6108 156.724 59.4204 174.984 62.7947L175.896 57.8562ZM137.254 64.5955C138.898 73.4251 145.485 81.1045 155.556 86.9177L158.067 82.5682C148.739 77.1836 143.472 70.5546 142.191 63.6761L137.254 64.5955Z" fill="white" mask="url(#path-47-inside-2)"/>
<defs>
<linearGradient id="paint0_linear" x1="388.674" y1="60.6535" x2="385.985" y2="60.6596" gradientUnits="userSpaceOnUse">
<stop stop-color="#4392F1"/>
<stop offset="1" stop-color="#56CBF9"/>
</linearGradient>
<linearGradient id="paint1_linear" x1="385.916" y1="59.5466" x2="385.136" y2="59.5472" gradientUnits="userSpaceOnUse">
<stop stop-color="#4392F1"/>
<stop offset="1" stop-color="#56CBF9"/>
</linearGradient>
<linearGradient id="paint2_linear" x1="385.295" y1="59.4314" x2="384.601" y2="59.4318" gradientUnits="userSpaceOnUse">
<stop stop-color="#4392F1"/>
<stop offset="1" stop-color="#56CBF9"/>
</linearGradient>
<linearGradient id="paint3_linear" x1="384.765" y1="59.3031" x2="384.115" y2="59.3035" gradientUnits="userSpaceOnUse">
<stop stop-color="#4392F1"/>
<stop offset="1" stop-color="#56CBF9"/>
</linearGradient>
<linearGradient id="paint4_linear" x1="384.284" y1="59.253" x2="383.634" y2="59.2533" gradientUnits="userSpaceOnUse">
<stop stop-color="#4392F1"/>
<stop offset="1" stop-color="#56CBF9"/>
</linearGradient>
<linearGradient id="paint5_linear" x1="383.8" y1="59.2139" x2="383.15" y2="59.2143" gradientUnits="userSpaceOnUse">
<stop stop-color="#4392F1"/>
<stop offset="1" stop-color="#56CBF9"/>
</linearGradient>
<linearGradient id="paint6_linear" x1="383.33" y1="59.1989" x2="382.636" y2="59.1993" gradientUnits="userSpaceOnUse">
<stop stop-color="#4392F1"/>
<stop offset="1" stop-color="#56CBF9"/>
</linearGradient>
<linearGradient id="paint7_linear" x1="382.82" y1="59.2139" x2="382.083" y2="59.2144" gradientUnits="userSpaceOnUse">
<stop stop-color="#4392F1"/>
<stop offset="1" stop-color="#56CBF9"/>
</linearGradient>
<linearGradient id="paint8_linear" x1="382.241" y1="59.2679" x2="381.591" y2="59.2683" gradientUnits="userSpaceOnUse">
<stop stop-color="#4392F1"/>
<stop offset="1" stop-color="#56CBF9"/>
</linearGradient>
<linearGradient id="paint9_linear" x1="304.317" y1="71.3897" x2="304.013" y2="71.3898" gradientUnits="userSpaceOnUse">
<stop stop-color="#4392F1"/>
<stop offset="1" stop-color="#56CBF9"/>
</linearGradient>
<linearGradient id="paint10_linear" x1="304.385" y1="71.4646" x2="303.171" y2="71.4659" gradientUnits="userSpaceOnUse">
<stop stop-color="#4392F1"/>
<stop offset="1" stop-color="#56CBF9"/>
</linearGradient>
<linearGradient id="paint11_linear" x1="303.478" y1="71.8462" x2="302.047" y2="71.848" gradientUnits="userSpaceOnUse">
<stop stop-color="#4392F1"/>
<stop offset="1" stop-color="#56CBF9"/>
</linearGradient>
<linearGradient id="paint12_linear" x1="302.171" y1="72.3358" x2="301.304" y2="72.3364" gradientUnits="userSpaceOnUse">
<stop stop-color="#4392F1"/>
<stop offset="1" stop-color="#56CBF9"/>
</linearGradient>
<linearGradient id="paint13_linear" x1="301.417" y1="72.7361" x2="300.984" y2="72.7363" gradientUnits="userSpaceOnUse">
<stop stop-color="#4392F1"/>
<stop offset="1" stop-color="#56CBF9"/>
</linearGradient>
<linearGradient id="paint14_linear" x1="301.061" y1="73.061" x2="300.714" y2="73.0611" gradientUnits="userSpaceOnUse">
<stop stop-color="#4392F1"/>
<stop offset="1" stop-color="#56CBF9"/>
</linearGradient>
<linearGradient id="paint15_linear" x1="300.854" y1="73.3429" x2="300.593" y2="73.3429" gradientUnits="userSpaceOnUse">
<stop stop-color="#4392F1"/>
<stop offset="1" stop-color="#56CBF9"/>
</linearGradient>
<linearGradient id="paint16_linear" x1="300.681" y1="73.6547" x2="300.508" y2="73.6548" gradientUnits="userSpaceOnUse">
<stop stop-color="#4392F1"/>
<stop offset="1" stop-color="#56CBF9"/>
</linearGradient>
<linearGradient id="paint17_linear" x1="300.593" y1="73.9555" x2="300.463" y2="73.9555" gradientUnits="userSpaceOnUse">
<stop stop-color="#4392F1"/>
<stop offset="1" stop-color="#56CBF9"/>
</linearGradient>
<linearGradient id="paint18_linear" x1="300.544" y1="74.1436" x2="300.457" y2="74.1436" gradientUnits="userSpaceOnUse">
<stop stop-color="#4392F1"/>
<stop offset="1" stop-color="#56CBF9"/>
</linearGradient>
<linearGradient id="paint19_linear" x1="302.507" y1="74.9958" x2="300.686" y2="74.9986" gradientUnits="userSpaceOnUse">
<stop stop-color="#4392F1"/>
<stop offset="1" stop-color="#56CBF9"/>
</linearGradient>
<linearGradient id="paint20_linear" x1="416.841" y1="79.6233" x2="314.074" y2="83.3307" gradientUnits="userSpaceOnUse">
<stop stop-color="#4392F1"/>
<stop offset="1" stop-color="#56CBF9"/>
</linearGradient>
<linearGradient id="paint21_linear" x1="416.309" y1="66.828" x2="314.556" y2="72.78" gradientUnits="userSpaceOnUse">
<stop stop-color="#4392F1"/>
<stop offset="1" stop-color="#56CBF9"/>
</linearGradient>
<linearGradient id="paint22_linear" x1="376.054" y1="104.17" x2="106.555" y2="112.528" gradientUnits="userSpaceOnUse">
<stop stop-color="#4392F1"/>
<stop offset="1" stop-color="#56CBF9"/>
</linearGradient>
<linearGradient id="paint23_linear" x1="374.583" y1="55.6853" x2="107.997" y2="71.4429" gradientUnits="userSpaceOnUse">
<stop stop-color="#4392F1"/>
<stop offset="1" stop-color="#56CBF9"/>
</linearGradient>
<linearGradient id="paint24_linear" x1="150.726" y1="261.991" x2="19.7045" y2="269.78" gradientUnits="userSpaceOnUse">
<stop stop-color="#4392F1"/>
<stop offset="1" stop-color="#56CBF9"/>
</linearGradient>
<linearGradient id="paint25_linear" x1="150.698" y1="238.424" x2="19.7591" y2="246.204" gradientUnits="userSpaceOnUse">
<stop stop-color="#4392F1"/>
<stop offset="1" stop-color="#56CBF9"/>
</linearGradient>
<linearGradient id="paint26_linear" x1="436.037" y1="253.815" x2="281.982" y2="260.564" gradientUnits="userSpaceOnUse">
<stop stop-color="#4392F1"/>
<stop offset="1" stop-color="#56CBF9"/>
</linearGradient>
<linearGradient id="paint27_linear" x1="435.26" y1="243.565" x2="282.525" y2="252.483" gradientUnits="userSpaceOnUse">
<stop stop-color="#4392F1"/>
<stop offset="1" stop-color="#56CBF9"/>
</linearGradient>
</defs>
</svg>
