<svg width="254" height="290" viewBox="0 0 254 290" fill="none" xmlns="http://www.w3.org/2000/svg">
<path d="M2.25247 175.174C2.19754 172.346 2.97385 169.564 4.48501 167.173C5.99616 164.782 8.17579 162.887 10.7538 161.722L104.467 107.665C117.069 100.364 139.472 101.214 153.875 109.765L239.537 159.222C247.538 163.823 251.589 169.724 251.589 175.324V216.53C251.589 219.283 250.779 221.976 249.258 224.27C247.737 226.565 245.573 228.361 243.038 229.432L149.374 283.54C136.772 290.791 114.369 289.941 99.9667 281.44L14.3042 231.933C5.753 226.932 1.70239 220.581 2.25247 214.73V175.174Z" fill="url(#paint0_linear)" stroke="white" stroke-width="3.1" stroke-miterlimit="10"/>
<path d="M74.364 225.094L99.8177 239.796C114.42 248.197 136.673 249.197 149.275 241.896L242.889 187.838C255.49 180.537 253.99 167.835 239.388 159.234L153.726 109.777C139.173 101.376 116.92 100.376 104.318 107.677L10.7548 161.735C-1.84705 169.036 -0.296763 181.737 14.2554 190.339L28.1073 198.34L74.364 225.094Z" fill="url(#paint1_linear)" stroke="white" stroke-width="3.14" stroke-miterlimit="10"/>
<g opacity="0.9">
<path opacity="0.2" d="M28.9375 54.2029V138.306C28.9375 142.825 31.6966 144.918 35.074 143.063L58.8588 129.458L70.228 138.02L81.5971 116.329L105.382 102.676C107.261 101.351 108.801 99.5995 109.876 97.566C110.95 95.5325 111.53 93.2739 111.566 90.9742V6.72842C111.566 2.20931 108.807 0.163815 105.382 1.97146L35.4547 42.358C33.497 43.6639 31.8826 45.4221 30.7482 47.4838C29.6138 49.5456 28.9927 51.8503 28.9375 54.2029Z" fill="white"/>
<path opacity="0.2" d="M30.7081 143.875C29.8471 143.243 29.1659 142.397 28.7321 141.421C28.2982 140.445 28.1267 139.372 28.2344 138.31V54.2065C28.2565 51.8071 28.8352 49.4455 29.9248 47.3076C31.0144 45.1697 32.5852 43.3138 34.5137 41.886L104.679 1.59456C105.372 1.12532 106.177 0.847425 107.013 0.788957C107.848 0.730489 108.684 0.893522 109.436 1.26158C110.297 1.89374 110.978 2.73972 111.412 3.71586C111.846 4.69199 112.017 5.76447 111.909 6.82722V90.8351C111.865 93.2508 111.257 95.6227 110.134 97.7618C109.011 99.9009 107.403 101.748 105.44 103.156L82.0832 116.713L70.4286 138.976L58.6315 130.032L35.4175 143.447C34.5911 143.975 33.6382 144.27 32.6584 144.303C31.9819 144.334 31.3093 144.187 30.7081 143.875ZM69.8104 136.835L80.894 115.762L104.679 102.062C106.47 100.777 107.938 99.0942 108.97 97.1465C110.002 95.1987 110.568 93.0385 110.625 90.8351V6.73208C110.723 5.91584 110.609 5.08802 110.292 4.32935C109.975 3.57068 109.467 2.90707 108.817 2.40325C108.296 2.14732 107.715 2.03863 107.136 2.08893C106.558 2.13924 106.004 2.34661 105.535 2.68866L35.5602 43.0752C33.8083 44.3655 32.3747 46.0392 31.3688 47.9685C30.363 49.8978 29.8115 52.0315 29.7567 54.2065V138.31C29.6582 139.126 29.7731 139.954 30.0899 140.712C30.4067 141.471 30.9147 142.135 31.5644 142.638C32.0856 142.894 32.6668 143.003 33.2453 142.953C33.8238 142.902 34.3775 142.695 34.8467 142.353L58.6315 128.463L69.8104 136.835Z" fill="white"/>
</g>
<g opacity="0.2">
<path opacity="0.9" d="M61.5469 71.7619V155.865C61.5469 160.622 64.306 162.43 67.6834 160.622L91.4682 147.017L102.837 155.579L114.206 133.888L137.991 120.235C139.856 118.868 141.368 117.076 142.402 115.008C143.436 112.94 143.962 110.655 143.937 108.343V24.2874C143.937 19.7683 141.226 17.6753 137.801 19.5305L67.8261 60.0598C65.9318 61.378 64.3756 63.125 63.2844 65.1585C62.1933 67.1921 61.5979 69.4546 61.5469 71.7619Z" fill="white"/>
<path opacity="0.9" d="M63.3174 161.423C62.4563 160.791 61.7753 159.945 61.3415 158.969C60.9076 157.993 60.736 156.921 60.8438 155.858V71.7548C60.8879 69.3391 61.4957 66.9672 62.619 64.8281C63.7422 62.689 65.3498 60.842 67.3133 59.4343L137.288 19.0477C137.982 18.5784 138.787 18.3005 139.622 18.2421C140.457 18.1836 141.293 18.3466 142.045 18.7147C142.906 19.3469 143.587 20.1928 144.021 21.169C144.455 22.1451 144.626 23.2176 144.519 24.2803V108.336C144.482 110.76 143.878 113.141 142.754 115.289C141.631 117.437 140.019 119.291 138.049 120.704L114.597 134.214L102.943 156.524L91.2883 147.676L67.8365 161.09C66.9936 161.614 66.0222 161.894 65.03 161.899C64.4293 161.88 63.842 161.717 63.3174 161.423ZM102.42 154.383L113.503 133.215L137.288 119.467C139.061 118.198 140.511 116.528 141.519 114.594C142.527 112.661 143.066 110.517 143.092 108.336V24.2803C143.19 23.4641 143.075 22.6363 142.758 21.8776C142.442 21.1189 141.934 20.4553 141.284 19.9515C140.763 19.6956 140.182 19.5869 139.603 19.6372C139.025 19.6875 138.471 19.8949 138.002 20.2369L67.8365 60.6235C66.0847 61.9138 64.651 63.5875 63.6452 65.5168C62.6393 67.446 62.0879 69.5798 62.033 71.7548V155.858C61.9346 156.674 62.0494 157.502 62.3662 158.261C62.683 159.019 63.191 159.683 63.8407 160.187C64.3648 160.441 64.9494 160.545 65.5291 160.486C66.1087 160.427 66.6607 160.208 67.123 159.854L91.1456 146.011L102.42 154.383Z" fill="white"/>
</g>
<path d="M173.613 107.522V41.7128C173.613 36.9621 170.712 34.8118 167.162 36.7121L93.601 79.4683C91.6258 80.8469 90.0003 82.6682 88.8542 84.7867C87.7081 86.9053 87.0731 89.2624 87 91.67V180.033C87 185.034 89.9005 186.984 93.451 185.034L118.455 170.732L130.406 179.483L142.308 156.629L167.312 142.327C169.271 140.909 170.873 139.055 171.993 136.912C173.112 134.768 173.718 132.394 173.763 129.976V117.474" fill="url(#paint2_linear)"/>
<path d="M91.0586 186.429C92.1057 186.403 93.1258 186.092 94.009 185.528L118.413 171.476L130.664 180.728L142.916 157.324L167.52 143.072C169.593 141.598 171.293 139.658 172.482 137.409C173.672 135.16 174.319 132.664 174.371 130.12V117.469H172.871V130.12C172.872 132.392 172.345 134.632 171.329 136.663C170.313 138.695 168.838 140.461 167.02 141.822L142.016 156.224L130.414 178.477L118.513 169.476L93.2589 184.478C92.7541 184.831 92.1671 185.049 91.5542 185.11C90.9414 185.171 90.323 185.074 89.7583 184.828C89.0765 184.289 88.5472 183.58 88.2228 182.773C87.8983 181.967 87.7898 181.089 87.9081 180.228V91.6648C87.935 89.3723 88.5014 87.1184 89.5613 85.0854C90.6212 83.0525 92.1448 81.2977 94.009 79.9631L167.52 37.5069C168.013 37.1298 168.602 36.8973 169.22 36.8355C169.838 36.7737 170.462 36.885 171.02 37.1569C171.694 37.6921 172.218 38.3922 172.543 39.1894C172.867 39.9866 172.98 40.8539 172.871 41.7076V107.517H174.371V41.7076C174.484 40.5903 174.304 39.4629 173.848 38.4367C173.391 37.4106 172.676 36.5213 171.77 35.8567C170.98 35.4698 170.101 35.2984 169.223 35.3599C168.345 35.4213 167.499 35.7135 166.77 36.2068L93.2589 78.6629C91.1816 80.1452 89.4802 82.0932 88.2905 84.3508C87.1009 86.6085 86.4561 89.1133 86.4079 91.6648V180.028C86.2946 181.145 86.4749 182.272 86.9309 183.298C87.387 184.325 88.1031 185.214 89.0082 185.878C89.6333 186.234 90.3393 186.424 91.0586 186.429Z" fill="white" stroke="white" stroke-width="2"/>
<path d="M125.867 114.28C128.622 113.843 131.214 112.689 133.382 110.933C135.55 109.178 137.218 106.883 138.218 104.279L136.918 103.629C133.468 110.18 128.117 113.63 123.966 112.38C122.166 111.78 120.916 110.08 120.066 107.029C120.016 106.685 119.841 106.371 119.572 106.149C119.304 105.927 118.963 105.813 118.616 105.829C118.263 105.974 117.868 105.974 117.515 105.829C117.162 105.429 116.967 104.913 116.965 104.379C116.941 103.517 117.102 102.66 117.439 101.866C117.775 101.072 118.279 100.36 118.916 99.7782H119.216V99.3782C119.24 98.9285 119.24 98.4777 119.216 98.028C119.05 97.1349 118.933 96.2334 118.866 95.3276C118.508 91.3252 119.728 87.3413 122.266 84.226C122.594 83.7264 122.815 83.1646 122.916 82.5757C123.307 80.3605 124.499 78.3666 126.267 76.9749C127.026 76.3476 127.867 75.8261 128.767 75.4247L130.167 74.9246C132.53 74.0634 134.954 73.3781 137.418 72.8743C137.995 72.7211 138.598 72.6954 139.185 72.799C139.772 72.9026 140.33 73.1331 140.819 73.4744C141.344 73.9734 141.755 74.5807 142.023 75.2542C142.291 75.9277 142.409 76.6513 142.369 77.375C142.396 79.3977 142.279 81.4198 142.019 83.4259V84.576C142.019 85.5262 142.019 86.5263 142.769 87.1264C143.142 87.4687 143.389 87.9268 143.469 88.4266C143.545 89.6973 143.134 90.9492 142.319 91.9271C141.383 93.0826 140.717 94.4322 140.369 95.8777L141.769 96.2277C142.086 94.9856 142.665 93.8259 143.469 92.8272C144.004 92.1947 144.407 91.4622 144.656 90.6724C144.905 89.8826 144.995 89.0513 144.919 88.2266C144.87 87.775 144.729 87.3383 144.506 86.9428C144.282 86.5474 143.981 86.2015 143.619 85.9262C143.619 85.9262 143.619 85.6262 143.619 84.7261C143.597 84.343 143.597 83.959 143.619 83.5759C143.907 81.4886 144.025 79.3813 143.969 77.275C144.021 76.3368 143.859 75.3991 143.495 74.5328C143.131 73.6665 142.575 72.8942 141.869 72.2742C141.228 71.7891 140.486 71.4559 139.697 71.3C138.909 71.144 138.096 71.1694 137.318 71.3741C134.771 71.8943 132.264 72.5962 129.817 73.4744L128.467 73.9745C127.387 74.3988 126.388 75.008 125.517 75.7748C123.48 77.3838 122.095 79.6751 121.616 82.2257C121.576 82.6045 121.438 82.9663 121.216 83.2758C118.481 86.6882 117.156 91.0189 117.515 95.3776C117.515 96.3778 117.766 97.2779 117.916 98.228V99.1782C117.223 99.9033 116.681 100.758 116.321 101.694C115.96 102.629 115.789 103.627 115.815 104.629C115.799 105.104 115.885 105.577 116.066 106.017C116.247 106.457 116.519 106.853 116.865 107.179C117.45 107.625 118.186 107.822 118.916 107.729C119.12 109.133 119.69 110.459 120.567 111.573C121.445 112.688 122.6 113.552 123.916 114.08C124.555 114.232 125.211 114.299 125.867 114.28Z" fill="white" stroke="white" stroke-width="1.5"/>
<path d="M113.136 148.587C118.342 148.476 123.462 147.23 128.138 144.936L127.538 143.586C122.961 145.839 117.937 147.036 112.836 147.087C112.556 147.091 112.28 147.029 112.028 146.908C111.776 146.786 111.556 146.608 111.385 146.387C111.047 145.774 110.84 145.096 110.78 144.398C110.72 143.701 110.807 142.998 111.035 142.336C111.375 141.104 111.81 139.9 112.336 138.735C115.279 132.283 119.679 126.6 125.187 122.133C125.888 121.483 126.238 121.533 126.588 121.583C128.89 121.703 131.182 121.193 133.217 120.11C135.252 119.026 136.953 117.409 138.139 115.432C138.638 114.592 139.417 113.954 140.34 113.632C141.881 112.861 143.566 112.418 145.288 112.332C147.009 112.246 148.73 112.518 150.341 113.132C151.72 113.823 152.816 114.972 153.442 116.382C153.727 117.771 153.676 119.209 153.293 120.574C152.91 121.94 152.207 123.195 151.241 124.233C147.048 129.365 142.245 133.966 136.939 137.935L137.789 139.085C143.218 135.079 148.123 130.409 152.391 125.183C153.557 123.959 154.393 122.459 154.821 120.823C155.25 119.188 155.257 117.471 154.842 115.832C154.071 114.119 152.751 112.711 151.091 111.831C149.316 111.156 147.423 110.843 145.525 110.912C143.627 110.98 141.761 111.429 140.04 112.232C138.806 112.635 137.758 113.469 137.089 114.582C136.069 116.319 134.605 117.753 132.847 118.737C131.09 119.722 129.102 120.221 127.088 120.183C126.607 120.066 126.104 120.078 125.63 120.219C125.155 120.359 124.727 120.623 124.387 120.983C118.588 125.559 113.945 131.434 110.835 138.135C110.292 139.367 109.84 140.637 109.485 141.936C109.18 142.816 109.076 143.753 109.18 144.679C109.283 145.605 109.593 146.496 110.085 147.287C110.38 147.683 110.765 148.003 111.209 148.221C111.652 148.438 112.142 148.547 112.636 148.537L113.136 148.587Z" fill="white" stroke="white" stroke-width="1.5"/>
<defs>
<linearGradient id="paint0_linear" x1="332.571" y1="177.439" x2="41.8676" y2="190.732" gradientUnits="userSpaceOnUse">
<stop stop-color="#4392F1"/>
<stop offset="1" stop-color="#56CBF9"/>
</linearGradient>
<linearGradient id="paint1_linear" x1="332.345" y1="160.717" x2="42.2679" y2="177.811" gradientUnits="userSpaceOnUse">
<stop stop-color="#4392F1"/>
<stop offset="1" stop-color="#56CBF9"/>
</linearGradient>
<linearGradient id="paint2_linear" x1="201.937" y1="96.2707" x2="100.627" y2="98.2696" gradientUnits="userSpaceOnUse">
<stop stop-color="#4392F1"/>
<stop offset="1" stop-color="#56CBF9"/>
</linearGradient>
</defs>
</svg>
