<svg width="307" height="203" viewBox="0 0 307 203" fill="none" xmlns="http://www.w3.org/2000/svg">
<path d="M8.02837 108.356C1.30902 103.499 -0.857606 100.687 8.02837 94.3248L162.843 4.52263C167.399 2.05708 169.97 1.97246 174.536 4.52263L296.297 74.5748C298.45 75.9765 299.609 77.1115 299.991 78.2216C305.381 84.9351 304.62 89.2529 303.79 93.9588L303.757 94.1461C302.916 98.9253 300.535 104.183 296.297 107.219L141.16 198.419C134.308 201.871 130.162 201.685 122.191 198.419L68.4088 166.699L47.7483 154.514L5.88404 129.823C3.79592 126.832 2.91272 125.109 8.02837 121.009L17.8906 114.143L8.02837 108.356Z" fill="url(#paint0_linear)"/>
<path d="M17.8906 114.143L8.02837 108.356C1.30902 103.499 -0.857606 100.687 8.02837 94.3248L162.843 4.52263C167.399 2.05708 169.97 1.97246 174.536 4.52263L296.297 74.5748C298.45 75.9765 299.609 77.1115 299.991 78.2216M17.8906 114.143L8.02837 121.009C2.91272 125.109 3.79592 126.832 5.88404 129.823L47.7483 154.514M17.8906 114.143L55.2451 136.062M296.297 107.219L141.16 198.419C134.308 201.871 130.162 201.685 122.191 198.419L68.4088 166.699M296.297 107.219C300.535 104.183 302.916 98.9253 303.757 94.1461C304.598 89.3669 305.452 85.024 299.991 78.2216M296.297 107.219L146.849 169.968M299.991 78.2216C300.452 79.5606 299.782 80.8634 298.36 82.5543L146.849 169.968M146.849 169.968L138.522 174.773C130.346 176.743 126.335 176.834 121.216 174.773L77.8462 149.324M47.7483 154.514L68.4088 166.699M47.7483 154.514C48.7774 146.582 51.048 141.557 55.2451 136.062M68.4088 166.699C71.1457 159.299 73.3872 154.838 77.8462 149.324M55.2451 136.062C56.3406 133.721 60.9933 131.475 63.6826 129.823L79.1327 122.054C82.8945 119.949 85.207 119.567 88.6184 121.376L100.207 128.518C105.551 132.013 103.779 134.394 101.018 136.544L86.0452 142.922C83.6798 143.898 77.9054 147.803 77.8462 149.324" stroke="white" stroke-width="4"/>
<path d="M90.4021 132.644C90.4021 133.544 89.9033 134.504 88.6758 135.304C87.4382 136.11 85.5358 136.683 83.077 136.683C80.6173 136.683 78.556 136.109 77.1618 135.274C75.7474 134.426 75.2148 133.454 75.2148 132.644C75.2148 131.835 75.7474 130.863 77.1618 130.015C78.556 129.18 80.6173 128.606 83.077 128.606C85.5358 128.606 87.4382 129.179 88.6758 129.985C89.9033 130.785 90.4021 131.745 90.4021 132.644Z" stroke="white" stroke-width="3"/>
<defs>
<linearGradient id="paint0_linear" x1="402.517" y1="82.4174" x2="50.4292" y2="100.693" gradientUnits="userSpaceOnUse">
<stop stop-color="#4392F1"/>
<stop offset="1" stop-color="#56CBF9"/>
</linearGradient>
</defs>
</svg>
