<svg width="253" height="256" viewBox="0 0 253 256" fill="none" xmlns="http://www.w3.org/2000/svg">
<path d="M1.92435 141.174C1.86941 138.346 2.64572 135.564 4.15688 133.173C5.66804 130.782 7.84766 128.887 10.4256 127.722L104.139 73.6647C116.741 66.3636 139.144 67.2137 153.546 75.7649L239.209 125.222C247.21 129.823 251.26 135.724 251.26 141.324V182.53C251.261 185.283 250.451 187.976 248.93 190.27C247.409 192.565 245.245 194.361 242.709 195.432L149.046 249.54C136.444 256.791 114.041 255.941 99.6386 247.44L13.9761 197.933C5.42488 192.932 1.37427 186.581 1.92435 180.73V141.174Z" fill="url(#paint0_linear)" stroke="white" stroke-width="3.1" stroke-miterlimit="10"/>
<path d="M74.0359 191.094L99.4896 205.796C114.092 214.197 136.345 215.197 148.947 207.896L242.56 153.838C255.162 146.537 253.662 133.835 239.06 125.234L153.397 75.777C138.845 67.3758 116.592 66.3757 103.99 73.6767L10.4267 127.735C-2.17517 135.036 -0.624888 147.737 13.9272 156.339L27.7792 164.34L74.0359 191.094Z" fill="url(#paint1_linear)" stroke="white" stroke-width="3.14" stroke-miterlimit="10"/>
<path d="M173.284 73.5223V7.71279C173.284 2.9621 170.384 0.811783 166.833 2.71206L93.2729 45.4683C91.2977 46.8469 89.6722 48.6682 88.5261 50.7867C87.38 52.9053 86.745 55.2624 86.6719 57.67V146.033C86.6719 151.034 89.5723 152.984 93.1229 151.034L118.126 136.732L130.078 145.483L141.98 122.629L166.984 108.327C168.942 106.909 170.545 105.055 171.665 102.912C172.784 100.768 173.39 98.3936 173.434 95.9756V83.4738" fill="url(#paint2_linear)"/>
<path d="M90.7304 152.429C91.7775 152.403 92.7977 152.092 93.6808 151.528L118.084 137.476L130.336 146.728L142.588 123.324L167.192 109.072C169.265 107.598 170.965 105.658 172.154 103.409C173.344 101.16 173.991 98.6641 174.043 96.1204V83.4685H172.542V96.1204C172.544 98.3915 172.016 100.632 171.001 102.663C169.985 104.695 168.51 106.461 166.691 107.822L141.688 122.224L130.086 144.477L118.184 135.476L92.9308 150.478C92.426 150.831 91.839 151.049 91.2261 151.11C90.6132 151.171 89.9949 151.074 89.4302 150.828C88.7484 150.289 88.2191 149.58 87.8946 148.773C87.5702 147.967 87.4617 147.089 87.58 146.228V57.6648C87.6069 55.3723 88.1733 53.1184 89.2332 51.0854C90.2931 49.0525 91.8167 47.2977 93.6808 45.9631L167.192 3.50694C167.685 3.12981 168.274 2.89734 168.892 2.83553C169.51 2.77371 170.133 2.88498 170.692 3.1569C171.366 3.6921 171.89 4.39216 172.214 5.18937C172.539 5.98657 172.652 6.85393 172.542 7.70756V73.5171H174.043V7.70756C174.156 6.59034 173.975 5.46291 173.519 4.43675C173.063 3.41059 172.347 2.52126 171.442 1.85671C170.652 1.46979 169.773 1.2984 168.895 1.35986C168.017 1.42133 167.171 1.71347 166.442 2.20675L92.9308 44.6629C90.8535 46.1452 89.152 48.0932 87.9624 50.3508C86.7728 52.6085 86.128 55.1133 86.0798 57.6648V146.028C85.9665 147.145 86.1467 148.272 86.6028 149.298C87.0589 150.325 87.7749 151.214 88.6801 151.878C89.3052 152.234 90.0112 152.424 90.7304 152.429Z" fill="white" stroke="white" stroke-width="2"/>
<path d="M125.539 80.2803C128.294 79.8432 130.885 78.6889 133.054 76.9334C135.222 75.1779 136.89 72.8829 137.89 70.2789L136.59 69.6288C133.14 76.1797 127.789 79.6303 123.638 78.3801C121.838 77.78 120.588 76.0797 119.738 73.0293C119.688 72.6848 119.512 72.371 119.244 72.1492C118.976 71.9273 118.635 71.8132 118.287 71.8291C117.935 71.9736 117.54 71.9736 117.187 71.8291C116.834 71.4285 116.639 70.9131 116.637 70.3789C116.613 69.517 116.774 68.6598 117.111 67.8659C117.447 67.072 117.951 66.3599 118.587 65.7782H118.888V65.3782C118.912 64.9285 118.912 64.4777 118.888 64.028C118.722 63.1349 118.605 62.2334 118.538 61.3276C118.179 57.3252 119.4 53.3413 121.938 50.226C122.266 49.7264 122.487 49.1646 122.588 48.5757C122.979 46.3605 124.171 44.3666 125.939 42.9749C126.698 42.3476 127.539 41.8261 128.439 41.4247L129.839 40.9246C132.202 40.0634 134.626 39.3781 137.09 38.8743C137.667 38.7211 138.269 38.6954 138.857 38.799C139.444 38.9026 140.002 39.1331 140.491 39.4744C141.016 39.9734 141.427 40.5807 141.695 41.2542C141.963 41.9277 142.081 42.6513 142.041 43.375C142.068 45.3977 141.951 47.4198 141.691 49.4259V50.576C141.691 51.5262 141.691 52.5263 142.441 53.1264C142.814 53.4687 143.061 53.9268 143.141 54.4266C143.217 55.6973 142.806 56.9492 141.991 57.9271C141.055 59.0826 140.389 60.4322 140.041 61.8777L141.441 62.2277C141.758 60.9856 142.337 59.8259 143.141 58.8272C143.675 58.1947 144.079 57.4622 144.328 56.6724C144.577 55.8826 144.666 55.0513 144.591 54.2266C144.542 53.775 144.401 53.3383 144.178 52.9428C143.954 52.5474 143.652 52.2015 143.291 51.9262C143.291 51.9262 143.291 51.6262 143.291 50.7261C143.269 50.343 143.269 49.959 143.291 49.5759C143.579 47.4886 143.696 45.3813 143.641 43.275C143.693 42.3368 143.531 41.3991 143.167 40.5328C142.803 39.6665 142.247 38.8942 141.541 38.2742C140.9 37.7891 140.158 37.4559 139.369 37.3C138.581 37.144 137.767 37.1694 136.99 37.3741C134.443 37.8943 131.936 38.5962 129.489 39.4744L128.139 39.9745C127.058 40.3988 126.06 41.008 125.188 41.7748C123.152 43.3838 121.767 45.6751 121.288 48.2257C121.248 48.6045 121.11 48.9663 120.888 49.2758C118.152 52.6882 116.828 57.0189 117.187 61.3776C117.187 62.3778 117.437 63.2779 117.587 64.228V65.1782C116.895 65.9033 116.353 66.7583 115.993 67.6937C115.632 68.6292 115.46 69.6268 115.487 70.6289C115.471 71.1042 115.557 71.5775 115.738 72.0172C115.919 72.4569 116.191 72.8531 116.537 73.1793C117.122 73.6247 117.858 73.8222 118.587 73.7294C118.792 75.1331 119.362 76.4586 120.239 77.5731C121.117 78.6877 122.272 79.5522 123.588 80.0803C124.227 80.232 124.883 80.2993 125.539 80.2803Z" fill="white" stroke="white" stroke-width="1.5"/>
<path d="M112.808 114.587C118.014 114.476 123.134 113.23 127.81 110.936L127.21 109.586C122.633 111.839 117.609 113.036 112.508 113.087C112.228 113.091 111.951 113.029 111.7 112.908C111.448 112.786 111.228 112.608 111.057 112.387C110.719 111.774 110.512 111.096 110.452 110.398C110.392 109.701 110.479 108.998 110.707 108.336C111.047 107.104 111.482 105.9 112.007 104.735C114.951 98.2828 119.35 92.6 124.859 88.133C125.559 87.4829 125.909 87.5329 126.26 87.5829C128.562 87.7026 130.853 87.1933 132.888 86.1097C134.923 85.0261 136.625 83.4091 137.811 81.432C138.31 80.5916 139.089 79.9541 140.012 79.6318C141.553 78.8607 143.238 78.4181 144.96 78.332C146.681 78.2459 148.402 78.5182 150.013 79.1317C151.392 79.8228 152.488 80.9719 153.113 82.3822C153.399 83.7715 153.348 85.2088 152.965 86.5745C152.582 87.9401 151.879 89.1946 150.913 90.2333C146.72 95.3647 141.917 99.9659 136.611 103.935L137.461 105.085C142.89 101.079 147.795 96.4088 152.063 91.1834C153.229 89.9588 154.065 88.4588 154.493 86.8235C154.922 85.1881 154.929 83.4708 154.514 81.8321C153.743 80.1187 152.423 78.7111 150.763 77.8315C148.988 77.1557 147.095 76.8429 145.197 76.9116C143.298 76.9804 141.433 77.4292 139.711 78.2315C138.477 78.6349 137.43 79.4693 136.761 80.5819C135.741 82.3189 134.277 83.7532 132.519 84.7374C130.762 85.7217 128.774 86.2205 126.76 86.1827C126.279 86.0657 125.776 86.078 125.301 86.2186C124.827 86.3591 124.399 86.6228 124.059 86.9828C118.259 91.5586 113.617 97.4343 110.507 104.135C109.964 105.367 109.512 106.637 109.157 107.936C108.852 108.816 108.748 109.753 108.851 110.679C108.955 111.605 109.265 112.496 109.757 113.287C110.052 113.683 110.437 114.003 110.881 114.221C111.324 114.438 111.814 114.547 112.307 114.537L112.808 114.587Z" fill="white" stroke="white" stroke-width="1.5"/>
<defs>
<linearGradient id="paint0_linear" x1="332.243" y1="143.439" x2="41.5394" y2="156.732" gradientUnits="userSpaceOnUse">
<stop stop-color="#4392F1"/>
<stop offset="1" stop-color="#56CBF9"/>
</linearGradient>
<linearGradient id="paint1_linear" x1="332.017" y1="126.717" x2="41.9398" y2="143.811" gradientUnits="userSpaceOnUse">
<stop stop-color="#4392F1"/>
<stop offset="1" stop-color="#56CBF9"/>
</linearGradient>
<linearGradient id="paint2_linear" x1="201.609" y1="62.2707" x2="100.299" y2="64.2696" gradientUnits="userSpaceOnUse">
<stop stop-color="#4392F1"/>
<stop offset="1" stop-color="#56CBF9"/>
</linearGradient>
</defs>
</svg>
