<svg width="151" height="47" viewBox="0 0 151 47" fill="none" xmlns="http://www.w3.org/2000/svg">
<path d="M3.50334 44.1808H0.382812V10.5938C0.382812 9.72059 0.55502 8.85588 0.889596 8.04915C1.22417 7.24241 1.71456 6.50945 2.33273 5.89216C2.95091 5.27487 3.68475 4.78534 4.49234 4.45154C5.29992 4.11774 6.16542 3.94622 7.03937 3.94678H18.063C27.539 4.00609 32.5463 10.3269 32.5463 17.2833C32.5463 22.7907 30.0024 28.3787 22.3707 29.9292L32.86 44.1851H23.8292L13.7935 30.7342L13.6535 24.7607C13.6535 24.536 13.7429 24.3205 13.9019 24.1616C14.0609 24.0027 14.2766 23.9134 14.5015 23.9134H18.063C22.8964 23.9134 24.9655 20.6937 24.9655 17.4739C24.9655 14.2542 22.8455 11.0344 18.063 11.0344H9.24833C8.91099 11.0344 8.58747 11.1683 8.34893 11.4067C8.11039 11.645 7.97638 11.9683 7.97638 12.3054L8.20957 39.4444C8.21461 40.065 8.09657 40.6804 7.86227 41.2551C7.62796 41.8298 7.28203 42.3524 6.84446 42.7928C6.40689 43.2332 5.88634 43.5826 5.31288 43.8208C4.73941 44.059 4.1244 44.1814 3.50334 44.1808Z" fill="white"/>
<path d="M52.9944 21.3459C51.4638 19.2869 48.585 17.9863 45.6256 17.9863C42.0895 17.9863 38.8969 19.0921 36.582 21.2866C34.267 23.4811 32.8594 26.7559 32.8594 31.0305C32.8594 35.4322 34.1992 38.7706 36.4675 41.0032C38.7358 43.2359 41.8987 44.3458 45.4984 44.3458C47.0293 44.2514 48.5264 43.8555 49.9036 43.1808C51.133 42.6075 52.1976 41.7331 52.9986 40.6389L53.253 44.3458H59.316V18.6472H53.1004L52.9944 21.3459ZM52.7019 31.0898C52.7255 32.8855 52.1262 34.6339 51.0059 36.0381C50.3946 36.7651 49.6256 37.3436 48.7573 37.7297C47.8891 38.1158 46.9442 38.2993 45.9944 38.2665C45.1016 38.2894 44.2131 38.1349 43.3804 37.812C42.5478 37.4891 41.7876 37.0042 41.144 36.3855C39.9272 35.1738 39.1767 33.4199 39.1767 31.1576C39.1476 30.1931 39.3127 29.2325 39.6623 28.333C40.0119 27.4335 40.5389 26.6134 41.2119 25.9213C42.503 24.6706 44.2218 23.9572 46.0199 23.9259C46.969 23.8937 47.913 24.0775 48.7805 24.4636C49.648 24.8497 50.4162 25.4278 51.0271 26.1543C52.1414 27.5608 52.7345 29.309 52.7061 31.1025L52.7019 31.0898Z" fill="white"/>
<path d="M75.5246 37.4109C74.659 37.8925 73.6872 38.1516 72.6966 38.165C72.3033 38.1864 71.9099 38.126 71.5413 37.9874C71.1727 37.8488 70.837 37.6352 70.5554 37.36C69.9724 36.6692 69.6805 35.7791 69.7414 34.8775V24.2099H76.699V18.2788H69.8686L69.7923 10.2295L63.1484 11.0768V34.8775C63.1484 38.0887 64.0303 40.5374 65.6415 42.1515C67.2526 43.7656 69.5548 44.5028 72.315 44.3715C74.1636 44.3715 75.6136 43.9478 77.4282 43.2996L77.6699 43.2107L75.8171 37.2414L75.5246 37.4109Z" fill="white"/>
<path d="M102.406 21.1425C100.121 18.4481 96.653 17.1094 92.4725 17.1094C88.4107 17.1094 85.0527 18.5498 82.7208 20.9815C80.3889 23.4133 79.0703 26.8067 79.0703 30.6874C79.0703 34.8307 80.3762 38.3131 82.7887 40.7279C85.2011 43.1427 88.6863 44.5407 92.9982 44.5407C96.9116 44.5407 101.249 43.2105 103.89 40.372L104.064 40.1856L99.8244 35.8432L99.6336 36.0592C98.8536 36.8284 97.8973 37.3956 96.848 37.7115C95.6938 38.1117 94.4827 38.3234 93.2611 38.3385C91.1793 38.3385 89.5003 37.792 88.3005 36.8769C87.732 36.4541 87.2528 35.9231 86.8904 35.3146C86.5281 34.706 86.2897 34.0319 86.189 33.3309H105.217L105.243 33.0895C105.76 27.8235 104.692 23.8369 102.406 21.1425ZM86.2611 27.654C86.6568 26.3563 87.4859 25.2333 88.61 24.4724C89.8777 23.6765 91.3532 23.2741 92.8498 23.3158C94.3487 23.2497 95.8309 23.6525 97.0897 24.4682C97.6072 24.8422 98.0433 25.3175 98.3713 25.8652C98.6993 26.4129 98.9124 27.0215 98.9976 27.654H86.2781H86.2611Z" fill="white"/>
<path d="M150.534 9.79297L132.233 19.0296V28.2663L141.383 32.8846L123.082 42.1212L132.233 46.7396L150.534 37.5029V28.2663L141.383 23.6479L150.534 19.0296V9.79297Z" fill="url(#paint0_linear)"/>
<path d="M150.534 9.79297L132.233 19.0296V28.2663L141.383 32.8846L123.082 42.1212L132.233 46.7396L150.534 37.5029V28.2663L141.383 23.6479L150.534 19.0296V9.79297Z" fill="white"/>
<path d="M113.449 9.30891L122.6 13.9272L131.75 9.30891L140.901 13.9272L150.052 9.30891L131.75 0.0722656L113.449 9.30891Z" fill="url(#paint1_linear)"/>
<path d="M113.449 9.30891L122.6 13.9272L131.75 9.30891L140.901 13.9272L150.052 9.30891L131.75 0.0722656L113.449 9.30891Z" fill="white"/>
<path d="M122.6 32.4009L113.449 37.0192L122.6 41.6375L131.75 37.0192L122.6 32.4009Z" fill="url(#paint2_linear)"/>
<path d="M122.6 32.4009L113.449 37.0192L122.6 41.6375L131.75 37.0192L122.6 32.4009Z" fill="white"/>
<defs>
<linearGradient id="paint0_linear" x1="136.808" y1="9.79297" x2="136.808" y2="46.7396" gradientUnits="userSpaceOnUse">
<stop stop-color="#54F2F2"/>
<stop offset="0.777" stop-color="#56D3F8"/>
<stop offset="0.9649" stop-color="#56CBF9"/>
</linearGradient>
<linearGradient id="paint1_linear" x1="131.75" y1="0.0722656" x2="131.75" y2="13.9272" gradientUnits="userSpaceOnUse">
<stop stop-color="#54F2F2"/>
<stop offset="0.5" stop-color="#56CBF9"/>
<stop offset="1" stop-color="#4392F1"/>
</linearGradient>
<linearGradient id="paint2_linear" x1="122.6" y1="32.4009" x2="122.6" y2="41.6375" gradientUnits="userSpaceOnUse">
<stop stop-color="#54F2F2"/>
<stop offset="0.5" stop-color="#56CBF9"/>
<stop offset="1" stop-color="#4392F1"/>
</linearGradient>
</defs>
</svg>
