<svg width="151" height="48" viewBox="0 0 151 48" fill="none" xmlns="http://www.w3.org/2000/svg">
<path d="M150.537 9.82812L132.148 19.2897V28.7513L141.342 33.4821L122.953 42.9437L132.148 47.6745L150.537 38.2129V28.7513L141.342 24.0205L150.537 19.2897V9.82812Z" fill="white"/>
<path d="M113.758 9.82879L122.952 14.5596L132.147 9.82879L141.341 14.5596L150.536 9.82879L132.147 0.367188L113.758 9.82879Z" fill="white"/>
<path d="M122.952 33.4844L113.758 38.2152L122.952 42.946L132.147 38.2152L122.952 33.4844Z" fill="white"/>
<path d="M3.51278 44.3842H0.382812V10.336C0.382812 9.45075 0.555541 8.57417 0.891129 7.75636C1.22672 6.93855 1.71859 6.19552 2.33863 5.56975C2.95868 4.94399 3.69474 4.44773 4.50478 4.10935C5.31481 3.77097 6.18292 3.59709 7.05952 3.59766H18.1165C27.6212 3.65778 32.6436 10.0654 32.6436 17.1173C32.6436 22.7004 30.092 28.3651 22.4372 29.9369L32.9583 44.3885H23.9001L13.834 30.7529L13.6937 24.6974C13.6937 24.4696 13.7833 24.2511 13.9428 24.09C14.1023 23.929 14.3187 23.8385 14.5442 23.8385H18.1165C22.9645 23.8385 25.0398 20.5745 25.0398 17.3106C25.0398 14.0466 22.9135 10.7827 18.1165 10.7827H9.27516C8.9368 10.7827 8.61229 10.9184 8.37303 11.16C8.13378 11.4016 7.99936 11.7294 7.99936 12.0711L8.23326 39.5828C8.23831 40.2118 8.11992 40.8357 7.8849 41.4183C7.64989 42.0009 7.30291 42.5307 6.86402 42.9771C6.42512 43.4235 5.903 43.7777 5.3278 44.0192C4.7526 44.2607 4.13572 44.3848 3.51278 44.3842Z" fill="white"/>
<path d="M53.153 21.2299C51.6178 19.1427 48.7302 17.8242 45.7618 17.8242C42.2151 17.8242 39.0128 18.9451 36.6909 21.1698C34.3689 23.3944 32.957 26.7142 32.957 31.0475C32.957 35.5097 34.3009 38.8939 36.5761 41.1572C38.8512 43.4205 42.0237 44.5457 45.6343 44.5457C47.1698 44.45 48.6714 44.0486 50.0528 43.3647C51.286 42.7834 52.3538 41.8971 53.1573 40.7879L53.4124 44.5457H59.4937V18.4942H53.2593L53.153 21.2299ZM52.8596 31.1077C52.8833 32.9279 52.2822 34.7004 51.1585 36.1238C50.5453 36.8609 49.774 37.4473 48.9031 37.8387C48.0322 38.2301 47.0845 38.4162 46.1318 38.3828C45.2363 38.4061 44.3451 38.2495 43.5099 37.9222C42.6748 37.5948 41.9123 37.1033 41.2668 36.476C40.0462 35.2477 39.2935 33.4697 39.2935 31.1764C39.2643 30.1986 39.4299 29.2249 39.7806 28.313C40.1312 27.4011 40.6598 26.5697 41.3348 25.8681C42.6299 24.6002 44.3539 23.8771 46.1573 23.8454C47.1093 23.8127 48.0562 23.9991 48.9263 24.3904C49.7964 24.7818 50.567 25.3679 51.1798 26.1044C52.2974 27.5301 52.8923 29.3023 52.8638 31.1205L52.8596 31.1077Z" fill="white"/>
<path d="M75.7534 37.5156C74.8852 38.0038 73.9105 38.2665 72.9169 38.28C72.5224 38.3018 72.1279 38.2405 71.7581 38.1C71.3884 37.9595 71.0517 37.743 70.7693 37.464C70.1844 36.7637 69.8917 35.8614 69.9528 34.9474V24.1334H76.9314V18.1208H70.0803L70.0038 9.96094L63.3398 10.8199V34.9474C63.3398 38.2027 64.2244 40.6851 65.8404 42.3213C67.4564 43.9576 69.7656 44.7049 72.5341 44.5717C74.3883 44.5717 75.8427 44.1423 77.6629 43.4852L77.9053 43.395L76.0468 37.3438L75.7534 37.5156Z" fill="white"/>
<path d="M102.715 21.026C100.423 18.2946 96.9445 16.9375 92.7513 16.9375C88.6772 16.9375 85.3091 18.3977 82.9701 20.8628C80.6312 23.328 79.3086 26.768 79.3086 30.7019C79.3086 34.9021 80.6184 38.4324 83.0382 40.8803C85.458 43.3283 88.9537 44.7455 93.2786 44.7455C97.2039 44.7455 101.554 43.397 104.204 40.5196L104.378 40.3306L100.125 35.9286L99.9341 36.1476C99.1517 36.9273 98.1926 37.5023 97.1401 37.8225C95.9824 38.2282 94.7676 38.4428 93.5423 38.4581C91.4542 38.4581 89.7702 37.9041 88.5667 36.9765C87.9965 36.5478 87.5158 36.0096 87.1524 35.3927C86.7889 34.7758 86.5498 34.0924 86.4488 33.3818H105.535L105.56 33.137C106.079 27.7987 105.008 23.7574 102.715 21.026ZM86.5211 27.6269C86.9181 26.3114 87.7496 25.173 88.8771 24.4016C90.1487 23.5949 91.6286 23.1868 93.1298 23.2292C94.6332 23.1621 96.1199 23.5705 97.3825 24.3974C97.9016 24.7765 98.339 25.2583 98.668 25.8135C98.997 26.3687 99.2107 26.9857 99.2962 27.6269H86.5381H86.5211Z" fill="white"/>
</svg>
