<svg width="96" height="72" viewBox="0 0 96 72" fill="none" xmlns="http://www.w3.org/2000/svg">
<path d="M6.99268 49.5303L5.31942 48.6178C3.1898 47.401 2.125 45.5759 2.125 43.9028V28.6932C2.125 26.5639 3.64615 24.4346 6.53634 22.7615L38.1763 4.51001C43.5003 1.46809 51.7146 1.01181 56.4301 3.74953L90.9603 23.6741C93.242 25.0429 94.3068 26.716 94.1547 28.6932V43.2944C94.3068 45.4238 92.7857 47.8573 89.7434 49.6824L58.1034 67.9339C52.7794 70.9758 44.5652 71.4321 39.8496 68.6944L11.8604 52.5723L6.99268 49.5303Z" fill="#031826"/>
<path d="M6.99268 49.5303L5.31942 48.6178C3.1898 47.401 2.125 45.5759 2.125 43.9028V28.6932C2.125 26.5639 3.64615 24.4346 6.53634 22.7615L38.1763 4.51001C43.5003 1.46809 51.7146 1.01181 56.4301 3.74953L90.9603 23.6741C93.242 25.0429 94.3068 26.716 94.1547 28.6932V43.2944C94.3068 45.4238 92.7857 47.8573 89.7434 49.6824L58.1034 67.9339C52.7794 70.9758 44.5652 71.4321 39.8496 68.6944L11.8604 52.5723L6.99268 49.5303Z" fill="url(#paint0_linear)"/>
<path d="M6.99268 49.5303L5.31942 48.6178C3.1898 47.401 2.125 45.5759 2.125 43.9028V28.6932C2.125 26.5639 3.64615 24.4346 6.53634 22.7615L38.1763 4.51001C43.5003 1.46809 51.7146 1.01181 56.4301 3.74953L90.9603 23.6741C93.242 25.0429 94.3068 26.716 94.1547 28.6932V43.2944C94.3068 45.4238 92.7857 47.8573 89.7434 49.6824L58.1034 67.9339C52.7794 70.9758 44.5652 71.4321 39.8496 68.6944L11.8604 52.5723L6.99268 49.5303Z" stroke="white" stroke-width="2.81247" stroke-miterlimit="10"/>
<path d="M58.7103 52.116L58.1018 52.4202C52.7778 55.4621 44.5636 55.9184 39.848 53.1806L5.31783 33.2561C0.602254 30.5184 1.21072 25.8034 6.68687 22.7615L38.3268 4.51001C43.6509 1.46809 51.8651 1.01181 56.5807 3.74953L91.1108 23.6741C95.8264 26.4118 95.218 31.1268 89.7418 34.1687L68.1414 46.6405L58.7103 52.116Z" fill="#031826"/>
<path d="M58.7103 52.116L58.1018 52.4202C52.7778 55.4621 44.5636 55.9184 39.848 53.1806L5.31783 33.2561C0.602254 30.5184 1.21072 25.8034 6.68687 22.7615L38.3268 4.51001C43.6509 1.46809 51.8651 1.01181 56.5807 3.74953L91.1108 23.6741C95.8264 26.4118 95.218 31.1268 89.7418 34.1687L68.1414 46.6405L58.7103 52.116Z" fill="url(#paint1_linear)"/>
<path d="M58.7103 52.116L58.1018 52.4202C52.7778 55.4621 44.5636 55.9184 39.848 53.1806L5.31783 33.2561C0.602254 30.5184 1.21072 25.8034 6.68687 22.7615L38.3268 4.51001C43.6509 1.46809 51.8651 1.01181 56.5807 3.74953L91.1108 23.6741C95.8264 26.4118 95.218 31.1268 89.7418 34.1687L68.1414 46.6405L58.7103 52.116Z" stroke="white" stroke-width="2.81247" stroke-miterlimit="10"/>
<path d="M53.7168 27.4234L65.6668 34.3361" stroke="white" stroke-width="2" stroke-linecap="round" stroke-linejoin="round"/>
<path d="M49.2285 29.1265L61.1785 36.0392" stroke="white" stroke-width="2" stroke-linecap="round" stroke-linejoin="round"/>
<path d="M44.627 31.0083L56.577 37.921" stroke="white" stroke-width="2" stroke-linecap="round" stroke-linejoin="round"/>
<path d="M47.5729 22.0874C47.5729 23.3235 46.8805 24.5642 45.3682 25.5498C43.8475 26.5408 41.56 27.2149 38.6601 27.2149C35.7595 27.2149 33.297 26.5401 31.603 25.5248C29.8921 24.4994 29.1289 23.2485 29.1289 22.0874C29.1289 20.9264 29.8921 19.6755 31.603 18.6501C33.297 17.6348 35.7595 16.96 38.6601 16.96C41.56 16.96 43.8475 17.6341 45.3682 18.6251C46.8805 19.6107 47.5729 20.8514 47.5729 22.0874Z" stroke="white" stroke-width="2.5"/>
<defs>
<linearGradient id="paint0_linear" x1="124.058" y1="29.5233" x2="16.7644" y2="34.4284" gradientUnits="userSpaceOnUse">
<stop stop-color="#4392F1"/>
<stop offset="1" stop-color="#56CBF9"/>
</linearGradient>
<linearGradient id="paint1_linear" x1="124.204" y1="23.282" x2="16.9498" y2="29.6258" gradientUnits="userSpaceOnUse">
<stop stop-color="#4392F1"/>
<stop offset="1" stop-color="#56CBF9"/>
</linearGradient>
</defs>
</svg>
