<svg width="487" height="189" viewBox="0 0 487 189" fill="none" xmlns="http://www.w3.org/2000/svg">
<path d="M155.049 67.4879C154.024 67.9011 153.529 69.0665 153.942 70.0909C154.355 71.1153 155.521 71.6107 156.545 71.1976L155.049 67.4879ZM308.269 71.2292C309.311 71.5961 310.453 71.049 310.82 70.0071C311.187 68.9653 310.64 67.8233 309.598 67.4563L308.269 71.2292ZM156.545 71.1976C188.204 58.4284 212.366 53.6406 235.416 54.4017C258.5 55.164 280.626 61.4935 308.269 71.2292L309.598 67.4563C281.888 57.6971 259.277 51.1875 235.548 50.4039C211.783 49.6192 187.054 54.5789 155.049 67.4879L156.545 71.1976Z" fill="white"/>
<path d="M316.721 70.0871C317.884 72.4401 316.504 75.2569 313.932 75.7798L299.583 78.697C296.301 79.3643 293.701 75.9438 295.223 72.9601L303.24 57.2373C304.735 54.3065 308.931 54.3324 310.389 57.2814L316.721 70.0871Z" fill="white"/>
<path d="M2.25891 87.6712C2.23595 86.4892 2.56038 85.3266 3.19192 84.3272C3.82346 83.3279 4.73437 82.5359 5.81175 82.0494L44.9763 59.4576C50.2429 56.4064 59.6056 56.7616 65.6245 60.3354L101.424 81.0044C104.768 82.9271 106.461 85.3932 106.461 87.7339V104.955C106.461 106.105 106.123 107.23 105.487 108.189C104.851 109.148 103.947 109.899 102.887 110.347L63.7436 132.959C58.4771 135.99 49.1143 135.634 43.0954 132.081L7.29556 111.391C3.72184 109.302 2.02902 106.647 2.25891 104.202V87.6712Z" fill="url(#paint0_linear)" stroke="white" stroke-width="3.1" stroke-miterlimit="10"/>
<path d="M32.3943 108.531L43.0318 114.675C49.1343 118.186 58.4344 118.604 63.7009 115.553L102.824 92.961C108.09 89.9097 107.463 84.6014 101.361 81.0068L65.5609 60.3377C59.4793 56.8267 50.1793 56.4087 44.9127 59.46L5.81083 82.0517C0.5443 85.103 1.19219 90.4113 7.27378 94.0059L13.0628 97.3497L32.3943 108.531Z" fill="url(#paint1_linear)" stroke="white" stroke-width="3.14" stroke-miterlimit="10"/>
<path d="M80.597 49.9693L80.5063 43.9491H79.1563V4.13712C79.1563 2.93005 78.7867 2.37644 78.5404 2.18807C78.3671 2.05558 77.9927 1.90577 77.2599 2.29196L32.8314 28.1155C31.8289 28.8253 31.0032 29.7566 30.4185 30.8374C29.8284 31.9281 29.5001 33.1411 29.4594 34.3804V87.8148C29.4594 89.1224 29.8418 89.6583 30.0605 89.8209C30.2062 89.9291 30.5768 90.0852 31.3527 89.6619L46.4678 81.0161L47.2285 80.5809L47.9356 81.0987L53.8972 85.4639L60.371 73.0332L60.554 72.6817L60.898 72.4849L75.959 63.8701C76.9491 63.1403 77.76 62.1942 78.3296 61.1034C78.9082 59.9955 79.2222 58.7687 79.247 57.5193V49.9693H80.597Z" fill="url(#paint2_linear)" stroke="white" stroke-width="2.7"/>
<path d="M51.6214 48.0388C53.2882 47.7743 54.8561 47.076 56.1677 46.014C57.4792 44.952 58.4883 43.5637 59.0937 41.9883L58.3071 41.5951C56.2197 45.5581 52.9828 47.6455 50.4718 46.8892C49.3827 46.5262 48.6264 45.4976 48.1121 43.6522C48.0823 43.4438 47.9759 43.254 47.8137 43.1198C47.6515 42.9855 47.4451 42.9165 47.2348 42.9262C47.0216 43.0136 46.7825 43.0136 46.5693 42.9262C46.3555 42.6838 46.2373 42.372 46.2365 42.0488C46.2217 41.5274 46.3193 41.0089 46.5229 40.5286C46.7265 40.0483 47.0312 39.6175 47.4163 39.2656H47.5978V39.0236C47.6125 38.7516 47.6125 38.4789 47.5978 38.2068C47.4976 37.6665 47.427 37.1212 47.3861 36.5732C47.1695 34.1519 47.9077 31.7418 49.4433 29.8572C49.6415 29.555 49.7754 29.2151 49.8365 28.8589C50.0728 27.5187 50.7943 26.3125 51.8634 25.4706C52.3229 25.0911 52.8317 24.7756 53.376 24.5328L54.2231 24.2303C55.6527 23.7093 57.1189 23.2947 58.6097 22.9899C58.9583 22.8972 59.323 22.8817 59.6783 22.9444C60.0336 23.0071 60.3709 23.1465 60.6668 23.353C60.9848 23.6548 61.2334 24.0222 61.3953 24.4296C61.5573 24.8371 61.6286 25.2749 61.6046 25.7126C61.6211 26.9363 61.5504 28.1596 61.3929 29.3732V30.069C61.3929 30.6438 61.3929 31.2488 61.8467 31.6118C62.0723 31.8189 62.2215 32.096 62.2702 32.3984C62.3162 33.1671 62.0674 33.9244 61.5744 34.516C61.0084 35.2151 60.6053 36.0315 60.3945 36.906L61.2416 37.1177C61.4332 36.3663 61.784 35.6647 62.2702 35.0606C62.5935 34.6779 62.8376 34.2348 62.9882 33.757C63.1388 33.2792 63.1929 32.7763 63.1475 32.2774C63.1176 32.0042 63.0324 31.74 62.8972 31.5008C62.762 31.2615 62.5795 31.0523 62.3609 30.8858C62.3609 30.8858 62.3609 30.7043 62.3609 30.1597C62.3476 29.928 62.3476 29.6957 62.3609 29.4639C62.5353 28.2012 62.6061 26.9264 62.5727 25.6521C62.604 25.0846 62.5059 24.5173 62.2858 23.9932C62.0657 23.4692 61.7293 23.0019 61.3022 22.6269C60.9146 22.3334 60.4654 22.1318 59.9884 22.0375C59.5115 21.9432 59.0193 21.9585 58.5492 22.0824C57.0082 22.397 55.4917 22.8217 54.0114 23.353L53.1945 23.6555C52.5408 23.9122 51.9369 24.2807 51.4096 24.7446C50.1779 25.718 49.3397 27.1041 49.05 28.6471C49.0256 28.8763 48.9423 29.0952 48.808 29.2824C47.1531 31.3467 46.352 33.9666 46.5693 36.6034C46.5693 37.2085 46.7206 37.753 46.8113 38.3278V38.9026C46.3925 39.3413 46.0646 39.8585 45.8466 40.4244C45.6285 40.9904 45.5246 41.5938 45.5407 42.2001C45.531 42.4876 45.5827 42.7739 45.6923 43.0399C45.8018 43.306 45.9667 43.5456 46.1761 43.743C46.5298 44.0124 46.9752 44.1319 47.4163 44.0757C47.54 44.925 47.8846 45.7268 48.4155 46.401C48.9464 47.0753 49.645 47.5983 50.4415 47.9178C50.8278 48.0096 51.2245 48.0502 51.6214 48.0388Z" fill="white" stroke="white" stroke-width="1.5"/>
<path d="M43.9207 68.7897C47.0706 68.7223 50.1678 67.9687 52.9964 66.5813L52.6334 65.7645C49.8647 67.1276 46.8252 67.8513 43.7392 67.8821C43.5702 67.8845 43.4029 67.8474 43.2506 67.7739C43.0983 67.7004 42.9652 67.5924 42.8619 67.4586C42.657 67.0877 42.5322 66.678 42.4958 66.2558C42.4593 65.8337 42.5119 65.4086 42.6502 65.0081C42.8557 64.2628 43.1186 63.5346 43.4367 62.83C45.2176 58.9264 47.8789 55.4886 51.2115 52.7862C51.6351 52.393 51.8468 52.4232 52.0586 52.4535C53.4515 52.5258 54.8377 52.2178 56.0688 51.5623C57.2999 50.9067 58.3294 49.9285 59.0469 48.7324C59.3485 48.224 59.8199 47.8384 60.378 47.6434C61.3106 47.1769 62.3299 46.9091 63.3714 46.8571C64.4129 46.805 65.4539 46.9697 66.4284 47.3408C67.2628 47.7589 67.9258 48.4541 68.304 49.3072C68.4766 50.1477 68.4458 51.0172 68.2143 51.8434C67.9828 52.6696 67.5571 53.4285 66.9729 54.0568C64.4363 57.1611 61.5309 59.9446 58.3208 62.3459L58.8351 63.0417C62.1192 60.6181 65.0868 57.7928 67.6688 54.6316C68.3738 53.8908 68.8796 52.9834 69.1388 51.994C69.3981 51.0047 69.4023 49.9658 69.1511 48.9745C68.6848 47.938 67.8865 47.0864 66.8822 46.5543C65.8082 46.1455 64.6632 45.9562 63.5148 45.9978C62.3664 46.0394 61.2381 46.3109 60.1965 46.7963C59.4499 47.0403 58.8163 47.5451 58.4116 48.2182C57.7944 49.269 56.9088 50.1366 55.8455 50.7321C54.7822 51.3275 53.5796 51.6293 52.3611 51.6064C52.0704 51.5356 51.766 51.5431 51.479 51.6281C51.1921 51.7131 50.9328 51.8727 50.7275 52.0904C47.2189 54.8586 44.4105 58.4131 42.5292 62.467C42.2003 63.212 41.9272 63.9806 41.7123 64.7661C41.5278 65.2986 41.4647 65.8657 41.5275 66.4257C41.5903 66.9858 41.7775 67.5247 42.0754 68.0031C42.2537 68.243 42.4867 68.4368 42.7551 68.5683C43.0235 68.6999 43.3194 68.7654 43.6182 68.7594L43.9207 68.7897Z" fill="white" stroke="white" stroke-width="1.5"/>
<path d="M352.341 87.6712C352.318 86.4892 352.642 85.3266 353.274 84.3272C353.905 83.3279 354.816 82.5359 355.894 82.0494L395.058 59.4576C400.325 56.4064 409.688 56.7616 415.707 60.3354L451.506 81.0044C454.85 82.9271 456.543 85.3932 456.543 87.7339V104.955C456.543 106.105 456.205 107.23 455.569 108.189C454.933 109.148 454.029 109.899 452.969 110.347L413.826 132.959C408.559 135.99 399.196 135.634 393.177 132.081L357.378 111.391C353.804 109.302 352.111 106.647 352.341 104.202V87.6712Z" fill="url(#paint3_linear)" stroke="white" stroke-width="3.1" stroke-miterlimit="10"/>
<path d="M382.476 108.531L393.114 114.675C399.216 118.186 408.516 118.604 413.783 115.553L452.906 92.961C458.172 89.9097 457.545 84.6014 451.443 81.0068L415.643 60.3377C409.561 56.8267 400.261 56.4087 394.995 59.46L355.893 82.0517C350.626 85.103 351.274 90.4113 357.356 94.0059L363.145 97.3497L382.476 108.531Z" fill="url(#paint4_linear)" stroke="white" stroke-width="3.14" stroke-miterlimit="10"/>
<path d="M430.679 49.9693L430.588 43.9491H429.238V4.13712C429.238 2.93005 428.869 2.37644 428.622 2.18807C428.449 2.05558 428.075 1.90577 427.342 2.29196L382.913 28.1155C381.911 28.8253 381.085 29.7566 380.501 30.8374C379.91 31.9281 379.582 33.1411 379.541 34.3804V87.8148C379.541 89.1224 379.924 89.6583 380.143 89.8209C380.288 89.9291 380.659 90.0852 381.435 89.6619L396.55 81.0161L397.311 80.5809L398.018 81.0987L403.979 85.4639L410.453 73.0332L410.636 72.6817L410.98 72.4849L426.041 63.8701C427.031 63.1403 427.842 62.1942 428.412 61.1034C428.99 59.9955 429.304 58.7687 429.329 57.5193V49.9693H430.679Z" fill="url(#paint5_linear)" stroke="white" stroke-width="2.7"/>
<path d="M401.703 48.0388C403.37 47.7743 404.938 47.076 406.25 46.014C407.561 44.952 408.57 43.5637 409.176 41.9883L408.389 41.5951C406.302 45.5581 403.065 47.6455 400.554 46.8892C399.465 46.5262 398.708 45.4976 398.194 43.6522C398.164 43.4438 398.058 43.254 397.896 43.1198C397.734 42.9855 397.527 42.9165 397.317 42.9262C397.104 43.0136 396.865 43.0136 396.651 42.9262C396.438 42.6838 396.319 42.372 396.319 42.0488C396.304 41.5274 396.401 41.0089 396.605 40.5286C396.809 40.0483 397.113 39.6175 397.498 39.2656H397.68V39.0236C397.695 38.7516 397.695 38.4789 397.68 38.2068C397.58 37.6665 397.509 37.1212 397.468 36.5732C397.252 34.1519 397.99 31.7418 399.525 29.8572C399.724 29.555 399.857 29.2151 399.919 28.8589C400.155 27.5187 400.876 26.3125 401.945 25.4706C402.405 25.0911 402.914 24.7756 403.458 24.5328L404.305 24.2303C405.735 23.7093 407.201 23.2947 408.692 22.9899C409.04 22.8972 409.405 22.8817 409.76 22.9444C410.116 23.0071 410.453 23.1465 410.749 23.353C411.067 23.6548 411.315 24.0222 411.477 24.4296C411.639 24.8371 411.711 25.2749 411.687 25.7126C411.703 26.9363 411.632 28.1596 411.475 29.3732V30.069C411.475 30.6438 411.475 31.2488 411.929 31.6118C412.154 31.8189 412.304 32.096 412.352 32.3984C412.398 33.1671 412.149 33.9244 411.656 34.516C411.09 35.2151 410.687 36.0315 410.477 36.906L411.324 37.1177C411.515 36.3663 411.866 35.6647 412.352 35.0606C412.676 34.6779 412.92 34.2348 413.07 33.757C413.221 33.2792 413.275 32.7763 413.23 32.2774C413.2 32.0042 413.114 31.74 412.979 31.5008C412.844 31.2615 412.662 31.0523 412.443 30.8858C412.443 30.8858 412.443 30.7043 412.443 30.1597C412.43 29.928 412.43 29.6957 412.443 29.4639C412.617 28.2012 412.688 26.9264 412.655 25.6521C412.686 25.0846 412.588 24.5173 412.368 23.9932C412.148 23.4692 411.811 23.0019 411.384 22.6269C410.997 22.3334 410.547 22.1318 410.07 22.0375C409.594 21.9432 409.101 21.9585 408.631 22.0824C407.09 22.397 405.574 22.8217 404.093 23.353L403.277 23.6555C402.623 23.9122 402.019 24.2807 401.492 24.7446C400.26 25.718 399.422 27.1041 399.132 28.6471C399.108 28.8763 399.024 29.0952 398.89 29.2824C397.235 31.3467 396.434 33.9666 396.651 36.6034C396.651 37.2085 396.803 37.753 396.893 38.3278V38.9026C396.475 39.3413 396.147 39.8585 395.929 40.4244C395.711 40.9904 395.607 41.5938 395.623 42.2001C395.613 42.4876 395.665 42.7739 395.774 43.0399C395.884 43.306 396.049 43.5456 396.258 43.743C396.612 44.0124 397.057 44.1319 397.498 44.0757C397.622 44.925 397.967 45.7268 398.498 46.401C399.028 47.0753 399.727 47.5983 400.524 47.9178C400.91 48.0096 401.307 48.0502 401.703 48.0388Z" fill="white" stroke="white" stroke-width="1.5"/>
<path d="M394.003 68.7897C397.153 68.7223 400.25 67.9687 403.078 66.5813L402.715 65.7645C399.947 67.1276 396.907 67.8513 393.821 67.8821C393.652 67.8845 393.485 67.8474 393.333 67.7739C393.18 67.7004 393.047 67.5924 392.944 67.4586C392.739 67.0877 392.614 66.678 392.578 66.2558C392.541 65.8337 392.594 65.4086 392.732 65.0081C392.938 64.2628 393.201 63.5346 393.519 62.83C395.3 58.9264 397.961 55.4886 401.294 52.7862C401.717 52.393 401.929 52.4232 402.141 52.4535C403.533 52.5258 404.92 52.2178 406.151 51.5623C407.382 50.9067 408.411 49.9285 409.129 48.7324C409.431 48.224 409.902 47.8384 410.46 47.6434C411.393 47.1769 412.412 46.9091 413.453 46.8571C414.495 46.805 415.536 46.9697 416.51 47.3408C417.345 47.7589 418.008 48.4541 418.386 49.3072C418.559 50.1477 418.528 51.0172 418.296 51.8434C418.065 52.6696 417.639 53.4285 417.055 54.0568C414.518 57.1611 411.613 59.9446 408.403 62.3459L408.917 63.0417C412.201 60.6181 415.169 57.7928 417.751 54.6316C418.456 53.8908 418.962 52.9834 419.221 51.994C419.48 51.0047 419.484 49.9658 419.233 48.9745C418.767 47.938 417.969 47.0864 416.964 46.5543C415.89 46.1455 414.745 45.9562 413.597 45.9978C412.448 46.0394 411.32 46.3109 410.278 46.7963C409.532 47.0403 408.898 47.5451 408.494 48.2182C407.876 49.269 406.991 50.1366 405.928 50.7321C404.864 51.3275 403.662 51.6293 402.443 51.6064C402.152 51.5356 401.848 51.5431 401.561 51.6281C401.274 51.7131 401.015 51.8727 400.81 52.0904C397.301 54.8586 394.493 58.4131 392.611 62.467C392.282 63.212 392.009 63.9806 391.794 64.7661C391.61 65.2986 391.547 65.8657 391.61 66.4257C391.672 66.9858 391.86 67.5247 392.157 68.0031C392.336 68.243 392.569 68.4368 392.837 68.5683C393.105 68.6999 393.401 68.7654 393.7 68.7594L394.003 68.7897Z" fill="white" stroke="white" stroke-width="1.5"/>
<path d="M32.1878 162.671L37.1658 152.598L41.2672 152.627L34.0245 166.053L33.9695 173.904L30.2489 173.878L30.3039 166.027L23.2355 152.501L27.3516 152.529L32.1878 162.671ZM61.5846 163.99C61.5699 166.08 61.1957 167.913 60.462 169.49C59.7284 171.058 58.6847 172.261 57.3312 173.101C55.9874 173.932 54.4415 174.341 52.6935 174.329C50.9651 174.317 49.4251 173.886 48.0736 173.036C46.7319 172.177 45.6955 170.964 44.9642 169.396C44.2428 167.829 43.8843 166.025 43.8889 163.983L43.8973 162.782C43.9119 160.702 44.2909 158.869 45.0345 157.282C45.7878 155.696 46.8364 154.487 48.1801 153.657C49.5337 152.817 51.0796 152.403 52.8178 152.415C54.5561 152.427 56.0912 152.858 57.4232 153.707C58.765 154.547 59.7966 155.755 60.5179 157.332C61.2394 158.9 61.5977 160.724 61.5929 162.804L61.5846 163.99ZM57.8864 162.851C57.903 160.488 57.4665 158.673 56.5769 157.407C55.6971 156.141 54.4369 155.503 52.7963 155.491C51.1948 155.48 49.9355 156.101 49.0185 157.354C48.1113 158.598 47.6399 160.367 47.6043 162.662L47.5957 163.892C47.5792 166.236 48.0206 168.051 48.9198 169.336C49.8288 170.622 51.0938 171.27 52.7149 171.282C54.3555 171.293 55.6196 170.677 56.5072 169.433C57.4047 168.19 57.8618 166.367 57.8786 163.964L57.8864 162.851ZM82.4547 152.916L82.3548 167.168C82.3389 169.434 81.5988 171.226 80.1345 172.543C78.6799 173.852 76.7467 174.497 74.3346 174.48C71.8933 174.463 69.9594 173.8 68.533 172.491C67.1066 171.173 66.4016 169.356 66.4178 167.042L66.5176 152.804L70.2089 152.83L70.1089 167.097C70.0989 168.523 70.4526 169.614 71.17 170.371C71.8873 171.128 72.9491 171.512 74.3553 171.521C77.2068 171.541 78.6431 170.048 78.6642 167.04L78.7634 152.89L82.4547 152.916Z" fill="white"/>
<path d="M348.252 173.741L353.555 157.019L357.627 156.99L350.101 178.372L346.512 178.397L338.717 157.123L342.774 157.095L348.252 173.741ZM374.093 168.682L365.333 168.743L365.379 175.306L375.618 175.234L375.639 178.193L361.694 178.291L361.544 156.963L375.387 156.866L375.408 159.854L365.271 159.925L365.312 165.814L374.072 165.752L374.093 168.682ZM387.935 169.889L383.805 169.918L383.862 178.135L380.156 178.161L380.007 156.834L387.506 156.781C389.967 156.764 391.871 157.302 393.216 158.396C394.562 159.49 395.242 161.082 395.257 163.172C395.267 164.598 394.928 165.797 394.242 166.768C393.565 167.73 392.613 168.474 391.386 169L396.238 177.858L396.24 178.048L392.27 178.076L387.935 169.889ZM383.784 166.944L387.592 166.917C388.842 166.909 389.817 166.589 390.515 165.959C391.214 165.32 391.559 164.453 391.552 163.359C391.544 162.217 391.21 161.335 390.552 160.715C389.903 160.094 388.934 159.779 387.645 159.768L383.734 159.796L383.784 166.944ZM404.287 177.992L400.596 178.018L400.447 156.69L404.138 156.664L404.287 177.992ZM422.569 168.826L413.986 168.886L414.049 177.924L410.343 177.95L410.193 156.622L423.743 156.527L423.764 159.515L413.92 159.584L413.965 165.927L422.549 165.867L422.569 168.826ZM432.248 177.796L428.556 177.822L428.407 156.494L432.098 156.468L432.248 177.796ZM450.702 168.145L441.942 168.206L441.988 174.769L452.227 174.697L452.248 177.656L438.303 177.754L438.154 156.426L451.996 156.329L452.017 159.317L441.881 159.388L441.922 165.277L450.681 165.215L450.702 168.145ZM464.545 169.352L460.414 169.381L460.472 177.598L456.766 177.624L456.616 156.297L464.116 156.244C466.577 156.227 468.48 156.765 469.826 157.859C471.171 158.953 471.851 160.545 471.866 162.635C471.876 164.061 471.538 165.26 470.851 166.231C470.174 167.193 469.222 167.937 467.996 168.463L472.848 177.321L472.849 177.511L468.88 177.539L464.545 169.352ZM460.393 166.407L464.202 166.38C465.452 166.372 466.426 166.052 467.125 165.422C467.823 164.783 468.169 163.916 468.161 162.822C468.153 161.68 467.82 160.798 467.161 160.178C466.512 159.557 465.543 159.242 464.254 159.231L460.343 159.259L460.393 166.407Z" fill="white"/>
<defs>
<linearGradient id="paint0_linear" x1="140.305" y1="88.6175" x2="18.8148" y2="94.173" gradientUnits="userSpaceOnUse">
<stop stop-color="#4392F1"/>
<stop offset="1" stop-color="#56CBF9"/>
</linearGradient>
<linearGradient id="paint1_linear" x1="140.209" y1="81.6266" x2="18.9807" y2="88.7706" gradientUnits="userSpaceOnUse">
<stop stop-color="#4392F1"/>
<stop offset="1" stop-color="#56CBF9"/>
</linearGradient>
<linearGradient id="paint2_linear" x1="97.6412" y1="37.1423" x2="36.3534" y2="38.3516" gradientUnits="userSpaceOnUse">
<stop stop-color="#4392F1"/>
<stop offset="1" stop-color="#56CBF9"/>
</linearGradient>
<linearGradient id="paint3_linear" x1="490.387" y1="88.6175" x2="368.897" y2="94.173" gradientUnits="userSpaceOnUse">
<stop stop-color="#4392F1"/>
<stop offset="1" stop-color="#56CBF9"/>
</linearGradient>
<linearGradient id="paint4_linear" x1="490.291" y1="81.6266" x2="369.063" y2="88.7706" gradientUnits="userSpaceOnUse">
<stop stop-color="#4392F1"/>
<stop offset="1" stop-color="#56CBF9"/>
</linearGradient>
<linearGradient id="paint5_linear" x1="447.723" y1="37.1423" x2="386.435" y2="38.3516" gradientUnits="userSpaceOnUse">
<stop stop-color="#4392F1"/>
<stop offset="1" stop-color="#56CBF9"/>
</linearGradient>
</defs>
</svg>
