<svg width="486" height="189" viewBox="0 0 486 189" fill="none" xmlns="http://www.w3.org/2000/svg">
<path d="M154.721 67.4879C153.696 67.9011 153.201 69.0665 153.614 70.0909C154.027 71.1153 155.192 71.6107 156.217 71.1976L154.721 67.4879ZM307.941 71.2292C308.983 71.5961 310.125 71.049 310.492 70.0071C310.859 68.9653 310.312 67.8233 309.27 67.4563L307.941 71.2292ZM156.217 71.1976C187.876 58.4284 212.038 53.6406 235.088 54.4017C258.172 55.164 280.298 61.4935 307.941 71.2292L309.27 67.4563C281.559 57.6971 258.949 51.1875 235.22 50.4039C211.455 49.6192 186.726 54.5789 154.721 67.4879L156.217 71.1976Z" fill="#62A5F5"/>
<path d="M316.393 70.0871C317.556 72.4401 316.176 75.2569 313.604 75.7798L299.255 78.697C295.973 79.3643 293.373 75.9438 294.895 72.9601L302.912 57.2373C304.406 54.3065 308.603 54.3324 310.061 57.2814L316.393 70.0871Z" fill="#62A5F5"/>
<path d="M314.389 117.493C315.413 117.079 315.909 115.914 315.495 114.89C315.082 113.865 313.917 113.37 312.893 113.783L314.389 117.493ZM161.168 113.751C160.127 113.384 158.984 113.931 158.618 114.973C158.251 116.015 158.798 117.157 159.84 117.524L161.168 113.751ZM312.893 113.783C281.234 126.552 257.071 131.34 234.022 130.579C210.938 129.816 188.812 123.487 161.168 113.751L159.84 117.524C187.55 127.283 210.16 133.793 233.89 134.577C257.654 135.361 282.383 130.402 314.389 117.493L312.893 113.783Z" fill="white"/>
<path d="M152.717 114.893C151.553 112.54 152.933 109.724 155.505 109.201L169.854 106.283C173.136 105.616 175.736 109.037 174.215 112.02L166.197 127.743C164.703 130.674 160.507 130.648 159.048 127.699L152.717 114.893Z" fill="white"/>
<path d="M1.93078 87.6712C1.90782 86.4892 2.23226 85.3266 2.8638 84.3272C3.49534 83.3279 4.40624 82.5359 5.48363 82.0494L44.6482 59.4576C49.9147 56.4064 59.2775 56.7616 65.2964 60.3354L101.096 81.0044C104.44 82.9271 106.133 85.3932 106.133 87.7339V104.955C106.133 106.105 105.794 107.23 105.159 108.189C104.523 109.148 103.619 109.899 102.559 110.347L63.4155 132.959C58.149 135.99 48.7862 135.634 42.7673 132.081L6.96743 111.391C3.39371 109.302 1.70089 106.647 1.93078 104.202V87.6712Z" fill="url(#paint0_linear)" stroke="white" stroke-width="3.1" stroke-miterlimit="10"/>
<path d="M32.0662 108.531L42.7037 114.675C48.8062 118.186 58.1063 118.604 63.3728 115.553L102.496 92.961C107.762 89.9097 107.135 84.6014 101.033 81.0068L65.2328 60.3377C59.1512 56.8267 49.8511 56.4087 44.5846 59.46L5.48271 82.0517C0.216175 85.103 0.864067 90.4113 6.94566 94.0059L12.7346 97.3497L32.0662 108.531Z" fill="url(#paint1_linear)" stroke="white" stroke-width="3.14" stroke-miterlimit="10"/>
<path d="M80.2689 49.9693L80.1781 43.9491H78.8281V4.13712C78.8281 2.93005 78.4586 2.37644 78.2123 2.18807C78.039 2.05558 77.6646 1.90577 76.9318 2.29196L32.5032 28.1155C31.5008 28.8253 30.675 29.7566 30.0904 30.8374C29.5003 31.9281 29.172 33.1411 29.1313 34.3804V87.8148C29.1313 89.1224 29.5137 89.6583 29.7324 89.8209C29.8781 89.9291 30.2487 90.0852 31.0245 89.6619L46.1396 81.0161L46.9004 80.5809L47.6075 81.0987L53.5691 85.4639L60.0429 73.0332L60.2259 72.6817L60.5699 72.4849L75.6309 63.8701C76.621 63.1403 77.4318 62.1942 78.0015 61.1034C78.5801 59.9955 78.8941 58.7687 78.9189 57.5193V49.9693H80.2689Z" fill="url(#paint2_linear)" stroke="white" stroke-width="2.7"/>
<path d="M51.2933 48.0388C52.9601 47.7743 54.528 47.076 55.8395 46.014C57.1511 44.952 58.1602 43.5637 58.7656 41.9883L57.979 41.5951C55.8916 45.5581 52.6546 47.6455 50.1437 46.8892C49.0546 46.5262 48.2983 45.4976 47.784 43.6522C47.7542 43.4438 47.6477 43.254 47.4855 43.1198C47.3234 42.9855 47.117 42.9165 46.9067 42.9262C46.6934 43.0136 46.4544 43.0136 46.2411 42.9262C46.0274 42.6838 45.9092 42.372 45.9084 42.0488C45.8935 41.5274 45.9912 41.0089 46.1948 40.5286C46.3984 40.0483 46.7031 39.6175 47.0882 39.2656H47.2697V39.0236C47.2843 38.7516 47.2843 38.4789 47.2697 38.2068C47.1695 37.6665 47.0989 37.1212 47.058 36.5732C46.8414 34.1519 47.5796 31.7418 49.1151 29.8572C49.3134 29.555 49.4473 29.2151 49.5084 28.8589C49.7447 27.5187 50.4662 26.3125 51.5353 25.4706C51.9948 25.0911 52.5036 24.7756 53.0479 24.5328L53.8949 24.2303C55.3246 23.7093 56.7908 23.2947 58.2816 22.9899C58.6302 22.8972 58.9949 22.8817 59.3502 22.9444C59.7055 23.0071 60.0428 23.1465 60.3387 23.353C60.6567 23.6548 60.9053 24.0222 61.0672 24.4296C61.2291 24.8371 61.3005 25.2749 61.2765 25.7126C61.293 26.9363 61.2223 28.1596 61.0648 29.3732V30.069C61.0648 30.6438 61.0648 31.2488 61.5186 31.6118C61.7442 31.8189 61.8934 32.096 61.942 32.3984C61.9881 33.1671 61.7393 33.9244 61.2463 34.516C60.6803 35.2151 60.2772 36.0315 60.0664 36.906L60.9135 37.1177C61.1051 36.3663 61.4558 35.6647 61.942 35.0606C62.2653 34.6779 62.5094 34.2348 62.66 33.757C62.8106 33.2792 62.8648 32.7763 62.8194 32.2774C62.7895 32.0042 62.7043 31.74 62.5691 31.5008C62.4339 31.2615 62.2514 31.0523 62.0328 30.8858C62.0328 30.8858 62.0328 30.7043 62.0328 30.1597C62.0195 29.928 62.0195 29.6957 62.0328 29.4639C62.2072 28.2012 62.278 26.9264 62.2446 25.6521C62.2758 25.0846 62.1778 24.5173 61.9576 23.9932C61.7375 23.4692 61.4012 23.0019 60.974 22.6269C60.5865 22.3334 60.1372 22.1318 59.6603 22.0375C59.1834 21.9432 58.6912 21.9585 58.2211 22.0824C56.6801 22.397 55.1636 22.8217 53.6832 23.353L52.8664 23.6555C52.2127 23.9122 51.6088 24.2807 51.0815 24.7446C49.8497 25.718 49.0116 27.1041 48.7218 28.6471C48.6975 28.8763 48.6142 29.0952 48.4799 29.2824C46.825 31.3467 46.0238 33.9666 46.2411 36.6034C46.2411 37.2085 46.3924 37.753 46.4832 38.3278V38.9026C46.0644 39.3413 45.7365 39.8585 45.5184 40.4244C45.3004 40.9904 45.1964 41.5938 45.2126 42.2001C45.2029 42.4876 45.2546 42.7739 45.3642 43.0399C45.4737 43.306 45.6386 43.5456 45.8479 43.743C46.2017 44.0124 46.6471 44.1319 47.0882 44.0757C47.2119 44.925 47.5565 45.7268 48.0874 46.401C48.6183 47.0753 49.3169 47.5983 50.1134 47.9178C50.4997 48.0096 50.8964 48.0502 51.2933 48.0388Z" fill="white" stroke="white" stroke-width="1.5"/>
<path d="M43.5926 68.7897C46.7425 68.7223 49.8397 67.9687 52.6683 66.5813L52.3053 65.7645C49.5366 67.1276 46.497 67.8513 43.4111 67.8821C43.242 67.8845 43.0747 67.8474 42.9225 67.7739C42.7702 67.7004 42.6371 67.5924 42.5338 67.4586C42.3289 67.0877 42.2041 66.678 42.1676 66.2558C42.1311 65.8337 42.1838 65.4086 42.3221 65.0081C42.5275 64.2628 42.7904 63.5346 43.1086 62.83C44.8895 58.9264 47.5507 55.4886 50.8834 52.7862C51.307 52.393 51.5187 52.4232 51.7305 52.4535C53.1233 52.5258 54.5096 52.2178 55.7407 51.5623C56.9718 50.9067 58.0013 49.9285 58.7187 48.7324C59.0204 48.224 59.4918 47.8384 60.0498 47.6434C60.9825 47.1769 62.0018 46.9091 63.0433 46.8571C64.0848 46.805 65.1258 46.9697 66.1003 47.3408C66.9346 47.7589 67.5977 48.4541 67.9759 49.3072C68.1485 50.1477 68.1177 51.0172 67.8862 51.8434C67.6546 52.6696 67.229 53.4285 66.6448 54.0568C64.1082 57.1611 61.2028 59.9446 57.9927 62.3459L58.507 63.0417C61.791 60.6181 64.7587 57.7928 67.3406 54.6316C68.0457 53.8908 68.5515 52.9834 68.8107 51.994C69.0699 51.0047 69.0741 49.9658 68.823 48.9745C68.3567 47.938 67.5583 47.0864 66.5541 46.5543C65.4801 46.1455 64.3351 45.9562 63.1867 45.9978C62.0383 46.0394 60.9099 46.3109 59.8683 46.7963C59.1218 47.0403 58.4882 47.5451 58.0835 48.2182C57.4663 49.269 56.5807 50.1366 55.5174 50.7321C54.4541 51.3275 53.2515 51.6293 52.033 51.6064C51.7422 51.5356 51.4378 51.5431 51.1509 51.6281C50.8639 51.7131 50.6047 51.8727 50.3994 52.0904C46.8908 54.8586 44.0824 58.4131 42.201 62.467C41.8722 63.212 41.5991 63.9806 41.3842 64.7661C41.1997 65.2986 41.1365 65.8657 41.1993 66.4257C41.2622 66.9858 41.4494 67.5247 41.7473 68.0031C41.9256 68.243 42.1586 68.4368 42.427 68.5683C42.6953 68.6999 42.9913 68.7654 43.2901 68.7594L43.5926 68.7897Z" fill="white" stroke="white" stroke-width="1.5"/>
<path d="M352.013 87.6712C351.99 86.4892 352.314 85.3266 352.946 84.3272C353.577 83.3279 354.488 82.5359 355.566 82.0494L394.73 59.4576C399.997 56.4064 409.36 56.7616 415.378 60.3354L451.178 81.0044C454.522 82.9271 456.215 85.3932 456.215 87.7339V104.955C456.215 106.105 455.876 107.23 455.241 108.189C454.605 109.148 453.701 109.899 452.641 110.347L413.498 132.959C408.231 135.99 398.868 135.634 392.849 132.081L357.049 111.391C353.476 109.302 351.783 106.647 352.013 104.202V87.6712Z" fill="url(#paint3_linear)" stroke="white" stroke-width="3.1" stroke-miterlimit="10"/>
<path d="M382.148 108.531L392.786 114.675C398.888 118.186 408.188 118.604 413.455 115.553L452.578 92.961C457.844 89.9097 457.217 84.6014 451.115 81.0068L415.315 60.3377C409.233 56.8267 399.933 56.4087 394.667 59.46L355.565 82.0517C350.298 85.103 350.946 90.4113 357.028 94.0059L362.817 97.3497L382.148 108.531Z" fill="url(#paint4_linear)" stroke="white" stroke-width="3.14" stroke-miterlimit="10"/>
<path d="M430.351 49.9693L430.26 43.9491H428.91V4.13712C428.91 2.93005 428.541 2.37644 428.294 2.18807C428.121 2.05558 427.747 1.90577 427.014 2.29196L382.585 28.1155C381.583 28.8253 380.757 29.7566 380.172 30.8374C379.582 31.9281 379.254 33.1411 379.213 34.3804V87.8148C379.213 89.1224 379.596 89.6583 379.814 89.8209C379.96 89.9291 380.331 90.0852 381.107 89.6619L396.222 81.0161L396.982 80.5809L397.69 81.0987L403.651 85.4639L410.125 73.0332L410.308 72.6817L410.652 72.4849L425.713 63.8701C426.703 63.1403 427.514 62.1942 428.084 61.1034C428.662 59.9955 428.976 58.7687 429.001 57.5193V49.9693H430.351Z" fill="url(#paint5_linear)" stroke="white" stroke-width="2.7"/>
<path d="M401.375 48.0388C403.042 47.7743 404.61 47.076 405.922 46.014C407.233 44.952 408.242 43.5637 408.848 41.9883L408.061 41.5951C405.974 45.5581 402.737 47.6455 400.226 46.8892C399.137 46.5262 398.38 45.4976 397.866 43.6522C397.836 43.4438 397.73 43.254 397.568 43.1198C397.405 42.9855 397.199 42.9165 396.989 42.9262C396.775 43.0136 396.536 43.0136 396.323 42.9262C396.109 42.6838 395.991 42.372 395.99 42.0488C395.976 41.5274 396.073 41.0089 396.277 40.5286C396.48 40.0483 396.785 39.6175 397.17 39.2656H397.352V39.0236C397.366 38.7516 397.366 38.4789 397.352 38.2068C397.252 37.6665 397.181 37.1212 397.14 36.5732C396.923 34.1519 397.662 31.7418 399.197 29.8572C399.395 29.555 399.529 29.2151 399.59 28.8589C399.827 27.5187 400.548 26.3125 401.617 25.4706C402.077 25.0911 402.586 24.7756 403.13 24.5328L403.977 24.2303C405.407 23.7093 406.873 23.2947 408.364 22.9899C408.712 22.8972 409.077 22.8817 409.432 22.9444C409.788 23.0071 410.125 23.1465 410.421 23.353C410.739 23.6548 410.987 24.0222 411.149 24.4296C411.311 24.8371 411.383 25.2749 411.359 25.7126C411.375 26.9363 411.304 28.1596 411.147 29.3732V30.069C411.147 30.6438 411.147 31.2488 411.601 31.6118C411.826 31.8189 411.975 32.096 412.024 32.3984C412.07 33.1671 411.821 33.9244 411.328 34.516C410.762 35.2151 410.359 36.0315 410.148 36.906L410.996 37.1177C411.187 36.3663 411.538 35.6647 412.024 35.0606C412.347 34.6779 412.591 34.2348 412.742 33.757C412.893 33.2792 412.947 32.7763 412.901 32.2774C412.871 32.0042 412.786 31.74 412.651 31.5008C412.516 31.2615 412.333 31.0523 412.115 30.8858C412.115 30.8858 412.115 30.7043 412.115 30.1597C412.101 29.928 412.101 29.6957 412.115 29.4639C412.289 28.2012 412.36 26.9264 412.327 25.6521C412.358 25.0846 412.26 24.5173 412.04 23.9932C411.82 23.4692 411.483 23.0019 411.056 22.6269C410.669 22.3334 410.219 22.1318 409.742 22.0375C409.265 21.9432 408.773 21.9585 408.303 22.0824C406.762 22.397 405.246 22.8217 403.765 23.353L402.948 23.6555C402.295 23.9122 401.691 24.2807 401.164 24.7446C399.932 25.718 399.094 27.1041 398.804 28.6471C398.78 28.8763 398.696 29.0952 398.562 29.2824C396.907 31.3467 396.106 33.9666 396.323 36.6034C396.323 37.2085 396.474 37.753 396.565 38.3278V38.9026C396.146 39.3413 395.819 39.8585 395.6 40.4244C395.382 40.9904 395.278 41.5938 395.295 42.2001C395.285 42.4876 395.337 42.7739 395.446 43.0399C395.556 43.306 395.721 43.5456 395.93 43.743C396.284 44.0124 396.729 44.1319 397.17 44.0757C397.294 44.925 397.639 45.7268 398.169 46.401C398.7 47.0753 399.399 47.5983 400.195 47.9178C400.582 48.0096 400.978 48.0502 401.375 48.0388Z" fill="white" stroke="white" stroke-width="1.5"/>
<path d="M393.675 68.7897C396.824 68.7223 399.922 67.9687 402.75 66.5813L402.387 65.7645C399.619 67.1276 396.579 67.8513 393.493 67.8821C393.324 67.8845 393.157 67.8474 393.004 67.7739C392.852 67.7004 392.719 67.5924 392.616 67.4586C392.411 67.0877 392.286 66.678 392.25 66.2558C392.213 65.8337 392.266 65.4086 392.404 65.0081C392.61 64.2628 392.872 63.5346 393.191 62.83C394.972 58.9264 397.633 55.4886 400.965 52.7862C401.389 52.393 401.601 52.4232 401.813 52.4535C403.205 52.5258 404.592 52.2178 405.823 51.5623C407.054 50.9067 408.083 49.9285 408.801 48.7324C409.102 48.224 409.574 47.8384 410.132 47.6434C411.065 47.1769 412.084 46.9091 413.125 46.8571C414.167 46.805 415.208 46.9697 416.182 47.3408C417.017 47.7589 417.68 48.4541 418.058 49.3072C418.231 50.1477 418.2 51.0172 417.968 51.8434C417.737 52.6696 417.311 53.4285 416.727 54.0568C414.19 57.1611 411.285 59.9446 408.075 62.3459L408.589 63.0417C411.873 60.6181 414.841 57.7928 417.423 54.6316C418.128 53.8908 418.633 52.9834 418.893 51.994C419.152 51.0047 419.156 49.9658 418.905 48.9745C418.439 47.938 417.64 47.0864 416.636 46.5543C415.562 46.1455 414.417 45.9562 413.269 45.9978C412.12 46.0394 410.992 46.3109 409.95 46.7963C409.204 47.0403 408.57 47.5451 408.166 48.2182C407.548 49.269 406.663 50.1366 405.599 50.7321C404.536 51.3275 403.333 51.6293 402.115 51.6064C401.824 51.5356 401.52 51.5431 401.233 51.6281C400.946 51.7131 400.687 51.8727 400.481 52.0904C396.973 54.8586 394.164 58.4131 392.283 62.467C391.954 63.212 391.681 63.9806 391.466 64.7661C391.282 65.2986 391.219 65.8657 391.281 66.4257C391.344 66.9858 391.531 67.5247 391.829 68.0031C392.008 68.243 392.241 68.4368 392.509 68.5683C392.777 68.6999 393.073 68.7654 393.372 68.7594L393.675 68.7897Z" fill="white" stroke="white" stroke-width="1.5"/>
<path d="M31.8597 165.577L36.8377 155.504L40.9391 155.533L33.6964 168.959L33.6414 176.811L29.9208 176.785L29.9758 168.933L22.9073 155.407L27.0234 155.436L31.8597 165.577ZM61.2565 166.897C61.2418 168.986 60.8676 170.82 60.1339 172.397C59.4002 173.964 58.3566 175.167 57.003 176.008C55.6593 176.838 54.1134 177.247 52.3654 177.235C50.6369 177.223 49.097 176.792 47.7455 175.943C46.4038 175.084 45.3673 173.87 44.6361 172.303C43.9147 170.735 43.5562 168.931 43.5608 166.89L43.5692 165.689C43.5838 163.609 43.9628 161.775 44.7064 160.189C45.4597 158.602 46.5082 157.394 47.852 156.563C49.2056 155.723 50.7515 155.309 52.4897 155.321C54.228 155.333 55.7631 155.764 57.095 156.613C58.4368 157.453 59.4684 158.661 60.1898 160.239C60.9113 161.806 61.2696 163.63 61.2648 165.71L61.2565 166.897ZM57.5583 165.757C57.5749 163.394 57.1383 161.58 56.2488 160.313C55.3689 159.048 54.1087 158.409 52.4682 158.397C50.8666 158.386 49.6074 159.007 48.6904 160.26C47.7832 161.504 47.3118 163.273 47.2762 165.568L47.2675 166.799C47.2511 169.142 47.6925 170.957 48.5917 172.243C49.5007 173.528 50.7657 174.177 52.3868 174.188C54.0274 174.2 55.2915 173.583 56.1791 172.34C57.0765 171.096 57.5337 169.273 57.5505 166.871L57.5583 165.757ZM82.1266 155.822L82.0267 170.074C82.0108 172.34 81.2707 174.132 79.8063 175.45C78.3518 176.758 76.4185 177.404 74.0065 177.387C71.5651 177.369 69.6313 176.707 68.2049 175.398C66.7785 174.079 66.0735 172.263 66.0897 169.948L66.1895 155.71L69.8808 155.736L69.7808 170.003C69.7708 171.429 70.1245 172.52 70.8418 173.277C71.5592 174.034 72.621 174.418 74.0272 174.428C76.8787 174.448 78.315 172.954 78.3361 169.946L78.4353 155.796L82.1266 155.822Z" fill="white"/>
<path d="M347.924 173.741L353.227 157.019L357.299 156.99L349.773 178.372L346.184 178.397L338.389 157.123L342.446 157.095L347.924 173.741ZM373.764 168.682L365.005 168.743L365.051 175.306L375.29 175.234L375.311 178.193L361.366 178.291L361.216 156.963L375.059 156.866L375.079 159.854L364.943 159.925L364.984 165.814L373.744 165.752L373.764 168.682ZM387.607 169.889L383.476 169.918L383.534 178.135L379.828 178.161L379.679 156.834L387.178 156.781C389.639 156.764 391.542 157.302 392.888 158.396C394.234 159.49 394.914 161.082 394.928 163.172C394.938 164.598 394.6 165.797 393.914 166.768C393.237 167.73 392.285 168.474 391.058 169L395.91 177.858L395.912 178.048L391.942 178.076L387.607 169.889ZM383.456 166.944L387.264 166.917C388.514 166.909 389.488 166.589 390.187 165.959C390.886 165.32 391.231 164.453 391.224 163.359C391.216 162.217 390.882 161.335 390.224 160.715C389.575 160.094 388.606 159.779 387.317 159.768L383.405 159.796L383.456 166.944ZM403.959 177.992L400.268 178.018L400.118 156.69L403.81 156.664L403.959 177.992ZM422.241 168.826L413.657 168.886L413.721 177.924L410.015 177.95L409.865 156.622L423.415 156.527L423.436 159.515L413.592 159.584L413.637 165.927L422.22 165.867L422.241 168.826ZM431.92 177.796L428.228 177.822L428.079 156.494L431.77 156.468L431.92 177.796ZM450.374 168.145L441.614 168.206L441.66 174.769L451.899 174.697L451.92 177.656L437.975 177.754L437.826 156.426L451.668 156.329L451.689 159.317L441.552 159.388L441.594 165.277L450.353 165.215L450.374 168.145ZM464.217 169.352L460.086 169.381L460.143 177.598L456.437 177.624L456.288 156.297L463.788 156.244C466.249 156.227 468.152 156.765 469.498 157.859C470.843 158.953 471.523 160.545 471.538 162.635C471.548 164.061 471.21 165.26 470.523 166.231C469.846 167.193 468.894 167.937 467.668 168.463L472.52 177.321L472.521 177.511L468.551 177.539L464.217 169.352ZM460.065 166.407L463.874 166.38C465.123 166.372 466.098 166.052 466.797 165.422C467.495 164.783 467.841 163.916 467.833 162.822C467.825 161.68 467.492 160.798 466.833 160.178C466.184 159.557 465.215 159.242 463.926 159.231L460.015 159.259L460.065 166.407Z" fill="white"/>
<defs>
<linearGradient id="paint0_linear" x1="139.977" y1="88.6175" x2="18.4866" y2="94.173" gradientUnits="userSpaceOnUse">
<stop stop-color="#4392F1"/>
<stop offset="1" stop-color="#56CBF9"/>
</linearGradient>
<linearGradient id="paint1_linear" x1="139.881" y1="81.6266" x2="18.6526" y2="88.7706" gradientUnits="userSpaceOnUse">
<stop stop-color="#4392F1"/>
<stop offset="1" stop-color="#56CBF9"/>
</linearGradient>
<linearGradient id="paint2_linear" x1="97.3131" y1="37.1423" x2="36.0253" y2="38.3516" gradientUnits="userSpaceOnUse">
<stop stop-color="#4392F1"/>
<stop offset="1" stop-color="#56CBF9"/>
</linearGradient>
<linearGradient id="paint3_linear" x1="490.059" y1="88.6175" x2="368.569" y2="94.173" gradientUnits="userSpaceOnUse">
<stop stop-color="#4392F1"/>
<stop offset="1" stop-color="#56CBF9"/>
</linearGradient>
<linearGradient id="paint4_linear" x1="489.963" y1="81.6266" x2="368.735" y2="88.7706" gradientUnits="userSpaceOnUse">
<stop stop-color="#4392F1"/>
<stop offset="1" stop-color="#56CBF9"/>
</linearGradient>
<linearGradient id="paint5_linear" x1="447.395" y1="37.1423" x2="386.107" y2="38.3516" gradientUnits="userSpaceOnUse">
<stop stop-color="#4392F1"/>
<stop offset="1" stop-color="#56CBF9"/>
</linearGradient>
</defs>
</svg>
