<svg width="574" height="185" viewBox="0 0 574 185" fill="none" xmlns="http://www.w3.org/2000/svg">
<path d="M150.054 90.9572C148.958 91.0911 148.178 92.0884 148.312 93.1848C148.445 94.2813 149.443 95.0616 150.539 94.9277L150.054 90.9572ZM303.447 94.9424C304.552 94.9349 305.441 94.0334 305.433 92.9288C305.426 91.8243 304.524 90.935 303.42 90.9425L303.447 94.9424ZM150.539 94.9277C183.032 90.9604 207.81 91.0506 231.167 92.089C254.49 93.126 276.602 95.1254 303.447 94.9424L303.42 90.9425C276.707 91.1246 254.884 89.1395 231.345 88.093C207.839 87.0479 182.828 86.9556 150.054 90.9572L150.539 94.9277Z" fill="white"/>
<path d="M310.523 88.9282C312.555 90.5891 312.464 93.7245 310.338 95.2646L298.481 103.856C295.769 105.821 291.987 103.782 292.138 100.437L292.934 82.8056C293.082 79.5192 296.913 77.8069 299.461 79.8886L310.523 88.9282Z" fill="white"/>
<path d="M2.46203 87.0852C2.43907 85.9033 2.76351 84.7406 3.39505 83.7413C4.02659 82.742 4.93749 81.95 6.01488 81.4634L45.1795 58.8717C50.446 55.8204 59.8087 56.1757 65.8276 59.7494L101.628 80.4185C104.971 82.3412 106.664 84.8072 106.664 87.1479V104.369C106.664 105.519 106.326 106.644 105.69 107.603C105.054 108.562 104.15 109.313 103.09 109.761L63.9467 132.373C58.6802 135.404 49.3175 135.048 43.2986 131.495L7.49868 110.806C3.92496 108.716 2.23214 106.061 2.46203 103.616V87.0852Z" fill="url(#paint0_linear)" stroke="white" stroke-width="3.1" stroke-miterlimit="10"/>
<path d="M32.5974 107.945L43.235 114.089C49.3374 117.6 58.6375 118.018 63.904 114.967L103.027 92.375C108.293 89.3238 107.666 84.0155 101.564 80.4208L65.764 59.7518C59.6824 56.2408 50.3824 55.8228 45.1158 58.874L6.01396 81.4658C0.747425 84.517 1.39532 89.8254 7.47691 93.42L13.2659 96.7638L32.5974 107.945Z" fill="url(#paint1_linear)" stroke="white" stroke-width="3.14" stroke-miterlimit="10"/>
<path d="M80.8001 49.3833L80.7094 43.3631H79.3594V3.55118C79.3594 2.34412 78.9899 1.79051 78.7435 1.60213C78.5703 1.46964 78.1958 1.31983 77.463 1.70602L33.0345 27.5296C32.032 28.2394 31.2063 29.1707 30.6216 30.2514C30.0315 31.3422 29.7032 32.5552 29.6625 33.7945V87.2289C29.6625 88.5365 30.045 89.0723 30.2637 89.2349C30.4093 89.3432 30.7799 89.4993 31.5558 89.076L46.6709 80.4301L47.4316 79.995L48.1387 80.5127L54.1003 84.878L60.5741 72.4473L60.7572 72.0958L61.1012 71.899L76.1621 63.2841C77.1522 62.5544 77.9631 61.6082 78.5328 60.5175C79.1114 59.4096 79.4254 58.1828 79.4501 56.9333V49.3833H80.8001Z" fill="url(#paint2_linear)" stroke="white" stroke-width="2.7"/>
<path d="M51.8245 47.4529C53.4913 47.1884 55.0592 46.4901 56.3708 45.4281C57.6824 44.3661 58.6915 42.9777 59.2968 41.4024L58.5103 41.0091C56.4229 44.9722 53.1859 47.0596 50.6749 46.3033C49.5859 45.9402 48.8296 44.9117 48.3153 43.0663C48.2854 42.8579 48.179 42.6681 48.0168 42.5338C47.8546 42.3996 47.6482 42.3306 47.4379 42.3402C47.2247 42.4276 46.9856 42.4276 46.7724 42.3402C46.5586 42.0979 46.4404 41.786 46.4396 41.4629C46.4248 40.9415 46.5224 40.4229 46.726 39.9427C46.9296 39.4624 47.2344 39.0316 47.6194 38.6797H47.8009V38.4377C47.8156 38.1656 47.8156 37.893 47.8009 37.6209C47.7007 37.0806 47.6301 36.5352 47.5892 35.9873C47.3726 33.5659 48.1108 31.1559 49.6464 29.2713C49.8446 28.969 49.9785 28.6292 50.0397 28.2729C50.2759 26.9328 50.9974 25.7266 52.0665 24.8847C52.526 24.5052 53.0349 24.1897 53.5791 23.9469L54.4262 23.6443C55.8558 23.1233 57.322 22.7087 58.8128 22.404C59.1615 22.3113 59.5261 22.2957 59.8814 22.3584C60.2367 22.4211 60.5741 22.5606 60.8699 22.767C61.1879 23.0689 61.4365 23.4363 61.5984 23.8437C61.7604 24.2511 61.8318 24.6889 61.8077 25.1267C61.8242 26.3504 61.7535 27.5736 61.596 28.7872V29.483C61.596 30.0578 61.596 30.6629 62.0498 31.0259C62.2754 31.233 62.4246 31.5101 62.4733 31.8125C62.5193 32.5812 62.2706 33.3385 61.7776 33.9301C61.2115 34.6291 60.8084 35.4456 60.5977 36.32L61.4447 36.5318C61.6363 35.7803 61.9871 35.0788 62.4733 34.4746C62.7966 34.092 63.0407 33.6489 63.1913 33.1711C63.3419 32.6933 63.396 32.1903 63.3506 31.6914C63.3207 31.4183 63.2356 31.1541 63.1003 30.9148C62.9651 30.6756 62.7826 30.4664 62.564 30.2998C62.564 30.2998 62.564 30.1183 62.564 29.5738C62.5507 29.342 62.5507 29.1097 62.564 28.878C62.7384 27.6153 62.8093 26.3404 62.7758 25.0662C62.8071 24.4986 62.709 23.9314 62.4889 23.4073C62.2688 22.8832 61.9324 22.416 61.5053 22.041C61.1177 21.7475 60.6685 21.5459 60.1915 21.4516C59.7146 21.3572 59.2225 21.3726 58.7523 21.4964C57.2113 21.8111 55.6948 22.2357 54.2145 22.767L53.3976 23.0695C52.744 23.3262 52.14 23.6948 51.6128 24.1586C50.381 25.1321 49.5429 26.5182 49.2531 28.0612C49.2288 28.2903 49.1454 28.5092 49.0111 28.6965C47.3563 30.7608 46.5551 33.3807 46.7724 36.0175C46.7724 36.6226 46.9237 37.1671 47.0144 37.7419V38.3167C46.5957 38.7554 46.2677 39.2726 46.0497 39.8385C45.8316 40.4044 45.7277 41.0079 45.7438 41.6142C45.7342 41.9017 45.7859 42.188 45.8954 42.454C46.0049 42.72 46.1699 42.9597 46.3792 43.157C46.7329 43.4264 47.1783 43.546 47.6194 43.4898C47.7432 44.339 48.0877 45.1409 48.6186 45.8151C49.1495 46.4894 49.8482 47.0124 50.6447 47.3318C51.031 47.4236 51.4277 47.4643 51.8245 47.4529Z" fill="white" stroke="white" stroke-width="1.5"/>
<path d="M44.1239 68.2037C47.2737 68.1364 50.3709 67.3827 53.1995 65.9953L52.8365 65.1785C50.0678 66.5416 47.0283 67.2654 43.9424 67.2962C43.7733 67.2985 43.606 67.2615 43.4537 67.188C43.3014 67.1145 43.1683 67.0065 43.065 66.8726C42.8601 66.5018 42.7354 66.092 42.6989 65.6699C42.6624 65.2478 42.7151 64.8227 42.8533 64.4222C43.0588 63.6769 43.3217 62.9487 43.6398 62.244C45.4208 58.3405 48.082 54.9027 51.4147 52.2003C51.8382 51.807 52.05 51.8373 52.2617 51.8675C53.6546 51.9399 55.0408 51.6318 56.2719 50.9763C57.503 50.3208 58.5325 49.3426 59.25 48.1465C59.5517 47.6381 60.023 47.2524 60.5811 47.0574C61.5137 46.591 62.5331 46.3232 63.5746 46.2711C64.6161 46.2191 65.657 46.3838 66.6315 46.7549C67.4659 47.173 68.1289 47.8681 68.5072 48.7213C68.6797 49.5618 68.649 50.4313 68.4174 51.2575C68.1859 52.0836 67.7603 52.8425 67.1761 53.4709C64.6395 56.5752 61.734 59.3587 58.524 61.76L59.0382 62.4558C62.3223 60.0322 65.29 57.2068 67.8719 54.0457C68.577 53.3049 69.0827 52.3974 69.3419 51.4081C69.6012 50.4188 69.6054 49.3799 69.3542 48.3885C68.888 47.352 68.0896 46.5005 67.0853 45.9683C66.0114 45.5595 64.8663 45.3703 63.7179 45.4119C62.5696 45.4534 61.4412 45.725 60.3996 46.2104C59.6531 46.4544 59.0194 46.9591 58.6147 47.6322C57.9976 48.683 57.1119 49.5507 56.0486 50.1461C54.9853 50.7416 53.7827 51.0433 52.5643 51.0205C52.2735 50.9497 51.9691 50.9572 51.6821 51.0422C51.3952 51.1272 51.1359 51.2867 50.9306 51.5045C47.422 54.2726 44.6136 57.8272 42.7323 61.881C42.4034 62.6261 42.1303 63.3946 41.9154 64.1802C41.7309 64.7127 41.6678 65.2797 41.7306 65.8398C41.7934 66.3998 41.9806 66.9388 42.2785 67.4172C42.4568 67.6571 42.6898 67.8508 42.9582 67.9824C43.2266 68.114 43.5225 68.1795 43.8213 68.1735L44.1239 68.2037Z" fill="white" stroke="white" stroke-width="1.5"/>
<path d="M29.5511 162.14L34.5291 152.067L38.6305 152.096L31.3878 165.522L31.3328 173.373L27.6122 173.347L27.6672 165.496L20.5987 151.969L24.7149 151.998L29.5511 162.14ZM58.9479 163.459C58.9332 165.549 58.559 167.382 57.8253 168.959C57.0916 170.526 56.048 171.73 54.6944 172.57C53.3507 173.401 51.8048 173.81 50.0568 173.797C48.3283 173.785 46.7884 173.355 45.4369 172.505C44.0952 171.646 43.0587 170.433 42.3275 168.865C41.6061 167.298 41.2476 165.493 41.2522 163.452L41.2606 162.251C41.2752 160.171 41.6542 158.338 42.3978 156.751C43.1511 155.165 44.1997 153.956 45.5434 153.126C46.897 152.285 48.4429 151.871 50.1811 151.884C51.9194 151.896 53.4545 152.327 54.7864 153.176C56.1282 154.015 57.1598 155.224 57.8812 156.801C58.6027 158.369 58.961 160.192 58.9562 162.273L58.9479 163.459ZM55.2497 162.32C55.2663 159.957 54.8298 158.142 53.9402 156.876C53.0603 155.61 51.8001 154.971 50.1596 154.96C48.558 154.949 47.2988 155.57 46.3818 156.823C45.4746 158.067 45.0032 159.836 44.9676 162.131L44.9589 163.361C44.9425 165.705 45.3839 167.519 46.2831 168.805C47.1921 170.091 48.4571 170.739 50.0782 170.751C51.7188 170.762 52.9829 170.146 53.8705 168.902C54.7679 167.658 55.2251 165.835 55.2419 163.433L55.2497 162.32ZM79.818 152.384L79.7181 166.637C79.7022 168.903 78.9621 170.694 77.4977 172.012C76.0432 173.32 74.1099 173.966 71.6979 173.949C69.2565 173.932 67.3227 173.269 65.8963 171.96C64.4699 170.642 63.7649 168.825 63.7811 166.511L63.8809 152.273L67.5722 152.299L67.4722 166.566C67.4622 167.992 67.8159 169.083 68.5333 169.84C69.2506 170.597 70.3124 170.98 71.7186 170.99C74.5701 171.01 76.0064 169.516 76.0275 166.509L76.1267 152.359L79.818 152.384Z" fill="white"/>
<path d="M349.7 174.418L349.551 153.09L356.86 153.039C359.272 153.022 361.111 153.492 362.378 154.45C363.644 155.408 364.284 156.844 364.298 158.758C364.305 159.735 364.047 160.616 363.525 161.401C363.003 162.185 362.236 162.796 361.224 163.233C362.378 163.538 363.271 164.122 363.902 164.987C364.543 165.842 364.867 166.875 364.876 168.086C364.89 170.088 364.256 171.63 362.975 172.713C361.703 173.796 359.871 174.346 357.478 174.363L349.7 174.418ZM353.339 164.768L353.385 171.433L357.501 171.404C358.664 171.396 359.57 171.101 360.22 170.521C360.87 169.94 361.192 169.137 361.185 168.111C361.169 165.895 360.028 164.77 357.762 164.737L353.339 164.768ZM353.32 162.043L356.952 162.018C358.105 162.01 359.001 161.745 359.642 161.223C360.293 160.691 360.615 159.946 360.608 158.989C360.6 157.935 360.292 157.175 359.684 156.711C359.085 156.246 358.15 156.018 356.881 156.027L353.278 156.052L353.32 162.043ZM373.811 171.29L383.493 171.222L383.514 174.181L370.125 174.275L369.976 152.947L373.682 152.921L373.811 171.29ZM403.868 163.93C403.883 166.02 403.534 167.859 402.823 169.446C402.111 171.023 401.085 172.241 399.743 173.1C398.411 173.949 396.871 174.38 395.123 174.392C393.394 174.404 391.849 173.995 390.485 173.165C389.132 172.325 388.078 171.126 387.325 169.569C386.582 168.012 386.198 166.212 386.174 164.172L386.166 162.97C386.151 160.89 386.504 159.052 387.226 157.455C387.957 155.858 388.988 154.635 390.32 153.786C391.662 152.927 393.202 152.491 394.94 152.479C396.678 152.467 398.219 152.876 399.563 153.706C400.916 154.527 401.965 155.721 402.708 157.288C403.452 158.845 403.836 160.664 403.86 162.744L403.868 163.93ZM400.154 162.843C400.138 160.48 399.676 158.672 398.769 157.418C397.871 156.165 396.602 155.544 394.962 155.555C393.36 155.566 392.11 156.205 391.21 157.471C390.321 158.727 389.874 160.503 389.871 162.798L389.879 164.028C389.896 166.372 390.362 168.18 391.28 169.453C392.207 170.726 393.481 171.357 395.102 171.346C396.742 171.334 397.998 170.7 398.868 169.444C399.748 168.188 400.179 166.359 400.162 163.956L400.154 162.843ZM425.356 166.944C425.157 169.221 424.329 171.004 422.874 172.293C421.418 173.573 419.474 174.222 417.042 174.239C415.343 174.251 413.841 173.861 412.537 173.069C411.242 172.268 410.238 171.127 409.525 169.648C408.811 168.168 408.433 166.447 408.39 164.485L408.376 162.492C408.362 160.481 408.706 158.706 409.408 157.168C410.11 155.63 411.122 154.441 412.444 153.601C413.776 152.762 415.316 152.336 417.064 152.324C419.418 152.307 421.317 152.934 422.761 154.203C424.206 155.472 425.053 157.273 425.304 159.605L421.613 159.631C421.426 158.099 420.969 156.999 420.242 156.33C419.524 155.651 418.472 155.317 417.086 155.327C415.474 155.338 414.238 155.938 413.377 157.125C412.526 158.303 412.099 160.03 412.095 162.305L412.109 164.195C412.125 166.5 412.547 168.254 413.376 169.46C414.214 170.665 415.43 171.262 417.021 171.25C418.476 171.24 419.568 170.905 420.296 170.246C421.023 169.587 421.48 168.495 421.664 166.97L425.356 166.944ZM436.288 164.597L433.889 167.177L433.935 173.827L430.229 173.853L430.08 152.526L433.786 152.5L433.856 162.504L435.889 159.956L442.077 152.442L446.559 152.41L438.701 161.914L447.163 173.735L442.768 173.765L436.288 164.597ZM466.411 166.656C466.212 168.933 465.385 170.716 463.929 172.006C462.473 173.285 460.53 173.934 458.098 173.951C456.399 173.963 454.897 173.573 453.593 172.781C452.298 171.98 451.294 170.839 450.58 169.36C449.867 167.881 449.488 166.159 449.445 164.197L449.431 162.205C449.417 160.193 449.761 158.418 450.463 156.88C451.166 155.342 452.178 154.153 453.5 153.314C454.832 152.474 456.372 152.048 458.12 152.036C460.474 152.02 462.373 152.646 463.817 153.915C465.261 155.184 466.109 156.985 466.36 159.317L462.669 159.343C462.482 157.811 462.025 156.711 461.298 156.042C460.58 155.364 459.528 155.029 458.141 155.039C456.53 155.05 455.294 155.65 454.433 156.837C453.582 158.015 453.154 159.742 453.151 162.017L453.164 163.907C453.18 166.212 453.603 167.967 454.432 169.172C455.27 170.377 456.485 170.974 458.077 170.963C459.532 170.952 460.623 170.618 461.351 169.958C462.079 169.299 462.535 168.207 462.72 166.682L466.411 166.656ZM488.218 173.447L484.527 173.473L484.46 163.995L474.925 164.062L474.991 173.54L471.285 173.565L471.136 152.238L474.841 152.212L474.904 161.089L484.44 161.022L484.377 152.145L488.069 152.119L488.218 173.447ZM506.28 168.354L498.018 168.412L496.324 173.39L492.472 173.417L500.379 152.033L503.704 152.01L511.925 173.281L508.058 173.308L506.28 168.354ZM499.037 165.417L505.219 165.373L502.066 156.548L499.037 165.417ZM519.767 173.226L516.076 173.252L515.926 151.924L519.618 151.898L519.767 173.226ZM542.741 173.065L539.035 173.091L529.423 158.026L529.529 173.157L525.823 173.183L525.673 151.856L529.379 151.83L539.022 166.953L538.915 151.763L542.592 151.737L542.741 173.065Z" fill="white"/>
<path d="M393.026 66.5653C393.036 66.0466 392.894 65.5364 392.617 65.0979C392.34 64.6593 391.94 64.3118 391.467 64.0983L374.281 54.1844C371.969 52.8454 367.861 53.0013 365.22 54.5696L349.51 63.6397C348.042 64.4835 347.299 65.5656 347.299 66.5928L347.299 84.0636C347.299 84.5684 347.448 85.0622 347.727 85.483C348.006 85.9039 348.403 86.2331 348.868 86.4297L366.045 96.3527C368.356 97.6825 372.465 97.5266 375.106 95.9675L390.816 86.8882C392.384 85.9711 393.127 84.8064 393.026 83.7334L393.026 66.5653Z" fill="#A8ABAD"/>
<path d="M393.026 66.5653C393.036 66.0466 392.894 65.5364 392.617 65.0979C392.34 64.6593 391.94 64.3118 391.467 64.0983L374.281 54.1844C371.969 52.8454 367.861 53.0013 365.22 54.5696L349.51 63.6397C348.042 64.4835 347.299 65.5656 347.299 66.5928L347.299 84.0636C347.299 84.5684 347.448 85.0622 347.727 85.483C348.006 85.9039 348.403 86.2331 348.868 86.4297L366.045 96.3527C368.356 97.6825 372.465 97.5266 375.106 95.9675L390.816 86.8882C392.384 85.9711 393.127 84.8064 393.026 83.7334L393.026 66.5653Z" fill="url(#paint3_linear)"/>
<path d="M393.026 66.5653C393.036 66.0466 392.894 65.5364 392.617 65.0979C392.34 64.6593 391.94 64.3118 391.467 64.0983L374.281 54.1844C371.969 52.8454 367.861 53.0013 365.22 54.5696L349.51 63.6397C348.042 64.4835 347.299 65.5656 347.299 66.5928L347.299 84.0636C347.299 84.5684 347.448 85.0622 347.727 85.483C348.006 85.9039 348.403 86.2331 348.868 86.4297L366.045 96.3527C368.356 97.6825 372.465 97.5266 375.106 95.9675L390.816 86.8882C392.384 85.9711 393.127 84.8064 393.026 83.7334L393.026 66.5653Z" stroke="white" stroke-width="2" stroke-miterlimit="10"/>
<path d="M379.807 75.7087L375.139 78.405C372.461 79.9457 368.38 80.1292 366.069 78.7902L348.901 68.8763C346.59 67.5373 346.865 65.2079 349.543 63.6305L365.253 54.5603C367.921 53.0196 372.002 52.8362 374.314 54.1751L391.473 64.089C393.784 65.428 393.499 67.7574 390.831 69.3349L388.29 70.8022L379.807 75.7087Z" fill="#A8ABAD"/>
<path d="M379.807 75.7087L375.139 78.405C372.461 79.9457 368.38 80.1292 366.069 78.7902L348.901 68.8763C346.59 67.5373 346.865 65.2079 349.543 63.6305L365.253 54.5603C367.921 53.0196 372.002 52.8362 374.314 54.1751L391.473 64.089C393.784 65.428 393.499 67.7574 390.831 69.3349L388.29 70.8022L379.807 75.7087Z" fill="url(#paint4_linear)"/>
<path d="M379.807 75.7087L375.139 78.405C372.461 79.9457 368.38 80.1292 366.069 78.7902L348.901 68.8763C346.59 67.5373 346.865 65.2079 349.543 63.6305L365.253 54.5603C367.921 53.0196 372.002 52.8362 374.314 54.1751L391.473 64.089C393.784 65.428 393.499 67.7574 390.831 69.3349L388.29 70.8022L379.807 75.7087Z" stroke="white" stroke-width="2" stroke-miterlimit="10"/>
<path d="M433.635 114.396C433.518 114.608 433.363 114.793 433.177 114.942C432.992 115.09 432.78 115.199 432.554 115.261C432.329 115.324 432.093 115.338 431.862 115.305C431.63 115.272 431.408 115.19 431.206 115.066L382.256 85.4907C382.047 85.3716 381.864 85.2101 381.717 85.0158C381.569 84.8215 381.461 84.5983 381.397 84.3593C381.333 84.1203 381.316 83.8704 381.347 83.6244C381.377 83.3784 381.454 83.1412 381.573 82.9268C381.693 82.7124 381.852 82.5252 382.042 82.3762C382.231 82.2273 382.448 82.1195 382.678 82.0593C382.908 81.9992 383.147 81.9879 383.382 82.026C383.616 82.0641 383.841 82.151 384.043 82.2814L432.993 111.857C433.196 111.979 433.373 112.141 433.515 112.335C433.657 112.529 433.761 112.751 433.821 112.987C433.88 113.223 433.895 113.469 433.863 113.711C433.831 113.953 433.753 114.186 433.635 114.396Z" fill="#A8ABAD"/>
<path d="M433.635 114.396C433.518 114.608 433.363 114.793 433.177 114.942C432.992 115.09 432.78 115.199 432.554 115.261C432.329 115.324 432.093 115.338 431.862 115.305C431.63 115.272 431.408 115.19 431.206 115.066L382.256 85.4907C382.047 85.3716 381.864 85.2101 381.717 85.0158C381.569 84.8215 381.461 84.5983 381.397 84.3593C381.333 84.1203 381.316 83.8704 381.347 83.6244C381.377 83.3784 381.454 83.1412 381.573 82.9268C381.693 82.7124 381.852 82.5252 382.042 82.3762C382.231 82.2273 382.448 82.1195 382.678 82.0593C382.908 81.9992 383.147 81.9879 383.382 82.026C383.616 82.0641 383.841 82.151 384.043 82.2814L432.993 111.857C433.196 111.979 433.373 112.141 433.515 112.335C433.657 112.529 433.761 112.751 433.821 112.987C433.88 113.223 433.895 113.469 433.863 113.711C433.831 113.953 433.753 114.186 433.635 114.396Z" fill="url(#paint5_linear)"/>
<path d="M433.635 114.396C433.518 114.608 433.363 114.793 433.177 114.942C432.992 115.09 432.78 115.199 432.554 115.261C432.329 115.324 432.093 115.338 431.862 115.305C431.63 115.272 431.408 115.19 431.206 115.066L382.256 85.4907C382.047 85.3716 381.864 85.2101 381.717 85.0158C381.569 84.8215 381.461 84.5983 381.397 84.3593C381.333 84.1203 381.316 83.8704 381.347 83.6244C381.377 83.3784 381.454 83.1412 381.573 82.9268C381.693 82.7124 381.852 82.5252 382.042 82.3762C382.231 82.2273 382.448 82.1195 382.678 82.0593C382.908 81.9992 383.147 81.9879 383.382 82.026C383.616 82.0641 383.841 82.151 384.043 82.2814L432.993 111.857C433.196 111.979 433.373 112.141 433.515 112.335C433.657 112.529 433.761 112.751 433.821 112.987C433.88 113.223 433.895 113.469 433.863 113.711C433.831 113.953 433.753 114.186 433.635 114.396Z" stroke="white" stroke-width="2" stroke-miterlimit="10"/>
<path d="M497.221 66.5653C497.231 66.0466 497.089 65.5364 496.812 65.0979C496.535 64.6593 496.135 64.3118 495.662 64.0983L478.476 54.1844C476.165 52.8454 472.056 53.0013 469.415 54.5696L453.705 63.6397C452.238 64.4835 451.495 65.5656 451.495 66.5928L451.495 84.0636C451.495 84.5684 451.643 85.0622 451.922 85.483C452.201 85.9039 452.598 86.2331 453.063 86.4297L470.24 96.3527C472.551 97.6825 476.66 97.5266 479.301 95.9675L495.011 86.8882C496.579 85.9711 497.322 84.8064 497.221 83.7334L497.221 66.5653Z" fill="#A8ABAD"/>
<path d="M497.221 66.5653C497.231 66.0466 497.089 65.5364 496.812 65.0979C496.535 64.6593 496.135 64.3118 495.662 64.0983L478.476 54.1844C476.165 52.8454 472.056 53.0013 469.415 54.5696L453.705 63.6397C452.238 64.4835 451.495 65.5656 451.495 66.5928L451.495 84.0636C451.495 84.5684 451.643 85.0622 451.922 85.483C452.201 85.9039 452.598 86.2331 453.063 86.4297L470.24 96.3527C472.551 97.6825 476.66 97.5266 479.301 95.9675L495.011 86.8882C496.579 85.9711 497.322 84.8064 497.221 83.7334L497.221 66.5653Z" fill="url(#paint6_linear)"/>
<path d="M497.221 66.5653C497.231 66.0466 497.089 65.5364 496.812 65.0979C496.535 64.6593 496.135 64.3118 495.662 64.0983L478.476 54.1844C476.165 52.8454 472.056 53.0013 469.415 54.5696L453.705 63.6397C452.238 64.4835 451.495 65.5656 451.495 66.5928L451.495 84.0636C451.495 84.5684 451.643 85.0622 451.922 85.483C452.201 85.9039 452.598 86.2331 453.063 86.4297L470.24 96.3527C472.551 97.6825 476.66 97.5266 479.301 95.9675L495.011 86.8882C496.579 85.9711 497.322 84.8064 497.221 83.7334L497.221 66.5653Z" stroke="white" stroke-width="2" stroke-miterlimit="10"/>
<path d="M411.291 114.396C411.408 114.608 411.563 114.793 411.748 114.942C411.934 115.09 412.146 115.199 412.371 115.261C412.597 115.324 412.833 115.338 413.064 115.305C413.295 115.272 413.518 115.19 413.719 115.066L462.67 85.4907C462.878 85.3716 463.061 85.2101 463.209 85.0158C463.356 84.8215 463.465 84.5983 463.529 84.3593C463.592 84.1203 463.61 83.8704 463.579 83.6244C463.549 83.3784 463.472 83.1412 463.353 82.9268C463.233 82.7124 463.074 82.5252 462.884 82.3762C462.695 82.2273 462.478 82.1195 462.248 82.0593C462.018 81.9992 461.779 81.9879 461.544 82.026C461.31 82.0641 461.085 82.151 460.883 82.2814L411.932 111.857C411.73 111.979 411.553 112.141 411.41 112.335C411.268 112.529 411.165 112.751 411.105 112.987C411.045 113.223 411.031 113.469 411.063 113.711C411.095 113.953 411.173 114.186 411.291 114.396Z" fill="#A8ABAD"/>
<path d="M411.291 114.396C411.408 114.608 411.563 114.793 411.748 114.942C411.934 115.09 412.146 115.199 412.371 115.261C412.597 115.324 412.833 115.338 413.064 115.305C413.295 115.272 413.518 115.19 413.719 115.066L462.67 85.4907C462.878 85.3716 463.061 85.2101 463.209 85.0158C463.356 84.8215 463.465 84.5983 463.529 84.3593C463.592 84.1203 463.61 83.8704 463.579 83.6244C463.549 83.3784 463.472 83.1412 463.353 82.9268C463.233 82.7124 463.074 82.5252 462.884 82.3762C462.695 82.2273 462.478 82.1195 462.248 82.0593C462.018 81.9992 461.779 81.9879 461.544 82.026C461.31 82.0641 461.085 82.151 460.883 82.2814L411.932 111.857C411.73 111.979 411.553 112.141 411.41 112.335C411.268 112.529 411.165 112.751 411.105 112.987C411.045 113.223 411.031 113.469 411.063 113.711C411.095 113.953 411.173 114.186 411.291 114.396Z" fill="url(#paint7_linear)"/>
<path d="M411.291 114.396C411.408 114.608 411.563 114.793 411.748 114.942C411.934 115.09 412.146 115.199 412.371 115.261C412.597 115.324 412.833 115.338 413.064 115.305C413.295 115.272 413.518 115.19 413.719 115.066L462.67 85.4907C462.878 85.3716 463.061 85.2101 463.209 85.0158C463.356 84.8215 463.465 84.5983 463.529 84.3593C463.592 84.1203 463.61 83.8704 463.579 83.6244C463.549 83.3784 463.472 83.1412 463.353 82.9268C463.233 82.7124 463.074 82.5252 462.884 82.3762C462.695 82.2273 462.478 82.1195 462.248 82.0593C462.018 81.9992 461.779 81.9879 461.544 82.026C461.31 82.0641 461.085 82.151 460.883 82.2814L411.932 111.857C411.73 111.979 411.553 112.141 411.41 112.335C411.268 112.529 411.165 112.751 411.105 112.987C411.045 113.223 411.031 113.469 411.063 113.711C411.095 113.953 411.173 114.186 411.291 114.396Z" stroke="white" stroke-width="2" stroke-miterlimit="10"/>
<path d="M484.002 75.7087L479.334 78.405C476.656 79.9457 472.575 80.1292 470.264 78.7902L453.096 68.8763C450.785 67.5373 451.06 65.2079 453.738 63.6305L469.448 54.5603C472.117 53.0196 476.198 52.8362 478.509 54.1751L495.668 64.089C497.979 65.428 497.695 67.7574 495.026 69.3349L492.486 70.8022L484.002 75.7087Z" fill="#A8ABAD"/>
<path d="M484.002 75.7087L479.334 78.405C476.656 79.9457 472.575 80.1292 470.264 78.7902L453.096 68.8763C450.785 67.5373 451.06 65.2079 453.738 63.6305L469.448 54.5603C472.117 53.0196 476.198 52.8362 478.509 54.1751L495.668 64.089C497.979 65.428 497.695 67.7574 495.026 69.3349L492.486 70.8022L484.002 75.7087Z" fill="url(#paint8_linear)"/>
<path d="M484.002 75.7087L479.334 78.405C476.656 79.9457 472.575 80.1292 470.264 78.7902L453.096 68.8763C450.785 67.5373 451.06 65.2079 453.738 63.6305L469.448 54.5603C472.117 53.0196 476.198 52.8362 478.509 54.1751L495.668 64.089C497.979 65.428 497.695 67.7574 495.026 69.3349L492.486 70.8022L484.002 75.7087Z" stroke="white" stroke-width="2" stroke-miterlimit="10"/>
<path d="M537.826 114.396C537.71 114.608 537.554 114.793 537.369 114.942C537.183 115.09 536.972 115.199 536.746 115.261C536.52 115.324 536.285 115.338 536.053 115.305C535.822 115.272 535.599 115.19 535.398 115.066L486.447 85.4907C486.239 85.3716 486.056 85.2101 485.908 85.0158C485.761 84.8215 485.652 84.5983 485.588 84.3593C485.525 84.1203 485.508 83.8704 485.538 83.6244C485.568 83.3784 485.645 83.1412 485.765 82.9268C485.884 82.7124 486.043 82.5252 486.233 82.3762C486.423 82.2273 486.639 82.1195 486.869 82.0593C487.099 81.9992 487.339 81.9879 487.573 82.026C487.807 82.0641 488.032 82.151 488.234 82.2814L537.185 111.857C537.387 111.979 537.565 112.141 537.707 112.335C537.849 112.529 537.953 112.751 538.012 112.987C538.072 113.223 538.086 113.469 538.054 113.711C538.022 113.953 537.945 114.186 537.826 114.396Z" fill="#A8ABAD"/>
<path d="M537.826 114.396C537.71 114.608 537.554 114.793 537.369 114.942C537.183 115.09 536.972 115.199 536.746 115.261C536.52 115.324 536.285 115.338 536.053 115.305C535.822 115.272 535.599 115.19 535.398 115.066L486.447 85.4907C486.239 85.3716 486.056 85.2101 485.908 85.0158C485.761 84.8215 485.652 84.5983 485.588 84.3593C485.525 84.1203 485.508 83.8704 485.538 83.6244C485.568 83.3784 485.645 83.1412 485.765 82.9268C485.884 82.7124 486.043 82.5252 486.233 82.3762C486.423 82.2273 486.639 82.1195 486.869 82.0593C487.099 81.9992 487.339 81.9879 487.573 82.026C487.807 82.0641 488.032 82.151 488.234 82.2814L537.185 111.857C537.387 111.979 537.565 112.141 537.707 112.335C537.849 112.529 537.953 112.751 538.012 112.987C538.072 113.223 538.086 113.469 538.054 113.711C538.022 113.953 537.945 114.186 537.826 114.396Z" fill="url(#paint9_linear)"/>
<path d="M537.826 114.396C537.71 114.608 537.554 114.793 537.369 114.942C537.183 115.09 536.972 115.199 536.746 115.261C536.52 115.324 536.285 115.338 536.053 115.305C535.822 115.272 535.599 115.19 535.398 115.066L486.447 85.4907C486.239 85.3716 486.056 85.2101 485.908 85.0158C485.761 84.8215 485.652 84.5983 485.588 84.3593C485.525 84.1203 485.508 83.8704 485.538 83.6244C485.568 83.3784 485.645 83.1412 485.765 82.9268C485.884 82.7124 486.043 82.5252 486.233 82.3762C486.423 82.2273 486.639 82.1195 486.869 82.0593C487.099 81.9992 487.339 81.9879 487.573 82.026C487.807 82.0641 488.032 82.151 488.234 82.2814L537.185 111.857C537.387 111.979 537.565 112.141 537.707 112.335C537.849 112.529 537.953 112.751 538.012 112.987C538.072 113.223 538.086 113.469 538.054 113.711C538.022 113.953 537.945 114.186 537.826 114.396Z" stroke="white" stroke-width="2" stroke-miterlimit="10"/>
<path d="M546.053 95.2918C546.064 94.7732 545.921 94.263 545.644 93.8244C545.367 93.3859 544.967 93.0383 544.494 92.8248L527.308 82.911C524.997 81.572 520.888 81.7279 518.247 83.2961L502.537 92.3663C501.07 93.21 500.327 94.2922 500.327 95.3194L500.327 112.79C500.327 113.295 500.475 113.789 500.754 114.21C501.033 114.63 501.43 114.96 501.895 115.156L519.072 125.079C521.383 126.409 525.492 126.253 528.133 124.694L543.843 115.615C545.411 114.698 546.154 113.533 546.053 112.46L546.053 95.2918Z" fill="#A8ABAD"/>
<path d="M546.053 95.2918C546.064 94.7732 545.921 94.263 545.644 93.8244C545.367 93.3859 544.967 93.0383 544.494 92.8248L527.308 82.911C524.997 81.572 520.888 81.7279 518.247 83.2961L502.537 92.3663C501.07 93.21 500.327 94.2922 500.327 95.3194L500.327 112.79C500.327 113.295 500.475 113.789 500.754 114.21C501.033 114.63 501.43 114.96 501.895 115.156L519.072 125.079C521.383 126.409 525.492 126.253 528.133 124.694L543.843 115.615C545.411 114.698 546.154 113.533 546.053 112.46L546.053 95.2918Z" fill="url(#paint10_linear)"/>
<path d="M546.053 95.2918C546.064 94.7732 545.921 94.263 545.644 93.8244C545.367 93.3859 544.967 93.0383 544.494 92.8248L527.308 82.911C524.997 81.572 520.888 81.7279 518.247 83.2961L502.537 92.3663C501.07 93.21 500.327 94.2922 500.327 95.3194L500.327 112.79C500.327 113.295 500.475 113.789 500.754 114.21C501.033 114.63 501.43 114.96 501.895 115.156L519.072 125.079C521.383 126.409 525.492 126.253 528.133 124.694L543.843 115.615C545.411 114.698 546.154 113.533 546.053 112.46L546.053 95.2918Z" stroke="white" stroke-width="2" stroke-miterlimit="10"/>
<path d="M532.834 104.435L528.166 107.132C525.488 108.672 521.407 108.856 519.096 107.517L501.928 97.6029C499.617 96.2639 499.892 93.9345 502.57 92.357L518.28 83.2869C520.949 81.7462 525.03 81.5627 527.341 82.9017L544.5 92.8156C546.811 94.1546 546.527 96.484 543.858 98.0614L541.318 99.5288L532.834 104.435Z" fill="#A8ABAD"/>
<path d="M532.834 104.435L528.166 107.132C525.488 108.672 521.407 108.856 519.096 107.517L501.928 97.6029C499.617 96.2639 499.892 93.9345 502.57 92.357L518.28 83.2869C520.949 81.7462 525.03 81.5627 527.341 82.9017L544.5 92.8156C546.811 94.1546 546.527 96.484 543.858 98.0614L541.318 99.5288L532.834 104.435Z" fill="url(#paint11_linear)"/>
<path d="M532.834 104.435L528.166 107.132C525.488 108.672 521.407 108.856 519.096 107.517L501.928 97.6029C499.617 96.2639 499.892 93.9345 502.57 92.357L518.28 83.2869C520.949 81.7462 525.03 81.5627 527.341 82.9017L544.5 92.8156C546.811 94.1546 546.527 96.484 543.858 98.0614L541.318 99.5288L532.834 104.435Z" stroke="white" stroke-width="2" stroke-miterlimit="10"/>
<path d="M441.862 95.2918C441.872 94.7732 441.73 94.263 441.453 93.8244C441.175 93.3859 440.776 93.0383 440.303 92.8248L423.116 82.911C420.805 81.572 416.697 81.7279 414.055 83.2961L398.346 92.3663C396.878 93.21 396.135 94.2922 396.135 95.3194L396.135 112.79C396.135 113.295 396.284 113.789 396.563 114.21C396.842 114.63 397.238 114.96 397.704 115.156L414.881 125.079C417.192 126.409 421.301 126.253 423.942 124.694L439.652 115.615C441.22 114.698 441.963 113.533 441.862 112.46L441.862 95.2918Z" fill="#A8ABAD"/>
<path d="M441.862 95.2918C441.872 94.7732 441.73 94.263 441.453 93.8244C441.175 93.3859 440.776 93.0383 440.303 92.8248L423.116 82.911C420.805 81.572 416.697 81.7279 414.055 83.2961L398.346 92.3663C396.878 93.21 396.135 94.2922 396.135 95.3194L396.135 112.79C396.135 113.295 396.284 113.789 396.563 114.21C396.842 114.63 397.238 114.96 397.704 115.156L414.881 125.079C417.192 126.409 421.301 126.253 423.942 124.694L439.652 115.615C441.22 114.698 441.963 113.533 441.862 112.46L441.862 95.2918Z" fill="url(#paint12_linear)"/>
<path d="M441.862 95.2918C441.872 94.7732 441.73 94.263 441.453 93.8244C441.175 93.3859 440.776 93.0383 440.303 92.8248L423.116 82.911C420.805 81.572 416.697 81.7279 414.055 83.2961L398.346 92.3663C396.878 93.21 396.135 94.2922 396.135 95.3194L396.135 112.79C396.135 113.295 396.284 113.789 396.563 114.21C396.842 114.63 397.238 114.96 397.704 115.156L414.881 125.079C417.192 126.409 421.301 126.253 423.942 124.694L439.652 115.615C441.22 114.698 441.963 113.533 441.862 112.46L441.862 95.2918Z" stroke="white" stroke-width="2" stroke-miterlimit="10"/>
<path d="M428.643 104.435L423.975 107.132C421.297 108.672 417.216 108.856 414.905 107.517L397.737 97.6029C395.425 96.2639 395.701 93.9345 398.379 92.357L414.089 83.2869C416.757 81.7462 420.838 81.5627 423.15 82.9017L440.309 92.8156C442.62 94.1546 442.335 96.484 439.667 98.0614L437.126 99.5288L428.643 104.435Z" fill="#A8ABAD"/>
<path d="M428.643 104.435L423.975 107.132C421.297 108.672 417.216 108.856 414.905 107.517L397.737 97.6029C395.425 96.2639 395.701 93.9345 398.379 92.357L414.089 83.2869C416.757 81.7462 420.838 81.5627 423.15 82.9017L440.309 92.8156C442.62 94.1546 442.335 96.484 439.667 98.0614L437.126 99.5288L428.643 104.435Z" fill="url(#paint13_linear)"/>
<path d="M428.643 104.435L423.975 107.132C421.297 108.672 417.216 108.856 414.905 107.517L397.737 97.6029C395.425 96.2639 395.701 93.9345 398.379 92.357L414.089 83.2869C416.757 81.7462 420.838 81.5627 423.15 82.9017L440.309 92.8156C442.62 94.1546 442.335 96.484 439.667 98.0614L437.126 99.5288L428.643 104.435Z" stroke="white" stroke-width="2" stroke-miterlimit="10"/>
<defs>
<linearGradient id="paint0_linear" x1="140.508" y1="88.0316" x2="19.0179" y2="93.5871" gradientUnits="userSpaceOnUse">
<stop stop-color="#4392F1"/>
<stop offset="1" stop-color="#56CBF9"/>
</linearGradient>
<linearGradient id="paint1_linear" x1="140.412" y1="81.0406" x2="19.1839" y2="88.1846" gradientUnits="userSpaceOnUse">
<stop stop-color="#4392F1"/>
<stop offset="1" stop-color="#56CBF9"/>
</linearGradient>
<linearGradient id="paint2_linear" x1="97.8444" y1="36.5564" x2="36.5565" y2="37.7656" gradientUnits="userSpaceOnUse">
<stop stop-color="#4392F1"/>
<stop offset="1" stop-color="#56CBF9"/>
</linearGradient>
<linearGradient id="paint3_linear" x1="332.448" y1="70.9689" x2="385.805" y2="72.8588" gradientUnits="userSpaceOnUse">
<stop stop-color="#4392F1"/>
<stop offset="1" stop-color="#56CBF9"/>
</linearGradient>
<linearGradient id="paint4_linear" x1="332.495" y1="63.9025" x2="385.693" y2="67.0374" gradientUnits="userSpaceOnUse">
<stop stop-color="#4392F1"/>
<stop offset="1" stop-color="#56CBF9"/>
</linearGradient>
<linearGradient id="paint5_linear" x1="450.943" y1="95.4081" x2="389.738" y2="98.6954" gradientUnits="userSpaceOnUse">
<stop stop-color="#4392F1"/>
<stop offset="1" stop-color="#56CBF9"/>
</linearGradient>
<linearGradient id="paint6_linear" x1="436.643" y1="70.9689" x2="490.001" y2="72.8588" gradientUnits="userSpaceOnUse">
<stop stop-color="#4392F1"/>
<stop offset="1" stop-color="#56CBF9"/>
</linearGradient>
<linearGradient id="paint7_linear" x1="393.983" y1="95.4081" x2="455.188" y2="98.6954" gradientUnits="userSpaceOnUse">
<stop stop-color="#4392F1"/>
<stop offset="1" stop-color="#56CBF9"/>
</linearGradient>
<linearGradient id="paint8_linear" x1="436.69" y1="63.9025" x2="489.889" y2="67.0374" gradientUnits="userSpaceOnUse">
<stop stop-color="#4392F1"/>
<stop offset="1" stop-color="#56CBF9"/>
</linearGradient>
<linearGradient id="paint9_linear" x1="555.134" y1="95.4081" x2="493.93" y2="98.6954" gradientUnits="userSpaceOnUse">
<stop stop-color="#4392F1"/>
<stop offset="1" stop-color="#56CBF9"/>
</linearGradient>
<linearGradient id="paint10_linear" x1="485.475" y1="99.6955" x2="538.833" y2="101.585" gradientUnits="userSpaceOnUse">
<stop stop-color="#4392F1"/>
<stop offset="1" stop-color="#56CBF9"/>
</linearGradient>
<linearGradient id="paint11_linear" x1="485.522" y1="92.629" x2="538.721" y2="95.764" gradientUnits="userSpaceOnUse">
<stop stop-color="#4392F1"/>
<stop offset="1" stop-color="#56CBF9"/>
</linearGradient>
<linearGradient id="paint12_linear" x1="381.284" y1="99.6955" x2="434.641" y2="101.585" gradientUnits="userSpaceOnUse">
<stop stop-color="#4392F1"/>
<stop offset="1" stop-color="#56CBF9"/>
</linearGradient>
<linearGradient id="paint13_linear" x1="381.331" y1="92.629" x2="434.529" y2="95.764" gradientUnits="userSpaceOnUse">
<stop stop-color="#4392F1"/>
<stop offset="1" stop-color="#56CBF9"/>
</linearGradient>
</defs>
</svg>
