<svg width="29" height="17" viewBox="0 0 29 17" fill="none" xmlns="http://www.w3.org/2000/svg">
<path d="M1.51953 7.18865C0.931204 7.18865 0.454271 7.66558 0.454271 8.25391C0.454271 8.84223 0.931204 9.31917 1.51953 9.31917L1.51953 7.18865ZM27.909 9.00716C28.325 8.59115 28.325 7.91666 27.909 7.50065L21.1297 0.721379C20.7137 0.305369 20.0392 0.305369 19.6232 0.721379C19.2072 1.13739 19.2072 1.81187 19.6232 2.22788L25.6492 8.25391L19.6232 14.2799C19.2072 14.6959 19.2072 15.3704 19.6232 15.7864C20.0392 16.2024 20.7137 16.2024 21.1297 15.7864L27.909 9.00716ZM1.51953 9.31917L27.1557 9.31917L27.1557 7.18865L1.51953 7.18865L1.51953 9.31917Z" fill="#5E636D"/>
</svg>
