<svg width="300" height="111" viewBox="0 0 300 111" fill="none" xmlns="http://www.w3.org/2000/svg">
<path d="M209.772 74.1706V74.2005L209.774 74.2303C210.311 83.2173 204.826 92.4023 192.702 99.2263L192.702 99.2263L192.691 99.2329C181.043 105.994 165.669 109.369 150.221 109.334C134.773 109.299 119.36 105.854 107.637 99.09L107.637 99.0896C95.7643 92.2499 90.1328 83.6007 90.1328 75.0207V50.5186H108.414H108.665L108.886 50.4002C120.614 44.1214 135.75 41.0274 150.864 41.1854C165.978 41.3435 180.967 44.7529 192.408 51.3758L192.408 51.3759C195.039 52.8982 197.263 54.5633 199.373 56.2501L200.998 57.5488V55.4691V50.5186H209.772V74.1706Z" fill="url(#paint0_linear)"/>
<path d="M209.772 74.1706V74.2005L209.774 74.2303C210.311 83.2173 204.826 92.4023 192.702 99.2263L192.702 99.2263L192.691 99.2329C181.043 105.994 165.669 109.369 150.221 109.334C134.773 109.299 119.36 105.854 107.637 99.09L107.637 99.0896C95.7643 92.2499 90.1328 83.6007 90.1328 75.0207V50.5186H108.414H108.665L108.886 50.4002C120.614 44.1214 135.75 41.0274 150.864 41.1854C165.978 41.3435 180.967 44.7529 192.408 51.3758L192.408 51.3759C195.039 52.8982 197.263 54.5633 199.373 56.2501L200.998 57.5488V55.4691V50.5186H209.772V74.1706Z" fill="url(#paint1_linear)"/>
<path d="M209.772 74.1706V74.2005L209.774 74.2303C210.311 83.2173 204.826 92.4023 192.702 99.2263L192.702 99.2263L192.691 99.2329C181.043 105.994 165.669 109.369 150.221 109.334C134.773 109.299 119.36 105.854 107.637 99.09L107.637 99.0896C95.7643 92.2499 90.1328 83.6007 90.1328 75.0207V50.5186H108.414H108.665L108.886 50.4002C120.614 44.1214 135.75 41.0274 150.864 41.1854C165.978 41.3435 180.967 44.7529 192.408 51.3758L192.408 51.3759C195.039 52.8982 197.263 54.5633 199.373 56.2501L200.998 57.5488V55.4691V50.5186H209.772V74.1706Z" stroke="white" stroke-width="2" stroke-miterlimit="10"/>
<path fill-rule="evenodd" clip-rule="evenodd" d="M193.05 74.7366C169.374 88.3377 130.813 88.3377 106.995 74.5949C83.1776 60.8521 83.0358 38.6086 106.712 25.0074C130.387 11.4063 168.949 11.4063 192.767 25.1491C216.584 38.8919 216.726 61.1354 193.05 74.7366Z" fill="white"/>
<path fill-rule="evenodd" clip-rule="evenodd" d="M190.462 73.2477C168.205 86.0338 131.954 86.0338 109.564 73.1145C87.1736 60.1953 87.0403 39.2848 109.297 26.4987C131.554 13.7127 167.805 13.7127 190.195 26.6319C212.585 39.5511 212.719 60.4617 190.462 73.2477Z" fill="white"/>
<path fill-rule="evenodd" clip-rule="evenodd" d="M190.462 73.2477C168.205 86.0338 131.954 86.0338 109.564 73.1145C87.1736 60.1953 87.0403 39.2848 109.297 26.4987C131.554 13.7127 167.805 13.7127 190.195 26.6319C212.585 39.5511 212.719 60.4617 190.462 73.2477Z" fill="url(#paint2_linear)"/>
<mask id="mask0" mask-type="alpha" maskUnits="userSpaceOnUse" x="89" y="49" width="122" height="62">
<path d="M209.682 74.1716V74.2014L209.684 74.2312C210.221 83.2183 204.736 92.4033 192.612 99.2273L192.612 99.2272L192.601 99.2339C180.953 105.995 165.579 109.37 150.131 109.335C134.683 109.3 119.27 105.855 107.548 99.0909L107.547 99.0906C95.6881 92.2587 90.0559 83.6214 90.043 75.0511L91.3266 53.5692L97.4458 66.8905L97.544 67.1043L97.7272 67.2518C116.642 82.4891 142.149 87.5354 164.01 84.3582C185.345 81.2577 203.56 70.246 208.528 52.8052C208.531 52.8058 208.535 52.8064 208.539 52.8069C208.574 52.8126 208.623 52.8188 208.683 52.82C208.739 52.8211 208.828 52.8184 208.934 52.7939C209.039 52.7696 209.195 52.7155 209.348 52.5893C209.426 52.525 209.498 52.4459 209.557 52.352C209.617 52.258 209.657 52.1596 209.682 52.0629C209.682 52.0618 209.682 52.0606 209.682 52.0595V74.1716ZM209.682 51.5692C209.667 51.5086 209.648 51.4573 209.631 51.4169L209.682 51.3829V51.5692Z" fill="url(#paint3_linear)"/>
<path d="M209.682 74.1716V74.2014L209.684 74.2312C210.221 83.2183 204.736 92.4033 192.612 99.2273L192.612 99.2272L192.601 99.2339C180.953 105.995 165.579 109.37 150.131 109.335C134.683 109.3 119.27 105.855 107.548 99.0909L107.547 99.0906C95.6881 92.2587 90.0559 83.6214 90.043 75.0511L91.3266 53.5692L97.4458 66.8905L97.544 67.1043L97.7272 67.2518C116.642 82.4891 142.149 87.5354 164.01 84.3582C185.345 81.2577 203.56 70.246 208.528 52.8052C208.531 52.8058 208.535 52.8064 208.539 52.8069C208.574 52.8126 208.623 52.8188 208.683 52.82C208.739 52.8211 208.828 52.8184 208.934 52.7939C209.039 52.7696 209.195 52.7155 209.348 52.5893C209.426 52.525 209.498 52.4459 209.557 52.352C209.617 52.258 209.657 52.1596 209.682 52.0629C209.682 52.0618 209.682 52.0606 209.682 52.0595V74.1716ZM209.682 51.5692C209.667 51.5086 209.648 51.4573 209.631 51.4169L209.682 51.3829V51.5692Z" fill="url(#paint4_linear)"/>
<path d="M209.682 74.1716V74.2014L209.684 74.2312C210.221 83.2183 204.736 92.4033 192.612 99.2273L192.612 99.2272L192.601 99.2339C180.953 105.995 165.579 109.37 150.131 109.335C134.683 109.3 119.27 105.855 107.548 99.0909L107.547 99.0906C95.6881 92.2587 90.0559 83.6214 90.043 75.0511L91.3266 53.5692L97.4458 66.8905L97.544 67.1043L97.7272 67.2518C116.642 82.4891 142.149 87.5354 164.01 84.3582C185.345 81.2577 203.56 70.246 208.528 52.8052C208.531 52.8058 208.535 52.8064 208.539 52.8069C208.574 52.8126 208.623 52.8188 208.683 52.82C208.739 52.8211 208.828 52.8184 208.934 52.7939C209.039 52.7696 209.195 52.7155 209.348 52.5893C209.426 52.525 209.498 52.4459 209.557 52.352C209.617 52.258 209.657 52.1596 209.682 52.0629C209.682 52.0618 209.682 52.0606 209.682 52.0595V74.1716ZM209.682 51.5692C209.667 51.5086 209.648 51.4573 209.631 51.4169L209.682 51.3829V51.5692Z" stroke="white" stroke-width="2" stroke-miterlimit="10"/>
</mask>
<g mask="url(#mask0)">
<rect x="93.9844" y="15.1719" width="1.87931" height="95.1605" rx="0.939654" fill="white"/>
<rect x="98.25" y="18.5391" width="1.87931" height="95.1605" rx="0.939654" fill="white"/>
<rect x="102.965" y="26.0078" width="1.87931" height="95.1605" rx="0.939654" fill="white"/>
<rect x="107.684" y="28.8672" width="1.87931" height="95.1605" rx="0.939654" fill="white"/>
<rect x="111.949" y="32.3477" width="1.87931" height="95.1605" rx="0.939654" fill="white"/>
<rect x="116.215" y="37.1797" width="1.87931" height="95.1605" rx="0.939654" fill="white"/>
<rect x="120.484" y="38.1797" width="1.87931" height="95.1605" rx="0.939654" fill="white"/>
<rect x="124.75" y="38.1797" width="1.87931" height="95.1605" rx="0.939654" fill="white"/>
<rect x="129.016" y="39.1016" width="1.87931" height="95.1605" rx="0.939654" fill="white"/>
<rect x="133.281" y="40.1797" width="1.87931" height="95.1605" rx="0.939654" fill="white"/>
<rect x="137.547" y="40.1797" width="1.87931" height="95.1605" rx="0.939654" fill="white"/>
<rect x="141.816" y="31.6836" width="1.87931" height="95.1605" rx="0.939654" fill="white"/>
<rect x="146.082" y="35.1641" width="1.87931" height="95.1605" rx="0.939654" fill="white"/>
<rect x="150.348" y="39.9961" width="1.87931" height="95.1605" rx="0.939654" fill="white"/>
<rect x="154.617" y="40.9961" width="1.87931" height="95.1605" rx="0.939654" fill="white"/>
<rect x="158.883" y="40.9961" width="1.87931" height="95.1605" rx="0.939654" fill="white"/>
<rect x="163.148" y="41.918" width="1.87931" height="95.1605" rx="0.939654" fill="white"/>
<rect x="167.414" y="42.9961" width="1.87931" height="95.1605" rx="0.939654" fill="white"/>
<rect x="171.68" y="42.9961" width="1.87931" height="95.1605" rx="0.939654" fill="white"/>
<rect x="175.328" y="26.6914" width="1.87931" height="95.1605" rx="0.939654" fill="white"/>
<rect x="179.594" y="30.1719" width="1.87931" height="95.1605" rx="0.939654" fill="white"/>
<rect x="183.863" y="35.0039" width="1.87931" height="95.1605" rx="0.939654" fill="white"/>
<rect x="188.129" y="36.0039" width="1.87931" height="95.1605" rx="0.939654" fill="white"/>
<rect x="192.395" y="36.0039" width="1.87931" height="95.1605" rx="0.939654" fill="white"/>
<rect x="196.66" y="36.9258" width="1.87931" height="95.1605" rx="0.939654" fill="white"/>
<rect x="200.93" y="38.0039" width="1.87931" height="95.1605" rx="0.939654" fill="white"/>
<rect x="205.195" y="38.0039" width="1.87931" height="95.1605" rx="0.939654" fill="white"/>
</g>
<path d="M274.343 4.04266C254.315 22.0393 240.803 24.1103 219.119 35.3183C208.041 42.3762 209.405 54.8292 214.72 61.9456C221.412 69.2796 225.605 72.9101 236.869 74.8467C245.299 76.0916 249.027 74.8468 248.053 66.3225C247.087 61.191 243.877 60.4197 236.869 52.8815C242.518 57.1289 270.652 55.8069 276.634 55.3662C280.181 55.1049 289.135 51.5071 289.135 46.3176C289.135 41.1281 283.94 36.8756 277.698 36.4354C272.724 36.0845 260.232 34.6233 251.662 35.3183C265.801 33.9358 273.695 33.2459 289.135 26.4443C297.184 23.6055 302.428 12.0258 297.186 4.77109C291.945 -2.48187 279.582 -0.139571 274.343 4.04266Z" fill="url(#paint5_linear)"/>
<path d="M274.343 4.04266C254.315 22.0393 240.803 24.1103 219.119 35.3183C208.041 42.3762 209.405 54.8292 214.72 61.9456C221.412 69.2796 225.605 72.9101 236.869 74.8467C245.299 76.0916 249.027 74.8468 248.053 66.3225C247.087 61.191 243.877 60.4197 236.869 52.8815C242.518 57.1289 270.652 55.8069 276.634 55.3662C280.181 55.1049 289.135 51.5071 289.135 46.3176C289.135 41.1281 283.94 36.8756 277.698 36.4354C272.724 36.0845 260.232 34.6233 251.662 35.3183C265.801 33.9358 273.695 33.2459 289.135 26.4443C297.184 23.6055 302.428 12.0258 297.186 4.77109C291.945 -2.48187 279.582 -0.139571 274.343 4.04266Z" fill="#A7A7A7"/>
<path d="M274.343 4.04266C254.315 22.0393 240.803 24.1103 219.119 35.3183C208.041 42.3762 209.405 54.8292 214.72 61.9456C221.412 69.2796 225.605 72.9101 236.869 74.8467C245.299 76.0916 249.027 74.8468 248.053 66.3225C247.087 61.191 243.877 60.4197 236.869 52.8815C242.518 57.1289 270.652 55.8069 276.634 55.3662C280.181 55.1049 289.135 51.5071 289.135 46.3176C289.135 41.1281 283.94 36.8756 277.698 36.4354C272.724 36.0845 260.232 34.6233 251.662 35.3183C265.801 33.9358 273.695 33.2459 289.135 26.4443C297.184 23.6055 302.428 12.0258 297.186 4.77109C291.945 -2.48187 279.582 -0.139571 274.343 4.04266Z" fill="url(#paint6_linear)"/>
<path d="M274.343 4.04266C254.315 22.0393 240.803 24.1103 219.119 35.3183C208.041 42.3762 209.405 54.8292 214.72 61.9456C221.412 69.2796 225.605 72.9101 236.869 74.8467C245.299 76.0916 249.027 74.8468 248.053 66.3225C247.087 61.191 243.877 60.4197 236.869 52.8815C242.518 57.1289 270.652 55.8069 276.634 55.3662C280.181 55.1049 289.135 51.5071 289.135 46.3176C289.135 41.1281 283.94 36.8756 277.698 36.4354C272.724 36.0845 260.232 34.6233 251.662 35.3183C265.801 33.9358 273.695 33.2459 289.135 26.4443C297.184 23.6055 302.428 12.0258 297.186 4.77109C291.945 -2.48187 279.582 -0.139571 274.343 4.04266Z" fill="url(#paint7_linear)"/>
<path d="M25.3016 4.04266C45.3298 22.0393 58.8415 24.1103 80.5253 35.3183C91.6037 42.3762 90.2391 54.8292 84.9243 61.9456C78.2325 69.2796 74.0393 72.9101 62.7751 74.8467C54.3456 76.0916 50.6173 74.8468 51.5915 66.3225C52.5573 61.191 55.7673 60.4197 62.7751 52.8815C57.1263 57.1289 28.992 55.8069 23.0102 55.3662C19.4636 55.1049 10.5093 51.5071 10.5093 46.3176C10.5093 41.1281 15.7046 36.8756 21.9466 36.4354C26.9209 36.0845 39.4126 34.6233 47.9829 35.3183C33.8432 33.9358 25.9493 33.2459 10.5093 26.4443C2.46004 23.6055 -2.7831 12.0258 2.45885 4.77109C7.69956 -2.48187 20.0628 -0.139571 25.3016 4.04266Z" fill="url(#paint8_linear)"/>
<path d="M25.3016 4.04266C45.3298 22.0393 58.8415 24.1103 80.5253 35.3183C91.6037 42.3762 90.2391 54.8292 84.9243 61.9456C78.2325 69.2796 74.0393 72.9101 62.7751 74.8467C54.3456 76.0916 50.6173 74.8468 51.5915 66.3225C52.5573 61.191 55.7673 60.4197 62.7751 52.8815C57.1263 57.1289 28.992 55.8069 23.0102 55.3662C19.4636 55.1049 10.5093 51.5071 10.5093 46.3176C10.5093 41.1281 15.7046 36.8756 21.9466 36.4354C26.9209 36.0845 39.4126 34.6233 47.9829 35.3183C33.8432 33.9358 25.9493 33.2459 10.5093 26.4443C2.46004 23.6055 -2.7831 12.0258 2.45885 4.77109C7.69956 -2.48187 20.0628 -0.139571 25.3016 4.04266Z" fill="#A7A7A7"/>
<path d="M25.3016 4.04266C45.3298 22.0393 58.8415 24.1103 80.5253 35.3183C91.6037 42.3762 90.2391 54.8292 84.9243 61.9456C78.2325 69.2796 74.0393 72.9101 62.7751 74.8467C54.3456 76.0916 50.6173 74.8468 51.5915 66.3225C52.5573 61.191 55.7673 60.4197 62.7751 52.8815C57.1263 57.1289 28.992 55.8069 23.0102 55.3662C19.4636 55.1049 10.5093 51.5071 10.5093 46.3176C10.5093 41.1281 15.7046 36.8756 21.9466 36.4354C26.9209 36.0845 39.4126 34.6233 47.9829 35.3183C33.8432 33.9358 25.9493 33.2459 10.5093 26.4443C2.46004 23.6055 -2.7831 12.0258 2.45885 4.77109C7.69956 -2.48187 20.0628 -0.139571 25.3016 4.04266Z" fill="url(#paint9_linear)"/>
<path d="M25.3016 4.04266C45.3298 22.0393 58.8415 24.1103 80.5253 35.3183C91.6037 42.3762 90.2391 54.8292 84.9243 61.9456C78.2325 69.2796 74.0393 72.9101 62.7751 74.8467C54.3456 76.0916 50.6173 74.8468 51.5915 66.3225C52.5573 61.191 55.7673 60.4197 62.7751 52.8815C57.1263 57.1289 28.992 55.8069 23.0102 55.3662C19.4636 55.1049 10.5093 51.5071 10.5093 46.3176C10.5093 41.1281 15.7046 36.8756 21.9466 36.4354C26.9209 36.0845 39.4126 34.6233 47.9829 35.3183C33.8432 33.9358 25.9493 33.2459 10.5093 26.4443C2.46004 23.6055 -2.7831 12.0258 2.45885 4.77109C7.69956 -2.48187 20.0628 -0.139571 25.3016 4.04266Z" fill="url(#paint10_linear)"/>
<defs>
<linearGradient id="paint0_linear" x1="194.36" y1="75.257" x2="88.9607" y2="147.731" gradientUnits="userSpaceOnUse">
<stop stop-color="white"/>
<stop offset="1" stop-color="#49A4F4"/>
</linearGradient>
<linearGradient id="paint1_linear" x1="149.971" y1="40.1797" x2="149.971" y2="110.334" gradientUnits="userSpaceOnUse">
<stop stop-color="white"/>
<stop offset="1" stop-color="white" stop-opacity="0"/>
</linearGradient>
<linearGradient id="paint2_linear" x1="174.487" y1="49.8732" x2="18.8925" y2="191.329" gradientUnits="userSpaceOnUse">
<stop stop-color="white"/>
<stop offset="1" stop-color="#49A4F4"/>
</linearGradient>
<linearGradient id="paint3_linear" x1="194.27" y1="75.2609" x2="88.8708" y2="147.735" gradientUnits="userSpaceOnUse">
<stop stop-color="white"/>
<stop offset="1" stop-color="#49A4F4"/>
</linearGradient>
<linearGradient id="paint4_linear" x1="149.882" y1="40.1836" x2="149.882" y2="110.338" gradientUnits="userSpaceOnUse">
<stop stop-color="white"/>
<stop offset="1" stop-color="white" stop-opacity="0"/>
</linearGradient>
<linearGradient id="paint5_linear" x1="260.819" y1="26.6089" x2="143.97" y2="161.131" gradientUnits="userSpaceOnUse">
<stop stop-color="white"/>
<stop offset="1" stop-color="#49A4F4"/>
</linearGradient>
<linearGradient id="paint6_linear" x1="263.718" y1="26.0513" x2="146.11" y2="167.381" gradientUnits="userSpaceOnUse">
<stop stop-color="white"/>
<stop offset="1" stop-color="#49A4F4"/>
</linearGradient>
<linearGradient id="paint7_linear" x1="255.005" y1="0.0976562" x2="255.005" y2="75.2573" gradientUnits="userSpaceOnUse">
<stop stop-color="white"/>
<stop offset="1" stop-color="white" stop-opacity="0"/>
</linearGradient>
<linearGradient id="paint8_linear" x1="38.8257" y1="26.6089" x2="155.675" y2="161.131" gradientUnits="userSpaceOnUse">
<stop stop-color="white"/>
<stop offset="1" stop-color="#49A4F4"/>
</linearGradient>
<linearGradient id="paint9_linear" x1="35.9261" y1="26.0513" x2="153.534" y2="167.381" gradientUnits="userSpaceOnUse">
<stop stop-color="white"/>
<stop offset="1" stop-color="#49A4F4"/>
</linearGradient>
<linearGradient id="paint10_linear" x1="44.6394" y1="0.0976562" x2="44.6394" y2="75.2573" gradientUnits="userSpaceOnUse">
<stop stop-color="white"/>
<stop offset="1" stop-color="white" stop-opacity="0"/>
</linearGradient>
</defs>
</svg>
