<svg width="387" height="192" viewBox="0 0 387 192" fill="none" xmlns="http://www.w3.org/2000/svg">
<rect x="0.820312" y="0.339844" width="385.383" height="190.9" rx="10" fill="white"/>
<rect x="12.7188" y="11.3984" width="361.589" height="168.785" rx="10" fill="white"/>
<rect x="12.7188" y="11.3984" width="361.589" height="168.785" rx="10" fill="url(#paint0_linear)"/>
<path d="M244.941 52.2031C230.481 52.2031 218.759 63.9122 218.759 78.356C218.759 87.9318 223.911 96.3055 231.597 100.862C233.71 102.115 235.244 104.268 235.244 106.724V114.976C235.244 118.289 232.558 120.976 229.244 120.976H218.941C215.628 120.976 212.941 123.662 212.941 126.976V133.38C212.941 136.693 215.628 139.38 218.941 139.38H270.94C274.254 139.38 276.94 136.693 276.94 133.38V126.976C276.94 123.662 274.254 120.976 270.94 120.976H260.637C257.324 120.976 254.637 118.289 254.637 114.976V106.724C254.637 104.268 256.171 102.115 258.284 100.862C265.97 96.3055 271.122 87.9318 271.122 78.356C271.122 63.9122 259.4 52.2031 244.941 52.2031Z" fill="#4FB6F6"/>
<circle cx="139.831" cy="95.7922" r="41.6672" fill="#4FB6F6"/>
<path fill-rule="evenodd" clip-rule="evenodd" d="M157.937 98.1822C157.695 96.3691 155.737 95.1846 153.609 94.9186C153.15 94.8703 152.642 94.7978 152.135 94.7736C152.304 94.7494 152.473 94.7494 152.618 94.7253C154.746 94.4835 156.317 93.2506 156.099 91.4617C155.858 89.6728 153.9 88.4641 151.772 88.1982C150.757 88.0773 149.596 87.9806 148.339 87.9081C148.339 87.9081 148.339 87.9081 148.315 87.9081C147.59 87.8839 146.841 87.8597 146.043 87.8356C144.592 87.7872 142.683 87.7147 141.232 87.5938C140.144 87.5213 139.999 86.7235 140.096 85.95C141.135 83.1699 141.716 80.0272 141.595 76.9087C141.498 74.2254 139.806 71.6629 137.364 71.397C135.334 71.1794 133.859 72.6057 134.391 74.4429C136.083 80.414 128.154 87.5696 121.699 91.5584V110.221C126.727 113.436 134.85 115.08 144.302 114.887C144.882 114.887 145.487 114.863 146.164 114.838C146.26 114.838 146.333 114.838 146.43 114.838C147.082 114.79 147.808 114.742 148.629 114.669C150.757 114.476 153.271 113.074 153.15 111.261C153.053 109.689 151.941 108.819 150.515 108.36C151.337 108.287 152.135 108.239 152.908 108.166C155.06 107.973 156.655 106.764 156.438 104.951C156.244 103.138 154.31 101.929 152.183 101.639C152.111 101.639 152.038 101.615 151.966 101.615C152.86 101.567 153.682 101.518 154.431 101.47C156.631 101.349 158.178 99.9953 157.937 98.1822Z" fill="white"/>
<defs>
<linearGradient id="paint0_linear" x1="162.749" y1="73.6441" x2="-165.302" y2="-113.468" gradientUnits="userSpaceOnUse">
<stop stop-color="white"/>
<stop offset="1" stop-color="#A7D3FA"/>
</linearGradient>
</defs>
</svg>
