<svg width="387" height="192" viewBox="0 0 387 192" fill="none" xmlns="http://www.w3.org/2000/svg">
<rect x="0.730469" y="0.339844" width="385.383" height="190.9" rx="10" fill="white"/>
<rect x="12.6289" y="11.3984" width="361.589" height="168.785" rx="10" fill="white"/>
<rect x="12.6289" y="11.3984" width="361.589" height="168.785" rx="10" fill="url(#paint0_linear)"/>
<path fill-rule="evenodd" clip-rule="evenodd" d="M215.621 121.785C224.898 126.137 238.976 130.691 242.003 137.551C244.843 144.48 243.706 148.57 243.706 148.57H203.89C203.902 148.508 203.91 148.441 203.917 148.379C203.956 147.988 203.882 147.59 203.695 147.23L195.445 131.746C195.894 131.707 196.304 131.523 196.624 131.23C196.882 130.996 197.078 130.691 197.187 130.344L198.386 126.484C198.636 125.68 198.355 124.805 197.687 124.297L194.636 121.98C193.921 121.438 192.933 121.438 192.218 121.98L189.167 124.297C188.496 124.809 188.214 125.68 188.464 126.484L189.667 130.344C189.91 131.129 190.601 131.68 191.41 131.746L183.16 147.23C182.937 147.648 182.874 148.121 182.964 148.57H143.163C143.163 148.57 141.964 144.48 144.867 137.551C147.214 131.945 156.839 127.852 165.378 124.219C167.39 123.363 169.343 122.535 171.124 121.719C179.472 117.887 179.605 115.371 179.761 112.332V112.297C179.781 111.949 179.8 111.594 179.835 111.227C179.835 111.055 179.843 110.883 179.855 110.711L179.867 110.535C179.882 110.305 179.898 110.074 179.898 109.844C176.617 106.875 173.902 102.715 172.195 97.9648L172.132 97.8984L172.121 97.8398L172.101 97.8047C172.085 97.7734 172.07 97.7383 172.07 97.7031C171.628 96.7109 171.312 95.5898 171.062 94.4688C168.913 94.0742 167.652 91.6328 167.148 89.3242C166.863 88.8008 166.413 87.8516 166.124 86.6602C165.902 85.75 165.777 84.6953 165.886 83.582C166.046 81.8633 166.472 80.625 167.042 79.7461C167.429 79.1523 167.882 78.7227 168.367 78.418C168.566 78.293 168.769 78.1914 168.976 78.1055V77.5781C168.976 75.4648 169.058 72.9062 169.234 70.3828C169.406 67.8594 169.671 65.3711 170.05 63.3945C170.117 62.8047 170.218 62.2148 170.347 61.6328C170.46 61.1094 170.597 60.5977 170.746 60.0977C172.132 55.2148 175.038 50.8594 178.886 47.8242C182.8 44.6562 188.417 43.0078 193.406 43.0078C198.39 43.0078 204.007 44.6562 207.984 47.8242C211.898 50.8594 214.738 55.2812 216.124 60.0977C216.441 61.2188 216.695 62.2734 216.82 63.3945C217.515 67.3516 217.894 73.4219 217.894 77.5781V78.1719C218.3 78.3438 218.695 78.5977 219.058 78.9531C219.574 79.457 220.027 80.1602 220.359 81.1289C220.593 81.8086 220.765 82.6211 220.859 83.582C221.05 86.1562 220.101 88.3984 219.597 89.3242C219.156 91.5664 217.894 94.0078 215.746 94.4688C215.566 95.2305 215.347 96.0312 215.097 96.7891C215.003 97.0781 214.906 97.3633 214.8 97.6367C214.738 97.7031 214.675 97.9648 214.675 97.9648C213.597 100.93 212.163 103.66 210.445 106.012C209.445 107.379 208.347 108.621 207.163 109.711C207.163 110.238 207.163 110.766 207.226 111.227C207.265 111.691 207.281 112.141 207.296 112.578C207.394 115.555 207.476 118.043 215.621 121.785Z" fill="#4FB6F6"/>
<path fill-rule="evenodd" clip-rule="evenodd" d="M145.994 27.4209C144.255 25.8232 141.58 25.8232 139.841 27.4209C138.869 28.3115 137.556 28.7373 136.244 28.5889C133.896 28.3193 131.736 29.8896 131.263 32.2061C131.123 32.8975 130.826 33.5381 130.404 34.085C130.041 34.5615 129.58 34.9639 129.045 35.2646C126.986 36.4248 126.162 38.9678 127.142 41.1162C127.689 42.3193 127.689 43.6982 127.142 44.8975C126.162 47.0459 126.986 49.5889 129.045 50.7529C130.193 51.4014 131.002 52.5186 131.263 53.8115C131.736 56.1279 133.896 57.6982 136.244 57.4287C137.556 57.2764 138.869 57.7061 139.841 58.5967C141.361 59.9912 143.591 60.167 145.295 59.1279C145.541 58.9756 145.775 58.7998 145.994 58.5967C146.966 57.7061 148.279 57.2764 149.591 57.4287C151.939 57.6982 154.099 56.1279 154.568 53.8115C154.689 53.2217 154.923 52.6709 155.248 52.1826C155.638 51.6006 156.166 51.1084 156.791 50.7529C158.849 49.5889 159.673 47.0459 158.693 44.8975C158.146 43.6982 158.146 42.3193 158.693 41.1162C159.673 38.9678 158.849 36.4248 156.791 35.2646C155.642 34.6162 154.834 33.499 154.568 32.2061C154.099 29.8896 151.939 28.3193 149.591 28.5889C148.279 28.7373 146.966 28.3115 145.994 27.4209ZM150.548 40.7451C151.33 39.9639 151.33 38.6982 150.548 37.917C150.056 37.4248 149.369 37.2412 148.732 37.3701C148.361 37.4482 148.009 37.6279 147.72 37.917L141.244 44.3936L138.658 42.0967C137.83 41.3662 136.564 41.4404 135.834 42.2686C135.099 43.0967 135.177 44.3584 136.002 45.0928L139.298 48.0107C140.486 49.0615 142.287 49.0068 143.408 47.8857L150.548 40.7451Z" fill="#4FB6F6"/>
<defs>
<linearGradient id="paint0_linear" x1="162.659" y1="73.6441" x2="-165.392" y2="-113.468" gradientUnits="userSpaceOnUse">
<stop stop-color="white"/>
<stop offset="1" stop-color="#A7D3FA"/>
</linearGradient>
</defs>
</svg>
