<svg width="45" height="45" viewBox="0 0 45 45" fill="none" xmlns="http://www.w3.org/2000/svg">
<circle cx="22.5153" cy="22.109" r="22.1012" fill="#FCFCFC"/>
<path fill-rule="evenodd" clip-rule="evenodd" d="M26.5089 36.8265C28.3766 36.0527 29.5783 33.7245 29.353 31.9417C28.9709 29.0127 27.4885 29.1302 27.4885 26.9784C27.4885 24.82 29.8036 21.4372 30.3521 20.918C30.8975 20.4021 30.8256 20.4641 30.1726 20.105C29.5162 19.7556 28.5726 20.2127 28.5726 20.2127L27.8607 20.5066C27.8607 20.5066 27.766 20.0037 27.6289 19.1352C27.4983 18.2633 26.3881 16.7548 26.3881 16.7548C26.3881 16.7548 28.2166 16.9376 28.4615 16.3368C28.7064 15.736 28.2983 15.4356 28.2983 15.4356V14.8086L28.0273 14.9458L27.5636 14.9719L27.4558 14.6715C27.4558 14.6715 27.1554 14.9197 26.8289 14.9197C26.5024 14.9197 25.3595 14.7923 25.1505 14.3776C24.6705 13.4209 24.9252 13.1956 25.7709 12.8331C27.0542 12.2813 28.1056 13.3817 28.1056 13.3817L28.2134 13.7376C28.2134 13.7376 28.4028 13.5221 28.7064 13.496C29.0068 13.4666 29.1799 13.5515 29.1799 13.5515C29.1799 13.5515 29.3954 13.5254 29.6142 12.9801C29.833 12.438 29.7219 12.1899 29.7219 11.9156C29.7219 11.6413 29.7219 11.5629 29.8297 11.2103C29.9375 10.8544 29.6926 10.4429 29.2289 10.2013C28.7652 9.95315 27.3742 9.8454 27.3742 9.8454C27.3742 9.8454 27.4558 9.65601 27.322 9.41111C27.1848 9.15642 26.9432 8.97356 26.2313 8.66989C25.5228 8.36948 25.4934 7.54663 23.9424 6.95235C22.3783 6.35153 19.2991 7.60214 19.2991 7.60214C19.2991 7.60214 18.9726 7.41602 18.5873 7.465C18.202 7.52704 17.4967 7.33112 17.415 7.3899C17.3334 7.43887 17.6893 8.36948 17.6893 8.36948C17.6893 8.36948 17.1963 8.66989 16.7881 9.24132C16.3767 9.81275 15.864 11.1254 15.8085 12.5164C15.753 13.9074 15.3155 15.0274 15.211 15.2723C15.1032 15.5172 16.4681 15.0797 16.4681 15.0797C16.4681 15.0797 16.3538 15.4944 16.0828 16.6405C15.8085 17.7833 15.1261 19.8862 14.9628 20.3499C14.7963 20.8135 16.2918 20.1572 16.2918 20.1572C16.2918 20.1572 16.1579 20.8625 15.7661 22.2241C15.3938 23.4976 14.4469 24.6666 14.3163 25.0747C14.1791 25.4862 15.9228 25.669 15.9228 25.669C15.9228 25.669 13.7481 28.5457 14.8453 31.8829C16.135 35.811 18.5285 36.8265 18.5285 36.8265C21.1096 37.6373 22.8531 37.5956 26.5089 36.8265ZM29.5293 11.4519C29.6142 11.2331 29.6697 10.8805 29.4803 10.6846C29.4585 10.6639 29.4378 10.6434 29.4179 10.6237C29.2619 10.469 29.1552 10.3633 28.9611 10.6095C28.9611 10.6095 29.4509 11.6707 29.5293 11.4519ZM25.735 9.87152C25.1636 9.73764 24.8077 9.97928 24.8077 9.97928L24.5334 10.0903C24.5334 10.0903 25.0265 10.358 25.4607 10.3319C25.8983 10.3058 26.1693 10.2274 26.1693 10.2274C26.1693 10.2274 26.3097 10.0087 25.735 9.87152ZM21.1701 16.758C19.6616 12.7417 21.0526 8.75152 21.0526 8.75152C21.0526 8.75152 18.0093 13.3491 19.3416 17.3425C21.0265 22.4037 25.0787 23.4649 25.0787 23.4649C25.0787 23.4649 22.4142 20.0592 21.1701 16.758ZM24.7816 32.8429C24.8371 32.7612 24.9187 33.0845 24.9187 33.0845C24.9187 33.0845 26.7015 32.2388 26.264 30.8282C25.8624 29.5449 23.8901 29.5972 23.8901 29.5972C22.4697 30.3678 23.4493 33.731 24.4028 33.0845C24.466 33.0428 24.5288 33.0093 24.5852 32.9793C24.6743 32.9319 24.7476 32.8929 24.7816 32.8429ZM24.442 19.096C25.846 20.9474 26.1203 23.0274 26.1203 23.0274C26.1203 23.0274 27.4428 18.8609 24.0501 15.4715C22.7094 14.1307 22.5053 12.775 22.3443 11.705C22.337 11.657 22.3299 11.6097 22.3228 11.5629C22.1661 10.4691 22.2183 9.70499 22.2183 9.70499C22.2183 9.70499 20.3114 13.6397 24.442 19.096Z" fill="#62698F"/>
<path fill-rule="evenodd" clip-rule="evenodd" d="M29.5293 11.4519C29.6142 11.2331 29.6697 10.8805 29.4803 10.6846C29.4585 10.6639 29.4378 10.6434 29.4179 10.6237C29.2619 10.469 29.1552 10.3633 28.9611 10.6095C28.9611 10.6095 29.4509 11.6707 29.5293 11.4519ZM25.735 9.87152C25.1636 9.73764 24.8077 9.97928 24.8077 9.97928L24.5334 10.0903C24.5334 10.0903 25.0265 10.358 25.4607 10.3319C25.8983 10.3058 26.1693 10.2274 26.1693 10.2274C26.1693 10.2274 26.3097 10.0087 25.735 9.87152Z" fill="#62698F"/>
</svg>
