<svg width="336" height="217" viewBox="0 0 336 217" fill="none" xmlns="http://www.w3.org/2000/svg">
<rect x="0.191406" y="50.5781" width="335.206" height="166.045" rx="10" fill="white"/>
<rect x="11.3672" y="59.543" width="312.858" height="148.126" rx="10" fill="url(#paint0_linear)"/>
<path d="M55.6116 19.463C55.6116 18.683 55.6016 17.913 55.5816 17.153C55.5816 16.393 55.5216 15.653 55.4016 14.933C55.2816 14.193 55.0716 13.493 54.7716 12.833C54.4716 12.153 54.0316 11.523 53.4516 10.943C52.7716 10.263 51.9616 9.76297 51.0216 9.44297C50.0816 9.10297 49.0516 8.93297 47.9316 8.93297H40.4316V30.293H47.9316C49.0516 30.293 50.0816 30.133 51.0216 29.813C51.9616 29.473 52.7716 28.963 53.4516 28.283C54.0316 27.703 54.4716 27.063 54.7716 26.363C55.0716 25.663 55.2816 24.933 55.4016 24.173C55.5216 23.413 55.5816 22.633 55.5816 21.833C55.6016 21.033 55.6116 20.243 55.6116 19.463ZM52.3716 19.463C52.3716 20.943 52.3216 22.243 52.2216 23.363C52.1216 24.463 51.7916 25.323 51.2316 25.943C50.3516 26.903 49.1416 27.383 47.6016 27.383H43.6716V11.843H47.6016C49.1416 11.843 50.3516 12.323 51.2316 13.283C51.7916 13.903 52.1216 14.723 52.2216 15.743C52.3216 16.743 52.3716 17.983 52.3716 19.463ZM63.2021 12.083V8.84297H59.9621V12.083H63.2021ZM63.1121 30.293V15.083H60.0521V30.293H63.1121ZM78.6422 16.343C78.1222 15.823 77.5722 15.453 76.9922 15.233C76.4122 15.013 75.7522 14.903 75.0122 14.903C74.1522 14.903 73.3622 15.073 72.6422 15.413C71.9222 15.753 71.3622 16.193 70.9622 16.733V15.083H67.9622V30.293H71.0222V21.053C71.0222 19.993 71.3122 19.163 71.8922 18.563C72.4922 17.943 73.2122 17.633 74.0522 17.633C74.5722 17.633 74.9922 17.723 75.3122 17.903C75.6522 18.063 75.9922 18.313 76.3322 18.653L78.6422 16.343ZM92.299 23.573V22.223C92.299 21.143 92.149 20.153 91.849 19.253C91.569 18.353 91.149 17.583 90.589 16.943C90.049 16.303 89.379 15.803 88.579 15.443C87.779 15.083 86.869 14.903 85.849 14.903C83.889 14.903 82.319 15.583 81.139 16.943C79.979 18.283 79.399 20.193 79.399 22.673C79.399 24.113 79.579 25.333 79.939 26.333C80.299 27.333 80.779 28.143 81.379 28.763C81.999 29.363 82.719 29.803 83.539 30.083C84.379 30.343 85.279 30.473 86.239 30.473C86.899 30.473 87.489 30.423 88.009 30.323C88.549 30.223 89.039 30.073 89.479 29.873C89.939 29.673 90.359 29.433 90.739 29.153C91.139 28.853 91.539 28.503 91.939 28.103L89.989 26.273C89.449 26.813 88.909 27.213 88.369 27.473C87.849 27.713 87.159 27.833 86.299 27.833C85.039 27.833 84.079 27.453 83.419 26.693C82.759 25.933 82.429 24.893 82.429 23.573H92.299ZM89.269 21.443H82.429C82.449 20.983 82.479 20.613 82.519 20.333C82.559 20.033 82.659 19.713 82.819 19.373C83.059 18.793 83.439 18.333 83.959 17.993C84.499 17.633 85.129 17.453 85.849 17.453C86.569 17.453 87.189 17.633 87.709 17.993C88.229 18.333 88.609 18.793 88.849 19.373C89.009 19.713 89.109 20.033 89.149 20.333C89.209 20.613 89.249 20.983 89.269 21.443ZM107.361 28.313L105.261 26.303C104.781 26.823 104.321 27.193 103.881 27.413C103.461 27.633 102.951 27.743 102.351 27.743C101.151 27.743 100.211 27.293 99.5309 26.393C99.1909 25.973 98.9509 25.473 98.8109 24.893C98.6909 24.313 98.6309 23.573 98.6309 22.673C98.6309 21.773 98.6909 21.043 98.8109 20.483C98.9509 19.903 99.1909 19.403 99.5309 18.983C100.211 18.083 101.151 17.633 102.351 17.633C102.951 17.633 103.461 17.743 103.881 17.963C104.321 18.183 104.781 18.553 105.261 19.073L107.361 17.033C106.641 16.273 105.891 15.733 105.111 15.413C104.331 15.073 103.411 14.903 102.351 14.903C101.491 14.903 100.651 15.043 99.8309 15.323C99.0309 15.603 98.3109 16.053 97.6709 16.673C97.0509 17.273 96.5409 18.073 96.1409 19.073C95.7609 20.053 95.5709 21.253 95.5709 22.673C95.5709 24.093 95.7609 25.303 96.1409 26.303C96.5409 27.283 97.0509 28.083 97.6709 28.703C98.3109 29.323 99.0309 29.773 99.8309 30.053C100.651 30.333 101.491 30.473 102.351 30.473C103.411 30.473 104.331 30.303 105.111 29.963C105.891 29.623 106.641 29.073 107.361 28.313ZM117.271 30.293V27.683H116.011C115.431 27.683 115.001 27.533 114.721 27.233C114.461 26.913 114.331 26.473 114.331 25.913V17.693H117.271V15.353H114.331V10.733H111.271V15.353H109.531V17.693H111.271V26.063C111.271 26.603 111.351 27.133 111.511 27.653C111.691 28.153 111.951 28.603 112.291 29.003C112.631 29.383 113.061 29.693 113.581 29.933C114.101 30.173 114.721 30.293 115.441 30.293H117.271ZM127.135 30.293V27.683H125.785C125.165 27.683 124.735 27.533 124.495 27.233C124.255 26.933 124.135 26.493 124.135 25.913V8.93297H121.075V26.093C121.075 26.653 121.155 27.193 121.315 27.713C121.475 28.213 121.725 28.653 122.065 29.033C122.405 29.413 122.835 29.723 123.355 29.963C123.895 30.183 124.525 30.293 125.245 30.293H127.135ZM141.093 15.083H137.823L134.283 25.793L130.653 15.083H127.413L132.723 29.573L131.883 31.943C131.663 32.563 131.403 32.983 131.103 33.203C130.803 33.443 130.333 33.563 129.693 33.563H128.913V36.323H130.143C130.723 36.323 131.283 36.243 131.823 36.083C132.363 35.923 132.843 35.633 133.263 35.213C133.723 34.753 134.093 34.123 134.373 33.323L141.093 15.083ZM170.463 15.083H167.193L164.253 25.793L160.743 15.083H158.373L154.833 25.793L151.893 15.083H148.653L153.363 30.293H156.003L159.543 19.673L163.113 30.293H165.723L170.463 15.083ZM176.288 12.083V8.84297H173.048V12.083H176.288ZM176.198 30.293V15.083H173.138V30.293H176.198ZM187.408 30.293V27.683H186.148C185.568 27.683 185.138 27.533 184.858 27.233C184.598 26.913 184.468 26.473 184.468 25.913V17.693H187.408V15.353H184.468V10.733H181.408V15.353H179.668V17.693H181.408V26.063C181.408 26.603 181.488 27.133 181.648 27.653C181.828 28.153 182.088 28.603 182.428 29.003C182.768 29.383 183.198 29.693 183.718 29.933C184.238 30.173 184.858 30.293 185.578 30.293H187.408ZM203.572 30.293V20.483C203.572 19.663 203.452 18.913 203.212 18.233C202.992 17.533 202.652 16.943 202.192 16.463C201.752 15.963 201.202 15.583 200.542 15.323C199.882 15.043 199.132 14.903 198.292 14.903C197.532 14.903 196.812 15.043 196.132 15.323C195.472 15.603 194.882 16.033 194.362 16.613V8.93297H191.302V30.293H194.362V20.963C194.362 19.823 194.662 18.983 195.262 18.443C195.862 17.903 196.592 17.633 197.452 17.633C198.312 17.633 199.032 17.903 199.612 18.443C200.212 18.963 200.512 19.803 200.512 20.963V30.293H203.572ZM219.101 30.293V8.93297H215.861V30.293H219.101ZM235.57 25.643C235.57 24.283 235.17 23.263 234.37 22.583C233.59 21.883 232.48 21.473 231.04 21.353L228.64 21.143C227.82 21.063 227.26 20.873 226.96 20.573C226.68 20.253 226.54 19.863 226.54 19.403C226.54 18.823 226.77 18.353 227.23 17.993C227.69 17.633 228.38 17.453 229.3 17.453C230.02 17.453 230.7 17.543 231.34 17.723C232 17.883 232.57 18.163 233.05 18.563L234.97 16.613C234.27 15.993 233.44 15.553 232.48 15.293C231.52 15.033 230.47 14.903 229.33 14.903C228.53 14.903 227.78 15.013 227.08 15.233C226.4 15.433 225.8 15.733 225.28 16.133C224.76 16.513 224.35 16.993 224.05 17.573C223.75 18.153 223.6 18.813 223.6 19.553C223.6 20.893 223.99 21.903 224.77 22.583C225.55 23.243 226.66 23.633 228.1 23.753L230.53 23.963C231.27 24.023 231.79 24.213 232.09 24.533C232.41 24.833 232.57 25.243 232.57 25.763C232.57 26.483 232.25 27.013 231.61 27.353C230.97 27.693 230.18 27.863 229.24 27.863C228.48 27.863 227.71 27.763 226.93 27.563C226.17 27.343 225.48 26.913 224.86 26.273L222.85 28.283C223.75 29.163 224.73 29.753 225.79 30.053C226.85 30.333 228 30.473 229.24 30.473C230.14 30.473 230.98 30.373 231.76 30.173C232.54 29.973 233.21 29.673 233.77 29.273C234.33 28.853 234.77 28.343 235.09 27.743C235.41 27.143 235.57 26.443 235.57 25.643ZM250.247 25.643C250.247 24.283 249.847 23.263 249.047 22.583C248.267 21.883 247.157 21.473 245.717 21.353L243.317 21.143C242.497 21.063 241.937 20.873 241.637 20.573C241.357 20.253 241.217 19.863 241.217 19.403C241.217 18.823 241.447 18.353 241.907 17.993C242.367 17.633 243.057 17.453 243.977 17.453C244.697 17.453 245.377 17.543 246.017 17.723C246.677 17.883 247.247 18.163 247.727 18.563L249.647 16.613C248.947 15.993 248.117 15.553 247.157 15.293C246.197 15.033 245.147 14.903 244.007 14.903C243.207 14.903 242.457 15.013 241.757 15.233C241.077 15.433 240.477 15.733 239.957 16.133C239.437 16.513 239.027 16.993 238.727 17.573C238.427 18.153 238.277 18.813 238.277 19.553C238.277 20.893 238.667 21.903 239.447 22.583C240.227 23.243 241.337 23.633 242.777 23.753L245.207 23.963C245.947 24.023 246.467 24.213 246.767 24.533C247.087 24.833 247.247 25.243 247.247 25.763C247.247 26.483 246.927 27.013 246.287 27.353C245.647 27.693 244.857 27.863 243.917 27.863C243.157 27.863 242.387 27.763 241.607 27.563C240.847 27.343 240.157 26.913 239.537 26.273L237.527 28.283C238.427 29.163 239.407 29.753 240.467 30.053C241.527 30.333 242.677 30.473 243.917 30.473C244.817 30.473 245.657 30.373 246.437 30.173C247.217 29.973 247.887 29.673 248.447 29.273C249.007 28.853 249.447 28.343 249.767 27.743C250.087 27.143 250.247 26.443 250.247 25.643ZM266.148 30.293V15.083H263.088V24.353C263.088 24.933 262.998 25.443 262.818 25.883C262.658 26.303 262.438 26.653 262.158 26.933C261.878 27.213 261.538 27.423 261.138 27.563C260.758 27.683 260.358 27.743 259.938 27.743C259.078 27.743 258.348 27.473 257.748 26.933C257.168 26.393 256.878 25.533 256.878 24.353V15.083H253.818V24.803C253.818 25.663 253.928 26.453 254.148 27.173C254.368 27.873 254.768 28.513 255.348 29.093C255.808 29.533 256.348 29.873 256.968 30.113C257.608 30.353 258.318 30.473 259.098 30.473C259.858 30.473 260.588 30.333 261.288 30.053C262.008 29.773 262.628 29.343 263.148 28.763V30.293H266.148ZM283.139 23.573V22.223C283.139 21.143 282.989 20.153 282.689 19.253C282.409 18.353 281.989 17.583 281.429 16.943C280.889 16.303 280.219 15.803 279.419 15.443C278.619 15.083 277.709 14.903 276.689 14.903C274.729 14.903 273.159 15.583 271.979 16.943C270.819 18.283 270.239 20.193 270.239 22.673C270.239 24.113 270.419 25.333 270.779 26.333C271.139 27.333 271.619 28.143 272.219 28.763C272.839 29.363 273.559 29.803 274.379 30.083C275.219 30.343 276.119 30.473 277.079 30.473C277.739 30.473 278.329 30.423 278.849 30.323C279.389 30.223 279.879 30.073 280.319 29.873C280.779 29.673 281.199 29.433 281.579 29.153C281.979 28.853 282.379 28.503 282.779 28.103L280.829 26.273C280.289 26.813 279.749 27.213 279.209 27.473C278.689 27.713 277.999 27.833 277.139 27.833C275.879 27.833 274.919 27.453 274.259 26.693C273.599 25.933 273.269 24.893 273.269 23.573H283.139ZM280.109 21.443H273.269C273.289 20.983 273.319 20.613 273.359 20.333C273.399 20.033 273.499 19.713 273.659 19.373C273.899 18.793 274.279 18.333 274.799 17.993C275.339 17.633 275.969 17.453 276.689 17.453C277.409 17.453 278.029 17.633 278.549 17.993C279.069 18.333 279.449 18.793 279.689 19.373C279.849 19.713 279.949 20.033 279.989 20.333C280.049 20.613 280.089 20.983 280.109 21.443ZM297.871 16.343C297.351 15.823 296.801 15.453 296.221 15.233C295.641 15.013 294.981 14.903 294.241 14.903C293.381 14.903 292.591 15.073 291.871 15.413C291.151 15.753 290.591 16.193 290.191 16.733V15.083H287.191V30.293H290.251V21.053C290.251 19.993 290.541 19.163 291.121 18.563C291.721 17.943 292.441 17.633 293.281 17.633C293.801 17.633 294.221 17.723 294.541 17.903C294.881 18.063 295.221 18.313 295.561 18.653L297.871 16.343Z" fill="white"/>
<path d="M38.9989 90.543V86.103H31.2589L36.3589 80.703C38.0689 78.903 38.9989 77.703 38.9989 75.453C38.9989 71.433 36.1189 69.003 32.1589 69.003C28.4389 69.003 25.2589 71.313 25.2589 75.513H30.1789C30.1789 73.863 31.2589 73.443 32.1589 73.443C33.4189 73.443 34.0789 74.253 34.0789 75.423C34.0789 76.323 33.7789 76.863 32.9989 77.703L25.2589 86.103V90.543H38.9989Z" fill="#4FB6F6"/>
<path d="M104.597 148.866C110.046 151.424 118.312 154.097 120.091 158.127C121.759 162.195 121.092 164.598 121.092 164.598H62.0426C62.0426 164.598 61.3383 162.195 63.0434 158.127C64.7485 154.058 72.9777 151.346 78.4638 148.827C83.9499 146.309 83.3938 144.759 83.5792 142.667C83.5792 142.395 83.6163 142.124 83.6163 141.853C81.6887 140.109 80.0948 137.668 79.0939 134.878L79.0569 134.84C79.0569 134.801 79.0198 134.762 79.0198 134.723C78.7603 134.142 78.575 133.483 78.4267 132.825C77.1664 132.592 76.425 131.159 76.1285 129.802C75.8319 129.26 75.2388 127.942 75.3871 126.431C75.5725 124.455 76.3509 123.564 77.2035 123.215C77.2035 123.099 77.2035 123.022 77.2035 122.905C77.2035 120.425 77.3888 116.899 77.8336 114.575C77.9078 113.916 78.056 113.257 78.2414 112.637C79.0569 109.77 80.762 107.213 83.0232 105.43C85.3214 103.57 88.6205 102.602 91.5488 102.602C94.4772 102.602 97.7763 103.57 100.112 105.43C102.41 107.213 104.078 109.809 104.893 112.637C105.079 113.296 105.227 113.916 105.301 114.575C105.709 116.899 105.931 120.464 105.931 122.905C105.931 123.022 105.931 123.138 105.931 123.254C106.747 123.603 107.488 124.494 107.674 126.431C107.785 127.942 107.229 129.26 106.932 129.802C106.673 131.12 105.931 132.553 104.671 132.825C104.523 133.445 104.337 134.103 104.115 134.685C104.078 134.723 104.041 134.878 104.041 134.878C103.04 137.629 101.52 140.032 99.6297 141.775C99.6297 142.085 99.6297 142.395 99.6668 142.667C99.8521 144.798 99.1108 146.348 104.597 148.866Z" fill="#4FB6F6"/>
<path fill-rule="evenodd" clip-rule="evenodd" d="M272.684 118.163C272.684 116.665 271.848 115.293 270.516 114.607L241.078 99.4435C239.929 98.8515 238.564 98.8515 237.415 99.4435L207.977 114.607C206.645 115.293 205.809 116.665 205.809 118.163V120.338C205.809 122.547 207.599 124.338 209.809 124.338H212.448C214.657 124.338 216.448 126.129 216.448 128.338V147.697C216.448 149.906 214.657 151.697 212.448 151.697H209.809C207.599 151.697 205.809 153.488 205.809 155.697V160.599C205.809 162.808 207.599 164.599 209.809 164.599H268.684C270.894 164.599 272.684 162.808 272.684 160.599V155.697C272.684 153.488 270.894 151.697 268.684 151.697H266.045C263.836 151.697 262.045 149.906 262.045 147.697V128.338C262.045 126.129 263.836 124.338 266.045 124.338H268.684C270.894 124.338 272.684 122.547 272.684 120.338V118.163ZM226.074 128.338C226.074 126.129 227.865 124.338 230.074 124.338H230.687C232.896 124.338 234.687 126.129 234.687 128.338V147.697C234.687 149.906 232.896 151.697 230.687 151.697H230.074C227.865 151.697 226.074 149.906 226.074 147.697V128.338ZM252.42 128.338C252.42 126.129 250.629 124.338 248.42 124.338H247.807C245.598 124.338 243.807 126.129 243.807 128.338V147.697C243.807 149.906 245.598 151.697 247.807 151.697H248.42C250.629 151.697 252.42 149.906 252.42 147.697V128.338Z" fill="#4FB6F6"/>
<path d="M189.4 151.177C190.294 151.163 191.008 150.426 190.994 149.532C190.98 148.638 190.244 147.925 189.35 147.938L189.4 151.177ZM133.506 119.551C132.612 119.551 131.887 120.276 131.887 121.17C131.887 122.064 132.612 122.789 133.506 122.789L133.506 119.551ZM189.35 147.938C182.599 148.044 177.793 146.408 173.884 143.939C169.916 141.432 166.815 138.039 163.468 134.428C160.165 130.864 156.64 127.11 151.959 124.281C147.234 121.426 141.406 119.551 133.506 119.551L133.506 122.789C140.843 122.789 146.088 124.517 150.284 127.053C154.524 129.616 157.768 133.041 161.093 136.629C164.375 140.171 167.763 143.902 172.155 146.677C176.606 149.489 182.033 151.291 189.4 151.177L189.35 147.938Z" fill="#4FB6F6"/>
<path d="M189.4 119.554C190.294 119.568 191.008 120.304 190.994 121.198C190.98 122.092 190.244 122.806 189.35 122.792L189.4 119.554ZM133.506 151.18C132.612 151.18 131.887 150.455 131.887 149.561C131.887 148.666 132.612 147.941 133.506 147.941L133.506 151.18ZM166.78 132.782C166.156 133.422 165.131 133.435 164.491 132.81C163.85 132.186 163.838 131.161 164.462 130.52L166.78 132.782ZM157.382 137.981C158.018 137.352 159.044 137.358 159.672 137.994C160.301 138.631 160.294 139.656 159.658 140.284L157.382 137.981ZM189.35 122.792C183.718 122.704 179.451 123.829 175.937 125.621C172.402 127.425 169.547 129.945 166.78 132.782L164.462 130.52C167.325 127.586 170.469 124.776 174.465 122.737C178.481 120.687 183.276 119.458 189.4 119.554L189.35 122.792ZM159.658 140.284C153.742 146.129 146.47 151.18 133.506 151.18L133.506 147.941C145.377 147.941 151.876 143.42 157.382 137.981L159.658 140.284Z" fill="#4FB6F6"/>
<path d="M130.636 122.489C129.941 121.852 129.936 120.757 130.625 120.113L134.896 116.12C135.936 115.147 137.635 115.894 137.621 117.318L137.546 125.161C137.533 126.563 135.866 127.287 134.833 126.339L130.636 122.489Z" fill="#4FB6F6"/>
<path d="M192.239 122.49C192.934 121.852 192.939 120.758 192.25 120.114L187.979 116.121C186.939 115.148 185.241 115.895 185.254 117.319L185.329 125.161C185.342 126.563 187.01 127.287 188.043 126.339L192.239 122.49Z" fill="#4FB6F6"/>
<defs>
<linearGradient id="paint0_linear" x1="141.178" y1="114.17" x2="-144.626" y2="-46.5474" gradientUnits="userSpaceOnUse">
<stop stop-color="white"/>
<stop offset="1" stop-color="#A7D3FA"/>
</linearGradient>
</defs>
</svg>
