<svg width="336" height="219" viewBox="0 0 336 219" fill="none" xmlns="http://www.w3.org/2000/svg">
<rect x="0.0351562" y="52.8867" width="335.206" height="166.045" rx="10" fill="white"/>
<rect x="11.2109" y="61.8516" width="312.858" height="148.126" rx="10" fill="url(#paint0_linear)"/>
<path d="M95.3814 15.413C95.3814 14.493 95.2214 13.633 94.9014 12.833C94.5814 12.033 94.1214 11.353 93.5214 10.793C92.9214 10.213 92.2014 9.76297 91.3614 9.44297C90.5214 9.10297 89.5814 8.93297 88.5414 8.93297H80.4414V30.293H83.6814V21.893H88.5414C89.5814 21.893 90.5214 21.733 91.3614 21.413C92.2014 21.073 92.9214 20.623 93.5214 20.063C94.1214 19.483 94.5814 18.803 94.9014 18.023C95.2214 17.223 95.3814 16.353 95.3814 15.413ZM92.1414 15.413C92.1414 16.553 91.7914 17.433 91.0914 18.053C90.4114 18.653 89.5014 18.953 88.3614 18.953H83.6814V11.843H88.3614C89.5014 11.843 90.4114 12.153 91.0914 12.773C91.7914 13.393 92.1414 14.273 92.1414 15.413ZM110.776 23.573V22.223C110.776 21.143 110.626 20.153 110.326 19.253C110.046 18.353 109.626 17.583 109.066 16.943C108.526 16.303 107.856 15.803 107.056 15.443C106.256 15.083 105.346 14.903 104.326 14.903C102.366 14.903 100.796 15.583 99.6156 16.943C98.4556 18.283 97.8756 20.193 97.8756 22.673C97.8756 24.113 98.0556 25.333 98.4156 26.333C98.7756 27.333 99.2556 28.143 99.8556 28.763C100.476 29.363 101.196 29.803 102.016 30.083C102.856 30.343 103.756 30.473 104.716 30.473C105.376 30.473 105.966 30.423 106.486 30.323C107.026 30.223 107.516 30.073 107.956 29.873C108.416 29.673 108.836 29.433 109.216 29.153C109.616 28.853 110.016 28.503 110.416 28.103L108.466 26.273C107.926 26.813 107.386 27.213 106.846 27.473C106.326 27.713 105.636 27.833 104.776 27.833C103.516 27.833 102.556 27.453 101.896 26.693C101.236 25.933 100.906 24.893 100.906 23.573H110.776ZM107.746 21.443H100.906C100.926 20.983 100.956 20.613 100.996 20.333C101.036 20.033 101.136 19.713 101.296 19.373C101.536 18.793 101.916 18.333 102.436 17.993C102.976 17.633 103.606 17.453 104.326 17.453C105.046 17.453 105.666 17.633 106.186 17.993C106.706 18.333 107.086 18.793 107.326 19.373C107.486 19.713 107.586 20.033 107.626 20.333C107.686 20.613 107.726 20.983 107.746 21.443ZM126.947 23.573V22.223C126.947 21.143 126.797 20.153 126.497 19.253C126.217 18.353 125.797 17.583 125.237 16.943C124.697 16.303 124.027 15.803 123.227 15.443C122.427 15.083 121.517 14.903 120.497 14.903C118.537 14.903 116.967 15.583 115.787 16.943C114.627 18.283 114.047 20.193 114.047 22.673C114.047 24.113 114.227 25.333 114.587 26.333C114.947 27.333 115.427 28.143 116.027 28.763C116.647 29.363 117.367 29.803 118.187 30.083C119.027 30.343 119.927 30.473 120.887 30.473C121.547 30.473 122.137 30.423 122.657 30.323C123.197 30.223 123.687 30.073 124.127 29.873C124.587 29.673 125.007 29.433 125.387 29.153C125.787 28.853 126.187 28.503 126.587 28.103L124.637 26.273C124.097 26.813 123.557 27.213 123.017 27.473C122.497 27.713 121.807 27.833 120.947 27.833C119.687 27.833 118.727 27.453 118.067 26.693C117.407 25.933 117.077 24.893 117.077 23.573H126.947ZM123.917 21.443H117.077C117.097 20.983 117.127 20.613 117.167 20.333C117.207 20.033 117.307 19.713 117.467 19.373C117.707 18.793 118.087 18.333 118.607 17.993C119.147 17.633 119.777 17.453 120.497 17.453C121.217 17.453 121.837 17.633 122.357 17.993C122.877 18.333 123.257 18.793 123.497 19.373C123.657 19.713 123.757 20.033 123.797 20.333C123.857 20.613 123.897 20.983 123.917 21.443ZM141.679 16.343C141.159 15.823 140.609 15.453 140.029 15.233C139.449 15.013 138.789 14.903 138.049 14.903C137.189 14.903 136.399 15.073 135.679 15.413C134.959 15.753 134.399 16.193 133.999 16.733V15.083H130.999V30.293H134.059V21.053C134.059 19.993 134.349 19.163 134.929 18.563C135.529 17.943 136.249 17.633 137.089 17.633C137.609 17.633 138.029 17.723 138.349 17.903C138.689 18.063 139.029 18.313 139.369 18.653L141.679 16.343ZM152.523 23.393V20.543H143.763V23.393H152.523ZM163.316 30.293V27.683H162.056C161.476 27.683 161.046 27.533 160.766 27.233C160.506 26.913 160.376 26.473 160.376 25.913V17.693H163.316V15.353H160.376V10.733H157.316V15.353H155.576V17.693H157.316V26.063C157.316 26.603 157.396 27.133 157.556 27.653C157.736 28.153 157.996 28.603 158.336 29.003C158.676 29.383 159.106 29.693 159.626 29.933C160.146 30.173 160.766 30.293 161.486 30.293H163.316ZM179.034 22.673C179.034 21.393 178.914 20.273 178.674 19.313C178.434 18.333 177.954 17.463 177.234 16.703C176.734 16.183 176.104 15.753 175.344 15.413C174.604 15.073 173.714 14.903 172.674 14.903C171.634 14.903 170.744 15.073 170.004 15.413C169.264 15.753 168.644 16.183 168.144 16.703C167.424 17.463 166.944 18.333 166.704 19.313C166.464 20.273 166.344 21.393 166.344 22.673C166.344 23.973 166.464 25.113 166.704 26.093C166.944 27.053 167.424 27.913 168.144 28.673C168.644 29.193 169.264 29.623 170.004 29.963C170.744 30.303 171.634 30.473 172.674 30.473C173.714 30.473 174.604 30.303 175.344 29.963C176.104 29.623 176.734 29.193 177.234 28.673C177.954 27.913 178.434 27.053 178.674 26.093C178.914 25.113 179.034 23.973 179.034 22.673ZM175.974 22.673C175.974 23.513 175.914 24.303 175.794 25.043C175.674 25.783 175.384 26.383 174.924 26.843C174.324 27.443 173.574 27.743 172.674 27.743C171.794 27.743 171.054 27.443 170.454 26.843C169.994 26.383 169.704 25.783 169.584 25.043C169.464 24.303 169.404 23.513 169.404 22.673C169.404 21.833 169.464 21.043 169.584 20.303C169.704 19.563 169.994 18.963 170.454 18.503C171.034 17.923 171.774 17.633 172.674 17.633C173.594 17.633 174.344 17.923 174.924 18.503C175.384 18.963 175.674 19.563 175.794 20.303C175.914 21.043 175.974 21.833 175.974 22.673ZM191.517 23.393V20.543H182.757V23.393H191.517ZM211.251 15.413C211.251 14.493 211.091 13.633 210.771 12.833C210.451 12.033 209.991 11.353 209.391 10.793C208.791 10.213 208.071 9.76297 207.231 9.44297C206.391 9.10297 205.451 8.93297 204.411 8.93297H196.311V30.293H199.551V21.893H204.411C205.451 21.893 206.391 21.733 207.231 21.413C208.071 21.073 208.791 20.623 209.391 20.063C209.991 19.483 210.451 18.803 210.771 18.023C211.091 17.223 211.251 16.353 211.251 15.413ZM208.011 15.413C208.011 16.553 207.661 17.433 206.961 18.053C206.281 18.653 205.371 18.953 204.231 18.953H199.551V11.843H204.231C205.371 11.843 206.281 12.153 206.961 12.773C207.661 13.393 208.011 14.273 208.011 15.413ZM226.645 23.573V22.223C226.645 21.143 226.495 20.153 226.195 19.253C225.915 18.353 225.495 17.583 224.935 16.943C224.395 16.303 223.725 15.803 222.925 15.443C222.125 15.083 221.215 14.903 220.195 14.903C218.235 14.903 216.665 15.583 215.485 16.943C214.325 18.283 213.745 20.193 213.745 22.673C213.745 24.113 213.925 25.333 214.285 26.333C214.645 27.333 215.125 28.143 215.725 28.763C216.345 29.363 217.065 29.803 217.885 30.083C218.725 30.343 219.625 30.473 220.585 30.473C221.245 30.473 221.835 30.423 222.355 30.323C222.895 30.223 223.385 30.073 223.825 29.873C224.285 29.673 224.705 29.433 225.085 29.153C225.485 28.853 225.885 28.503 226.285 28.103L224.335 26.273C223.795 26.813 223.255 27.213 222.715 27.473C222.195 27.713 221.505 27.833 220.645 27.833C219.385 27.833 218.425 27.453 217.765 26.693C217.105 25.933 216.775 24.893 216.775 23.573H226.645ZM223.615 21.443H216.775C216.795 20.983 216.825 20.613 216.865 20.333C216.905 20.033 217.005 19.713 217.165 19.373C217.405 18.793 217.785 18.333 218.305 17.993C218.845 17.633 219.475 17.453 220.195 17.453C220.915 17.453 221.535 17.633 222.055 17.993C222.575 18.333 222.955 18.793 223.195 19.373C223.355 19.713 223.455 20.033 223.495 20.333C223.555 20.613 223.595 20.983 223.615 21.443ZM242.817 23.573V22.223C242.817 21.143 242.667 20.153 242.367 19.253C242.087 18.353 241.667 17.583 241.107 16.943C240.567 16.303 239.897 15.803 239.097 15.443C238.297 15.083 237.387 14.903 236.367 14.903C234.407 14.903 232.837 15.583 231.657 16.943C230.497 18.283 229.917 20.193 229.917 22.673C229.917 24.113 230.097 25.333 230.457 26.333C230.817 27.333 231.297 28.143 231.897 28.763C232.517 29.363 233.237 29.803 234.057 30.083C234.897 30.343 235.797 30.473 236.757 30.473C237.417 30.473 238.007 30.423 238.527 30.323C239.067 30.223 239.557 30.073 239.997 29.873C240.457 29.673 240.877 29.433 241.257 29.153C241.657 28.853 242.057 28.503 242.457 28.103L240.507 26.273C239.967 26.813 239.427 27.213 238.887 27.473C238.367 27.713 237.677 27.833 236.817 27.833C235.557 27.833 234.597 27.453 233.937 26.693C233.277 25.933 232.947 24.893 232.947 23.573H242.817ZM239.787 21.443H232.947C232.967 20.983 232.997 20.613 233.037 20.333C233.077 20.033 233.177 19.713 233.337 19.373C233.577 18.793 233.957 18.333 234.477 17.993C235.017 17.633 235.647 17.453 236.367 17.453C237.087 17.453 237.707 17.633 238.227 17.993C238.747 18.333 239.127 18.793 239.367 19.373C239.527 19.713 239.627 20.033 239.667 20.333C239.727 20.613 239.767 20.983 239.787 21.443ZM257.548 16.343C257.028 15.823 256.478 15.453 255.898 15.233C255.318 15.013 254.658 14.903 253.918 14.903C253.058 14.903 252.268 15.073 251.548 15.413C250.828 15.753 250.268 16.193 249.868 16.733V15.083H246.868V30.293H249.928V21.053C249.928 19.993 250.218 19.163 250.798 18.563C251.398 17.943 252.118 17.633 252.958 17.633C253.478 17.633 253.898 17.723 254.218 17.903C254.558 18.063 254.898 18.313 255.238 18.653L257.548 16.343Z" fill="white"/>
<path d="M34.8099 92.8516V71.4916H29.8899L25.3299 75.4516V80.7016L29.8899 76.7416V92.8516H34.8099Z" fill="#4FB6F6"/>
<path d="M113.722 148.866C119.171 151.424 127.437 154.097 129.216 158.127C130.884 162.195 130.217 164.598 130.217 164.598H71.1676C71.1676 164.598 70.4633 162.195 72.1684 158.127C73.8735 154.058 82.1027 151.346 87.5888 148.827C93.0749 146.309 92.5188 144.759 92.7042 142.667C92.7042 142.395 92.7413 142.124 92.7413 141.853C90.8137 140.109 89.2198 137.668 88.2189 134.878L88.1819 134.84C88.1819 134.801 88.1448 134.762 88.1448 134.723C87.8853 134.142 87.7 133.483 87.5517 132.825C86.2914 132.592 85.55 131.159 85.2535 129.802C84.9569 129.26 84.3638 127.942 84.5121 126.431C84.6975 124.455 85.4759 123.564 86.3285 123.215C86.3285 123.099 86.3285 123.022 86.3285 122.905C86.3285 120.425 86.5138 116.899 86.9586 114.575C87.0328 113.916 87.181 113.257 87.3664 112.637C88.1819 109.77 89.887 107.213 92.1482 105.43C94.4464 103.57 97.7455 102.602 100.674 102.602C103.602 102.602 106.901 103.57 109.237 105.43C111.535 107.213 113.203 109.809 114.018 112.637C114.204 113.296 114.352 113.916 114.426 114.575C114.834 116.899 115.056 120.464 115.056 122.905C115.056 123.022 115.056 123.138 115.056 123.254C115.872 123.603 116.613 124.494 116.799 126.431C116.91 127.942 116.354 129.26 116.057 129.802C115.798 131.12 115.056 132.553 113.796 132.825C113.648 133.445 113.462 134.103 113.24 134.685C113.203 134.723 113.166 134.878 113.166 134.878C112.165 137.629 110.645 140.032 108.755 141.775C108.755 142.085 108.755 142.395 108.792 142.667C108.977 144.798 108.236 146.348 113.722 148.866Z" fill="#4FB6F6"/>
<path d="M250.55 148.866C255.999 151.424 264.265 154.097 266.044 158.127C267.713 162.195 267.045 164.598 267.045 164.598H207.996C207.996 164.598 207.291 162.195 208.997 158.127C210.702 154.058 218.931 151.346 224.417 148.827C229.903 146.309 229.347 144.759 229.532 142.667C229.532 142.395 229.569 142.124 229.569 141.853C227.642 140.109 226.048 137.668 225.047 134.878L225.01 134.84C225.01 134.801 224.973 134.762 224.973 134.723C224.713 134.142 224.528 133.483 224.38 132.825C223.12 132.592 222.378 131.159 222.082 129.802C221.785 129.26 221.192 127.942 221.34 126.431C221.526 124.455 222.304 123.564 223.157 123.215C223.157 123.099 223.157 123.022 223.157 122.905C223.157 120.425 223.342 116.899 223.787 114.575C223.861 113.916 224.009 113.257 224.194 112.637C225.01 109.77 226.715 107.213 228.976 105.43C231.275 103.57 234.574 102.602 237.502 102.602C240.43 102.602 243.729 103.57 246.065 105.43C248.363 107.213 250.031 109.809 250.847 112.637C251.032 113.296 251.18 113.916 251.254 114.575C251.662 116.899 251.884 120.464 251.884 122.905C251.884 123.022 251.884 123.138 251.884 123.254C252.7 123.603 253.441 124.494 253.627 126.431C253.738 127.942 253.182 129.26 252.885 129.802C252.626 131.12 251.884 132.553 250.624 132.825C250.476 133.445 250.29 134.103 250.068 134.685C250.031 134.723 249.994 134.878 249.994 134.878C248.993 137.629 247.473 140.032 245.583 141.775C245.583 142.085 245.583 142.395 245.62 142.667C245.805 144.798 245.064 146.348 250.55 148.866Z" fill="#4FB6F6"/>
<path d="M192.607 127.433C193.501 127.456 194.244 126.75 194.267 125.856C194.29 124.962 193.584 124.219 192.69 124.196L192.607 127.433ZM142.556 124.196C141.663 124.237 140.973 124.995 141.015 125.889C141.057 126.782 141.815 127.472 142.708 127.43L142.556 124.196ZM192.69 145.346C193.584 145.323 194.29 144.58 194.267 143.686C194.244 142.792 193.501 142.086 192.607 142.109L192.69 145.346ZM142.708 142.112C141.815 142.07 141.057 142.76 141.015 143.653C140.973 144.547 141.663 145.305 142.556 145.346L142.708 142.112ZM192.69 124.196C163.405 123.448 171.857 122.823 142.556 124.196L142.708 127.43C171.859 126.065 163.25 126.683 192.607 127.433L192.69 124.196ZM192.607 142.109C163.25 142.859 171.859 143.477 142.708 142.112L142.556 145.346C171.857 146.719 163.405 146.094 192.69 145.346L192.607 142.109Z" fill="#4FB6F6"/>
<path d="M139.765 127.122C139.07 126.484 139.065 125.39 139.754 124.746L144.025 120.753C145.065 119.78 146.764 120.527 146.75 121.951L146.675 129.794C146.662 131.196 144.995 131.92 143.962 130.972L139.765 127.122Z" fill="#4FB6F6"/>
<path d="M194.282 144.86C194.977 144.223 194.982 143.128 194.293 142.484L190.022 138.491C188.982 137.519 187.283 138.265 187.297 139.689L187.372 147.532C187.385 148.934 189.052 149.658 190.085 148.71L194.282 144.86Z" fill="#4FB6F6"/>
<defs>
<linearGradient id="paint0_linear" x1="141.022" y1="116.479" x2="-144.783" y2="-44.2388" gradientUnits="userSpaceOnUse">
<stop stop-color="white"/>
<stop offset="1" stop-color="#A7D3FA"/>
</linearGradient>
</defs>
</svg>
