<svg width="72" height="23" viewBox="0 0 72 23" fill="none" xmlns="http://www.w3.org/2000/svg">
<path d="M1.60429 21.0701H0.128906V5.3984C0.128906 4.99094 0.210326 4.58747 0.368513 4.21104C0.526701 3.83462 0.758555 3.49262 1.05083 3.20459C1.3431 2.91656 1.69006 2.68815 2.07189 2.5324C2.45372 2.37665 2.86292 2.29662 3.27613 2.29688H8.48809C12.9684 2.32455 15.3358 5.27387 15.3358 8.5197C15.3358 11.0895 14.133 13.6968 10.5248 14.4203L15.4841 21.0721H11.2143L6.46946 14.7959L6.40331 12.0087C6.40331 11.9038 6.44555 11.8033 6.52073 11.7291C6.59592 11.655 6.6979 11.6133 6.80423 11.6133H8.48809C10.7733 11.6133 11.7516 10.111 11.7516 8.60865C11.7516 7.10632 10.7493 5.60399 8.48809 5.60399H4.32053C4.16103 5.60399 4.00807 5.66647 3.89529 5.77768C3.78251 5.88889 3.71915 6.03973 3.71915 6.19701L3.8294 18.8601C3.83178 19.1496 3.77597 19.4368 3.66519 19.705C3.55441 19.9731 3.39086 20.217 3.18397 20.4225C2.97709 20.6279 2.73098 20.791 2.45984 20.9021C2.18871 21.0133 1.89793 21.0704 1.60429 21.0701Z" fill="#CAD6EE"/>
<path d="M25.0042 10.4152C24.2806 9.45452 22.9194 8.84766 21.5202 8.84766C19.8484 8.84766 18.3389 9.36359 17.2444 10.3875C16.1499 11.4115 15.4844 12.9395 15.4844 14.9341C15.4844 16.9879 16.1178 18.5456 17.1903 19.5874C18.2628 20.6291 19.7582 21.147 21.4601 21.147C22.1839 21.103 22.8917 20.9182 23.5429 20.6034C24.1242 20.3359 24.6275 19.9279 25.0062 19.4174L25.1265 21.147H27.9931V9.15603H25.0543L25.0042 10.4152ZM24.8659 14.9618C24.8771 15.7996 24.5938 16.6154 24.0641 17.2706C23.775 17.6099 23.4115 17.8798 23.0009 18.0599C22.5904 18.2401 22.1437 18.3257 21.6946 18.3104C21.2725 18.3211 20.8524 18.249 20.4587 18.0983C20.0651 17.9477 19.7057 17.7214 19.4014 17.4327C18.826 16.8673 18.4712 16.049 18.4712 14.9934C18.4574 14.5433 18.5355 14.0951 18.7008 13.6754C18.8661 13.2557 19.1152 12.873 19.4334 12.5501C20.0439 11.9665 20.8566 11.6337 21.7067 11.6191C22.1554 11.604 22.6017 11.6898 23.0119 11.87C23.422 12.0501 23.7853 12.3199 24.0741 12.6588C24.6009 13.3151 24.8814 14.1308 24.8679 14.9677L24.8659 14.9618Z" fill="#CAD6EE"/>
<path d="M35.6561 17.9055C35.2469 18.1302 34.7874 18.2512 34.319 18.2574C34.1331 18.2674 33.9471 18.2392 33.7729 18.1745C33.5986 18.1099 33.4398 18.0102 33.3067 17.8818C33.031 17.5594 32.893 17.1441 32.9218 16.7234V11.7459H36.2114V8.97849H32.982L32.9459 5.22266L29.8047 5.61801V16.7234C29.8047 18.2218 30.2216 19.3644 30.9834 20.1175C31.7451 20.8706 32.8336 21.2146 34.1386 21.1533C35.0126 21.1533 35.6982 20.9556 36.5562 20.6532L36.6704 20.6117L35.7944 17.8264L35.6561 17.9055Z" fill="#CAD6EE"/>
<path d="M48.3653 10.3194C47.2849 9.06215 45.6451 8.4375 43.6686 8.4375C41.7482 8.4375 40.1605 9.1096 39.058 10.2443C37.9555 11.3789 37.332 12.9623 37.332 14.773C37.332 16.7063 37.9494 18.3312 39.0901 19.4579C40.2307 20.5847 41.8785 21.237 43.9171 21.237C45.7674 21.237 47.8181 20.6163 49.067 19.2919L49.1491 19.2049L47.1445 17.1787L47.0543 17.2795C46.6856 17.6384 46.2334 17.9031 45.7373 18.0505C45.1916 18.2372 44.619 18.336 44.0414 18.343C43.0572 18.343 42.2633 18.088 41.696 17.661C41.4273 17.4637 41.2007 17.216 41.0294 16.932C40.8581 16.6481 40.7454 16.3335 40.6978 16.0065H49.6944L49.7064 15.8938C49.951 13.4367 49.4458 11.5766 48.3653 10.3194ZM40.7318 13.3576C40.9189 12.7521 41.3109 12.2281 41.8424 11.8731C42.4418 11.5017 43.1394 11.314 43.847 11.3334C44.5556 11.3026 45.2564 11.4905 45.8516 11.8711C46.0963 12.0456 46.3025 12.2674 46.4575 12.523C46.6126 12.7785 46.7134 13.0625 46.7537 13.3576H40.7399H40.7318Z" fill="#CAD6EE"/>
<path d="M71.1199 5.01562L62.467 9.32545V13.6353L66.7934 15.7902L58.1406 20.1L62.467 22.2549L71.1199 17.9451V13.6353L66.7934 11.4804L71.1199 9.32545V5.01562Z" fill="url(#paint0_linear)"/>
<path d="M71.1199 5.01562L62.467 9.32545V13.6353L66.7934 15.7902L58.1406 20.1L62.467 22.2549L71.1199 17.9451V13.6353L66.7934 11.4804L71.1199 9.32545V5.01562Z" fill="#CAD6EE"/>
<path d="M53.5859 4.7942L57.9123 6.94911L62.2388 4.7942L66.5652 6.94911L70.8916 4.7942L62.2388 0.484375L53.5859 4.7942Z" fill="url(#paint1_linear)"/>
<path d="M53.5859 4.7942L57.9123 6.94911L62.2388 4.7942L66.5652 6.94911L70.8916 4.7942L62.2388 0.484375L53.5859 4.7942Z" fill="#CAD6EE"/>
<path d="M57.9123 15.5703L53.5859 17.7252L57.9123 19.8801L62.2388 17.7252L57.9123 15.5703Z" fill="url(#paint2_linear)"/>
<path d="M57.9123 15.5703L53.5859 17.7252L57.9123 19.8801L62.2388 17.7252L57.9123 15.5703Z" fill="#CAD6EE"/>
<defs>
<linearGradient id="paint0_linear" x1="64.6302" y1="5.01562" x2="64.6302" y2="22.2549" gradientUnits="userSpaceOnUse">
<stop stop-color="#54F2F2"/>
<stop offset="0.777" stop-color="#56D3F8"/>
<stop offset="0.9649" stop-color="#56CBF9"/>
</linearGradient>
<linearGradient id="paint1_linear" x1="62.2388" y1="0.484375" x2="62.2388" y2="6.94911" gradientUnits="userSpaceOnUse">
<stop stop-color="#54F2F2"/>
<stop offset="0.5" stop-color="#56CBF9"/>
<stop offset="1" stop-color="#4392F1"/>
</linearGradient>
<linearGradient id="paint2_linear" x1="57.9123" y1="15.5703" x2="57.9123" y2="19.8801" gradientUnits="userSpaceOnUse">
<stop stop-color="#54F2F2"/>
<stop offset="0.5" stop-color="#56CBF9"/>
<stop offset="1" stop-color="#4392F1"/>
</linearGradient>
</defs>
</svg>
