<svg width="387" height="192" viewBox="0 0 387 192" fill="none" xmlns="http://www.w3.org/2000/svg">
<rect x="0.730469" y="0.550781" width="385.383" height="190.9" rx="10" fill="white"/>
<rect x="13.7227" y="12.4023" width="361.589" height="168.785" rx="10" fill="white"/>
<rect x="13.7227" y="12.4023" width="361.589" height="168.785" rx="10" fill="url(#paint0_linear)"/>
<path d="M154.38 92.9931C155.445 94.7694 157.394 95.8722 159.467 95.8722C160.334 95.8722 161.185 95.6711 161.97 95.3051C162.153 95.2195 162.336 95.1325 162.51 95.029C162.553 95.002 162.588 94.966 162.63 94.939C162.855 94.7965 163.06 94.6359 163.259 94.4694C165.449 92.63 166.06 89.4269 164.541 86.8959L164.154 86.2522L163.731 85.5501L163.316 84.8614L160.531 80.2405C160.49 80.1745 156.492 73.5402 158.249 66.4963C158.261 66.4647 159.557 63.3066 162.337 63.3066C164.012 63.3066 165.947 64.3913 168.089 66.5338C168.089 66.5338 174.97 73.3391 177.838 76.2077C180.422 78.7912 180.404 81.4363 180.402 81.5653V85.4181V86.9259V89.1163V93.3442V95.5361V97.0439V99.6649C180.402 102.455 182.674 104.727 185.466 104.727C188.258 104.727 190.53 102.455 190.53 99.6649V74.8799C190.53 70.9762 189.662 67.8945 189.608 67.713L184.558 53.9492C184.035 52.917 181.207 47.711 177.025 46.6668L147.624 37.2509C147.549 37.2268 147.472 37.2148 147.394 37.2148C147.225 37.2148 147.057 37.2734 146.92 37.3844L126.26 54.2358C126.135 54.3378 126.045 54.4773 126.006 54.6349C124.18 61.9353 132.964 73.4622 139.861 75.1875C146.256 76.7868 152.284 89.4644 152.38 89.6579L154.38 92.9931ZM140.226 73.7322C133.56 72.0639 126.15 61.2962 127.407 55.235L147.555 38.8022L176.616 48.107C180.287 49.0252 182.93 54.0557 183.196 54.5673L188.182 68.1766C188.191 68.2066 189.028 71.1847 189.028 74.8799V99.6649C189.028 101.629 187.43 103.227 185.464 103.227C183.499 103.227 181.901 101.629 181.901 99.6649V93.5287V88.9348V81.5893C181.904 81.4528 181.961 78.2121 178.898 75.15C176.028 72.2799 169.146 65.4715 169.146 65.4715C166.714 63.041 164.423 61.8078 162.336 61.8078C158.527 61.8078 156.92 65.7776 156.824 66.0387C154.881 73.8042 159.074 80.7371 159.25 81.0207L162.403 86.2537L162.864 87.0174L163.257 87.67C163.286 87.7165 163.299 87.7675 163.325 87.814C164.235 89.4659 163.974 91.4583 162.796 92.8251C162.606 93.0471 162.393 93.2481 162.154 93.4312C162.018 93.5362 161.89 93.6517 161.737 93.7417C161.659 93.7882 161.569 93.8063 161.488 93.8483C160.86 94.1738 160.172 94.3719 159.464 94.3719C157.892 94.3719 156.471 93.5692 155.662 92.2219L153.699 88.9528C153.445 88.4052 147.309 75.5056 140.226 73.7322Z" fill="#4FB6F6"/>
<path d="M140.226 73.7322C133.56 72.0639 126.15 61.2962 127.407 55.235L147.555 38.8022L176.616 48.107C180.287 49.0252 182.93 54.0557 183.196 54.5673L188.182 68.1766C188.191 68.2066 189.028 71.1847 189.028 74.8799V99.6649C189.028 101.629 187.43 103.227 185.464 103.227C183.499 103.227 181.901 101.629 181.901 99.6649V93.5287V88.9348V81.5893C181.904 81.4528 181.961 78.2121 178.898 75.15C176.028 72.2799 169.146 65.4715 169.146 65.4715C166.714 63.041 164.423 61.8078 162.336 61.8078C158.527 61.8078 156.92 65.7776 156.824 66.0387C154.881 73.8042 159.074 80.7371 159.25 81.0207L162.403 86.2537L162.864 87.0174L163.257 87.67C163.286 87.7165 163.299 87.7675 163.325 87.814C164.235 89.4659 163.974 91.4583 162.796 92.8251C162.606 93.0471 162.393 93.2481 162.154 93.4312C162.018 93.5362 161.89 93.6517 161.737 93.7417C161.659 93.7882 161.569 93.8063 161.488 93.8483C160.86 94.1738 160.172 94.3719 159.464 94.3719C157.892 94.3719 156.471 93.5692 155.662 92.2219L153.699 88.9528C153.445 88.4052 147.309 75.5056 140.226 73.7322Z" fill="#4FB6F6"/>
<path d="M202.092 122.174C233.529 122.493 229.552 121.698 260.342 121.857L260.342 147.589C243.1 147.16 229.914 147.362 227.546 148.753C219.138 153.694 211.986 155.002 207.784 154.758C193.495 153.931 186.862 153.844 165.724 148.753C162.049 147.868 157.805 146.157 158.144 142.766C158.555 138.659 163.194 138.35 165.724 138.271C187.712 139.346 195.71 139.156 216.265 137.785C217.114 137.785 219.953 137.785 219.851 134.616C219.851 131.648 217.922 131.081 216.985 130.976H202.092C198.127 130.976 196.614 128.794 196.614 126.525C196.614 124.257 198.244 122.021 202.092 122.174Z" fill="#4FB6F6"/>
<path d="M163.307 96.0554C163.094 96.2174 162.897 96.3921 162.665 96.5351C162.651 96.5446 162.64 96.5573 162.624 96.5652C162.411 96.6923 162.187 96.7955 161.965 96.9019C163.914 100.134 167.447 102.307 171.488 102.307C174.463 102.307 177.163 101.127 179.161 99.2176V98.082V96.8209V85.5412V84.2833V83.1477C177.163 81.2387 174.463 80.0586 171.488 80.0586C168.488 80.0586 165.767 81.2577 163.764 83.1938L164.179 83.8831L164.609 84.5962L165.321 85.7763C167.401 89.245 166.458 93.6635 163.307 96.0554Z" fill="#4FB6F6"/>
<defs>
<linearGradient id="paint0_linear" x1="163.753" y1="74.648" x2="-164.298" y2="-112.465" gradientUnits="userSpaceOnUse">
<stop stop-color="white"/>
<stop offset="1" stop-color="#A7D3FA"/>
</linearGradient>
</defs>
</svg>
