<svg width="387" height="192" viewBox="0 0 387 192" fill="none" xmlns="http://www.w3.org/2000/svg">
<rect x="0.820312" y="0.550781" width="385.383" height="190.9" rx="10" fill="white"/>
<rect x="12.7188" y="11.6094" width="361.589" height="168.785" rx="10" fill="white"/>
<rect x="12.7188" y="11.6094" width="361.589" height="168.785" rx="10" fill="url(#paint0_linear)"/>
<path fill-rule="evenodd" clip-rule="evenodd" d="M242.328 42.3789H144.699C143.043 42.3789 141.699 43.7227 141.699 45.3789V136.379C141.699 137.09 141.945 137.738 142.355 138.254C142.906 138.941 143.75 139.379 144.699 139.379H153.762C154.695 139.379 155.531 139.809 156.082 140.48C156.508 140.996 156.762 141.66 156.762 142.379V146.621C156.762 146.879 156.793 147.129 156.852 147.363C156.953 147.762 157.137 148.129 157.379 148.449C157.93 149.16 158.793 149.621 159.762 149.621H171.844C173.5 149.621 174.844 148.277 174.844 146.621V142.379C174.844 141.957 174.93 141.551 175.09 141.184C175.172 140.996 175.273 140.816 175.395 140.645C175.938 139.879 176.832 139.379 177.844 139.379H210.395C212.051 139.379 213.395 140.723 213.395 142.379V146.621C213.395 148.277 214.738 149.621 216.395 149.621H228.469C230.125 149.621 231.469 148.277 231.469 146.621V142.379C231.469 140.723 232.812 139.379 234.469 139.379H242.328C243.984 139.379 245.328 138.035 245.328 136.379V45.3789C245.328 44.543 244.984 43.7852 244.434 43.2383C243.891 42.707 243.148 42.3789 242.328 42.3789ZM198.609 98.9727C204.777 96.8555 209.211 91.0039 209.211 84.1211C209.211 75.4492 202.184 68.418 193.512 68.418C188.148 68.418 183.414 71.1133 180.582 75.2148C178.836 77.7461 177.812 80.8164 177.812 84.1211C177.812 91.0039 182.246 96.8555 188.414 98.9727V113.941H198.609V98.9727Z" fill="#4FB6F6"/>
<defs>
<linearGradient id="paint0_linear" x1="162.749" y1="73.855" x2="-165.302" y2="-113.258" gradientUnits="userSpaceOnUse">
<stop stop-color="white"/>
<stop offset="1" stop-color="#A7D3FA"/>
</linearGradient>
</defs>
</svg>
