<svg width="720" height="219" viewBox="0 0 720 219" fill="none" xmlns="http://www.w3.org/2000/svg">
<rect x="384.191" y="50.5781" width="335.206" height="166.045" rx="10" fill="white"/>
<rect x="395.367" y="59.543" width="312.858" height="148.126" rx="10" fill="url(#paint0_linear)"/>
<path d="M439.612 19.463C439.612 18.683 439.602 17.913 439.582 17.153C439.582 16.393 439.522 15.653 439.402 14.933C439.282 14.193 439.072 13.493 438.772 12.833C438.472 12.153 438.032 11.523 437.452 10.943C436.772 10.263 435.962 9.76297 435.022 9.44297C434.082 9.10297 433.052 8.93297 431.932 8.93297H424.432V30.293H431.932C433.052 30.293 434.082 30.133 435.022 29.813C435.962 29.473 436.772 28.963 437.452 28.283C438.032 27.703 438.472 27.063 438.772 26.363C439.072 25.663 439.282 24.933 439.402 24.173C439.522 23.413 439.582 22.633 439.582 21.833C439.602 21.033 439.612 20.243 439.612 19.463ZM436.372 19.463C436.372 20.943 436.322 22.243 436.222 23.363C436.122 24.463 435.792 25.323 435.232 25.943C434.352 26.903 433.142 27.383 431.602 27.383H427.672V11.843H431.602C433.142 11.843 434.352 12.323 435.232 13.283C435.792 13.903 436.122 14.723 436.222 15.743C436.322 16.743 436.372 17.983 436.372 19.463ZM447.202 12.083V8.84297H443.962V12.083H447.202ZM447.112 30.293V15.083H444.052V30.293H447.112ZM462.642 16.343C462.122 15.823 461.572 15.453 460.992 15.233C460.412 15.013 459.752 14.903 459.012 14.903C458.152 14.903 457.362 15.073 456.642 15.413C455.922 15.753 455.362 16.193 454.962 16.733V15.083H451.962V30.293H455.022V21.053C455.022 19.993 455.312 19.163 455.892 18.563C456.492 17.943 457.212 17.633 458.052 17.633C458.572 17.633 458.992 17.723 459.312 17.903C459.652 18.063 459.992 18.313 460.332 18.653L462.642 16.343ZM476.299 23.573V22.223C476.299 21.143 476.149 20.153 475.849 19.253C475.569 18.353 475.149 17.583 474.589 16.943C474.049 16.303 473.379 15.803 472.579 15.443C471.779 15.083 470.869 14.903 469.849 14.903C467.889 14.903 466.319 15.583 465.139 16.943C463.979 18.283 463.399 20.193 463.399 22.673C463.399 24.113 463.579 25.333 463.939 26.333C464.299 27.333 464.779 28.143 465.379 28.763C465.999 29.363 466.719 29.803 467.539 30.083C468.379 30.343 469.279 30.473 470.239 30.473C470.899 30.473 471.489 30.423 472.009 30.323C472.549 30.223 473.039 30.073 473.479 29.873C473.939 29.673 474.359 29.433 474.739 29.153C475.139 28.853 475.539 28.503 475.939 28.103L473.989 26.273C473.449 26.813 472.909 27.213 472.369 27.473C471.849 27.713 471.159 27.833 470.299 27.833C469.039 27.833 468.079 27.453 467.419 26.693C466.759 25.933 466.429 24.893 466.429 23.573H476.299ZM473.269 21.443H466.429C466.449 20.983 466.479 20.613 466.519 20.333C466.559 20.033 466.659 19.713 466.819 19.373C467.059 18.793 467.439 18.333 467.959 17.993C468.499 17.633 469.129 17.453 469.849 17.453C470.569 17.453 471.189 17.633 471.709 17.993C472.229 18.333 472.609 18.793 472.849 19.373C473.009 19.713 473.109 20.033 473.149 20.333C473.209 20.613 473.249 20.983 473.269 21.443ZM491.361 28.313L489.261 26.303C488.781 26.823 488.321 27.193 487.881 27.413C487.461 27.633 486.951 27.743 486.351 27.743C485.151 27.743 484.211 27.293 483.531 26.393C483.191 25.973 482.951 25.473 482.811 24.893C482.691 24.313 482.631 23.573 482.631 22.673C482.631 21.773 482.691 21.043 482.811 20.483C482.951 19.903 483.191 19.403 483.531 18.983C484.211 18.083 485.151 17.633 486.351 17.633C486.951 17.633 487.461 17.743 487.881 17.963C488.321 18.183 488.781 18.553 489.261 19.073L491.361 17.033C490.641 16.273 489.891 15.733 489.111 15.413C488.331 15.073 487.411 14.903 486.351 14.903C485.491 14.903 484.651 15.043 483.831 15.323C483.031 15.603 482.311 16.053 481.671 16.673C481.051 17.273 480.541 18.073 480.141 19.073C479.761 20.053 479.571 21.253 479.571 22.673C479.571 24.093 479.761 25.303 480.141 26.303C480.541 27.283 481.051 28.083 481.671 28.703C482.311 29.323 483.031 29.773 483.831 30.053C484.651 30.333 485.491 30.473 486.351 30.473C487.411 30.473 488.331 30.303 489.111 29.963C489.891 29.623 490.641 29.073 491.361 28.313ZM501.271 30.293V27.683H500.011C499.431 27.683 499.001 27.533 498.721 27.233C498.461 26.913 498.331 26.473 498.331 25.913V17.693H501.271V15.353H498.331V10.733H495.271V15.353H493.531V17.693H495.271V26.063C495.271 26.603 495.351 27.133 495.511 27.653C495.691 28.153 495.951 28.603 496.291 29.003C496.631 29.383 497.061 29.693 497.581 29.933C498.101 30.173 498.721 30.293 499.441 30.293H501.271ZM511.135 30.293V27.683H509.785C509.165 27.683 508.735 27.533 508.495 27.233C508.255 26.933 508.135 26.493 508.135 25.913V8.93297H505.075V26.093C505.075 26.653 505.155 27.193 505.315 27.713C505.475 28.213 505.725 28.653 506.065 29.033C506.405 29.413 506.835 29.723 507.355 29.963C507.895 30.183 508.525 30.293 509.245 30.293H511.135ZM525.093 15.083H521.823L518.283 25.793L514.653 15.083H511.413L516.723 29.573L515.883 31.943C515.663 32.563 515.403 32.983 515.103 33.203C514.803 33.443 514.333 33.563 513.693 33.563H512.913V36.323H514.143C514.723 36.323 515.283 36.243 515.823 36.083C516.363 35.923 516.843 35.633 517.263 35.213C517.723 34.753 518.093 34.123 518.373 33.323L525.093 15.083ZM554.463 15.083H551.193L548.253 25.793L544.743 15.083H542.373L538.833 25.793L535.893 15.083H532.653L537.363 30.293H540.003L543.543 19.673L547.113 30.293H549.723L554.463 15.083ZM560.288 12.083V8.84297H557.048V12.083H560.288ZM560.198 30.293V15.083H557.138V30.293H560.198ZM571.408 30.293V27.683H570.148C569.568 27.683 569.138 27.533 568.858 27.233C568.598 26.913 568.468 26.473 568.468 25.913V17.693H571.408V15.353H568.468V10.733H565.408V15.353H563.668V17.693H565.408V26.063C565.408 26.603 565.488 27.133 565.648 27.653C565.828 28.153 566.088 28.603 566.428 29.003C566.768 29.383 567.198 29.693 567.718 29.933C568.238 30.173 568.858 30.293 569.578 30.293H571.408ZM587.572 30.293V20.483C587.572 19.663 587.452 18.913 587.212 18.233C586.992 17.533 586.652 16.943 586.192 16.463C585.752 15.963 585.202 15.583 584.542 15.323C583.882 15.043 583.132 14.903 582.292 14.903C581.532 14.903 580.812 15.043 580.132 15.323C579.472 15.603 578.882 16.033 578.362 16.613V8.93297H575.302V30.293H578.362V20.963C578.362 19.823 578.662 18.983 579.262 18.443C579.862 17.903 580.592 17.633 581.452 17.633C582.312 17.633 583.032 17.903 583.612 18.443C584.212 18.963 584.512 19.803 584.512 20.963V30.293H587.572ZM603.101 30.293V8.93297H599.861V30.293H603.101ZM619.57 25.643C619.57 24.283 619.17 23.263 618.37 22.583C617.59 21.883 616.48 21.473 615.04 21.353L612.64 21.143C611.82 21.063 611.26 20.873 610.96 20.573C610.68 20.253 610.54 19.863 610.54 19.403C610.54 18.823 610.77 18.353 611.23 17.993C611.69 17.633 612.38 17.453 613.3 17.453C614.02 17.453 614.7 17.543 615.34 17.723C616 17.883 616.57 18.163 617.05 18.563L618.97 16.613C618.27 15.993 617.44 15.553 616.48 15.293C615.52 15.033 614.47 14.903 613.33 14.903C612.53 14.903 611.78 15.013 611.08 15.233C610.4 15.433 609.8 15.733 609.28 16.133C608.76 16.513 608.35 16.993 608.05 17.573C607.75 18.153 607.6 18.813 607.6 19.553C607.6 20.893 607.99 21.903 608.77 22.583C609.55 23.243 610.66 23.633 612.1 23.753L614.53 23.963C615.27 24.023 615.79 24.213 616.09 24.533C616.41 24.833 616.57 25.243 616.57 25.763C616.57 26.483 616.25 27.013 615.61 27.353C614.97 27.693 614.18 27.863 613.24 27.863C612.48 27.863 611.71 27.763 610.93 27.563C610.17 27.343 609.48 26.913 608.86 26.273L606.85 28.283C607.75 29.163 608.73 29.753 609.79 30.053C610.85 30.333 612 30.473 613.24 30.473C614.14 30.473 614.98 30.373 615.76 30.173C616.54 29.973 617.21 29.673 617.77 29.273C618.33 28.853 618.77 28.343 619.09 27.743C619.41 27.143 619.57 26.443 619.57 25.643ZM634.247 25.643C634.247 24.283 633.847 23.263 633.047 22.583C632.267 21.883 631.157 21.473 629.717 21.353L627.317 21.143C626.497 21.063 625.937 20.873 625.637 20.573C625.357 20.253 625.217 19.863 625.217 19.403C625.217 18.823 625.447 18.353 625.907 17.993C626.367 17.633 627.057 17.453 627.977 17.453C628.697 17.453 629.377 17.543 630.017 17.723C630.677 17.883 631.247 18.163 631.727 18.563L633.647 16.613C632.947 15.993 632.117 15.553 631.157 15.293C630.197 15.033 629.147 14.903 628.007 14.903C627.207 14.903 626.457 15.013 625.757 15.233C625.077 15.433 624.477 15.733 623.957 16.133C623.437 16.513 623.027 16.993 622.727 17.573C622.427 18.153 622.277 18.813 622.277 19.553C622.277 20.893 622.667 21.903 623.447 22.583C624.227 23.243 625.337 23.633 626.777 23.753L629.207 23.963C629.947 24.023 630.467 24.213 630.767 24.533C631.087 24.833 631.247 25.243 631.247 25.763C631.247 26.483 630.927 27.013 630.287 27.353C629.647 27.693 628.857 27.863 627.917 27.863C627.157 27.863 626.387 27.763 625.607 27.563C624.847 27.343 624.157 26.913 623.537 26.273L621.527 28.283C622.427 29.163 623.407 29.753 624.467 30.053C625.527 30.333 626.677 30.473 627.917 30.473C628.817 30.473 629.657 30.373 630.437 30.173C631.217 29.973 631.887 29.673 632.447 29.273C633.007 28.853 633.447 28.343 633.767 27.743C634.087 27.143 634.247 26.443 634.247 25.643ZM650.148 30.293V15.083H647.088V24.353C647.088 24.933 646.998 25.443 646.818 25.883C646.658 26.303 646.438 26.653 646.158 26.933C645.878 27.213 645.538 27.423 645.138 27.563C644.758 27.683 644.358 27.743 643.938 27.743C643.078 27.743 642.348 27.473 641.748 26.933C641.168 26.393 640.878 25.533 640.878 24.353V15.083H637.818V24.803C637.818 25.663 637.928 26.453 638.148 27.173C638.368 27.873 638.768 28.513 639.348 29.093C639.808 29.533 640.348 29.873 640.968 30.113C641.608 30.353 642.318 30.473 643.098 30.473C643.858 30.473 644.588 30.333 645.288 30.053C646.008 29.773 646.628 29.343 647.148 28.763V30.293H650.148ZM667.139 23.573V22.223C667.139 21.143 666.989 20.153 666.689 19.253C666.409 18.353 665.989 17.583 665.429 16.943C664.889 16.303 664.219 15.803 663.419 15.443C662.619 15.083 661.709 14.903 660.689 14.903C658.729 14.903 657.159 15.583 655.979 16.943C654.819 18.283 654.239 20.193 654.239 22.673C654.239 24.113 654.419 25.333 654.779 26.333C655.139 27.333 655.619 28.143 656.219 28.763C656.839 29.363 657.559 29.803 658.379 30.083C659.219 30.343 660.119 30.473 661.079 30.473C661.739 30.473 662.329 30.423 662.849 30.323C663.389 30.223 663.879 30.073 664.319 29.873C664.779 29.673 665.199 29.433 665.579 29.153C665.979 28.853 666.379 28.503 666.779 28.103L664.829 26.273C664.289 26.813 663.749 27.213 663.209 27.473C662.689 27.713 661.999 27.833 661.139 27.833C659.879 27.833 658.919 27.453 658.259 26.693C657.599 25.933 657.269 24.893 657.269 23.573H667.139ZM664.109 21.443H657.269C657.289 20.983 657.319 20.613 657.359 20.333C657.399 20.033 657.499 19.713 657.659 19.373C657.899 18.793 658.279 18.333 658.799 17.993C659.339 17.633 659.969 17.453 660.689 17.453C661.409 17.453 662.029 17.633 662.549 17.993C663.069 18.333 663.449 18.793 663.689 19.373C663.849 19.713 663.949 20.033 663.989 20.333C664.049 20.613 664.089 20.983 664.109 21.443ZM681.871 16.343C681.351 15.823 680.801 15.453 680.221 15.233C679.641 15.013 678.981 14.903 678.241 14.903C677.381 14.903 676.591 15.073 675.871 15.413C675.151 15.753 674.591 16.193 674.191 16.733V15.083H671.191V30.293H674.251V21.053C674.251 19.993 674.541 19.163 675.121 18.563C675.721 17.943 676.441 17.633 677.281 17.633C677.801 17.633 678.221 17.723 678.541 17.903C678.881 18.063 679.221 18.313 679.561 18.653L681.871 16.343Z" fill="white"/>
<path d="M422.999 90.543V86.103H415.259L420.359 80.703C422.069 78.903 422.999 77.703 422.999 75.453C422.999 71.433 420.119 69.003 416.159 69.003C412.439 69.003 409.259 71.313 409.259 75.513H414.179C414.179 73.863 415.259 73.443 416.159 73.443C417.419 73.443 418.079 74.253 418.079 75.423C418.079 76.323 417.779 76.863 416.999 77.703L409.259 86.103V90.543H422.999Z" fill="#4FB6F6"/>
<path d="M488.597 148.866C494.046 151.424 502.312 154.097 504.091 158.127C505.759 162.195 505.092 164.598 505.092 164.598H446.043C446.043 164.598 445.338 162.195 447.043 158.127C448.749 154.058 456.978 151.346 462.464 148.827C467.95 146.309 467.394 144.759 467.579 142.667C467.579 142.395 467.616 142.124 467.616 141.853C465.689 140.109 464.095 137.668 463.094 134.878L463.057 134.84C463.057 134.801 463.02 134.762 463.02 134.723C462.76 134.142 462.575 133.483 462.427 132.825C461.166 132.592 460.425 131.159 460.128 129.802C459.832 129.26 459.239 127.942 459.387 126.431C459.572 124.455 460.351 123.564 461.203 123.215C461.203 123.099 461.203 123.022 461.203 122.905C461.203 120.425 461.389 116.899 461.834 114.575C461.908 113.916 462.056 113.257 462.241 112.637C463.057 109.77 464.762 107.213 467.023 105.43C469.321 103.57 472.62 102.602 475.549 102.602C478.477 102.602 481.776 103.57 484.112 105.43C486.41 107.213 488.078 109.809 488.893 112.637C489.079 113.296 489.227 113.916 489.301 114.575C489.709 116.899 489.931 120.464 489.931 122.905C489.931 123.022 489.931 123.138 489.931 123.254C490.747 123.603 491.488 124.494 491.674 126.431C491.785 127.942 491.229 129.26 490.932 129.802C490.673 131.12 489.931 132.553 488.671 132.825C488.523 133.445 488.337 134.103 488.115 134.685C488.078 134.723 488.041 134.878 488.041 134.878C487.04 137.629 485.52 140.032 483.63 141.775C483.63 142.085 483.63 142.395 483.667 142.667C483.852 144.798 483.111 146.348 488.597 148.866Z" fill="#4FB6F6"/>
<path fill-rule="evenodd" clip-rule="evenodd" d="M656.684 118.163C656.684 116.665 655.848 115.293 654.516 114.607L625.078 99.4435C623.929 98.8515 622.564 98.8515 621.415 99.4435L591.977 114.607C590.645 115.293 589.809 116.665 589.809 118.163V120.338C589.809 122.547 591.599 124.338 593.809 124.338H596.448C598.657 124.338 600.448 126.129 600.448 128.338V147.697C600.448 149.906 598.657 151.697 596.448 151.697H593.809C591.599 151.697 589.809 153.488 589.809 155.697V160.599C589.809 162.808 591.599 164.599 593.809 164.599H652.684C654.894 164.599 656.684 162.808 656.684 160.599V155.697C656.684 153.488 654.894 151.697 652.684 151.697H650.045C647.836 151.697 646.045 149.906 646.045 147.697V128.338C646.045 126.129 647.836 124.338 650.045 124.338H652.684C654.894 124.338 656.684 122.547 656.684 120.338V118.163ZM610.074 128.338C610.074 126.129 611.865 124.338 614.074 124.338H614.687C616.896 124.338 618.687 126.129 618.687 128.338V147.697C618.687 149.906 616.896 151.697 614.687 151.697H614.074C611.865 151.697 610.074 149.906 610.074 147.697V128.338ZM636.42 128.338C636.42 126.129 634.629 124.338 632.42 124.338H631.807C629.598 124.338 627.807 126.129 627.807 128.338V147.697C627.807 149.906 629.598 151.697 631.807 151.697H632.42C634.629 151.697 636.42 149.906 636.42 147.697V128.338Z" fill="#4FB6F6"/>
<path d="M573.4 151.177C574.294 151.163 575.008 150.426 574.994 149.532C574.98 148.638 574.244 147.925 573.35 147.938L573.4 151.177ZM517.506 119.551C516.612 119.551 515.887 120.276 515.887 121.17C515.887 122.064 516.612 122.789 517.506 122.789L517.506 119.551ZM573.35 147.938C566.599 148.044 561.793 146.408 557.884 143.939C553.916 141.432 550.815 138.039 547.468 134.428C544.165 130.864 540.64 127.11 535.959 124.281C531.234 121.426 525.406 119.551 517.506 119.551L517.506 122.789C524.843 122.789 530.088 124.517 534.284 127.053C538.524 129.616 541.768 133.041 545.093 136.629C548.375 140.171 551.763 143.902 556.155 146.677C560.606 149.489 566.033 151.291 573.4 151.177L573.35 147.938Z" fill="#4FB6F6"/>
<path d="M573.4 119.554C574.294 119.568 575.008 120.304 574.994 121.198C574.98 122.092 574.244 122.806 573.35 122.792L573.4 119.554ZM517.506 151.18C516.612 151.18 515.887 150.455 515.887 149.561C515.887 148.666 516.612 147.941 517.506 147.941L517.506 151.18ZM550.78 132.782C550.156 133.422 549.131 133.435 548.491 132.81C547.85 132.186 547.838 131.161 548.462 130.52L550.78 132.782ZM541.382 137.981C542.018 137.352 543.044 137.358 543.672 137.994C544.301 138.631 544.294 139.656 543.658 140.284L541.382 137.981ZM573.35 122.792C567.718 122.704 563.451 123.829 559.937 125.621C556.402 127.425 553.547 129.945 550.78 132.782L548.462 130.52C551.325 127.586 554.469 124.776 558.465 122.737C562.481 120.687 567.276 119.458 573.4 119.554L573.35 122.792ZM543.658 140.284C537.742 146.129 530.47 151.18 517.506 151.18L517.506 147.941C529.377 147.941 535.876 143.42 541.382 137.981L543.658 140.284Z" fill="#4FB6F6"/>
<path d="M514.636 122.489C513.941 121.852 513.936 120.757 514.625 120.113L518.896 116.12C519.936 115.147 521.635 115.894 521.621 117.318L521.546 125.161C521.533 126.563 519.866 127.287 518.833 126.339L514.636 122.489Z" fill="#4FB6F6"/>
<path d="M576.239 122.49C576.934 121.852 576.939 120.758 576.25 120.114L571.979 116.121C570.939 115.148 569.241 115.895 569.254 117.319L569.329 125.161C569.342 126.563 571.01 127.287 572.043 126.339L576.239 122.49Z" fill="#4FB6F6"/>
<rect x="0.0351562" y="52.8867" width="335.206" height="166.045" rx="10" fill="white"/>
<rect x="11.2109" y="61.8516" width="312.858" height="148.126" rx="10" fill="url(#paint1_linear)"/>
<path d="M95.3814 15.413C95.3814 14.493 95.2214 13.633 94.9014 12.833C94.5814 12.033 94.1214 11.353 93.5214 10.793C92.9214 10.213 92.2014 9.76297 91.3614 9.44297C90.5214 9.10297 89.5814 8.93297 88.5414 8.93297H80.4414V30.293H83.6814V21.893H88.5414C89.5814 21.893 90.5214 21.733 91.3614 21.413C92.2014 21.073 92.9214 20.623 93.5214 20.063C94.1214 19.483 94.5814 18.803 94.9014 18.023C95.2214 17.223 95.3814 16.353 95.3814 15.413ZM92.1414 15.413C92.1414 16.553 91.7914 17.433 91.0914 18.053C90.4114 18.653 89.5014 18.953 88.3614 18.953H83.6814V11.843H88.3614C89.5014 11.843 90.4114 12.153 91.0914 12.773C91.7914 13.393 92.1414 14.273 92.1414 15.413ZM110.776 23.573V22.223C110.776 21.143 110.626 20.153 110.326 19.253C110.046 18.353 109.626 17.583 109.066 16.943C108.526 16.303 107.856 15.803 107.056 15.443C106.256 15.083 105.346 14.903 104.326 14.903C102.366 14.903 100.796 15.583 99.6156 16.943C98.4556 18.283 97.8756 20.193 97.8756 22.673C97.8756 24.113 98.0556 25.333 98.4156 26.333C98.7756 27.333 99.2556 28.143 99.8556 28.763C100.476 29.363 101.196 29.803 102.016 30.083C102.856 30.343 103.756 30.473 104.716 30.473C105.376 30.473 105.966 30.423 106.486 30.323C107.026 30.223 107.516 30.073 107.956 29.873C108.416 29.673 108.836 29.433 109.216 29.153C109.616 28.853 110.016 28.503 110.416 28.103L108.466 26.273C107.926 26.813 107.386 27.213 106.846 27.473C106.326 27.713 105.636 27.833 104.776 27.833C103.516 27.833 102.556 27.453 101.896 26.693C101.236 25.933 100.906 24.893 100.906 23.573H110.776ZM107.746 21.443H100.906C100.926 20.983 100.956 20.613 100.996 20.333C101.036 20.033 101.136 19.713 101.296 19.373C101.536 18.793 101.916 18.333 102.436 17.993C102.976 17.633 103.606 17.453 104.326 17.453C105.046 17.453 105.666 17.633 106.186 17.993C106.706 18.333 107.086 18.793 107.326 19.373C107.486 19.713 107.586 20.033 107.626 20.333C107.686 20.613 107.726 20.983 107.746 21.443ZM126.947 23.573V22.223C126.947 21.143 126.797 20.153 126.497 19.253C126.217 18.353 125.797 17.583 125.237 16.943C124.697 16.303 124.027 15.803 123.227 15.443C122.427 15.083 121.517 14.903 120.497 14.903C118.537 14.903 116.967 15.583 115.787 16.943C114.627 18.283 114.047 20.193 114.047 22.673C114.047 24.113 114.227 25.333 114.587 26.333C114.947 27.333 115.427 28.143 116.027 28.763C116.647 29.363 117.367 29.803 118.187 30.083C119.027 30.343 119.927 30.473 120.887 30.473C121.547 30.473 122.137 30.423 122.657 30.323C123.197 30.223 123.687 30.073 124.127 29.873C124.587 29.673 125.007 29.433 125.387 29.153C125.787 28.853 126.187 28.503 126.587 28.103L124.637 26.273C124.097 26.813 123.557 27.213 123.017 27.473C122.497 27.713 121.807 27.833 120.947 27.833C119.687 27.833 118.727 27.453 118.067 26.693C117.407 25.933 117.077 24.893 117.077 23.573H126.947ZM123.917 21.443H117.077C117.097 20.983 117.127 20.613 117.167 20.333C117.207 20.033 117.307 19.713 117.467 19.373C117.707 18.793 118.087 18.333 118.607 17.993C119.147 17.633 119.777 17.453 120.497 17.453C121.217 17.453 121.837 17.633 122.357 17.993C122.877 18.333 123.257 18.793 123.497 19.373C123.657 19.713 123.757 20.033 123.797 20.333C123.857 20.613 123.897 20.983 123.917 21.443ZM141.679 16.343C141.159 15.823 140.609 15.453 140.029 15.233C139.449 15.013 138.789 14.903 138.049 14.903C137.189 14.903 136.399 15.073 135.679 15.413C134.959 15.753 134.399 16.193 133.999 16.733V15.083H130.999V30.293H134.059V21.053C134.059 19.993 134.349 19.163 134.929 18.563C135.529 17.943 136.249 17.633 137.089 17.633C137.609 17.633 138.029 17.723 138.349 17.903C138.689 18.063 139.029 18.313 139.369 18.653L141.679 16.343ZM152.523 23.393V20.543H143.763V23.393H152.523ZM163.316 30.293V27.683H162.056C161.476 27.683 161.046 27.533 160.766 27.233C160.506 26.913 160.376 26.473 160.376 25.913V17.693H163.316V15.353H160.376V10.733H157.316V15.353H155.576V17.693H157.316V26.063C157.316 26.603 157.396 27.133 157.556 27.653C157.736 28.153 157.996 28.603 158.336 29.003C158.676 29.383 159.106 29.693 159.626 29.933C160.146 30.173 160.766 30.293 161.486 30.293H163.316ZM179.034 22.673C179.034 21.393 178.914 20.273 178.674 19.313C178.434 18.333 177.954 17.463 177.234 16.703C176.734 16.183 176.104 15.753 175.344 15.413C174.604 15.073 173.714 14.903 172.674 14.903C171.634 14.903 170.744 15.073 170.004 15.413C169.264 15.753 168.644 16.183 168.144 16.703C167.424 17.463 166.944 18.333 166.704 19.313C166.464 20.273 166.344 21.393 166.344 22.673C166.344 23.973 166.464 25.113 166.704 26.093C166.944 27.053 167.424 27.913 168.144 28.673C168.644 29.193 169.264 29.623 170.004 29.963C170.744 30.303 171.634 30.473 172.674 30.473C173.714 30.473 174.604 30.303 175.344 29.963C176.104 29.623 176.734 29.193 177.234 28.673C177.954 27.913 178.434 27.053 178.674 26.093C178.914 25.113 179.034 23.973 179.034 22.673ZM175.974 22.673C175.974 23.513 175.914 24.303 175.794 25.043C175.674 25.783 175.384 26.383 174.924 26.843C174.324 27.443 173.574 27.743 172.674 27.743C171.794 27.743 171.054 27.443 170.454 26.843C169.994 26.383 169.704 25.783 169.584 25.043C169.464 24.303 169.404 23.513 169.404 22.673C169.404 21.833 169.464 21.043 169.584 20.303C169.704 19.563 169.994 18.963 170.454 18.503C171.034 17.923 171.774 17.633 172.674 17.633C173.594 17.633 174.344 17.923 174.924 18.503C175.384 18.963 175.674 19.563 175.794 20.303C175.914 21.043 175.974 21.833 175.974 22.673ZM191.517 23.393V20.543H182.757V23.393H191.517ZM211.251 15.413C211.251 14.493 211.091 13.633 210.771 12.833C210.451 12.033 209.991 11.353 209.391 10.793C208.791 10.213 208.071 9.76297 207.231 9.44297C206.391 9.10297 205.451 8.93297 204.411 8.93297H196.311V30.293H199.551V21.893H204.411C205.451 21.893 206.391 21.733 207.231 21.413C208.071 21.073 208.791 20.623 209.391 20.063C209.991 19.483 210.451 18.803 210.771 18.023C211.091 17.223 211.251 16.353 211.251 15.413ZM208.011 15.413C208.011 16.553 207.661 17.433 206.961 18.053C206.281 18.653 205.371 18.953 204.231 18.953H199.551V11.843H204.231C205.371 11.843 206.281 12.153 206.961 12.773C207.661 13.393 208.011 14.273 208.011 15.413ZM226.645 23.573V22.223C226.645 21.143 226.495 20.153 226.195 19.253C225.915 18.353 225.495 17.583 224.935 16.943C224.395 16.303 223.725 15.803 222.925 15.443C222.125 15.083 221.215 14.903 220.195 14.903C218.235 14.903 216.665 15.583 215.485 16.943C214.325 18.283 213.745 20.193 213.745 22.673C213.745 24.113 213.925 25.333 214.285 26.333C214.645 27.333 215.125 28.143 215.725 28.763C216.345 29.363 217.065 29.803 217.885 30.083C218.725 30.343 219.625 30.473 220.585 30.473C221.245 30.473 221.835 30.423 222.355 30.323C222.895 30.223 223.385 30.073 223.825 29.873C224.285 29.673 224.705 29.433 225.085 29.153C225.485 28.853 225.885 28.503 226.285 28.103L224.335 26.273C223.795 26.813 223.255 27.213 222.715 27.473C222.195 27.713 221.505 27.833 220.645 27.833C219.385 27.833 218.425 27.453 217.765 26.693C217.105 25.933 216.775 24.893 216.775 23.573H226.645ZM223.615 21.443H216.775C216.795 20.983 216.825 20.613 216.865 20.333C216.905 20.033 217.005 19.713 217.165 19.373C217.405 18.793 217.785 18.333 218.305 17.993C218.845 17.633 219.475 17.453 220.195 17.453C220.915 17.453 221.535 17.633 222.055 17.993C222.575 18.333 222.955 18.793 223.195 19.373C223.355 19.713 223.455 20.033 223.495 20.333C223.555 20.613 223.595 20.983 223.615 21.443ZM242.817 23.573V22.223C242.817 21.143 242.667 20.153 242.367 19.253C242.087 18.353 241.667 17.583 241.107 16.943C240.567 16.303 239.897 15.803 239.097 15.443C238.297 15.083 237.387 14.903 236.367 14.903C234.407 14.903 232.837 15.583 231.657 16.943C230.497 18.283 229.917 20.193 229.917 22.673C229.917 24.113 230.097 25.333 230.457 26.333C230.817 27.333 231.297 28.143 231.897 28.763C232.517 29.363 233.237 29.803 234.057 30.083C234.897 30.343 235.797 30.473 236.757 30.473C237.417 30.473 238.007 30.423 238.527 30.323C239.067 30.223 239.557 30.073 239.997 29.873C240.457 29.673 240.877 29.433 241.257 29.153C241.657 28.853 242.057 28.503 242.457 28.103L240.507 26.273C239.967 26.813 239.427 27.213 238.887 27.473C238.367 27.713 237.677 27.833 236.817 27.833C235.557 27.833 234.597 27.453 233.937 26.693C233.277 25.933 232.947 24.893 232.947 23.573H242.817ZM239.787 21.443H232.947C232.967 20.983 232.997 20.613 233.037 20.333C233.077 20.033 233.177 19.713 233.337 19.373C233.577 18.793 233.957 18.333 234.477 17.993C235.017 17.633 235.647 17.453 236.367 17.453C237.087 17.453 237.707 17.633 238.227 17.993C238.747 18.333 239.127 18.793 239.367 19.373C239.527 19.713 239.627 20.033 239.667 20.333C239.727 20.613 239.767 20.983 239.787 21.443ZM257.548 16.343C257.028 15.823 256.478 15.453 255.898 15.233C255.318 15.013 254.658 14.903 253.918 14.903C253.058 14.903 252.268 15.073 251.548 15.413C250.828 15.753 250.268 16.193 249.868 16.733V15.083H246.868V30.293H249.928V21.053C249.928 19.993 250.218 19.163 250.798 18.563C251.398 17.943 252.118 17.633 252.958 17.633C253.478 17.633 253.898 17.723 254.218 17.903C254.558 18.063 254.898 18.313 255.238 18.653L257.548 16.343Z" fill="white"/>
<path d="M34.8099 92.8516V71.4916H29.8899L25.3299 75.4516V80.7016L29.8899 76.7416V92.8516H34.8099Z" fill="#4FB6F6"/>
<path d="M113.722 148.866C119.171 151.424 127.437 154.097 129.216 158.127C130.884 162.195 130.217 164.598 130.217 164.598H71.1676C71.1676 164.598 70.4633 162.195 72.1684 158.127C73.8735 154.058 82.1027 151.346 87.5888 148.827C93.0749 146.309 92.5188 144.759 92.7042 142.667C92.7042 142.395 92.7413 142.124 92.7413 141.853C90.8137 140.109 89.2198 137.668 88.2189 134.878L88.1819 134.84C88.1819 134.801 88.1448 134.762 88.1448 134.723C87.8853 134.142 87.7 133.483 87.5517 132.825C86.2914 132.592 85.55 131.159 85.2535 129.802C84.9569 129.26 84.3638 127.942 84.5121 126.431C84.6975 124.455 85.4759 123.564 86.3285 123.215C86.3285 123.099 86.3285 123.022 86.3285 122.905C86.3285 120.425 86.5138 116.899 86.9586 114.575C87.0328 113.916 87.181 113.257 87.3664 112.637C88.1819 109.77 89.887 107.213 92.1482 105.43C94.4464 103.57 97.7455 102.602 100.674 102.602C103.602 102.602 106.901 103.57 109.237 105.43C111.535 107.213 113.203 109.809 114.018 112.637C114.204 113.296 114.352 113.916 114.426 114.575C114.834 116.899 115.056 120.464 115.056 122.905C115.056 123.022 115.056 123.138 115.056 123.254C115.872 123.603 116.613 124.494 116.799 126.431C116.91 127.942 116.354 129.26 116.057 129.802C115.798 131.12 115.056 132.553 113.796 132.825C113.648 133.445 113.462 134.103 113.24 134.685C113.203 134.723 113.166 134.878 113.166 134.878C112.165 137.629 110.645 140.032 108.755 141.775C108.755 142.085 108.755 142.395 108.792 142.667C108.977 144.798 108.236 146.348 113.722 148.866Z" fill="#4FB6F6"/>
<path d="M250.55 148.866C255.999 151.424 264.265 154.097 266.044 158.127C267.713 162.195 267.045 164.598 267.045 164.598H207.996C207.996 164.598 207.291 162.195 208.997 158.127C210.702 154.058 218.931 151.346 224.417 148.827C229.903 146.309 229.347 144.759 229.532 142.667C229.532 142.395 229.569 142.124 229.569 141.853C227.642 140.109 226.048 137.668 225.047 134.878L225.01 134.84C225.01 134.801 224.973 134.762 224.973 134.723C224.713 134.142 224.528 133.483 224.38 132.825C223.12 132.592 222.378 131.159 222.082 129.802C221.785 129.26 221.192 127.942 221.34 126.431C221.526 124.455 222.304 123.564 223.157 123.215C223.157 123.099 223.157 123.022 223.157 122.905C223.157 120.425 223.342 116.899 223.787 114.575C223.861 113.916 224.009 113.257 224.194 112.637C225.01 109.77 226.715 107.213 228.976 105.43C231.275 103.57 234.574 102.602 237.502 102.602C240.43 102.602 243.729 103.57 246.065 105.43C248.363 107.213 250.031 109.809 250.847 112.637C251.032 113.296 251.18 113.916 251.254 114.575C251.662 116.899 251.884 120.464 251.884 122.905C251.884 123.022 251.884 123.138 251.884 123.254C252.7 123.603 253.441 124.494 253.627 126.431C253.738 127.942 253.182 129.26 252.885 129.802C252.626 131.12 251.884 132.553 250.624 132.825C250.476 133.445 250.29 134.103 250.068 134.685C250.031 134.723 249.994 134.878 249.994 134.878C248.993 137.629 247.473 140.032 245.583 141.775C245.583 142.085 245.583 142.395 245.62 142.667C245.805 144.798 245.064 146.348 250.55 148.866Z" fill="#4FB6F6"/>
<path d="M192.607 127.433C193.501 127.456 194.244 126.75 194.267 125.856C194.29 124.962 193.584 124.219 192.69 124.196L192.607 127.433ZM142.556 124.196C141.663 124.237 140.973 124.995 141.015 125.889C141.057 126.782 141.815 127.472 142.708 127.43L142.556 124.196ZM192.69 145.346C193.584 145.323 194.29 144.58 194.267 143.686C194.244 142.792 193.501 142.086 192.607 142.109L192.69 145.346ZM142.708 142.112C141.815 142.07 141.057 142.76 141.015 143.653C140.973 144.547 141.663 145.305 142.556 145.346L142.708 142.112ZM192.69 124.196C163.405 123.448 171.857 122.823 142.556 124.196L142.708 127.43C171.859 126.065 163.25 126.683 192.607 127.433L192.69 124.196ZM192.607 142.109C163.25 142.859 171.859 143.477 142.708 142.112L142.556 145.346C171.857 146.719 163.405 146.094 192.69 145.346L192.607 142.109Z" fill="#4FB6F6"/>
<path d="M139.765 127.122C139.07 126.484 139.065 125.39 139.754 124.746L144.025 120.753C145.065 119.78 146.764 120.527 146.75 121.951L146.675 129.794C146.662 131.196 144.995 131.92 143.962 130.972L139.765 127.122Z" fill="#4FB6F6"/>
<path d="M194.282 144.86C194.977 144.223 194.982 143.128 194.293 142.484L190.022 138.491C188.982 137.519 187.283 138.265 187.297 139.689L187.372 147.532C187.385 148.934 189.052 149.658 190.085 148.71L194.282 144.86Z" fill="#4FB6F6"/>
<defs>
<linearGradient id="paint0_linear" x1="525.178" y1="114.17" x2="239.374" y2="-46.5474" gradientUnits="userSpaceOnUse">
<stop stop-color="white"/>
<stop offset="1" stop-color="#A7D3FA"/>
</linearGradient>
<linearGradient id="paint1_linear" x1="141.022" y1="116.479" x2="-144.783" y2="-44.2388" gradientUnits="userSpaceOnUse">
<stop stop-color="white"/>
<stop offset="1" stop-color="#A7D3FA"/>
</linearGradient>
</defs>
</svg>
