<svg width="30" height="30" viewBox="0 0 30 30" fill="none" xmlns="http://www.w3.org/2000/svg">
<circle cx="14.898" cy="15.2027" r="14.2339" fill="#FCFCFC"/>
<path d="M18.9957 7.19543C19.6746 7.06797 20.396 6.91219 21.0891 7.03965C21.4568 7.29456 21.4851 7.8044 21.6266 8.20094C22.0792 10.2686 22.0792 12.6195 20.8769 14.4323C20.0989 15.4661 19.2644 16.4291 18.4299 17.4205C19.519 19.3465 18.8401 21.7399 17.6095 23.4111C17.4539 22.8871 17.4398 22.3347 17.2417 21.8249C17.0013 21.1876 16.6194 20.5928 16.1526 20.0971C15.9263 20.2954 15.7141 20.5645 15.4029 20.5928C15.0635 20.6353 14.7664 20.437 14.4835 20.2529C13.352 19.4457 12.2204 18.6526 11.0889 17.8453C10.8342 17.6612 10.5796 17.4346 10.5089 17.1231C10.3958 16.8257 10.5655 16.5424 10.6645 16.2592C9.53295 15.7777 8.27408 15.7635 7.08594 16.0609C8.20336 14.3048 10.2402 12.8744 12.4043 13.186C13.0408 12.0814 13.6632 10.9626 14.3562 9.90039C15.4171 8.37089 17.2276 7.57781 18.9957 7.19543ZM18.1894 7.94602C16.8174 8.37089 15.4595 9.10732 14.6816 10.3536C13.451 12.3646 12.3053 14.4323 11.1596 16.4858C11.0606 16.6699 10.9191 16.8965 11.0323 17.1089C11.1879 17.3213 11.4142 17.4771 11.6263 17.6329C12.6872 18.3693 13.7197 19.1199 14.7806 19.8705C15.0069 20.0405 15.3605 20.2246 15.5727 19.9272C17.1427 18.1427 18.6986 16.3158 20.198 14.4606C20.7637 13.7667 21.1032 12.9169 21.2447 12.053C21.4993 10.5519 21.3437 8.97986 20.8628 7.53532C19.9575 7.507 19.0664 7.6911 18.1894 7.94602Z" fill="#64AEE3"/>
<path d="M18.2251 7.83562C19.1042 7.56148 20.0264 7.38834 20.9487 7.41719C21.4243 8.88891 21.5972 10.4761 21.3378 12.0199C21.1793 12.9145 20.8479 13.7802 20.2714 14.4728C18.7439 16.3629 17.1731 18.2098 15.5591 20.0422C15.3429 20.3452 14.9827 20.1432 14.7521 19.9845C13.6713 19.2342 12.6193 18.4551 11.5385 17.7048C11.3224 17.5461 11.0918 17.4018 10.9333 17.1709C10.818 16.9545 10.9621 16.7236 11.063 16.5361C12.2302 14.4439 13.3975 12.3373 14.6512 10.2885C15.4582 9.01877 16.8417 8.26848 18.2251 7.83562ZM16.712 9.9422C15.7897 10.2452 15.1556 11.2119 15.2565 12.1786C15.3141 13.3041 16.3949 14.2708 17.519 14.1698C18.7871 14.1698 19.8247 12.8279 19.5509 11.6015C19.3491 10.3462 17.9081 9.48048 16.712 9.9422Z" fill="#64AEE3"/>
<path d="M10.8521 18.1914C11.9837 18.9986 13.1153 19.7917 14.2468 20.599C13.6528 21.5903 12.8182 22.4684 11.7432 22.9357C11.1633 23.1906 10.3571 23.2614 9.90444 22.7374C9.42353 22.1993 9.48011 21.4204 9.57912 20.7547C9.77714 19.82 10.2298 18.9278 10.8521 18.1914Z" fill="#64AEE3"/>
</svg>
