<svg width="108" height="120" viewBox="0 0 108 120" fill="none" xmlns="http://www.w3.org/2000/svg">
<path d="M86.4391 2.29486C91.3257 1.37748 96.5178 0.256227 101.506 1.17361C104.153 3.00839 104.357 6.67793 105.375 9.53203C108.633 24.4141 108.633 41.3348 99.9792 54.382C94.3799 61.8231 88.3734 68.7544 82.3668 75.8897C90.2059 89.7524 85.3192 106.979 76.4621 119.007C75.3422 115.235 75.2404 111.26 73.8152 107.59C72.0845 103.004 69.3357 98.7224 65.9761 95.1548C64.3472 96.5818 62.8202 98.5185 60.5804 98.7224C58.1371 99.0282 55.9992 97.6011 53.9631 96.276C45.8186 90.4659 37.6742 84.7577 29.5297 78.9476C27.6972 77.6225 25.8647 75.9916 25.3557 73.7491C24.5413 71.6085 25.7629 69.5699 26.4756 67.5313C18.3311 64.0656 9.27042 63.9636 0.718749 66.1042C8.76139 53.4647 23.4214 43.1695 38.9976 45.412C43.5789 37.4614 48.0583 29.4087 53.0468 21.7638C60.6822 10.7552 73.7134 5.04702 86.4391 2.29486ZM80.6361 7.69725C70.761 10.7552 60.9877 16.0557 55.3884 25.0257C46.5313 39.5 38.285 54.382 30.0388 69.1622C29.3261 70.4873 28.3081 72.1182 29.1225 73.6472C30.2424 75.1761 31.8713 76.2974 33.3983 77.4186C41.0338 82.7191 48.4656 88.1215 56.101 93.5239C57.7299 94.7471 60.275 96.0722 61.8021 93.9316C73.1025 81.0882 84.3011 67.939 95.0925 54.5859C99.1647 49.5912 101.608 43.4753 102.626 37.2575C104.459 26.4527 103.339 15.1383 99.8774 4.74123C93.3618 4.53736 86.9481 5.86248 80.6361 7.69725Z" fill="#C2F0FD"/>
<path d="M80.8993 6.90917C87.2262 4.93603 93.8644 3.68983 100.503 3.89753C103.925 14.4902 105.17 25.9137 103.303 37.0257C102.162 43.4644 99.7765 49.6954 95.6277 54.6802C84.6332 68.2845 73.3276 81.5773 61.7108 94.7662C60.155 96.9471 57.562 95.4932 55.9024 94.3508C48.1233 88.9506 40.5517 83.3427 32.7726 77.9425C31.2167 76.8002 29.5572 75.7617 28.4163 74.1001C27.5865 72.5423 28.6237 70.8807 29.3498 69.5307C37.7512 54.4725 46.1526 39.3104 55.1764 24.5637C60.9848 15.4249 70.942 10.0247 80.8993 6.90917ZM70.0085 22.0713C63.3703 24.2521 58.8066 31.2101 59.5327 38.168C59.9475 46.2683 67.7266 53.2263 75.8169 52.4993C84.9444 52.4993 92.4123 42.8413 90.4416 34.014C88.9895 24.9791 78.6174 18.7481 70.0085 22.0713Z" fill="#C2F0FD"/>
<path d="M27.8546 81.4102C35.9991 87.2203 44.1435 92.9285 52.288 98.7386C48.0122 105.874 42.0056 112.194 34.2684 115.557C30.0944 117.392 24.2914 117.902 21.0337 114.13C17.5723 110.257 17.9795 104.651 18.6921 99.8598C20.1174 93.1323 23.3752 86.7106 27.8546 81.4102Z" fill="#C2F0FD"/>
</svg>
