<svg width="46" height="45" viewBox="0 0 46 45" fill="none" xmlns="http://www.w3.org/2000/svg">
<circle cx="23.0035" cy="22.8082" r="22.1012" fill="#FCFCFC"/>
<path fill-rule="evenodd" clip-rule="evenodd" d="M27.0011 37.5297C28.8688 36.7558 30.0705 34.4276 29.8452 32.6448C29.4631 29.7158 27.9807 29.8334 27.9807 27.6815C27.9807 25.5232 30.2958 22.1403 30.8443 21.6211C31.3896 21.1052 31.3178 21.1673 30.6647 20.8081C30.0084 20.4587 29.0647 20.9158 29.0647 20.9158L28.3529 21.2097C28.3529 21.2097 28.2582 20.7069 28.1211 19.8383C27.9905 18.9665 26.8803 17.4579 26.8803 17.4579C26.8803 17.4579 28.7088 17.6407 28.9537 17.0399C29.1986 16.4391 28.7905 16.1387 28.7905 16.1387V15.5118L28.5194 15.6489L28.0558 15.675L27.948 15.3746C27.948 15.3746 27.6476 15.6228 27.3211 15.6228C26.9946 15.6228 25.8517 15.4954 25.6427 15.0808C25.1627 14.124 25.4174 13.8987 26.2631 13.5363C27.5464 12.9844 28.5978 14.0848 28.5978 14.0848L28.7056 14.4408C28.7056 14.4408 28.895 14.2252 29.1986 14.1991C29.499 14.1697 29.6721 14.2546 29.6721 14.2546C29.6721 14.2546 29.8876 14.2285 30.1064 13.6832C30.3252 13.1412 30.2141 12.893 30.2141 12.6187C30.2141 12.3444 30.2141 12.2661 30.3219 11.9134C30.4296 11.5575 30.1847 11.1461 29.7211 10.9044C29.2574 10.6563 27.8664 10.5485 27.8664 10.5485C27.8664 10.5485 27.948 10.3591 27.8141 10.1142C27.677 9.85955 27.4354 9.67669 26.7235 9.37302C26.015 9.07261 25.9856 8.24975 24.4346 7.65547C22.8705 7.05466 19.7913 8.30526 19.7913 8.30526C19.7913 8.30526 19.4648 8.11914 19.0795 8.16812C18.6942 8.23016 17.9889 8.03424 17.9072 8.09302C17.8256 8.142 18.1815 9.07261 18.1815 9.07261C18.1815 9.07261 17.6885 9.37302 17.2803 9.94444C16.8689 10.5159 16.3562 11.8285 16.3007 13.2195C16.2452 14.6106 15.8076 15.7305 15.7032 15.9754C15.5954 16.2203 16.9603 15.7828 16.9603 15.7828C16.9603 15.7828 16.846 16.1975 16.575 17.3436C16.3007 18.4865 15.6183 20.5893 15.455 21.053C15.2885 21.5167 16.784 20.8603 16.784 20.8603C16.784 20.8603 16.6501 21.5656 16.2583 22.9273C15.886 24.2007 14.9391 25.3697 14.8085 25.7779C14.6713 26.1893 16.415 26.3721 16.415 26.3721C16.415 26.3721 14.2403 29.2489 15.3374 32.586C16.6272 36.5142 19.0207 37.5297 19.0207 37.5297C21.6018 38.3405 23.3453 38.2987 27.0011 37.5297ZM30.0215 12.155C30.1064 11.9363 30.1619 11.5836 29.9725 11.3877C29.9507 11.367 29.93 11.3465 29.9101 11.3268C29.7541 11.1722 29.6474 11.0664 29.4533 11.3126C29.4533 11.3126 29.9431 12.3738 30.0215 12.155ZM26.2272 10.5746C25.6558 10.4408 25.2999 10.6824 25.2999 10.6824L25.0256 10.7934C25.0256 10.7934 25.5186 11.0612 25.9529 11.0351C26.3905 11.0089 26.6615 10.9306 26.6615 10.9306C26.6615 10.9306 26.8019 10.7118 26.2272 10.5746ZM21.6623 17.4612C20.1538 13.4448 21.5448 9.45465 21.5448 9.45465C21.5448 9.45465 18.5015 14.0522 19.8338 18.0456C21.5186 23.1069 25.5709 24.1681 25.5709 24.1681C25.5709 24.1681 22.9064 20.7624 21.6623 17.4612ZM25.2737 33.546C25.3292 33.4644 25.4109 33.7876 25.4109 33.7876C25.4109 33.7876 27.1937 32.9419 26.7562 31.5313C26.3546 30.2481 24.3823 30.3003 24.3823 30.3003C22.9619 31.0709 23.9415 34.4342 24.895 33.7876C24.9582 33.7459 25.021 33.7125 25.0774 33.6824C25.1665 33.635 25.2397 33.596 25.2737 33.546ZM24.9341 19.7991C26.3382 21.6505 26.6125 23.7305 26.6125 23.7305C26.6125 23.7305 27.935 19.564 24.5423 16.1746C23.2015 14.8339 22.9975 13.4781 22.8364 12.4081C22.8292 12.3602 22.8221 12.3128 22.815 12.2661C22.6582 11.1722 22.7105 10.4081 22.7105 10.4081C22.7105 10.4081 20.8035 14.3428 24.9341 19.7991Z" fill="#64AEE3"/>
<path fill-rule="evenodd" clip-rule="evenodd" d="M30.0215 12.155C30.1064 11.9363 30.1619 11.5836 29.9725 11.3877C29.9507 11.367 29.93 11.3465 29.9101 11.3268C29.7541 11.1722 29.6474 11.0664 29.4533 11.3126C29.4533 11.3126 29.9431 12.3738 30.0215 12.155ZM26.2272 10.5746C25.6558 10.4408 25.2999 10.6824 25.2999 10.6824L25.0256 10.7934C25.0256 10.7934 25.5186 11.0612 25.9529 11.0351C26.3905 11.0089 26.6615 10.9306 26.6615 10.9306C26.6615 10.9306 26.8019 10.7118 26.2272 10.5746Z" fill="#64AEE3"/>
</svg>
