<svg width="72" height="22" viewBox="0 0 72 22" fill="none" xmlns="http://www.w3.org/2000/svg">
<path d="M1.60429 20.7459H0.128906V5.07418C0.128906 4.66672 0.210326 4.26325 0.368513 3.88682C0.526701 3.5104 0.758555 3.1684 1.05083 2.88037C1.3431 2.59234 1.69006 2.36393 2.07189 2.20818C2.45372 2.05243 2.86292 1.9724 3.27613 1.97266H8.48809C12.9684 2.00033 15.3358 4.94965 15.3358 8.19548C15.3358 10.7653 14.133 13.3726 10.5248 14.0961L15.4841 20.7479H11.2143L6.46946 14.4717L6.40331 11.6845C6.40331 11.5796 6.44555 11.479 6.52073 11.4049C6.59592 11.3308 6.6979 11.2891 6.80423 11.2891H8.48809C10.7733 11.2891 11.7516 9.78677 11.7516 8.28443C11.7516 6.7821 10.7493 5.27977 8.48809 5.27977H4.32053C4.16103 5.27977 4.00807 5.34225 3.89529 5.45346C3.78251 5.56467 3.71915 5.71551 3.71915 5.87279L3.8294 18.5359C3.83178 18.8254 3.77597 19.1126 3.66519 19.3807C3.55441 19.6489 3.39086 19.8928 3.18397 20.0982C2.97709 20.3037 2.73098 20.4667 2.45984 20.5779C2.18871 20.6891 1.89793 20.7462 1.60429 20.7459Z" fill="#818CA1"/>
<path d="M25.0042 10.091C24.2806 9.1303 22.9194 8.52344 21.5202 8.52344C19.8484 8.52344 18.3389 9.03937 17.2444 10.0633C16.1499 11.0873 15.4844 12.6153 15.4844 14.6099C15.4844 16.6637 16.1178 18.2214 17.1903 19.2631C18.2628 20.3049 19.7582 20.8228 21.4601 20.8228C22.1839 20.7788 22.8917 20.594 23.5429 20.2792C24.1242 20.0117 24.6275 19.6037 25.0062 19.0931L25.1265 20.8228H27.9931V8.83181H25.0543L25.0042 10.091ZM24.8659 14.6375C24.8771 15.4754 24.5938 16.2912 24.0641 16.9464C23.775 17.2856 23.4115 17.5556 23.0009 17.7357C22.5904 17.9159 22.1437 18.0015 21.6946 17.9862C21.2725 17.9969 20.8524 17.9248 20.4587 17.7741C20.0651 17.6235 19.7057 17.3972 19.4014 17.1085C18.826 16.5431 18.4712 15.7248 18.4712 14.6692C18.4574 14.2191 18.5355 13.7709 18.7008 13.3512C18.8661 12.9315 19.1152 12.5488 19.4334 12.2259C20.0439 11.6423 20.8566 11.3095 21.7067 11.2948C22.1554 11.2798 22.6017 11.3656 23.0119 11.5457C23.422 11.7259 23.7853 11.9956 24.0741 12.3346C24.6009 12.9909 24.8814 13.8066 24.8679 14.6435L24.8659 14.6375Z" fill="#818CA1"/>
<path d="M35.6561 17.5813C35.2469 17.806 34.7874 17.9269 34.319 17.9332C34.1331 17.9432 33.9471 17.915 33.7729 17.8503C33.5986 17.7856 33.4398 17.686 33.3067 17.5576C33.031 17.2352 32.893 16.8199 32.9218 16.3992V11.4217H36.2114V8.65427H32.982L32.9459 4.89844L29.8047 5.29379V16.3992C29.8047 17.8976 30.2216 19.0401 30.9834 19.7933C31.7451 20.5464 32.8336 20.8904 34.1386 20.8291C35.0126 20.8291 35.6982 20.6314 36.5562 20.329L36.6704 20.2875L35.7944 17.5022L35.6561 17.5813Z" fill="#818CA1"/>
<path d="M48.3653 9.99515C47.2849 8.73794 45.6451 8.11328 43.6686 8.11328C41.7482 8.11328 40.1605 8.78538 39.058 9.92003C37.9555 11.0547 37.332 12.6381 37.332 14.4488C37.332 16.382 37.9494 18.0069 39.0901 19.1337C40.2307 20.2604 41.8785 20.9128 43.9171 20.9128C45.7674 20.9128 47.8181 20.2921 49.067 18.9676L49.1491 18.8807L47.1445 16.8545L47.0543 16.9553C46.6856 17.3142 46.2334 17.5789 45.7373 17.7262C45.1916 17.913 44.619 18.0117 44.0414 18.0188C43.0572 18.0188 42.2633 17.7638 41.696 17.3368C41.4273 17.1395 41.2007 16.8918 41.0294 16.6078C40.8581 16.3239 40.7454 16.0093 40.6978 15.6823H49.6944L49.7064 15.5696C49.951 13.1125 49.4458 11.2524 48.3653 9.99515ZM40.7318 13.0334C40.9189 12.4279 41.3109 11.9039 41.8424 11.5489C42.4418 11.1775 43.1394 10.9897 43.847 11.0092C44.5556 10.9783 45.2564 11.1663 45.8516 11.5469C46.0963 11.7214 46.3025 11.9432 46.4575 12.1987C46.6126 12.4543 46.7134 12.7383 46.7537 13.0334H40.7399H40.7318Z" fill="#818CA1"/>
<path d="M71.1199 4.69141L62.467 9.00123V13.3111L66.7934 15.466L58.1406 19.7758L62.467 21.9307L71.1199 17.6209V13.3111L66.7934 11.1561L71.1199 9.00123V4.69141Z" fill="url(#paint0_linear)"/>
<path d="M71.1199 4.69141L62.467 9.00123V13.3111L66.7934 15.466L58.1406 19.7758L62.467 21.9307L71.1199 17.6209V13.3111L66.7934 11.1561L71.1199 9.00123V4.69141Z" fill="#818CA1"/>
<path d="M53.5859 4.46998L57.9123 6.62489L62.2388 4.46998L66.5652 6.62489L70.8916 4.46998L62.2388 0.160156L53.5859 4.46998Z" fill="url(#paint1_linear)"/>
<path d="M53.5859 4.46998L57.9123 6.62489L62.2388 4.46998L66.5652 6.62489L70.8916 4.46998L62.2388 0.160156L53.5859 4.46998Z" fill="#818CA1"/>
<path d="M57.9123 15.2461L53.5859 17.401L57.9123 19.5559L62.2388 17.401L57.9123 15.2461Z" fill="url(#paint2_linear)"/>
<path d="M57.9123 15.2461L53.5859 17.401L57.9123 19.5559L62.2388 17.401L57.9123 15.2461Z" fill="#818CA1"/>
<defs>
<linearGradient id="paint0_linear" x1="64.6302" y1="4.69141" x2="64.6302" y2="21.9307" gradientUnits="userSpaceOnUse">
<stop stop-color="#54F2F2"/>
<stop offset="0.777" stop-color="#56D3F8"/>
<stop offset="0.9649" stop-color="#56CBF9"/>
</linearGradient>
<linearGradient id="paint1_linear" x1="62.2388" y1="0.160156" x2="62.2388" y2="6.62489" gradientUnits="userSpaceOnUse">
<stop stop-color="#54F2F2"/>
<stop offset="0.5" stop-color="#56CBF9"/>
<stop offset="1" stop-color="#4392F1"/>
</linearGradient>
<linearGradient id="paint2_linear" x1="57.9123" y1="15.2461" x2="57.9123" y2="19.5559" gradientUnits="userSpaceOnUse">
<stop stop-color="#54F2F2"/>
<stop offset="0.5" stop-color="#56CBF9"/>
<stop offset="1" stop-color="#4392F1"/>
</linearGradient>
</defs>
</svg>
